<svg width="330" height="177" viewBox="0 0 330 177" fill="none" xmlns="http://www.w3.org/2000/svg">
<path fill-rule="evenodd" clip-rule="evenodd" d="M103.554 172.212C101.469 172.212 100.14 172.977 98.7627 173.704C100.35 173.58 102.196 172.576 103.554 172.212Z" fill="#FBD383"/>
<path fill-rule="evenodd" clip-rule="evenodd" d="M85.0402 165.05C84.1317 166.025 83.2329 167.211 82.1714 167.612C81.1195 168.014 79.9051 168.052 78.8436 168.377C77.7822 168.703 76.7781 169.076 75.7549 169.487C71.6908 171.141 67.8944 172.642 63.6677 174.201C61.9847 174.823 58.6282 175.98 57.4902 176.773C59.3263 176.267 61.3057 175.54 63.2278 174.88C65.1117 174.23 67.0529 173.733 68.8793 173.063C71.6142 172.059 74.2535 170.95 77.1032 170.204C79.14 169.678 81.3873 168.999 83.2615 168.483C85.7478 167.794 88.2915 167.345 90.8638 166.8C94.1534 166.111 96.8596 164.352 99.0303 162.755C98.0358 163.998 97.2421 165.48 95.8842 166.417C94.0673 167.66 91.3898 168.444 88.9322 169.305C81.5403 171.896 72.6853 172.853 66.2592 176.056C70.5145 174.976 74.856 173.522 79.3409 172.556C82.7834 171.81 86.2451 171.122 89.3434 170.08C90.3761 169.735 91.3993 169.2 92.4321 168.97C96.1807 168.129 100.57 168.789 103.439 166.78C101.536 168.559 98.6287 168.196 96.085 168.808C93.6274 169.401 91.1029 170.204 88.7314 170.835C83.7684 172.145 78.7671 173.427 74.2727 175.148C78.442 173.943 82.8217 173.044 87.2587 171.983C91.6097 170.94 96.0085 169.295 100.493 169.076C102.903 168.961 105.485 168.76 107.484 168.062C102.951 170.147 96.7066 170.443 91.6767 172.002C94.7558 171.552 98.1123 170.921 100.972 170.529C96.1233 172.26 90.6439 173.321 85.4131 174.651C92.1452 174.23 98.5139 172.126 104.548 170.022C107.57 168.97 111.137 168.54 114.369 167.89C115.985 167.565 117.639 167.249 119.15 166.733C120.661 166.216 122.048 165.394 123.52 165.059C125.175 164.677 126.867 164.438 128.474 163.902C130.032 163.386 131.362 162.755 132.681 162.133C131.352 164.552 128.091 165.556 125.098 166.446C118.462 168.416 110.515 169.994 104.653 172.231C110.41 170.615 116.09 169.601 121.656 168.234C124.477 167.536 127.269 166.79 129.698 165.709C130.922 165.174 132.05 164.505 133.226 163.931C134.403 163.357 135.483 162.602 136.669 162.057C139.299 160.871 141.928 159.895 143.984 158.165C143.124 159.073 142.789 160.613 141.699 161.416C140.915 161.999 139.624 162.382 138.524 162.869C130.864 166.216 121.522 168.158 113.862 170.931C118.213 169.994 122.277 168.741 126.513 167.67C126.274 167.976 125.624 167.832 125.395 168.148C130.95 166.627 137.214 165.901 143.066 164.591C145.237 164.103 147.446 163.29 149.387 163.137C151.558 162.391 153.882 162.114 156.052 161.435C158.213 160.766 160.193 159.943 161.972 158.949C161.025 161.263 159.132 161.827 156.53 162.468C153.136 163.309 149.961 164.811 146.595 165.709C144.185 166.35 141.517 166.503 139.002 166.886C136.468 167.268 134.001 167.632 131.744 168.406C135.263 168.091 138.61 167.144 142.053 167.048C134.135 168.779 126.513 170.816 118.481 172.413C123.463 172.059 128.053 170.672 132.815 169.707C136.334 168.989 139.92 168.234 143.315 167.421C144.472 167.144 145.6 166.656 146.738 166.484C149.827 166.025 152.897 165.862 155.852 165.518C158.892 165.164 161.78 164.782 164.716 164.208C167.556 163.653 170.282 163.099 172.997 162.372C175.751 161.636 178.467 160.938 181.279 160.45C180.619 161.005 179.615 161.205 179.203 162.009C185.151 162.334 191.31 161.378 195.077 158.834C196.072 160.192 198.597 160.364 200.825 160.163C202.957 159.981 204.621 158.413 205.902 157.572C207.872 157.591 209.259 158.126 210.798 158.537C221.662 161.483 231.549 165.633 241.016 169.726C243.656 170.864 246.285 172.04 248.657 173.398C249.441 173.838 250.206 174.555 251.172 174.478C251.201 173.35 250.359 172.451 249.709 171.724C249.03 170.959 248.188 170.194 247.376 169.716C244.468 167.995 241.141 166.58 237.803 165.145C234.523 163.74 231.119 162.286 227.715 160.986C224.31 159.695 220.849 158.231 217.272 157.247C213.591 156.233 209.756 155.592 206.314 153.919C203.493 148.21 197.105 145.886 191.3 143.017C191.09 143.266 191.578 143.371 191.625 143.62C191.31 143.486 191.071 143.266 190.698 143.17C191.262 144.127 192.629 144.758 192.926 145.685C190.879 143.715 187.657 142.922 185.046 141.497C184.166 141.009 183.535 140.139 182.531 140.072C182.675 140.789 183.679 141.411 184.004 142.233C181.384 139.537 176.392 138.705 172.749 137.203C171.572 137.069 170.473 136.486 169.383 135.931C168.474 135.472 167.623 135.071 166.609 134.755C160.623 132.91 154.274 130.882 147.532 130.127C156.53 132.584 165.854 134.736 173.227 138.743C173.743 139.804 174.633 140.502 175.197 141.506C173.083 139.938 171.238 138.293 168.493 137.605C167.537 137.366 166.476 137.394 165.366 137.108C164.707 136.935 164.028 136.515 163.349 136.295C161.101 135.578 158.988 134.937 156.77 134.268C147.819 131.561 137.004 131.341 126.198 130.462C131.897 131.666 138.142 131.848 144.07 132.68C149.99 133.522 155.526 134.717 160.289 136.476C161.819 137.834 163.951 139.068 164.86 140.751C163.176 139.537 161.541 138.293 159.246 137.643C156.464 136.849 152.457 136.62 149.588 136.639C150.143 137.767 152.218 137.892 152.677 138.838C150.812 137.672 148.622 137.691 146.26 137.232C144.902 136.974 143.573 136.419 142.206 136.113C140.771 135.788 139.356 135.3 137.893 135.157C134.823 134.851 131.495 135.052 128.464 135.176C126.905 135.243 125.366 135.195 123.874 135.319C116.626 135.941 109.492 137.366 103.487 138.896C108.45 138.351 113.891 137.069 119.686 136.582C123.931 136.228 128.416 136.132 133.035 136.142C134.622 136.142 136.248 135.989 137.702 136.17C139.605 136.41 140.475 137.949 141.374 138.982C138.142 137.117 132.901 137.203 128.837 137.481C115.765 138.37 104.969 142.032 92.8433 143.648C99.0686 143.467 104.902 142.252 111.089 140.952C115.354 140.053 120.307 139.527 124.897 138.915C126.169 138.743 128.541 138.207 129.755 138.437C130.549 138.59 131.342 139.498 131.754 139.929C128.474 138.418 123.759 139.517 120.537 139.996C120.011 140.072 119.007 139.996 118.988 140.722C120.298 141.631 122.373 142.252 123.348 143.209C121.005 142.491 118.634 141.162 115.746 141.325C113.097 141.478 110.773 142.683 108.478 143.103C108.144 143.132 108.277 143.648 107.952 143.687C106.891 143.648 105.868 143.888 105.055 143.954C100.187 144.366 95.3009 145.178 90.73 145.982C86.0921 146.795 81.7985 148.038 78.2316 149.922C83.5389 148.152 89.2669 146.355 95.5687 145.934C93.1111 146.804 90.9595 148.296 88.6836 149.501C81.7602 153.163 75.0568 156.912 67.8657 160.201C73.0391 158.719 77.5622 156.223 82.0375 153.928C86.5798 151.595 91.0647 149.319 95.626 146.957C98.2271 147.273 100.369 148.019 102.109 149.157C96.8214 147.837 91.6097 149.396 88.6262 151.882C87.909 152.484 87.3257 153.364 86.532 153.957C82.8695 156.682 78.4993 158.327 74.1483 160.192C69.8165 162.047 65.322 163.797 60.8563 165.556C65.4177 164.533 69.5105 162.621 73.9667 160.871C77.1319 159.618 80.4693 158.471 83.3285 156.854C84.3039 156.3 85.4609 155.286 86.2546 155.229C87.4978 155.143 88.9513 156.128 90.1371 156.089C85.9965 157.18 82.181 158.901 78.4707 160.555C74.7699 162.21 71.0692 163.864 67.8848 166.159C74.6074 163.032 81.3681 159.456 88.9131 157.16C90.7395 156.606 92.3365 155.755 94.622 156.281C83.3476 159.637 74.0718 165.164 63.6964 169.535C74.2727 166.159 82.8503 160.68 93.3884 157.266C89.9458 159.188 87.7082 162.181 85.0402 165.04V165.05ZM144.539 163.367C140.905 164.409 137.491 164.964 133.867 165.652C133.485 165.729 133.006 165.882 134.039 165.49C135.569 164.906 137.377 164.629 139.442 163.5C139.796 163.367 139.796 163.653 140.207 163.52C144.252 162.018 149.119 161.387 152.38 159.063C151.453 161.904 147.981 162.382 144.548 163.376L144.539 163.367ZM166.887 162.812C162.182 163.606 156.502 164.734 151.453 165.155C155.44 163.281 160.48 162.822 165.032 162.009C165.892 161.856 166.801 161.368 167.69 161.052C170.243 160.134 172.557 158.738 174.413 157.141C174.996 157.027 175.579 156.912 176.038 156.673C174.499 157.686 173.59 160.794 171.754 161.664C170.492 162.257 168.57 162.535 166.887 162.822V162.812Z" fill="#FBD383"/>
<path fill-rule="evenodd" clip-rule="evenodd" d="M85.2793 165.652C88.1194 162.831 90.4431 159.465 94.3925 157.811C94.9471 157.974 95.3201 158.308 95.8173 158.528C95.8365 158.853 95.8651 158.92 96.1425 159.131C95.6165 161.54 93.3884 162.497 91.2751 163.596C89.3243 164.61 87.7656 165.518 85.2793 165.652Z" fill="#FFF0BA"/>
<path fill-rule="evenodd" clip-rule="evenodd" d="M94.336 153.22C94.4411 152.8 95.0723 152.848 95.3687 152.819C98.3523 152.589 102.426 153.106 104.597 153.89C101.527 154.607 97.4916 153.737 94.5846 153.555C94.3646 153.574 94.3073 153.431 94.336 153.211V153.22Z" fill="#FFF0BA"/>
<path fill-rule="evenodd" clip-rule="evenodd" d="M95.6738 157.409C96.458 157.113 98.0932 157.275 98.8104 157.572C97.8254 157.457 96.764 157.419 95.6738 157.409Z" fill="#FFF0BA"/>
<path fill-rule="evenodd" clip-rule="evenodd" d="M95.5017 167.851C95.7121 167.669 95.9799 167.536 96.1903 167.354C99.4989 166.359 101.431 163.921 103.133 161.243C104.012 161.215 104.835 161.119 105.772 161.138C104.529 164.064 101.66 165.298 99.0877 166.837C101.832 166.139 104.252 164.466 105.906 162.333C106.451 161.626 106.767 160.708 107.57 160.163C106.9 161.597 106.614 163.271 105.6 164.275C105.103 164.772 104.175 165.126 103.448 165.575C101.364 166.876 98.6957 167.65 95.4922 167.842L95.5017 167.851Z" fill="#FFF0BA"/>
<path fill-rule="evenodd" clip-rule="evenodd" d="M96.0088 157.925C96.7355 157.677 97.5484 158.059 98.3899 157.983C98.1508 158.949 96.2861 158.595 96.0088 157.925Z" fill="#FFF0BA"/>
<path fill-rule="evenodd" clip-rule="evenodd" d="M96.1611 155.133C98.4466 154.607 101.526 155.286 104.146 155.248C101.698 155.956 99.0777 154.741 96.1611 155.133Z" fill="#FFF0BA"/>
<path fill-rule="evenodd" clip-rule="evenodd" d="M98.1502 146.689C101.994 144.911 109.826 143.658 112.829 147.225C112.379 147.512 111.825 147.684 111.863 148.478C109.224 147.168 106.135 145.877 102.061 146.202C102.473 146.718 103.457 146.527 104.089 146.594C107.589 146.938 110.476 148.439 112.838 149.95C109.444 149.09 106.804 146.795 102.042 146.967C102.932 147.56 104.041 147.521 104.997 147.722C107.895 148.325 110.161 149.989 112.991 150.725C110.754 150.993 108.067 148.363 105.217 149.176C104.834 149.281 104.681 149.549 104.27 149.75C102.339 148.631 100.751 147.187 98.1406 146.709L98.1502 146.689Z" fill="#FFF0BA"/>
<path fill-rule="evenodd" clip-rule="evenodd" d="M98.877 158.681C99.0013 158.385 99.1734 158.126 99.575 158.107C99.4125 158.365 99.2977 158.691 98.877 158.681Z" fill="#FFF0BA"/>
<path fill-rule="evenodd" clip-rule="evenodd" d="M98.8018 164.964C99.5859 163.635 100.724 162.678 101.441 161.292C101.642 161.321 101.757 161.435 102.034 161.387C101.125 162.755 100.619 164.543 98.8018 164.964Z" fill="#FFF0BA"/>
<path fill-rule="evenodd" clip-rule="evenodd" d="M100.235 158.709C100.073 158.595 100.35 158.203 100.589 158.212C100.589 158.509 100.293 158.48 100.235 158.709Z" fill="#FFF0BA"/>
<path fill-rule="evenodd" clip-rule="evenodd" d="M100.771 157.706C100.79 157.514 101.134 157.677 101.287 157.629C101.287 157.859 100.885 157.82 100.771 157.706Z" fill="#FFF0BA"/>
<path fill-rule="evenodd" clip-rule="evenodd" d="M109.262 154.263C107.789 156.348 105.58 157.658 103.371 158.959C102.893 159.485 101.363 160.25 100.904 159.236C103.152 157.008 105.925 155.344 109.262 154.263Z" fill="#FFF0BA"/>
<path fill-rule="evenodd" clip-rule="evenodd" d="M101.708 161.043C101.842 160.574 102.368 160.517 102.827 160.392C102.655 160.813 102.31 161.071 101.708 161.043Z" fill="#FFF0BA"/>
<path fill-rule="evenodd" clip-rule="evenodd" d="M103.582 160.833C103.869 159.972 105.179 160.192 106.317 160.221C106.317 160.508 106.03 160.508 106.049 160.814C105.189 160.775 104.337 160.756 103.582 160.842V160.833Z" fill="#FFF0BA"/>
<path fill-rule="evenodd" clip-rule="evenodd" d="M104.271 167.392H104.443C104.424 167.287 104.194 167.278 104.184 167.392C103.859 167.192 104.567 166.953 104.71 166.809C105.781 165.767 106.91 164.361 107.78 162.888C108.641 161.425 108.88 159.503 110.18 158.365C112.179 158.05 113.537 157.074 115.153 156.367C112.915 158.987 111.022 161.961 108.172 163.921C109.549 163.816 110.639 162.726 111.538 161.884C114.005 159.551 115.717 156.147 118.691 154.33C118.691 154.148 118.481 154.139 118.27 154.148C118.423 153.651 119.035 153.89 119.466 154.005C118.834 155.018 116.004 155.946 116.157 157.486C116.214 158.078 116.654 158.375 117.496 158.365C117.142 159.216 116.673 159.934 116.329 160.804C112.724 163.873 109.109 166.914 103.668 168.052C103.333 167.918 104.146 167.593 104.28 167.392H104.271ZM111.586 163.577C113.365 162.324 115.172 161.148 116.186 159.446C113.059 161.76 109.769 164.658 105.743 166.321C105.724 166.446 105.6 166.465 105.571 166.57C107.675 166.235 110.171 164.571 111.586 163.577Z" fill="#FFF0BA"/>
<path fill-rule="evenodd" clip-rule="evenodd" d="M104.883 152.876C105.055 152.742 105.418 152.8 105.648 152.723C105.504 153.02 105.103 153.096 104.883 152.876Z" fill="#FFF0BA"/>
<path fill-rule="evenodd" clip-rule="evenodd" d="M104.882 159.762C104.806 159.217 106.154 159.408 106.842 159.389C106.718 160.068 105.37 159.465 104.882 159.762Z" fill="#FFF0BA"/>
<path fill-rule="evenodd" clip-rule="evenodd" d="M113.795 153.02C111.041 152.656 108.535 152.063 106.537 150.973C105.819 150.964 105.408 150.667 105.112 150.256C105.093 150.122 105.198 150.113 105.207 150.008C108.325 149.558 110.648 151.212 113.058 151.987C113.03 152.542 113.909 152.675 113.795 153.029V153.02Z" fill="#FFF0BA"/>
<path fill-rule="evenodd" clip-rule="evenodd" d="M105.753 158.843C105.954 158.423 106.805 158.681 107.369 158.633C107.006 158.891 106.202 158.681 105.753 158.843Z" fill="#FFF0BA"/>
<path fill-rule="evenodd" clip-rule="evenodd" d="M105.944 154.263C105.944 154.177 105.944 154.091 105.944 154.005H106.451C106.394 154.225 106.126 154.196 105.935 154.263H105.944Z" fill="#FFF0BA"/>
<path fill-rule="evenodd" clip-rule="evenodd" d="M106.872 158.031C107.054 157.753 107.608 157.868 107.981 157.801C107.79 158.069 107.283 157.993 106.872 158.031Z" fill="#FFF0BA"/>
<path fill-rule="evenodd" clip-rule="evenodd" d="M107.828 157.199C107.847 157.103 108 157.141 108 157.036C109.09 156.998 108.536 157.218 107.828 157.199Z" fill="#FFF0BA"/>
<path fill-rule="evenodd" clip-rule="evenodd" d="M108.956 156.214C109.08 155.841 109.358 156.042 109.721 156.061C109.578 156.233 109.128 156.07 108.956 156.214Z" fill="#FFF0BA"/>
<path fill-rule="evenodd" clip-rule="evenodd" d="M109.692 157.505C112.169 155.344 115.22 153.795 118.394 152.37C116.491 155.133 113.269 156.51 109.692 157.505Z" fill="#FFF0BA"/>
<path fill-rule="evenodd" clip-rule="evenodd" d="M110.63 143.591C113.699 141.87 119.007 142.052 122.095 143.792C120.499 143.716 118.5 142.951 116.501 143.228C117.697 143.582 119.026 143.811 120.307 144.089C118.586 143.926 116.052 143.888 114.522 144.624C115.545 144.882 116.645 144.481 117.831 144.624C116.74 145.399 115.44 145.944 114.378 146.747C113.174 145.877 111.93 145.035 110.792 144.108C111.251 144.184 111.309 143.84 111.73 143.878C111.424 143.725 111.079 143.611 110.63 143.591ZM115.899 143.295C114.771 143.735 113.384 143.907 112.303 144.395C113.671 144.863 115.344 144.242 115.899 143.295Z" fill="#FFF0BA"/>
<path fill-rule="evenodd" clip-rule="evenodd" d="M110.448 154.378C110.448 154.292 110.448 154.206 110.448 154.12C110.945 154.282 111.29 154.598 111.529 155C111.213 154.751 110.802 154.588 110.438 154.378H110.448Z" fill="#FFF0BA"/>
<path fill-rule="evenodd" clip-rule="evenodd" d="M110.975 153.708C111.434 153.575 112.113 153.947 112.667 154.005C112.591 154.215 112.361 154.263 112.227 154.416C111.873 154.12 111.462 153.881 110.975 153.708Z" fill="#FFF0BA"/>
<path fill-rule="evenodd" clip-rule="evenodd" d="M112.801 148.315C117.123 147.368 120.384 149.883 123.434 151.212C121.417 151.566 119.227 151.059 116.999 150.457C115.153 149.96 113.786 149.481 112.801 148.573C112.801 148.487 112.801 148.401 112.801 148.315ZM119.724 150.103C119.265 149.405 118.223 149.281 117.372 149.022C116.502 148.764 115.564 148.41 114.675 148.277C114.675 148.382 114.56 148.391 114.589 148.525C115.89 149.443 117.869 149.711 119.734 150.093L119.724 150.103Z" fill="#FFF0BA"/>
<path fill-rule="evenodd" clip-rule="evenodd" d="M113.575 151.395C114.015 151.27 114.56 151.27 115.105 151.261C114.665 151.347 114.025 151.605 113.575 151.395Z" fill="#FFF0BA"/>
<path fill-rule="evenodd" clip-rule="evenodd" d="M114.617 147.005C115.946 146.135 117.209 145.207 118.92 144.729C117.754 145.685 116.262 146.288 114.952 147.091C114.77 147.254 114.789 147.053 114.617 146.995V147.005Z" fill="#FFF0BA"/>
<path fill-rule="evenodd" clip-rule="evenodd" d="M115.631 147.196C115.622 147.12 115.669 147.12 115.717 147.11C116.463 146.728 117.199 146.297 117.955 145.896C118.653 145.523 119.418 144.93 120.269 145.016C119.724 145.437 119.016 145.724 118.29 146.154C117.458 146.642 116.798 147.474 115.631 147.196Z" fill="#FFF0BA"/>
<path fill-rule="evenodd" clip-rule="evenodd" d="M117.324 147.579C118.08 147.072 118.979 146.699 119.82 146.279C119.16 146.891 118.242 147.235 117.324 147.579Z" fill="#FFF0BA"/>
<path fill-rule="evenodd" clip-rule="evenodd" d="M117.171 157.342C117.152 157.208 117.257 157.198 117.267 157.093C118.682 155.783 120.308 154.54 122.029 153.469C123.731 152.417 125.692 151.432 127.862 151.145C127.767 152.102 126.734 152.58 125.95 153.048C124.42 153.966 122.871 154.836 121.293 155.907C120.078 156.73 119.036 157.638 117.181 157.332L117.171 157.342Z" fill="#FFF0BA"/>
<path fill-rule="evenodd" clip-rule="evenodd" d="M118.251 147.856C118.748 147.579 119.475 147.12 119.963 147.129C119.609 147.598 118.949 147.751 118.251 147.856Z" fill="#FFF0BA"/>
<path fill-rule="evenodd" clip-rule="evenodd" d="M118.873 160.527C118.806 160.287 118.997 160.307 118.968 160.106C119.992 160.087 121.608 160.173 122.784 160.287C122.21 161.005 120.192 160.383 118.873 160.536V160.527Z" fill="#FFF0BA"/>
<path fill-rule="evenodd" clip-rule="evenodd" d="M119.055 153.402C119.016 153.134 119.179 153.077 119.236 152.895C119.657 153.038 120.126 153.163 120.585 153.268C120.317 153.756 119.657 153.316 119.055 153.402Z" fill="#FFF0BA"/>
<path fill-rule="evenodd" clip-rule="evenodd" d="M119.351 148.229C119.647 148.047 119.972 147.894 120.383 147.827C120.077 147.961 119.676 148.382 119.351 148.229Z" fill="#FFF0BA"/>
<path fill-rule="evenodd" clip-rule="evenodd" d="M119.322 159.695C119.37 159.628 119.418 159.561 119.408 159.446C120.537 159.092 122.344 159.446 123.74 159.379C122.985 160.23 120.737 159.532 119.312 159.695H119.322Z" fill="#FFF0BA"/>
<path fill-rule="evenodd" clip-rule="evenodd" d="M120.021 158.949C121.015 158.232 123.061 158.853 124.362 158.633C124.161 159.092 123.53 158.844 123.081 158.853C122.229 158.882 121.321 159.006 120.279 158.949C120.193 158.949 120.107 158.949 120.021 158.949Z" fill="#FFF0BA"/>
<path fill-rule="evenodd" clip-rule="evenodd" d="M130.424 150.113C128.827 150.113 127.106 149.807 125.605 149.319C123.702 148.698 121.732 148.019 120.747 146.737C120.737 146.642 120.766 146.584 120.833 146.565C124.801 147.014 127.689 148.497 130.424 150.113Z" fill="#FFF0BA"/>
<path fill-rule="evenodd" clip-rule="evenodd" d="M120.947 148.946C121.148 148.707 121.559 148.64 121.798 148.879C121.655 149.041 121.148 149.118 120.947 148.946Z" fill="#FFF0BA"/>
<path fill-rule="evenodd" clip-rule="evenodd" d="M120.976 158.031C121.015 157.954 121.053 157.878 121.148 157.868C121.799 157.887 122.449 157.897 123.099 157.916C123.271 157.916 123.444 157.916 123.606 157.925C124.256 158.04 123.013 158.002 122.755 157.992C122.267 158.117 121.579 158.031 120.967 158.031H120.976Z" fill="#FFF0BA"/>
<path fill-rule="evenodd" clip-rule="evenodd" d="M122.42 140.655C127.029 139.479 133.101 140.282 135.263 143.352C134.784 143.218 134.306 143.792 133.809 143.744C133.073 143.677 131.944 142.233 130.883 141.803C128.559 140.856 124.878 141.621 122.42 140.665V140.655Z" fill="#FFF0BA"/>
<path fill-rule="evenodd" clip-rule="evenodd" d="M124.17 141.975C127.354 142.109 131.686 141.822 133.293 143.897C132.642 144.06 132.069 144.729 131.065 144.863C129.946 145.006 128.377 144.251 128.33 145.647C127.077 144.93 126.025 144.031 124.906 143.189C126.771 143.62 129.984 143.486 132.279 143.792C130.386 142.415 126.073 143.352 124.17 141.975Z" fill="#FFF0BA"/>
<path fill-rule="evenodd" clip-rule="evenodd" d="M124.821 157.027C124.802 156.893 124.907 156.883 124.907 156.778C126.217 155.315 127.919 154.196 129.669 153.077C131.754 151.738 133.867 150.151 136.717 149.855C136.363 150.916 135.177 151.423 134.288 152.006C131.553 153.794 128.493 155.831 125.079 156.96C125.06 157.055 124.926 157.027 124.821 157.036V157.027Z" fill="#FFF0BA"/>
<path fill-rule="evenodd" clip-rule="evenodd" d="M129.259 145.838C129.249 145.743 129.278 145.685 129.345 145.666C134.174 145.963 137.473 147.713 141.155 149.099C139.232 148.764 137.014 148.478 134.987 147.932C132.835 147.349 130.836 146.89 129.259 145.838Z" fill="#FFF0BA"/>
<path fill-rule="evenodd" clip-rule="evenodd" d="M130.482 148.076C130.913 147.808 131.448 147.999 131.926 148.114C131.525 148.238 130.655 148.477 130.482 148.076Z" fill="#FFF0BA"/>
<path fill-rule="evenodd" clip-rule="evenodd" d="M131.142 148.85C132.069 148.688 133.14 148.478 134.03 148.755C133.322 149.109 132.28 149.118 131.381 149.281C131.428 149.013 131.285 148.937 131.142 148.85Z" fill="#FFF0BA"/>
<path fill-rule="evenodd" clip-rule="evenodd" d="M131.821 138.513C131.811 138.437 131.859 138.437 131.907 138.427C132.806 138.408 134.383 138.398 135.387 138.427C141.163 138.57 144.109 142.548 146.671 145.752C146.26 145.618 145.935 145.398 145.581 145.216C142.837 142.491 139.977 139.211 134.775 139.173C133.513 139.173 132.49 139.374 131.821 138.503V138.513Z" fill="#FFF0BA"/>
<path fill-rule="evenodd" clip-rule="evenodd" d="M131.706 149.893C131.744 149.615 132.203 149.768 132.471 149.74C132.27 149.835 131.936 150.094 131.706 149.893Z" fill="#FFF0BA"/>
<path fill-rule="evenodd" clip-rule="evenodd" d="M131.906 145.054C132.557 144.758 133.408 144.28 134.211 144.433C133.532 144.777 132.901 145.284 131.906 145.054Z" fill="#FFF0BA"/>
<path fill-rule="evenodd" clip-rule="evenodd" d="M133.351 145.341C134.307 145.006 135.617 144.586 136.516 144.48C135.521 144.796 134.575 145.551 133.351 145.341Z" fill="#FFF0BA"/>
<path fill-rule="evenodd" clip-rule="evenodd" d="M133.169 162.831C134.804 160.775 135.588 157.83 137.577 156.147C138.007 156.166 138.39 156.137 138.686 156.004C138.725 156.376 138.208 156.692 137.893 157.008C136.898 158.012 135.837 159.312 135.091 160.594C135.904 160.211 136.458 159.37 137.089 158.691C138.973 156.654 141.163 154.693 143.764 153.336C143.783 154.301 144.864 154.531 145.772 154.407C145.82 154.875 145.16 155.277 144.72 155.736C141.756 158.872 136.984 160.594 133.159 162.841L133.169 162.831Z" fill="#FFF0BA"/>
<path fill-rule="evenodd" clip-rule="evenodd" d="M134.393 144.261C134.699 143.955 135.54 143.543 135.932 143.878C135.464 144.031 134.909 144.423 134.393 144.261Z" fill="#FFF0BA"/>
<path fill-rule="evenodd" clip-rule="evenodd" d="M134.498 153.947C134.489 153.871 134.537 153.871 134.584 153.861C137.166 152.781 140.293 151.356 142.999 150.247C144.137 149.778 145.4 149.137 146.672 149.405C146.165 150.294 145.046 150.553 144.08 150.954C141.422 152.054 137.606 153.804 134.498 153.947Z" fill="#FFF0BA"/>
<path fill-rule="evenodd" clip-rule="evenodd" d="M134.891 141.306C137.855 141.775 141.011 142.769 143.229 144.232C142.321 144.213 139.328 143.094 138.974 144.471C138.677 145.609 140.36 146.412 141.212 146.9C142.283 147.531 143.344 148 144.405 148.335C139.366 148.43 137.903 143.697 134.9 141.306H134.891Z" fill="#FFF0BA"/>
<path fill-rule="evenodd" clip-rule="evenodd" d="M136.852 151.375C136.88 151.26 137.005 151.241 137.024 151.126C137.397 151.337 137.913 151.04 138.468 151.165C138.707 151.318 138.028 151.222 137.875 151.232C137.597 151.356 137.119 151.26 136.852 151.375Z" fill="#FFF0BA"/>
<path fill-rule="evenodd" clip-rule="evenodd" d="M137.902 146.556C137.902 146.47 137.902 146.384 137.902 146.298C138.17 146.259 138.122 146.527 138.323 146.565C138.247 146.814 138.113 146.451 137.902 146.556Z" fill="#FFF0BA"/>
<path fill-rule="evenodd" clip-rule="evenodd" d="M138.275 155.573C138.505 155.028 139.404 155.191 139.987 155.019C139.7 155.506 138.935 155.478 138.275 155.573Z" fill="#FFF0BA"/>
<path fill-rule="evenodd" clip-rule="evenodd" d="M140.321 145.006C143.945 145.092 146.432 146.976 148.899 148.449C147.292 148.583 145.686 147.98 144.337 147.321C142.884 146.603 141.555 145.867 140.312 145.016L140.321 145.006Z" fill="#FFF0BA"/>
<path fill-rule="evenodd" clip-rule="evenodd" d="M140.847 137.289C145.513 138.159 151.48 138.503 154.598 141.114C152.341 140.359 149.969 139.001 146.929 138.714C150.228 139.881 153.469 141.105 156.262 142.768C152.685 141.468 147.741 140.76 144.461 138.915C146.498 141.162 151.28 141.65 154.722 142.988C155.162 143.16 155.917 143.18 155.975 143.782C155.554 144.241 154.588 143.859 153.938 143.734C150.314 143.046 147.607 141.85 145.112 140.034C143.84 139.116 142.893 137.978 141.344 137.815C141.22 137.605 141.047 137.432 140.847 137.289Z" fill="#FFF0BA"/>
<path fill-rule="evenodd" clip-rule="evenodd" d="M144.787 153.269C144.768 153.192 144.825 153.192 144.873 153.183C146.269 152.112 147.962 151.251 149.616 150.41C151.204 149.606 152.915 148.373 155.009 148.755C154.197 149.817 152.638 150.61 151.127 151.375C149.712 152.093 148.019 152.972 146.575 153.307C146.001 153.431 145.169 153.498 144.797 153.259L144.787 153.269Z" fill="#FFF0BA"/>
<path fill-rule="evenodd" clip-rule="evenodd" d="M148.067 144.347C148.058 144.251 148.086 144.194 148.153 144.184C151.911 144.729 155.249 146.345 157.477 148.239C153.814 147.445 150.477 146.336 148.058 144.356L148.067 144.347Z" fill="#FFF0BA"/>
<path fill-rule="evenodd" clip-rule="evenodd" d="M148.105 146.297C148.192 145.991 148.832 146.164 149.043 146.24C148.89 146.422 148.325 146.47 148.105 146.297Z" fill="#FFF0BA"/>
<path fill-rule="evenodd" clip-rule="evenodd" d="M148.766 146.995C149.11 146.842 150.2 146.67 150.372 147.12C149.77 147.177 149.167 147.397 148.766 146.995Z" fill="#FFF0BA"/>
<path fill-rule="evenodd" clip-rule="evenodd" d="M149.32 155.506C150.573 155.296 152.371 155.965 154.063 155.879C154.111 156.195 153.872 156.204 153.882 156.472C152.399 156.118 150.764 155.898 149.32 155.516V155.506Z" fill="#FFF0BA"/>
<path fill-rule="evenodd" clip-rule="evenodd" d="M149.932 147.875C150.41 147.54 151.347 147.502 151.892 147.502C151.404 147.76 150.429 147.933 149.932 147.875Z" fill="#FFF0BA"/>
<path fill-rule="evenodd" clip-rule="evenodd" d="M150.181 154.932C150.124 154.703 150.353 154.76 150.363 154.598C150.478 154.655 150.516 154.779 150.525 154.942H150.181V154.932Z" fill="#FFF0BA"/>
<path fill-rule="evenodd" clip-rule="evenodd" d="M151.806 154.54C151.749 154.359 152.724 154.521 153.078 154.493C153.135 154.674 152.16 154.512 151.806 154.54Z" fill="#FFF0BA"/>
<path fill-rule="evenodd" clip-rule="evenodd" d="M152.696 152.953C155.345 151.155 157.975 148.86 161.886 148.678C162.039 149.692 160.71 149.902 160.069 150.16C157.707 151.117 154.953 151.987 152.696 152.953Z" fill="#FFF0BA"/>
<path fill-rule="evenodd" clip-rule="evenodd" d="M154.331 155.372C154.331 155.601 152.447 155.295 153.404 155.267C153.633 155.267 154.035 155.219 154.331 155.372Z" fill="#FFF0BA"/>
<path fill-rule="evenodd" clip-rule="evenodd" d="M155.335 145.628C156.11 145.437 157.267 145.399 157.793 145.858C157.037 146.269 155.918 146.03 155.335 145.628Z" fill="#FFF0BA"/>
<path fill-rule="evenodd" clip-rule="evenodd" d="M157.104 146.603C157.592 146.402 158.548 146.326 158.969 146.565C158.491 146.747 157.554 146.919 157.104 146.603Z" fill="#FFF0BA"/>
<path fill-rule="evenodd" clip-rule="evenodd" d="M158.185 147.397C158.213 147.139 158.615 147.263 158.873 147.244C158.711 147.368 158.462 147.397 158.185 147.397Z" fill="#FFF0BA"/>
<path fill-rule="evenodd" clip-rule="evenodd" d="M158.587 148.171C158.587 148.057 158.587 147.942 158.587 147.837C159.505 147.961 160.241 147.521 160.805 147.55C160.222 147.923 159.285 147.932 158.577 148.171H158.587Z" fill="#FFF0BA"/>
<path fill-rule="evenodd" clip-rule="evenodd" d="M160.384 151.184C160.728 150.935 161.072 150.82 161.493 151.04C161.388 151.47 160.69 151.413 160.384 151.184Z" fill="#FFF0BA"/>
<path fill-rule="evenodd" clip-rule="evenodd" d="M160.92 153.498C162.23 152.207 166.371 151.844 168.713 150.974C170.081 150.467 171.238 149.539 172.204 150.715C168.675 151.882 164.974 152.867 160.92 153.498Z" fill="#FFF0BA"/>
<path fill-rule="evenodd" clip-rule="evenodd" d="M161.398 161.665C162.211 161.1 162.393 159.867 163.32 159.417C163.387 159.13 162.976 159.303 163.071 158.987C164.707 156.587 166.514 154.646 169.239 153.278C170.454 152.666 171.821 151.901 173.351 151.853C172.988 152.341 172.366 152.284 171.888 152.494C168.79 153.89 165.959 156.376 163.827 159.006C166.81 156.768 169.727 153.995 173.571 152.963C173.629 155.009 172.309 156.472 171.161 157.572C168.58 160.068 165.73 160.976 161.379 161.665H161.398Z" fill="#FFF0BA"/>
<path fill-rule="evenodd" clip-rule="evenodd" d="M161.981 151.738C162.058 151.557 162.201 151.442 162.498 151.499C162.44 151.7 162.173 151.681 161.981 151.738Z" fill="#FFF0BA"/>
<path fill-rule="evenodd" clip-rule="evenodd" d="M163.827 145.839C165.367 145.915 166.973 146.652 168.647 146.891C167.145 146.776 165.051 146.499 163.827 145.839Z" fill="#FFF0BA"/>
<path fill-rule="evenodd" clip-rule="evenodd" d="M164.859 145.436C165.777 144.853 166.973 145.895 168.072 145.943C167.087 146.029 166.045 145.436 164.859 145.436Z" fill="#FFF0BA"/>
<path fill-rule="evenodd" clip-rule="evenodd" d="M166.054 144.958C165.997 144.671 166.399 144.862 166.322 144.537C166.772 144.604 166.877 144.996 167.326 145.073C166.992 145.274 166.523 144.901 166.054 144.958Z" fill="#FFF0BA"/>
<path fill-rule="evenodd" clip-rule="evenodd" d="M168.254 149.09C168.569 148.851 168.904 149.291 169.354 149.204C169.067 149.415 168.522 149.166 168.254 149.09Z" fill="#FFF0BA"/>
<path fill-rule="evenodd" clip-rule="evenodd" d="M170.205 145.743C170.195 145.666 170.243 145.666 170.291 145.657C172.959 145.81 174.652 147.244 176.593 148.363C178.046 149.195 179.72 149.912 180.341 151.26C175.971 150.361 173.542 147.617 170.195 145.743H170.205Z" fill="#FFF0BA"/>
<path fill-rule="evenodd" clip-rule="evenodd" d="M173.925 149.568C173.724 150.113 173.083 150.199 172.624 150.467C172.271 150.419 172.242 150.056 171.955 149.941C172.366 149.587 173.37 149.491 173.915 149.568H173.925Z" fill="#FFF0BA"/>
<path fill-rule="evenodd" clip-rule="evenodd" d="M175.387 152.494C175.406 152.226 175.177 152.197 174.976 152.14C175.493 152.044 176.43 152.255 177.185 152.197C176.21 152.532 175.187 152.828 174.269 153.23C173.934 152.436 175.014 152.522 175.387 152.494Z" fill="#FFF0BA"/>
<path fill-rule="evenodd" clip-rule="evenodd" d="M174.575 154.253C176.813 152.972 180.064 152.762 182.455 151.643C182.684 151.643 182.904 151.652 183.134 151.662C183.478 151.7 183.402 151.308 183.65 151.251C184.578 151.327 186.079 150.199 186.968 151.079C183.621 152.962 179.079 153.594 174.575 154.253Z" fill="#FFF0BA"/>
<path fill-rule="evenodd" clip-rule="evenodd" d="M175.751 158.441C176.296 158.03 177.357 158.155 178.142 157.992C177.568 158.384 176.506 158.25 175.751 158.441Z" fill="#FFF0BA"/>
<path fill-rule="evenodd" clip-rule="evenodd" d="M176.793 157.457C177.529 156.778 179.203 157.084 180.379 156.864C179.595 157.495 177.95 157.208 176.793 157.457Z" fill="#FFF0BA"/>
<path fill-rule="evenodd" clip-rule="evenodd" d="M177.923 156.462C178.602 155.669 180.61 156.262 181.844 156.051C180.878 156.548 179.147 156.233 177.923 156.462Z" fill="#FFF0BA"/>
<path fill-rule="evenodd" clip-rule="evenodd" d="M179.327 147.493C179.796 147.713 180.131 148.057 180.666 148.2C180.284 148.229 179.26 148.162 179.327 147.493Z" fill="#FFF0BA"/>
<path fill-rule="evenodd" clip-rule="evenodd" d="M179.309 155.477C180.246 155.009 181.881 155.276 183.22 155.238C182.464 155.898 180.58 155.372 179.309 155.477Z" fill="#FFF0BA"/>
<path fill-rule="evenodd" clip-rule="evenodd" d="M180.57 148.965C181.613 149.109 182.865 149.768 183.936 150.151C182.99 150.218 181.249 149.692 180.57 148.965Z" fill="#FFF0BA"/>
<path fill-rule="evenodd" clip-rule="evenodd" d="M180.963 150.247C181.422 150.094 181.986 150.543 182.483 150.62C182.043 151.002 181.24 150.543 180.963 150.247Z" fill="#FFF0BA"/>
<path fill-rule="evenodd" clip-rule="evenodd" d="M180.944 154.578C181.681 154.072 183.297 154.502 184.435 154.406C183.612 154.818 182.13 154.54 180.944 154.578Z" fill="#FFF0BA"/>
<path fill-rule="evenodd" clip-rule="evenodd" d="M181.116 161.377C183.87 159.541 187.255 158.356 189.235 155.716C189.742 156.089 190.239 156.481 190.65 156.94C187.667 158.623 185.247 160.899 181.116 161.377Z" fill="#FFF0BA"/>
<path fill-rule="evenodd" clip-rule="evenodd" d="M182.742 153.776C183.421 153.508 184.444 153.584 185.381 153.584C184.942 154.11 183.584 153.67 182.742 153.776Z" fill="#FFF0BA"/>
<path fill-rule="evenodd" clip-rule="evenodd" d="M184.358 146.852C184.339 146.699 184.444 146.68 184.444 146.766C185.898 147.005 186.758 148.066 187.705 148.889C188.059 149.195 188.547 149.386 188.872 149.682C189.178 149.96 189.321 150.399 189.608 150.725C190.392 151.585 191.444 152.207 192.094 153.163C190.411 152.647 189.35 151.164 188.002 150.17C186.672 149.195 185.353 148.21 184.349 146.852H184.358Z" fill="#FFF0BA"/>
<path fill-rule="evenodd" clip-rule="evenodd" d="M185.229 153.077C185.487 152.857 185.917 152.819 186.261 152.676C186.194 153.096 185.764 153.144 185.229 153.077Z" fill="#FFF0BA"/>
<path fill-rule="evenodd" clip-rule="evenodd" d="M189.847 154.884C190.402 155.372 191.004 155.831 191.425 156.453C191.282 156.453 191.205 156.51 191.167 156.615C190.89 155.955 189.474 155.63 189.847 154.884Z" fill="#FFF0BA"/>
<path fill-rule="evenodd" clip-rule="evenodd" d="M192.658 154.617C192.869 154.493 193.175 154.464 193.509 154.464C194.054 155.286 193.041 155.095 192.658 154.617Z" fill="#FFF0BA"/>
<path fill-rule="evenodd" clip-rule="evenodd" d="M195.623 158.423C195.652 158.308 195.776 158.289 195.795 158.174C196.512 158.671 197.669 158.145 198.329 158.92C198.549 158.92 198.664 158.805 198.674 158.585C198.922 158.585 198.96 158.815 199.18 158.853C199.467 158.901 199.439 158.604 199.611 158.528C200.06 158.461 200.051 158.824 200.366 158.882C200.576 158.815 200.739 158.69 200.72 158.384C201.265 158.404 201.523 158.289 202.001 158.078C202.279 158.145 202.441 158.327 202.499 158.604C200.72 159.465 197.421 159.178 195.623 158.432V158.423Z" fill="#FFF0BA"/>
<path fill-rule="evenodd" clip-rule="evenodd" d="M196.673 157.18C196.884 157.39 197.037 157.658 197.161 157.954C196.425 158.05 196.281 157.524 196.673 157.18Z" fill="#FFF0BA"/>
<path fill-rule="evenodd" clip-rule="evenodd" d="M197.984 155.679C198.013 155.506 198.214 155.516 198.252 155.344C198.979 156.147 200.107 156.998 200.48 157.859C199.581 157.199 198.941 156.291 197.984 155.679Z" fill="#FFF0BA"/>
<path fill-rule="evenodd" clip-rule="evenodd" d="M198.682 155.019C198.673 154.923 198.702 154.866 198.769 154.856C199.83 155.669 200.758 156.606 201.59 157.639C200.528 156.855 199.83 155.726 198.682 155.019Z" fill="#FFF0BA"/>
<path fill-rule="evenodd" clip-rule="evenodd" d="M199.294 154.435C200.843 154.617 201.57 156.3 202.622 157.237C201.321 156.491 200.547 155.229 199.294 154.435Z" fill="#FFF0BA"/>
<path fill-rule="evenodd" clip-rule="evenodd" d="M202.947 157.667C203.042 157.686 203.1 157.658 203.119 157.591C203.367 157.571 203.406 157.763 203.54 157.858C203.769 157.753 203.712 157.485 203.635 157.265C203.759 157.17 204.018 157.199 203.989 156.931C204.333 156.959 204.458 157.199 204.83 157.208C204.438 157.753 203.769 158.011 203.109 158.27C203.128 158.002 202.889 157.983 202.956 157.667H202.947Z" fill="#FFF0BA"/>
<path fill-rule="evenodd" clip-rule="evenodd" d="M208.742 156.797C219.376 157.954 227.456 162.247 236.13 165.537C236.302 165.958 236.531 166.321 236.694 166.742C230.22 164.141 223.899 161.425 217.004 159.206C215.866 158.843 214.728 158.403 213.552 158.097C211.936 157.686 210.062 157.504 208.742 156.787V156.797Z" fill="#FFF0BA"/>
<path fill-rule="evenodd" clip-rule="evenodd" d="M239.151 166.972C240.194 166.953 240.701 168.148 241.399 168.722C240.299 168.808 239.945 167.459 239.151 166.972Z" fill="#FFF0BA"/>
<path fill-rule="evenodd" clip-rule="evenodd" d="M86.0253 166.513C88.9993 166.149 91.6004 165.164 93.905 163.902C96.2191 162.64 97.9786 160.794 99.8816 159.207C99.5278 159.456 99.8816 159.924 99.7669 160.307C99.4704 161.311 97.6057 162.525 96.7259 163.118C93.293 165.451 88.11 166.503 83.5391 167.297C84.2084 166.895 84.4188 166.015 85.442 165.987C85.8341 166.006 85.3464 166.111 85.442 166.321C86.0062 166.331 86.3887 166.149 86.8095 166.015C86.9147 166.216 86.1018 166.197 86.0349 166.503L86.0253 166.513Z" fill="#FFF0BA"/>
<path fill-rule="evenodd" clip-rule="evenodd" d="M92.4316 151.213C96.1324 150.61 101.755 150.247 104.634 152.274C103.505 152.628 101.373 152.054 98.8673 151.873C96.6009 151.71 92.9576 151.404 93.3018 153.517C93.4166 154.216 94.0955 154.445 94.8892 154.665C92.9671 155.621 89.2951 155.258 86.8184 154.895C88.1093 154.091 89.6489 153.125 91.0355 152.705C90.653 152.456 90.1079 152.772 89.6776 152.752C92.2786 150.61 97.7485 148.612 102.224 150.429C98.9725 149.539 95.1092 150.4 92.4412 151.203L92.4316 151.213Z" fill="#FFF0BA"/>
<path fill-rule="evenodd" clip-rule="evenodd" d="M98.6954 159.102C96.1326 161.951 92.91 164.112 88.8555 165.403C91.7912 164.265 94.2584 162.821 96.5247 160.918C97.2323 160.326 97.7583 159.436 98.6954 159.102Z" fill="#FFF0BA"/>
<path fill-rule="evenodd" clip-rule="evenodd" d="M96.5532 159.981C96.4385 159.848 96.7636 159.455 96.6584 159.054C96.8018 158.92 97.1557 158.996 97.4234 158.987C97.2417 159.436 96.7923 159.599 96.5532 159.981Z" fill="#FFF0BA"/>
<path fill-rule="evenodd" clip-rule="evenodd" d="M104.826 151.432C104.768 151.251 105.485 151.652 105.753 151.71C105.514 151.872 105.112 151.49 104.826 151.432Z" fill="#FFF0BA"/>
<path fill-rule="evenodd" clip-rule="evenodd" d="M127.049 159.8C125.72 161.263 124.639 163.357 122.774 164.447C121.866 164.983 120.565 165.327 119.428 165.719C116.167 166.847 112.284 167.612 108.66 168.511C108.555 168.234 109.138 168.234 109.435 168.1C110.314 167.708 111.414 167.019 112.189 166.551C112.447 166.494 112.284 166.847 112.609 166.733C118.079 165.107 124.371 164.342 127.049 159.781V159.8Z" fill="#FFF0BA"/>
<path fill-rule="evenodd" clip-rule="evenodd" d="M114.981 163.233C114.273 165.537 111.051 165.948 109.186 167.335C109.033 167.354 109.014 167.249 109.1 167.249C111.29 166.149 113.365 164.935 114.971 163.233H114.981Z" fill="#FFF0BA"/>
<path fill-rule="evenodd" clip-rule="evenodd" d="M127.115 157.161C125.566 161.885 120.708 163.893 115.535 165.117C115.401 165.012 116.185 164.419 116.74 164.466C117.036 164.38 116.72 164.132 116.921 164.046C120.555 163.022 123.3 161.053 125.547 158.566C125.623 158.299 125.681 158.012 125.824 157.811C126.178 157.524 126.723 157.419 127.115 157.161Z" fill="#FFF0BA"/>
<path fill-rule="evenodd" clip-rule="evenodd" d="M116.004 163.434C116.74 161.913 118.041 160.24 118.681 158.318C119.045 158.318 119.313 158.222 119.533 158.088C118.232 159.389 117.658 162.219 116.004 163.434Z" fill="#FFF0BA"/>
<path fill-rule="evenodd" clip-rule="evenodd" d="M116.502 163.788C117.056 163.032 118.223 162.172 118.606 160.947C119.677 160.976 120.757 161.005 121.828 161.024C120.336 162.248 118.194 162.774 116.492 163.778L116.502 163.788Z" fill="#FFF0BA"/>
<path fill-rule="evenodd" clip-rule="evenodd" d="M122.545 145.839C123.329 145.504 124.658 146.384 125.156 146.584C124.314 146.307 123.396 146.106 122.545 145.839Z" fill="#FFF0BA"/>
<path fill-rule="evenodd" clip-rule="evenodd" d="M128.379 161.014C130.951 158.748 133.81 156.788 137.014 155.2C136.612 155.822 136.086 156.156 135.618 156.778C135.168 157.371 134.939 158.193 134.461 158.786C133.676 159.771 132.051 160.421 130.836 161.072C129.507 161.779 128.063 162.286 126.715 162.755C129.67 162.697 131.735 160.947 133.925 159.79C133.667 160.67 132.653 160.957 131.936 161.358C129.823 162.525 127.222 163.577 124.477 164.237C124.267 164.055 124.841 163.711 125.089 163.491C126.495 162.238 127.881 160.67 129.019 159.006C130.263 157.189 131.678 155.43 133.466 154.186C133.753 155.277 135.484 154.971 136.43 154.684C133.705 156.405 130.157 158.021 128.379 161.024V161.014Z" fill="#FFF0BA"/>
<path fill-rule="evenodd" clip-rule="evenodd" d="M129.564 147.292C129.842 147.177 130.32 147.569 130.664 147.655C130.196 147.961 129.851 147.435 129.564 147.292Z" fill="#FFF0BA"/>
<path fill-rule="evenodd" clip-rule="evenodd" d="M133.15 139.642C138.582 139.575 141.566 142.3 144.664 144.767C143.822 144.528 142.971 143.486 141.996 142.922C139.452 141.458 135.847 141.181 133.16 139.642H133.15Z" fill="#FFF0BA"/>
<path fill-rule="evenodd" clip-rule="evenodd" d="M136.478 146.011C136.764 145.848 137.185 145.819 137.587 145.781C137.424 146.078 136.812 145.896 136.478 146.011Z" fill="#FFF0BA"/>
<path fill-rule="evenodd" clip-rule="evenodd" d="M140.188 153.833C140.685 152.943 142.224 153.125 143.19 152.714C142.827 153.412 141.402 153.737 140.188 153.833Z" fill="#FFF0BA"/>
<path fill-rule="evenodd" clip-rule="evenodd" d="M141.594 138.074C144.004 139.699 146.155 142.3 149.531 143.285C148.804 143.333 147.293 142.874 147.054 143.821C144.797 142.319 143.42 139.986 141.594 138.083V138.074Z" fill="#FFF0BA"/>
<path fill-rule="evenodd" clip-rule="evenodd" d="M148.976 155.831C150.085 156.491 151.787 156.587 153.365 156.788C151.472 159.437 147.111 160.259 143.735 161.646C143.516 161.445 144.558 161.139 144.692 160.737C144.931 160.67 144.912 160.861 145.112 160.833C146.193 158.949 147.264 157.055 148.976 155.831ZM150.64 157.4C151.376 157.534 152.265 157.792 152.59 157.448C151.625 156.73 149.827 156.826 148.536 156.415C148.536 156.52 148.421 156.529 148.44 156.673C148.928 157.065 149.789 157.256 150.63 157.409L150.64 157.4Z" fill="#FFF0BA"/>
<path fill-rule="evenodd" clip-rule="evenodd" d="M144.95 160.574C144.491 160.641 144.013 160.699 143.583 160.794C144.788 159.389 145.276 157.629 146.414 156.281C147.045 155.525 148.058 155.038 149.005 154.387C150.497 153.383 151.424 152.083 153.069 151.26C152.581 152.112 150.765 152.312 150.545 153.747C147.991 155.305 145.945 157.39 144.941 160.574H144.95Z" fill="#FFF0BA"/>
<path fill-rule="evenodd" clip-rule="evenodd" d="M154.923 138.227C155.879 138.839 157.008 138.963 158.041 139.413C160.976 140.665 163.96 142.061 165.987 144.28C165.28 144.72 164.562 144.892 163.51 144.815C158.079 144.395 156.013 139.642 152.227 137.49C158.031 137.443 162.946 139.862 165.433 142.74C162.592 140.608 159.437 138.772 154.923 138.236V138.227Z" fill="#FFF0BA"/>
<path fill-rule="evenodd" clip-rule="evenodd" d="M152.571 144.376C153.116 144.662 155.45 144.662 156.549 144.978C155.048 145.619 153.728 144.93 152.571 144.376Z" fill="#FFF0BA"/>
<path fill-rule="evenodd" clip-rule="evenodd" d="M153.604 161.043C153.308 161.081 153.518 160.622 153.279 160.612C152.868 160.526 152.839 160.842 152.428 160.765C154.12 159.274 154.866 155.841 156.587 153.899C156.989 153.45 157.572 153.039 158.232 152.58C158.921 152.111 159.896 151.126 160.632 151.7C158.404 153.488 156.262 155.353 155.124 158.279C156.53 156.73 158.06 154.569 159.839 153.125C159.447 155.707 164.123 153.498 165.605 153.517C165.806 153.832 165.318 153.88 165.165 154.014C162.029 156.692 157.352 158.365 153.461 160.268C155.555 160.039 157.515 159.321 159.284 158.461C161.025 157.61 162.717 156.596 164.285 155.611C161.914 158.317 157.735 159.886 153.623 161.043H153.604Z" fill="#FFF0BA"/>
<path fill-rule="evenodd" clip-rule="evenodd" d="M157.075 144.145C160.843 145.054 164.725 147.091 167.297 149.663C165.108 149.472 163.721 147.923 162.095 146.986C160.422 146.029 158.548 145.465 157.065 144.145H157.075Z" fill="#FFF0BA"/>
<path fill-rule="evenodd" clip-rule="evenodd" d="M166.207 139.011C170.616 140.674 174.527 142.807 176.64 146.661C173.905 144.901 172.069 142.281 168.445 141.363C169.43 142.071 170.434 142.644 171.371 143.39C172.27 144.107 173.092 144.92 174.039 145.58C172.911 144.997 170.721 144.71 168.885 144.519C166.953 142.291 165.318 139.785 163.186 137.748C168.588 138.274 172.423 140.282 175.282 143.228C172.93 141.516 170.147 139.498 166.217 139.011H166.207Z" fill="#FFF0BA"/>
<path fill-rule="evenodd" clip-rule="evenodd" d="M166.084 147.253C166.543 147.043 167.05 147.493 167.604 147.464C167.222 147.607 166.495 147.359 166.084 147.253Z" fill="#FFF0BA"/>
<path fill-rule="evenodd" clip-rule="evenodd" d="M167.174 148.047C167.633 148 168.36 148.411 169.029 148.43C168.513 148.535 167.537 148.353 167.174 148.047Z" fill="#FFF0BA"/>
<path fill-rule="evenodd" clip-rule="evenodd" d="M171.772 157.84C172.346 157.075 173.36 156.023 173.962 155.009C173.972 155.105 174.115 155.086 174.22 155.095C173.695 156.31 172.671 157.008 171.772 157.84Z" fill="#FFF0BA"/>
<path fill-rule="evenodd" clip-rule="evenodd" d="M173.562 161.196C173.743 160.546 174.604 159.847 175.053 159.197C175.56 159.197 176 158.872 176.507 158.891C176.631 158.891 176.803 159.073 176.928 159.073C177.932 159.025 179.232 158.337 180.265 157.878C183.373 156.52 186.213 154.445 188.049 152.207C188.737 152.542 187.791 153.307 187.504 153.641C185.199 156.204 181.212 157.935 177.683 159.264C177.549 159.226 177.616 158.996 177.348 159.082C176.402 159.628 175.053 159.752 174.422 160.622C174.527 160.995 174.738 160.507 175.101 160.641C174.661 160.909 174.001 160.938 173.562 161.196Z" fill="#FFF0BA"/>
<path fill-rule="evenodd" clip-rule="evenodd" d="M174.862 139.316C180.007 140.139 183.459 142.577 185.735 146.125C185.161 146.135 183.861 145.245 183.277 145.982C183.182 146.842 183.469 147.349 183.918 147.693C182.474 147.215 180.963 146.087 179.644 145.207C178.295 143.065 176.115 141.267 174.862 139.316Z" fill="#FFF0BA"/>
<path fill-rule="evenodd" clip-rule="evenodd" d="M188.967 152.991C189.885 153.288 188.958 153.919 188.681 154.263C188.021 155.085 187.81 155.688 187.103 156.262C184.368 158.48 179.873 159.723 175.876 160.488C175.819 160.488 175.761 160.488 175.704 160.488C177.693 159.675 180.304 159.073 182.302 158.098C184.932 156.826 187.351 155.143 188.967 152.991Z" fill="#FFF0BA"/>
<path fill-rule="evenodd" clip-rule="evenodd" d="M179.452 146.135C180.561 146.709 181.957 147.722 183.564 148.105C183.784 148.134 183.927 148.086 183.908 147.856C184.252 148.105 184.511 148.449 184.731 148.812C182.856 148.353 180.303 147.837 179.442 146.135H179.452Z" fill="#FFF0BA"/>
<path fill-rule="evenodd" clip-rule="evenodd" d="M185.726 142.979C190.172 145.455 194.265 148.276 196.703 152.675C192.381 150.438 190.88 145.513 186.051 143.753C186.825 144.757 188.021 145.226 188.881 146.115C190.956 148.257 192.62 150.791 194.915 152.723C194.016 152.771 193.376 151.996 192.735 151.48C191.501 150.476 190.421 149.51 189.158 148.42C188.556 147.903 187.715 147.454 187.322 146.928C186.844 146.268 186.557 145.35 186.108 144.604C185.639 143.839 185.333 143.055 184.894 142.281C185.228 142.51 187.801 143.438 185.726 142.979Z" fill="#FFF0BA"/>
<path fill-rule="evenodd" clip-rule="evenodd" d="M184.798 149.75C184.846 149.654 185.352 149.826 185.649 149.769C185.391 149.97 185.056 149.912 184.798 149.75Z" fill="#FFF0BA"/>
<path fill-rule="evenodd" clip-rule="evenodd" d="M197.42 154.397C197.535 154.674 197.171 154.913 196.98 155.152C196.378 155.87 195.68 156.931 194.972 157.562C192.849 159.446 189.588 160.221 186.146 160.66C185.84 160.689 186.031 160.507 186.232 160.574C190.104 159.274 193.27 157.227 195.89 154.607C196.435 154.569 196.97 154.521 197.42 154.387V154.397Z" fill="#FFF0BA"/>
<path fill-rule="evenodd" clip-rule="evenodd" d="M189.675 158.538C190.287 158.069 191.826 157.094 192.869 156.491C191.951 157.323 190.813 157.926 189.675 158.538Z" fill="#FFF0BA"/>
<path fill-rule="evenodd" clip-rule="evenodd" d="M190.21 153.956C190.535 154.176 190.65 154.588 190.956 154.827C190.812 154.769 190.143 154.492 190.21 153.956Z" fill="#FFF0BA"/>
<path fill-rule="evenodd" clip-rule="evenodd" d="M191.559 154.588C191.807 154.416 192.085 154.913 192.228 155.114C192.333 155.248 191.759 154.703 191.559 154.588Z" fill="#FFF0BA"/>
<path fill-rule="evenodd" clip-rule="evenodd" d="M192.821 144.509C198.004 146.891 201.571 151.968 205.97 155.621C202.594 154.388 200.156 151.538 197.373 149.463C198.1 151.079 199.553 152.198 200.844 153.288C202.154 154.388 203.617 155.449 205.272 156.205C204.028 155.851 202.91 155.095 201.829 154.416C200.768 153.747 199.515 153.154 198.654 152.303C197.641 151.289 196.684 149.501 195.862 148.239C194.954 146.843 194.016 145.58 192.812 144.509H192.821Z" fill="#FFF0BA"/>
<path fill-rule="evenodd" clip-rule="evenodd" d="M197.439 157.027C197.353 157.228 197.191 156.826 196.933 156.931C197.114 156.635 197.363 156.396 197.545 156.099C198.291 156.549 198.692 157.323 199.371 157.84C198.616 157.811 198.262 156.683 197.449 156.434C197.219 156.539 197.277 156.884 197.43 157.027H197.439Z" fill="#FFF0BA"/>
<path fill-rule="evenodd" clip-rule="evenodd" d="M199.61 148.411C201.685 149.472 203.617 151.394 204.918 153.469C203.12 152.14 201.58 149.845 199.61 148.411Z" fill="#FFF0BA"/>
<path fill-rule="evenodd" clip-rule="evenodd" d="M202.307 156.042C202.603 155.975 203.081 156.462 203.483 156.577C203.11 157.18 202.66 156.223 202.307 156.042Z" fill="#FFF0BA"/>
<path fill-rule="evenodd" clip-rule="evenodd" d="M237.306 166.159C238.09 166.073 238.214 167.345 238.884 167.641C238.109 167.708 237.851 166.58 237.306 166.159Z" fill="#FFF0BA"/>
<path fill-rule="evenodd" clip-rule="evenodd" d="M241.762 168.138C242.441 168.129 242.766 169.181 243.34 169.535C242.517 169.678 242.316 168.521 241.762 168.138Z" fill="#FFF0BA"/>
<path fill-rule="evenodd" clip-rule="evenodd" d="M243.77 169.123C245.022 169.592 246.686 170.376 247.537 171.514C246.265 171.064 244.382 170.481 243.77 169.123Z" fill="#FFF0BA"/>
<path d="M28.8 21.912H7.152C7.504 26.776 8.672 31.112 10.656 34.92C12.672 38.696 15.264 41.64 18.432 43.752C21.6 45.832 25.056 46.872 28.8 46.872V51.48C23.968 51.48 19.488 50.104 15.36 47.352C11.264 44.6 8 40.76 5.568 35.832C3.136 30.872 1.92 25.24 1.92 18.936V17.4H28.8V21.912ZM52.2128 51L44.1968 32.376L35.8448 51H30.9488L41.8928 27.048L37.6208 17.16H42.5648L57.2048 51H52.2128ZM78.111 51L76.911 47.976L59.343 51.528C58.991 49.928 58.815 48.456 58.815 47.112C58.815 43.4 59.919 40.296 62.127 37.8C64.335 35.272 67.359 33.72 71.199 33.144L68.799 27H73.599L82.911 51H78.111ZM75.519 44.28L72.639 36.888C69.759 37.272 67.503 38.232 65.871 39.768C64.271 41.304 63.471 43.288 63.471 45.72C63.471 46.136 63.487 46.456 63.519 46.68L75.519 44.28ZM100.809 35.688C103.529 36.872 105.593 38.664 107.001 41.064C108.409 43.464 109.113 46.44 109.113 49.992V51H87.465V28.2C87.465 25.832 87.929 23.8 88.857 22.104C89.817 20.376 91.097 19.08 92.697 18.216C94.329 17.32 96.137 16.872 98.121 16.872C99.977 16.872 101.673 17.288 103.209 18.12C104.745 18.952 105.945 20.104 106.809 21.576C107.705 23.048 108.153 24.696 108.153 26.52C108.153 28.44 107.561 30.248 106.377 31.944C105.225 33.64 103.369 34.888 100.809 35.688ZM97.977 21C96.121 21 94.665 21.608 93.609 22.824C92.553 24.008 92.025 25.928 92.025 28.584V33.192H95.529C98.089 33.192 100.041 32.568 101.385 31.32C102.729 30.04 103.401 28.472 103.401 26.616C103.401 25.016 102.873 23.688 101.817 22.632C100.793 21.544 99.513 21 97.977 21ZM91.977 47.016H104.121C103.897 44.776 103.145 42.888 101.865 41.352C100.585 39.784 99.049 38.632 97.257 37.896C95.465 37.16 93.721 36.856 92.025 36.984L91.977 47.016ZM131.642 51L130.442 47.976L112.874 51.528C112.522 49.928 112.346 48.456 112.346 47.112C112.346 43.4 113.45 40.296 115.658 37.8C117.866 35.272 120.89 33.72 124.73 33.144L122.33 27H127.13L136.442 51H131.642ZM129.05 44.28L126.17 36.888C123.29 37.272 121.034 38.232 119.402 39.768C117.802 41.304 117.002 43.288 117.002 45.72C117.002 46.136 117.018 46.456 117.05 46.68L129.05 44.28ZM180.417 19.032C180.417 25.432 179.281 31.096 177.009 36.024C174.769 40.92 171.585 44.728 167.457 47.448C163.329 50.136 158.513 51.48 153.009 51.48V46.872C156.209 46.872 159.105 46.312 161.697 45.192C164.321 44.04 166.593 42.408 168.513 40.296C165.505 39.528 162.785 38.04 160.353 35.832C157.921 33.624 156.001 30.92 154.593 27.72C153.217 24.488 152.529 21.048 152.529 17.4H157.329C157.329 20.6 157.953 23.592 159.201 26.376C160.449 29.128 162.145 31.384 164.289 33.144C166.465 34.872 168.849 35.864 171.441 36.12C172.753 33.848 173.745 31.272 174.417 28.392C175.089 25.512 175.425 22.424 175.425 19.128L175.377 17.544V17.4H180.369L180.417 19.032ZM199.912 38.808C202.152 39.704 203.848 41.192 205 43.272C206.152 45.32 206.728 47.896 206.728 51H201.976C201.944 47.96 201.192 45.56 199.72 43.8C198.28 42.008 196.328 41.112 193.864 41.112H190.744V51H186.184V17.16H190.744V36.888H193.864C195.4 36.888 196.776 36.504 197.992 35.736C199.208 34.936 200.152 33.784 200.824 32.28C201.528 30.776 201.88 29.016 201.88 27H206.488C206.488 29.784 205.896 32.232 204.712 34.344C203.528 36.424 201.928 37.912 199.912 38.808ZM235.785 28.632C235.785 34.872 234.233 39.736 231.129 43.224C228.025 46.68 223.657 48.488 218.025 48.648V59.16H213.465V27H235.785V28.632ZM218.025 44.376C220.585 44.376 222.825 43.832 224.745 42.744C226.697 41.656 228.217 40.12 229.305 38.136C230.425 36.12 231.049 33.768 231.177 31.08H218.025V44.376ZM256.517 51L255.317 47.976L237.749 51.528C237.397 49.928 237.221 48.456 237.221 47.112C237.221 43.4 238.325 40.296 240.533 37.8C242.741 35.272 245.765 33.72 249.605 33.144L247.205 27H252.005L261.317 51H256.517ZM253.925 44.28L251.045 36.888C248.165 37.272 245.909 38.232 244.277 39.768C242.677 41.304 241.877 43.288 241.877 45.72C241.877 46.136 241.893 46.456 241.925 46.68L253.925 44.28ZM270.431 27V51H265.871V27H270.431ZM265.775 17.4V22.68H260.495V17.4H265.775ZM275.855 17.4V22.68H270.575V17.4H275.855ZM299.706 27V51H295.146V41.16H282.666V51H278.106V27H282.666V36.84H295.146V27H299.706ZM311.963 27V51H307.403V27H311.963ZM312.251 17.4V22.68H307.163V17.4H312.251ZM325.157 17.4V40.92H320.357V17.4H325.157ZM325.397 45.72V51H320.117V45.72H325.397ZM26.88 82.008H9.12V111H4.32V77.4H26.88V82.008ZM17.5294 108.936C17.5294 104.488 18.3934 100.568 20.1214 97.176C21.8494 93.752 24.2654 91.112 27.3694 89.256C30.5054 87.4 34.1054 86.472 38.1694 86.472V101.352H23.3374C22.8574 103.144 22.5694 104.92 22.4734 106.68H38.1694V111H17.5294V108.936ZM33.7534 97.368V91.272C29.9454 92.104 27.0654 94.136 25.1134 97.368H33.7534ZM67.4569 88.632C67.4569 94.872 65.9049 99.736 62.8009 103.224C59.6969 106.68 55.3289 108.488 49.6969 108.648V119.16H45.1369V87H67.4569V88.632ZM49.6969 104.376C52.2569 104.376 54.4969 103.832 56.4169 102.744C58.3689 101.656 59.8889 100.12 60.9769 98.136C62.0969 96.12 62.7209 93.768 62.8489 91.08H49.6969V104.376ZM83.823 111.48C81.455 111.48 79.295 110.936 77.343 109.848C75.391 108.728 73.855 107.224 72.735 105.336C71.615 103.416 71.055 101.304 71.055 99C71.055 96.696 71.615 94.6 72.735 92.712C73.855 90.792 75.391 89.288 77.343 88.2C79.295 87.08 81.455 86.52 83.823 86.52C86.159 86.52 88.287 87.08 90.207 88.2C92.159 89.288 93.695 90.792 94.815 92.712C95.935 94.6 96.495 96.696 96.495 99C96.495 101.304 95.935 103.416 94.815 105.336C93.695 107.224 92.159 108.728 90.207 109.848C88.287 110.936 86.159 111.48 83.823 111.48ZM83.823 107.256C85.295 107.256 86.639 106.904 87.855 106.2C89.071 105.464 90.031 104.472 90.735 103.224C91.439 101.944 91.791 100.536 91.791 99C91.791 97.464 91.439 96.072 90.735 94.824C90.031 93.544 89.071 92.552 87.855 91.848C86.639 91.112 85.295 90.744 83.823 90.744C82.319 90.744 80.943 91.112 79.695 91.848C78.479 92.552 77.519 93.544 76.815 94.824C76.111 96.072 75.759 97.464 75.759 99C75.759 100.536 76.111 101.944 76.815 103.224C77.519 104.472 78.479 105.464 79.695 106.2C80.943 106.904 82.319 107.256 83.823 107.256ZM120.872 111H116.312V101.208H113.912C111.032 101.208 108.824 102.088 107.288 103.848C105.752 105.576 104.968 107.96 104.936 111H100.328C100.328 108.088 100.888 105.624 102.008 103.608C103.128 101.56 104.776 100.12 106.952 99.288C104.872 98.328 103.272 96.888 102.152 94.968C101.064 93.048 100.52 90.824 100.52 88.296C100.52 87.72 100.536 87.288 100.568 87H120.872V111ZM116.312 97.368V90.936H105.704C105.928 92.952 106.744 94.536 108.152 95.688C109.592 96.808 111.448 97.368 113.72 97.368H116.312ZM157.854 111H153.294V93.672L143.214 104.28L133.134 93.72V111H128.574V87H132.654L143.31 97.944L153.774 87H157.854V111ZM203.925 81.912H182.277C182.629 86.776 183.797 91.112 185.781 94.92C187.797 98.696 190.389 101.64 193.557 103.752C196.725 105.832 200.181 106.872 203.925 106.872V111.48C199.093 111.48 194.613 110.104 190.485 107.352C186.389 104.6 183.125 100.76 180.693 95.832C178.261 90.872 177.045 85.24 177.045 78.936V77.4H203.925V81.912ZM227.338 111L219.322 92.376L210.97 111H206.074L217.018 87.048L212.746 77.16H217.69L232.33 111H227.338ZM253.236 111L252.036 107.976L234.468 111.528C234.116 109.928 233.94 108.456 233.94 107.112C233.94 103.4 235.044 100.296 237.252 97.8C239.46 95.272 242.484 93.72 246.324 93.144L243.924 87H248.724L258.036 111H253.236ZM250.644 104.28L247.764 96.888C244.884 97.272 242.628 98.232 240.996 99.768C239.396 101.304 238.596 103.288 238.596 105.72C238.596 106.136 238.612 106.456 238.644 106.68L250.644 104.28ZM275.934 95.688C278.654 96.872 280.718 98.664 282.126 101.064C283.534 103.464 284.238 106.44 284.238 109.992V111H262.59V88.2C262.59 85.832 263.054 83.8 263.982 82.104C264.942 80.376 266.222 79.08 267.822 78.216C269.454 77.32 271.262 76.872 273.246 76.872C275.102 76.872 276.798 77.288 278.334 78.12C279.87 78.952 281.07 80.104 281.934 81.576C282.83 83.048 283.278 84.696 283.278 86.52C283.278 88.44 282.686 90.248 281.502 91.944C280.35 93.64 278.494 94.888 275.934 95.688ZM273.102 81C271.246 81 269.79 81.608 268.734 82.824C267.678 84.008 267.15 85.928 267.15 88.584V93.192H270.654C273.214 93.192 275.166 92.568 276.51 91.32C277.854 90.04 278.526 88.472 278.526 86.616C278.526 85.016 277.998 83.688 276.942 82.632C275.918 81.544 274.638 81 273.102 81ZM267.102 107.016H279.246C279.022 104.776 278.27 102.888 276.99 101.352C275.71 99.784 274.174 98.632 272.382 97.896C270.59 97.16 268.846 96.856 267.15 96.984L267.102 107.016ZM306.767 111L305.567 107.976L287.999 111.528C287.647 109.928 287.471 108.456 287.471 107.112C287.471 103.4 288.575 100.296 290.783 97.8C292.991 95.272 296.015 93.72 299.855 93.144L297.455 87H302.255L311.567 111H306.767ZM304.175 104.28L301.295 96.888C298.415 97.272 296.159 98.232 294.527 99.768C292.927 101.304 292.127 103.288 292.127 105.72C292.127 106.136 292.143 106.456 292.175 106.68L304.175 104.28ZM321.641 77.4V100.92H316.841V77.4H321.641ZM321.881 105.72V111H316.601V105.72H321.881Z" fill="#FF4000"/>
</svg>
