<svg width="472" height="180" fill="none" xmlns="http://www.w3.org/2000/svg"><g clip-path="url(#a)" fill-rule="evenodd" clip-rule="evenodd"><path d="M156.157 119.244c-1.665-24.015 28.101-15.683 40.437-9.912-1.581-5.139-3.412-10.41-5.41-15.683-10.122 3.044-43.235 2.362-40.471-8.415 5.494-21.337 28.584-6.237 38.19 2.578-3.529-8.781-7.408-17.396-11.187-25.196-9.04 4.64-35.81 10.245-35.677.715.267-19.358 22.974-11.409 33.163-5.82-2.78-5.556-5.444-10.578-7.808-14.77-6.726 3.427-33.612 6.454-32.497-2.328 2.248-17.645 22.991-6.752 30.583-.997-.35-.599-.683-1.164-1.016-1.713-.982-1.63-2.048-3.809-3.113-6.17-2.814-.416-31.714-26.643-11.187-31.4 8.507-1.979 12.885 22.419 11.686 30.086a117.415 117.415 0 0 0 3.397 5.422c-1.515-10.411-1.016-29.87 14.566-24.714 8.091 2.677-4.844 23.965-11.204 29.703 2.381 3.492 4.845 7.151 7.475 11.591a287.727 287.727 0 0 1 2.83 4.873c-1.997-11.275-2.297-35.922 16.299-29.769 9.605 3.177-6.793 29.337-13.618 34.526 3.995 7.135 8.39 15.483 12.552 24.314-2.38-9.014-4.761-39.448 15.682-32.68 10.056 3.327-8.373 31.832-14.5 35.109h-.033c2.381 5.172 4.661 10.51 6.692 15.832 2.714-14.402 11.804-38.6 29.683-25.312 9.19 6.835-15.415 28.123-26.703 33.628 4.961 14.968 7.475 29.437 4.645 40.396a4.81 4.81 0 0 1-6.326 2.429 4.802 4.802 0 0 1-2.431-6.32c2.647-8.1 1.132-20.357-2.563-33.977-11.221 6.486-41.404 15.15-42.186 3.925l.05.049Z" fill="#F8E184"/><path d="M267.648 143.043c1.665-24.015-28.102-15.683-40.438-9.912 1.582-5.139 3.413-10.411 5.411-15.683 10.122 3.044 43.234 2.362 40.471-8.415-5.494-21.338-28.585-6.237-38.191 2.578 3.53-8.781 7.409-17.396 11.188-25.196 9.04 4.64 35.809 10.244 35.676.715-.266-19.359-22.99-11.409-33.162-5.821 2.78-5.555 5.444-10.577 7.808-14.768 6.725 3.426 33.612 6.453 32.496-2.329-2.247-17.645-22.991-6.752-30.582-.998.35-.598.683-1.164 1.016-1.712.982-1.63 2.047-3.809 3.113-6.17 2.813-.416 31.714-26.643 11.187-31.4-8.507-1.979-12.885 22.419-11.687 30.086a108.353 108.353 0 0 1-3.396 5.421c1.515-10.41 1.032-29.869-14.567-24.713-8.091 2.677 4.845 23.965 11.204 29.703-2.38 3.492-4.844 7.15-7.475 11.591a286.942 286.942 0 0 0-2.83 4.873c1.998-11.276 2.298-35.923-16.298-29.77-9.606 3.177 6.792 29.338 13.618 34.527-3.996 7.134-8.391 15.483-12.553 24.314 2.381-9.014 4.762-39.448-15.682-32.68-10.039 3.326 8.374 31.832 14.5 35.108h.034c-2.381 5.173-4.662 10.511-6.693 15.833-2.713-14.386-11.82-38.6-29.683-25.296-9.189 6.836 15.416 28.123 26.703 33.628-4.944 14.968-7.475 29.454-4.644 40.413a4.81 4.81 0 0 0 6.326 2.429 4.8 4.8 0 0 0 2.43-6.32c-2.63-8.099-1.132-20.357 2.564-33.977 11.221 6.486 41.403 15.151 42.186 3.925l-.05.016Z" fill="#F8E184"/><path d="M55.953 127.543c-10.854-20.09 18.113-24.531 31.015-24.398-3.38-3.825-7.025-7.65-10.82-11.408-7.542 6.586-36.393 18.959-38.24 8.565-3.63-20.573 22.224-16.582 33.96-12.723-6.492-6.203-13.218-12.124-19.527-17.38-5.977 7.55-26.886 22.851-30.516 14.586-7.358-16.814 15.366-18.843 26.337-18.011a344.818 344.818 0 0 0-12.519-9.696c-4.462 5.588-26.47 18.726-28.95 10.71C1.714 51.673 23.89 52.97 32.695 54.948a54.23 54.23 0 0 0-1.548-1.08c-1.482-1.031-3.263-2.495-5.11-4.091-2.598.748-37.825-10.578-21.976-22.718 6.576-5.04 19.928 14.302 21.892 21.404a147.891 147.891 0 0 0 5.06 3.36c-5.393-8.4-12.601-25.38 2.881-27.026 8.04-.848 5.227 22.585 1.981 30.019 3.43 2.095 6.992 4.274 10.988 7.085 1.365.964 2.83 1.995 4.345 3.093-6.143-8.947-16.082-30.102 2.397-32.081 9.54-1.015 5.644 27.973 1.798 35.124 6.243 4.607 13.318 10.079 20.377 16.083-5.594-6.852-19.595-32.181.716-34.343 9.972-1.065 5.26 30.75 1.249 35.99l-.034.032c4.079 3.543 8.141 7.235 11.987 11.043-3.297-13.487-4.945-37.935 15.682-33.461 10.621 2.311-2.281 30.318-9.856 39.465 10.139 10.977 18.013 22.485 19.861 33.063a4.537 4.537 0 0 1-4.511 4.573 4.537 4.537 0 0 1-4.578-4.507c-.899-8.016-7.01-18.011-15.533-28.323-7.142 9.979-29.8 29.288-34.86 19.891h.05ZM401.579 158.194c13.885-19.675-15.898-27.957-29.433-29.421 4.012-3.575 8.324-7.134 12.769-10.61 7.075 7.85 35.759 24.414 38.973 13.754 6.376-21.089-21.21-20.141-33.995-17.563 7.574-5.688 15.366-11.043 22.641-15.766 5.327 8.648 25.304 27.291 30.149 19.092 9.822-16.697-13.735-21.653-25.338-22.152 5.261-3.31 10.138-6.22 14.334-8.598 3.979 6.42 25.388 22.934 29 14.835 7.242-16.249-16.148-17.68-25.637-16.698.599-.333 1.198-.649 1.764-.948 1.682-.898 3.729-2.195 5.86-3.659 2.631 1.098 40.954-6.353 25.854-21.055-6.259-6.103-22.657 12.507-25.604 19.675a132.84 132.84 0 0 1-5.727 2.894c6.693-8.133 16.365-25.013.366-28.672-8.307-1.896-8.29 23-5.843 31.2-3.846 1.763-7.858 3.592-12.403 6.053-1.548.832-3.213 1.73-4.944 2.694 7.558-8.598 20.61-29.536 1.515-33.893-9.856-2.262-9.423 28.605-6.276 36.571-7.109 4.041-15.216 8.898-23.357 14.303 6.709-6.47 24.539-31.267 3.546-36.056-10.322-2.362-9.356 31.549-5.827 37.536 0 0 0 .017.017.033-4.728 3.193-9.44 6.569-13.951 10.079 5.144-13.721 9.922-39.133-12.253-37.004-11.404 1.08-1.415 32.031 5.394 42.575-12.003 10.228-21.676 21.304-24.939 32.148a4.777 4.777 0 0 0 4.146 5.338 4.78 4.78 0 0 0 5.344-4.141c1.947-8.299 9.589-17.995 19.811-27.74 6.242 11.359 27.552 34.392 34.028 25.196h.016Z" fill="#4C4757"/><path d="M323.401 46.483c-10.022 14.253-24.356 45.336-5.444 58.691a1.385 1.385 0 0 0 1.881-.565 1.39 1.39 0 0 0-.549-1.88c-16.947-11.974-2.514-42.043 6.243-54.483.483-.582.416-1.463-.166-1.946a1.377 1.377 0 0 0-1.948.167l-.017.016Z" fill="#210000"/><path d="M305.172 50.924c-12.12 22.685-8.674 38.002 10.737 54.683a1.397 1.397 0 0 0 1.932-.283 1.393 1.393 0 0 0-.283-1.929c-18.147-15.6-21.426-29.72-10.089-50.924a1.37 1.37 0 0 0-.383-1.913c-.632-.432-1.498-.25-1.931.382l.017-.016Z" fill="#210000"/><path d="M349.688 86.414c-4.861 5.156-20.76 20.706-29.816 16.582a1.393 1.393 0 0 0-1.881.548 1.391 1.391 0 0 0 .549 1.88c11.337 5.155 27.103-10.694 33.446-17.463a1.389 1.389 0 1 0-2.298-1.563v.016Z" fill="#210000"/><path d="M369 79.53c-8.357 17.994-19.395 30.817-41.703 27.94-4.328-.549-5.411-1.198-8.674-3.51a1.394 1.394 0 0 0-1.881.549 1.392 1.392 0 0 0 .55 1.88c3.429 2.527 5.244 3.259 9.655 3.841 23.491 3.044 35.677-10.394 44.567-29.536.316-.699 0-1.514-.683-1.83a1.391 1.391 0 0 0-1.831.682v-.017Z" fill="#210000"/><path d="M358.195 63.031c-4.761 12.806-31.913 39.05-38.789 38.983a1.383 1.383 0 0 0-1.265 2.462c7.025 3.077 37.424-26.41 42.768-40.929a1.37 1.37 0 0 0-1.099-1.613 1.372 1.372 0 0 0-1.615 1.097Z" fill="#210000"/><path d="M335.088 66.707c-7.325 13.122-11.038 21.204-16.864 34.409a1.39 1.39 0 0 0 .549 1.88 1.393 1.393 0 0 0 1.881-.549c5.844-13.189 9.506-21.255 16.848-34.41a1.391 1.391 0 0 0-.549-1.879 1.395 1.395 0 0 0-1.882.549h.017Z" fill="#210000"/><path d="M344.91 44.87c-20.393 22.851-24.206 28.14-28.617 57.76a1.385 1.385 0 0 0 1.231 1.53 1.387 1.387 0 0 0 1.532-1.231c4.312-28.971 7.958-33.844 27.919-56.196a1.37 1.37 0 0 0-.1-1.946 1.374 1.374 0 0 0-1.948.1l-.017-.017Z" fill="#210000"/><path d="M348.423 47.066c-5.211.05-10.139-9.33-6.693-14.22 13.851-19.658 33.696 13.954 6.693 14.22Z" fill="#FF4000"/><path d="M324.35 51.09c-5.211.05-9.772-9.246-6.626-14.319 12.053-19.508 33.629 14.054 6.626 14.32Z" fill="#FF4000"/><path d="M338.984 68.004c-5.211.05-9.773-9.247-6.643-14.32 12.053-19.508 33.629 14.054 6.643 14.32Z" fill="#FF4000"/><path d="M323.584 35.89c-.516 0-.982-.931-.666-1.43 1.216-1.946 3.363 1.413.666 1.43ZM353.384 31.166c-.516 0-.982-.931-.666-1.43 1.199-1.946 3.363 1.414.666 1.43ZM339.6 65.426c-.517 0-.983-.915-.666-1.43 1.198-1.946 3.362 1.413.666 1.43Z" fill="#170000"/><path d="M351.786 87.429c-5.194.05-10.139-9.33-6.692-14.22 13.851-19.657 33.695 13.954 6.692 14.22ZM361.525 65.543c-5.194.05-9.773-9.247-6.626-14.32 12.053-19.508 33.629 14.054 6.626 14.32Z" fill="#FF4000"/><path d="M377.723 65.709c4.345.615 6.976 8.947 3.713 12.772C368.9 93.216 355.199 62.5 377.723 65.71Z" fill="#FF4000"/><path d="M360.742 50.359c-.516 0-.965-.932-.666-1.43 1.199-1.946 3.363 1.396.666 1.43ZM356.747 71.53c-.516 0-.982-.932-.666-1.43 1.199-1.947 3.363 1.396.666 1.43ZM376.891 67.771c.433.067.699.898.366 1.28-1.249 1.48-2.614-1.596-.366-1.28Z" fill="#170000"/><path d="M315.71 71.497c-5.211.05-9.773-9.247-6.643-14.32 12.053-19.507 33.629 14.054 6.643 14.32Z" fill="#FF4000"/><path d="M314.928 56.296c-.516 0-.983-.931-.666-1.43 1.198-1.946 3.363 1.414.666 1.43Z" fill="#170000"/><path d="M302.841 52.32c-4.628.05-8.69-8.215-5.91-12.739 10.721-17.346 29.9 12.507 5.91 12.74Z" fill="#FF4000"/><path d="M302.159 38.8c-.467 0-.866-.815-.583-1.28 1.065-1.73 2.997 1.247.583 1.28Z" fill="#170000"/><path d="M317.558 104.426c-8.291 27.092-16.182 42.043-45.732 47.099-15.149 2.594-29.3.582-44.3-1.165a1.376 1.376 0 0 0-1.565 1.165 1.366 1.366 0 0 0 1.166 1.563c20.626 2.395 38.14 4.806 58.384-2.312 22.441-7.899 28.384-24.996 34.76-45.818a1.384 1.384 0 0 0-2.713-.549v.017Z" fill="#210000"/><path d="M308.635 131.352c4.428-18.91-4.945-50.592-24.523-40.93-2.979 1.48.899 9.83 9.873 17.546 2.147 1.863 14.65 23.4 14.666 23.384h-.016ZM311.148 128.757c13.568-13.92 45.333-23.101 47.73-1.397.366 3.309-8.774 4.524-20.111 1.147-2.73-.814-27.635.267-27.619.25Z" fill="#210000"/><path d="M302.791 139.6c10.771-9.446 34.661-14.385 35.177 1.713.083 2.462-6.709 2.828-14.85-.316-1.964-.748-20.327-1.397-20.327-1.397ZM300.211 142.195c2.164-14.153-6.543-36.921-20.394-28.689-2.114 1.264 1.232 7.168 8.257 12.341 1.698 1.247 12.12 16.365 12.12 16.365l.017-.017Z" fill="#210000"/><path d="M278.985 152.489c12.103-9.463 22.042-33.611 5.177-37.336-2.563-.566-4.311 6.503-2.613 15.683.416 2.212-2.564 21.653-2.564 21.653ZM294.55 145.937c14.417-5.289 40.205-.982 34.495 15.3-.866 2.478-7.808.233-14.717-6.054-1.665-1.513-19.778-9.246-19.778-9.246Z" fill="#210000"/><path d="M277.636 152.074c10.905-3.06 29.617 1.58 24.473 13.222-.783 1.779-5.744-.283-10.472-5.289-1.132-1.214-14.001-7.933-14.001-7.933Z" fill="#170000"/><path d="M113.455 37.952c9.456 13.438 22.958 42.758 5.128 55.348a1.283 1.283 0 0 1-1.765-.532c-.349-.633-.1-1.43.533-1.763 15.982-11.293 2.364-39.649-5.893-51.373-.467-.55-.383-1.38.166-1.847.549-.465 1.382-.382 1.848.167h-.017Z" fill="#210000"/><path d="M130.652 42.143c11.437 21.388 8.174 35.84-10.122 51.573a1.32 1.32 0 0 1-1.831-.266 1.317 1.317 0 0 1 .266-1.83c17.114-14.701 20.211-28.023 9.506-48.013a1.307 1.307 0 0 1 2.165-1.464h.016Z" fill="#210000"/><path d="M88.666 75.604c4.579 4.856 19.578 19.525 28.119 15.633a1.314 1.314 0 0 1 1.781.516c.35.632.117 1.43-.516 1.763-10.688 4.856-25.554-10.079-31.531-16.465a1.31 1.31 0 0 1 .35-1.813c.599-.399 1.415-.25 1.814.35l-.017.016Z" fill="#210000"/><path d="M70.47 69.119c7.875 16.963 18.296 29.054 39.323 26.343 4.078-.532 5.094-1.114 8.174-3.31a1.31 1.31 0 1 1 1.265 2.295c-3.246 2.379-4.944 3.077-9.106 3.61-22.159 2.877-33.63-9.796-42.02-27.857-.3-.666 0-1.43.65-1.73.649-.3 1.431 0 1.731.649h-.017Z" fill="#210000"/><path d="M80.659 53.552c4.495 12.074 30.099 36.82 36.575 36.754a1.308 1.308 0 0 1 1.715.55c.349.631.116 1.43-.516 1.779-6.626 2.893-35.294-24.897-40.321-38.6a1.309 1.309 0 0 1 1.032-1.53 1.31 1.31 0 0 1 1.531 1.03l-.016.017Z" fill="#210000"/><path d="M102.451 57.011c6.909 12.373 10.405 19.99 15.898 32.447.35.632.117 1.43-.516 1.763a1.314 1.314 0 0 1-1.781-.516c-5.51-12.44-8.973-20.04-15.899-32.447a1.289 1.289 0 0 1 .516-1.763 1.29 1.29 0 0 1 1.765.516h.017Z" fill="#210000"/><path d="M93.178 36.422c19.245 21.553 22.824 26.526 26.986 54.466a1.295 1.295 0 0 1-1.165 1.43 1.285 1.285 0 0 1-1.432-1.164c-4.062-27.308-7.508-31.915-26.32-53.003a1.296 1.296 0 0 1 .1-1.846 1.3 1.3 0 0 1 1.848.1l-.017.017Z" fill="#210000"/><path d="M89.865 38.5c4.911.05 9.556-8.797 6.31-13.404-13.07-18.527-31.765 13.155-6.31 13.405Z" fill="#FF4000"/><path d="M112.556 42.293c4.911.05 9.206-8.715 6.26-13.505-11.371-18.394-31.715 13.255-6.26 13.505Z" fill="#FF4000"/><path d="M98.772 58.242c4.911.05 9.223-8.715 6.26-13.505-11.371-18.393-31.715 13.255-6.26 13.505Z" fill="#FF4000"/><path d="M113.289 27.974c.499 0 .915-.865.632-1.348-1.132-1.829-3.163 1.33-.632 1.348ZM85.187 23.5c.483 0 .916-.865.633-1.347-1.132-1.846-3.163 1.33-.633 1.347ZM98.189 55.813c.5 0 .916-.865.633-1.347-1.133-1.846-3.164 1.33-.633 1.347Z" fill="#170000"/><path d="M86.702 76.553c4.911.05 9.556-8.798 6.31-13.405-13.07-18.527-31.765 13.155-6.31 13.405ZM77.513 55.93c4.91.05 9.206-8.714 6.26-13.504-11.371-18.394-31.715 13.255-6.26 13.504Z" fill="#FF4000"/><path d="M62.23 56.08c-4.096.582-6.576 8.431-3.496 12.057 11.82 13.887 24.738-15.068 3.496-12.057Z" fill="#FF4000"/><path d="M78.245 41.594c.483 0 .916-.864.633-1.347-1.132-1.846-3.163 1.33-.633 1.347ZM82.024 61.568c.483 0 .915-.865.632-1.347-1.132-1.846-3.163 1.33-.632 1.347ZM63.029 58.026c-.4.05-.65.848-.35 1.197 1.182 1.397 2.48-1.497.35-1.197Z" fill="#170000"/><path d="M120.714 61.535c4.911.05 9.206-8.715 6.259-13.505-11.37-18.393-31.714 13.255-6.259 13.505Z" fill="#FF4000"/><path d="M121.446 47.199c.483 0 .916-.865.633-1.347-1.132-1.846-3.163 1.33-.633 1.347Z" fill="#170000"/><path d="M132.85 43.456c4.361.05 8.19-7.75 5.56-12.007-10.105-16.365-28.201 11.791-5.56 12.007Z" fill="#FF4000"/><path d="M133.499 30.717c.433 0 .816-.781.549-1.197-1.015-1.63-2.813 1.18-.549 1.197Z" fill="#170000"/><path d="M118.966 92.585c7.824 25.545 15.249 39.631 43.117 44.404 14.284 2.445 27.636.549 41.77-1.097a1.3 1.3 0 0 1 1.482 1.097 1.301 1.301 0 0 1-1.099 1.481c-19.445 2.261-35.96 4.54-55.055-2.179-21.176-7.451-26.769-23.583-32.779-43.207a1.304 1.304 0 0 1 1.032-1.53 1.306 1.306 0 0 1 1.532 1.03Z" fill="#210000"/><path d="M127.39 117.98c-4.179-17.829 4.661-47.714 23.123-38.6 2.814 1.396-.849 9.263-9.306 16.547-2.031 1.746-13.817 22.069-13.817 22.053Z" fill="#210000"/><path d="M125.026 115.535c-12.786-13.122-42.752-21.786-45.016-1.314-.35 3.127 8.274 4.274 18.962 1.081 2.58-.765 26.054.25 26.054.25v-.017Z" fill="#170000"/><path d="M132.9 125.747c-10.156-8.915-32.68-13.555-33.163 1.613-.083 2.311 6.326 2.661 14.001-.3 1.848-.715 19.162-1.313 19.162-1.313Z" fill="#170000"/><path d="M135.33 128.209c-2.047-13.355 6.16-34.81 19.229-27.059 1.997 1.181-1.166 6.769-7.792 11.625-1.598 1.164-11.437 15.434-11.437 15.417v.017Z" fill="#210000"/><path d="M140.674 131.734c-13.601-4.99-37.907-.932-32.513 14.419.816 2.345 7.359.216 13.885-5.705 1.564-1.43 18.645-8.714 18.645-8.714h-.017ZM156.606 137.522c-10.288-2.878-27.918 1.496-23.09 12.473.732 1.679 5.427-.266 9.872-4.99 1.065-1.13 13.202-7.483 13.202-7.483h.016Z" fill="#170000"/><path d="M186.14 119.41c-7.159-4.357-2.597-16.415 7.059-21.953 10.571-6.053 26.553-5.006 23.59 4.823-4.029 13.338-18.097 24.78-30.649 17.114v.016Z" fill="#952E07"/><path d="M182.91 117.747c-7.891 1.115-21.376-20.023-13.585-21.703 1.582-.333 2.93-.117 6.443.682 14.9 3.409 7.558 7.85 6.243 13.936-.816 3.792.932 7.069.916 7.069l-.017.016ZM216.355 95.728c3.58-9.014-18.096-35.158-17.846-13.222.166 15.267 5.194 9.58 11.387 10.195 3.862.382 6.459 3.043 6.459 3.027Z" fill="#952E07"/><path d="M198.592 92.136c-1.248-3.443-1.032-7.201-2.713-8.964-10.105-10.628-23.057 1.53-19.345 9.596 1.149 2.494 6.593 5.87 9.373 7.866 1.898.632 3.363-2.328 5.96-3.925 3.729-2.278 7.358-2.328 6.725-4.59v.017Z" fill="#952E07"/><path d="M176.617 95.412c-3.263.465-9.256-.034-12.869-3.975-5.843-6.353-3.379-15.65 1.765-17.862 7.558-3.243 12.569 3.077 13.585 6.935-.766 1.946-2.864 4.574-4.379 7.185-1.498 2.578 1.931 7.7 1.898 7.7v.017ZM196.711 82.173c1.432-2.96 2.78-8.814.133-13.454-4.278-7.5-15.349-9.646-18.895-3.642-3.646 6.186.499 12.656 2.663 14.552 2.398-.333 5.378-1.68 8.99-1.746 3.413-.067 7.076 4.307 7.092 4.274l.017.016ZM167.178 71.613c-1.398-1.164-.1-4.757 2.564-6.636 3.296-2.345 8.191-2.644 6.759.2-.616 1.23-1.099 4.507-1.482 5.887-.349 1.247-.216 1.43-2.064.882-2.298-.682-3.912-.516-5.777-.35v.017ZM213.042 74.806c-2.53-5.737 5.428-11.192 13.718-10.46 9.073.798 18.446 8.265 12.42 13.038-8.175 6.47-21.709 7.5-26.138-2.578Z" fill="#952E07"/><path d="M211.777 72.41c-5.31-2.693-4.561-21.42.933-19.125 1.115.466 1.848 1.181 3.662 3.177 7.692 8.448 1.282 8.05-2.131 11.226-2.114 1.979-2.447 4.74-2.464 4.723ZM241.743 73.16c6.06-4.009 3.929-29.32-5.31-15.733-6.426 9.446-.916 8.099 2.63 11.126 2.198 1.879 2.664 4.623 2.68 4.623v-.017Z" fill="#952E07"/><path d="M232.371 63.38c.716-2.644 2.447-4.855 2.164-6.668-1.665-10.844-14.816-8.898-15.982-2.362-.366 2.03 1.532 6.42 2.381 8.831.899 1.198 3.063 0 5.327.133 3.263.2 5.511 1.713 6.093.067h.017Z" fill="#952E07"/><path d="M217.471 56.013c-2.197-1.114-5.66-3.975-6.21-7.933-.865-6.403 4.629-11.06 8.724-10.212 6.026 1.231 6.393 7.268 5.377 10.062-1.298.865-3.712 1.597-5.76 2.545-2.031.931-2.114 5.554-2.131 5.538ZM235.467 56.462c2.148-1.214 5.477-4.225 5.844-8.2.582-6.435-5.294-12.473-10.039-10.294-4.895 2.245-5.111 7.983-4.595 10.078 1.615.816 4.012 1.264 6.276 2.761 2.115 1.414 2.514 5.671 2.514 5.655ZM221.849 37.37c-.349-1.314 1.982-2.96 4.412-2.977 3.03-.033 6.16 1.863 4.062 3.01-.899.5-2.597 2.295-3.429 2.977-.749.615-.749.798-1.648-.35-1.116-1.413-2.181-1.995-3.397-2.677v.017ZM238.614 136.191c8.374-.1 10.621-12.789 5.161-22.468-5.994-10.594-20.261-17.845-22.741-7.883-3.363 13.521 2.88 30.534 17.596 30.351h-.016Z" fill="#952E07"/><path d="M242.243 136.408c6.209 4.972 28.617-6.304 22.791-11.725-1.182-1.098-2.464-1.597-5.894-2.695-14.55-4.673-10.504 2.894-12.502 8.798-1.232 3.676-4.412 5.605-4.395 5.622ZM224.746 100.402c1.532-9.58 33.529-20.989 22.108-2.246-7.941 13.039-9.356 5.588-14.999 2.961-3.513-1.647-7.109-.682-7.109-.699v-.016Z" fill="#952E07"/><path d="M241.844 106.372c2.83-2.328 4.578-5.654 6.925-6.32 14.117-3.975 19.029 13.072 11.72 18.128-2.264 1.563-8.657 1.68-12.086 1.979-1.948-.432-1.698-3.725-3.113-6.403-2.031-3.858-5.128-5.754-3.446-7.384Z" fill="#952E07"/><path d="M259.074 120.409c2.564 2.062 7.974 4.69 13.085 3.143 8.274-2.478 10.904-11.741 7.625-16.248-4.828-6.653-12.386-3.759-15.233-.965-.333 2.062.116 5.388.1 8.415-.017 2.977-5.594 5.638-5.577 5.655ZM248.569 98.788c.283-3.276 2.115-8.997 6.759-11.641 7.509-4.258 18.13-.466 18.097 6.502-.034 7.185-6.893 10.627-9.739 11.16-1.882-1.514-3.763-4.191-6.843-6.087-2.896-1.796-8.29.083-8.274.066ZM279.351 104.776c1.798-.3 2.514-4.042 1.199-7.002-1.648-3.692-5.694-6.47-5.927-3.276-.1 1.363-1.365 4.423-1.731 5.821-.333 1.247-.55 1.347 1.332 1.812 2.33.582 3.629 1.564 5.144 2.645h-.017ZM224.097 79.962c-2.764 12.988-6.21 17.18-8.591 31.898-3.978 24.763-6.309 34.526-3.945 59.389.383-1.247.383-.981.416-2.278.666-24.215 2.198-32.63 6.776-56.845 2.663-14.07 6.343-18.81 9.389-31.832.1-1.114-.749-2.095-1.864-2.195-1.116-.1-2.098.748-2.198 1.862h.017Z" fill="#952E07"/><path d="M217.238 132.682c4.978-6.502 12.719-7.201 15.383-15.25-6.893 6.12-13.285 7.051-18.812 13.088a2.02 2.02 0 0 0 .632 2.794 2.025 2.025 0 0 0 2.797-.632Z" fill="#952E07"/><path d="M216.272 130.985c-10.521-17.612-5.061-9.147-16.314-25.428 7.874 18.061 3.662 8.997 12.652 27.175a2.032 2.032 0 0 0 2.713.948 2.027 2.027 0 0 0 .949-2.711v.016Z" fill="#952E07" stroke="#952E07" stroke-width=".22" stroke-miterlimit="22.93"/><path d="M78.145 130.47c.816.482 4.512 6.403-1.931 6.403-7.275 0-3.463-9.58 1.931-6.403ZM97.506 125.98c.816.482 4.512 6.402-1.93 6.402-7.276 0-3.464-9.579 1.93-6.402ZM118.949 124.233c.815.483 4.511 6.403-1.931 6.403-7.276 0-3.463-9.579 1.931-6.403ZM139.226 125.348c.816.482 4.512 6.403-1.931 6.403-7.275 0-3.463-9.58 1.931-6.403ZM160.519 128.89c.815.482 4.511 6.403-1.932 6.403-7.275 0-3.462-9.58 1.932-6.403ZM181.578 133.996c.816.482 4.512 6.403-1.931 6.403-7.275 0-3.463-9.579 1.931-6.403ZM200.99 140.731c.815.483 4.511 6.403-1.931 6.403-7.276 0-3.463-9.579 1.931-6.403ZM218.986 148.498c.816.482 4.511 6.403-1.931 6.403-7.275 0-3.463-9.579 1.931-6.403ZM238.214 155.649c.816.483 4.512 6.403-1.931 6.403-7.275 0-3.463-9.579 1.931-6.403ZM259.174 162.668c.816.482 4.511 6.403-1.931 6.403-7.275 0-3.463-9.58 1.931-6.403ZM278.735 169.37c.816.482 4.511 6.403-1.931 6.403-7.275 0-3.463-9.579 1.931-6.403ZM300.377 171.582c.816.482 4.512 6.403-1.931 6.403-7.275 0-3.462-9.579 1.931-6.403ZM320.721 171.831c.815.482 4.511 6.403-1.931 6.403-7.276 0-3.463-9.579 1.931-6.403ZM339.999 169.702c.816.482 4.512 6.403-1.931 6.403-7.275 0-3.463-9.579 1.931-6.403Z" fill="#F3DBB4"/></g><defs><clipPath id="a"><path fill="#fff" d="M0 0h472v180H0z"/></clipPath></defs></svg>