<svg width="201" height="200" fill="none" xmlns="http://www.w3.org/2000/svg"><g clip-path="url(#a)" fill-rule="evenodd" clip-rule="evenodd"><path d="M96.028 196.066c.524.574-.803 1.449-1.176 1.112.236-.524.545-.983 1.176-1.112ZM30.547 177.952c5.265.244 10.567-.029 15.538-.115-.603.423-1.428.359-2.166.409-.79.057-1.593.122-2.404.179-8.73.596-18.042-.975-26.205.179 4.627-.882 9.978-.889 15.244-.645l-.007-.007Z" fill="#FCCB6C"/><path d="M11.55 171.502c-4.153-.079-8.077.617-11.55 1.055 4.886-1.285 11.199-1.5 17.526-1.349.933.021 1.944.179 2.991.179.919 0 2.368.201 3.107.058.488-.094.71-.653 1.29-.761-.33-.495-1.003-.638-1.463-.997-7.439-.423-14.92.23-21.75.588 3.328-.609 6.93-.753 10.789-1.054 2.848-.223 5.76-.115 8.616-.115.968 0 2.03.237 2.87.115.372-.05.796-.359 1.233-.467.825-.2 1.621-.222 2.46-.114-.767-1.349-3.156-1.119-4.863-.997-1.901.136-3.967.294-5.861.294-4.09 0-8.006.452-11.607.531 4.29-.761 9.34-.797 14.247-1.17 5-.387 10.194-.129 14.304.94-.724-.789-2.18-.847-3.572-.997a34.326 34.326 0 0 0-2.87-.172c-5.976-.165-12.274.322-17.705.294 3.508-.294 7.289-.517 11.077-.646 3.716-.129 7.712-.459 11.14.237.933-.316 2.533-.258 3.752-.115-.064-.323-.688-.093-.588-.588 1.679-.072 3.422.294 4.921.588.1-.172-.021-.237.295-.294.76-.136 2.31.552 3.163.294-8.938-1.499-20.158-1.184-29.9-.818 8.422-.918 18.766-1.054 26.966 0 1.85.237 3.472.639 5.337.409-7.03-1.169-14.87-1.736-23.1-1.521-.975.309-2.496.294-3.808.294-3.537 0-7.11.18-10.259-.057 6.743-.344 13.515-.646 20.288-.646 5.2 0 10.071.546 14.655 1.17 1.543.215 3.078.567 4.57.703 1.894.172 4.039.237 5.746.818-.681-.682-1.607-.689-2.754-.883-4.018-.667-8.064-1.126-12.016-1.815-4.67-.818-9.534-1.061-14.714-1.112 9.168-.746 17.045 1.041 25.03 2.052 2 .251 4.103.639 6.04.818.617.057 1.341.237 1.88-.172-5.847-.452-11.3-1.457-16.888-2.346-2.704-.431-5.595-.89-8.558-1.055-3.02-.165-6.112.129-9.261.18 3.106-.402 6.284-.711 9.44-.531 3.135.186 6.22.602 9.147.94 2.927.33 5.803.99 8.737 1.348 2.992.366 5.998.574 8.91 1.17.258.157-.301.287 0 .294 1.413.129 2.834.258 4.161.466-1.212-.739-2.762-.717-4.16-.94-10.26-1.628-20.087-3.938-31.364-4.397 9.433-.359 18.45 1.348 26.794 2.869 2.008.366 3.787.954 5.566.294-1.097-.1-2.26-.122-3.106-.466 2.36-.029 4.921.466 6.8-.237-7.31-.373-14.483-.875-20.81-2.231 5.402.639 11.55 1.292 17.525 1.586 2.066.1 4.204.387 6.213.236 1.643-.129 3.242-.409 4.921-.409 4.476 0 8.83-.236 12.956-.466.882-.05 1.822.122 2.582 0 .517-.086 1.033-.595 1.643-.818.718-.265 1.363-.258 2.167-.294-1.005-1.169-2.863-.624-4.635-.351-3.149.488-6.391.803-9.792.997-4.713.265-9.304.495-13.773.351 4.82-.387 9.598-.595 14.304-.882 6.076-.366 11.837-1.564 17.353-2.288-.746-.474-1.334-.259-2.345-.115-7.475 1.054-15.517 2.267-23.746 1.994 10.488-.574 20.08-2.044 29.779-3.4.114-.409.746-.309.76-.818-8.013.897-15.94 2.195-24.269 2.583 8.315-1.026 16.493-2.102 24.62-3.164.36-.316 1.034.194 1.234-.409-2.575.129-5.122.517-7.683.76-2.546.244-5.165.581-7.675.531 5.61-.76 11.463-1.528 17.295-1.994 1.988-.158 3.996-.122 5.919-.524.071-.215.251-.265.409-.351 1.607-.897 3.543-1.478 5.631-1.937-1.32-.832-3.257-.187-5.043.115-1.306.222-2.654.452-3.809.645-2.561.424-5.058 1.076-7.447 1.464-2.633.43-5.23.76-7.74 1.169-2.554.423-4.965 1.198-7.447 1.463 7.038-2.288 15.539-3.106 23.1-4.863-4.728.344-9.125 1.097-13.422 1.879-4.304.782-8.444 1.837-12.662 2.518 5.832-1.578 12.181-3.013 18.76-4.046 4.971-.782 10.265-1.076 15.416-1.7 1.65-.201 3.214-.904 4.864-.882-.388-.33-.675-.854-1.234-.883-.345-.014-1.004.38-1.521.531-.552.158-1.184.316-1.643.409-5.825 1.248-12.073 1.851-18.056 2.64-2.49.33-4.857.832-7.21.94 9.04-2.195 20.022-2.396 28.315-5.216-4.426.66-8.874 1.693-13.422 2.404-4.555.71-9.261 1.234-13.716 1.994 3.407-1.22 7.726-1.32 11.492-2.109.201-.043.423-.201.588-.237 1.141-.258 2.246-.036 3.229-.409-2.511.187-4.993.718-7.619.588 7.862-.911 15.129-2.417 22.863-3.457.301-.323.839-.409 1.291-.589-4.634.718-9.103 1.55-13.838 2.231-1.557.223-3.128.639-4.749.409 1.901-.229 3.687-.574 5.452-.939-2.819.452-5.51.595-8.149.703-2.712.107-5.115.538-7.619 1.291-2.274.681-4.62 1.341-6.973 1.879-4.089.933-9.993 1.622-13.192-.53.086-.438-.252-.66-.352-.818 2.16.645 4.276 1.248 6.915 1.234 1.256-.007 2.59-.302 3.867-.589 1.22-.265 2.49-.495 3.573-.882.76-.273 1.47-.689 2.23-.997 2.318-.954 4.75-1.786 7.447-2.346 3.458-.71 7.776-.976 11.787-1.291 2.066-.158 4.01-.251 5.918-.588 1.829-.323 3.616-.725 5.452-1.112 2.575-.546 5.129-1.528 7.683-2.109.983-.223 2.059-.122 2.87-.409.48-.173 1.183-.804 1.757-1.234 8.709-6.478 19.384-11.213 29.075-16.414-4.878 1.894-9.742 3.831-14.361 5.983-4.635 2.159-8.803 4.821-12.72 7.504 4.276-3.386 8.688-6.277 13.839-8.616 4.483-2.044 9.261-3.888 13.895-5.746.653-.265 1.413-.509 1.994-.818.646-.344 1.091-.839 1.758-1.112a5.946 5.946 0 0 1 1.112-.351c.387-.072.897 0 1.291-.172.84-.373 1.7-2.088 2.346-2.992 3.809-5.359 6.815-11.076 9.204-17.647.954-2.626 1.966-5.33 2.461-8.322-2.518 2.877-5.065 5.452-7.619 8.15-2.59 2.726-5.775 4.655-9.025 6.8-.774.51-1.492 1.055-2.166 1.758-1.923 2.001-4.276 3.759-6.334 5.509-1.464 1.248-2.949 2.339-4.807 3.106-2.252.933-5.179 1.213-6.564 3.049-.208.273-.394 1.012-.645.94.552-2.425 2.833-3.314 4.863-4.397.94-.503 1.787-1.163 2.698-1.758 2.188-1.435 5.251-2.475 6.506-4.512-2.726 1.485-5.732 2.661-8.852 3.579-1.098.323-2.231.488-3.343.818-1.04.316-2.059.753-3.106 1.055-5.424 1.556-11.414 2.554-16.356 4.455-1.937.746-3.702 1.786-5.51 2.812-3.601 2.044-7.41 3.615-11.141 5.509-.158-.093.115-.172.115-.179.352-.301.696-.488 1.055-.703 1.499-.918 2.919-1.715 4.34-2.64a77.346 77.346 0 0 1 5.861-3.458c2.044-1.09 4.089-2.181 6.27-3.049 2.245-.896 4.67-1.334 7.388-1.937 2.526-.552 4.85-1.32 7.21-2.109 2.303-.774 4.634-1.47 7.038-2.288 2.295-.782 4.677-1.428 6.8-2.518 1.005-.517 2.073-1.012 3.049-1.585.969-.567 2.081-1.198 2.812-1.873.739-.681 1.335-1.822 1.995-2.812a62.303 62.303 0 0 0 3.515-6.098c.552-1.09.947-2.274 1.585-3.22.782-1.17 1.858-2.21 2.755-3.286.445-.531.94-1.055 1.406-1.586.466-.53 1.054-1.054 1.406-1.642.337-.574.524-1.363.818-1.873.279-.48.739-.882 1.112-1.348a36.619 36.619 0 0 0 4.806-7.684c.517-1.104 1.227-2.166 1.643-3.4.495-.595.782-1.485.997-2.346.222-.89.588-1.772.76-2.582.187-.89.122-1.995.173-3.05.165-3.098-.058-6.34-.058-9.555 0-1.068.022-2.094-.179-3.106-.531-2.726-.682-5.99-1.055-8.795-.466-1.011-.617-2.518-.817-3.81-.847-5.308-2.067-10.523-3.516-15.243-.595-1.93-1.363-3.802-1.642-5.804.287-.043.452-.208.76-.237.811.524 1.155 1.528 1.463 2.404.833 2.353 1.837 4.742 2.518 7.152.151.545.158 1.119.295 1.7.165.689.502 1.356.703 2.052.638 2.224.982 4.54 1.463 6.973.308 1.542.538 3.156.703 4.863.309 3.2.732 6.256.882 9.498.065 1.364-.1 2.784 0 4.161.194 2.604.244 5.23-.057 7.913.502-1.306 1.564-2.281 1.758-3.752.401-2.999-.137-6.227-.409-9.09-.287-2.983-.847-5.781-1.17-8.443-1.937-15.775-7.295-28.243-13.658-39.333-.89-1.543-2.117-2.992-1.995-4.929.904-.186 1.342.847 1.758 1.406.868 1.155 1.535 2.239 2.288 3.458.947 1.55 1.808 3.279 2.64 4.864.251-.56.768.15 1.234-.115-.136-.53-.559-.775-.76-1.227 1.183.861 1.951 2.188 2.697 3.516 1.155 2.066 1.894 4.433 2.934 6.62 1.722 3.645 2.726 7.971 3.637 12.368.352 1.708.818 3.415 1.234 5.158.847 3.616.847 7.483 1.521 11.256.201.115.495.13.645.294.833 1.528 1.112 3.688 1.112 6.04 0 1.916.237 3.953.237 5.69 0 3.794-.115 7.64-.351 11.255-.129 1.93-.094 3.78-.294 5.567-.495 4.426-1.385 8.55-2.346 12.432-.201.803-.531 1.671-.589 2.403-.064.94-.122 1.815-.236 2.64-.108.768-.094 1.406-.058 2.166.208 4.427 1.041 8.092 2.231 11.722.782 2.404 1.356 4.785 2.231 7.095.861 2.274 1.521 4.634 2.518 6.801 1.019 2.202 2.109 4.34 2.461 7.152.187 1.449.466 2.64.94 3.867.452 1.176 1.004 2.382 1.176 3.694.23 1.758-.057 3.723 0 5.51.129 4.06.832 8.501.294 12.719-.294 2.338-1.341 4.72-1.642 7.209-.323 2.648.322 4.95 1.112 7.389-1.421-2.188-2.102-5.394-1.88-8.737.057-.804.201-1.578.237-2.403.036-.833-.058-1.715-.058-2.583 0-1.722.244-3.4.352-4.986.115-1.686.079-3.436 0-5.158-.079-1.736.029-3.472-.115-5.1-.136-1.507-.509-3.042-.818-4.513-.323-1.535-.595-3.048-.997-4.34-.861-2.762-1.499-5.48-2.64-7.97-3.35-7.346-6.42-14.857-7.561-24.326-.631 1.693-1.32 3.279-1.643 5.215-.158.969-.323 1.966-.466 2.992-.136.99-.158 2.087-.409 3.049-.072.265-.28.523-.351.76-.359 1.148-.51 2.425-.883 3.637-.739 2.411-1.148 4.871-1.937 7.152-.48 1.399-1.011 2.633-1.234 4.104-.186.072-.265.194-.351.351-.287.531-.574 1.392-.883 2.167-.315.789-.53 1.772-.882 2.231-.151.194-.373.186-.473.351-2.389 5.015-4.283 10.151-6.801 14.893-.825 1.564-1.664 3.192-2.64 4.634-4.01 5.933-6.234 12.913-8.852 20.166.939-4.627 1.944-8.752 3.457-12.662 1.492-3.852 3.659-7.26 5.216-10.904 2.805-6.542 6.434-12.475 8.852-19.405.359-1.026.775-2.088.818-3.221.215-.086.265-.222.351-.409.251-.524.338-1.234.531-1.872.194-.653.502-1.277.531-1.937-1.162 2.582-2.166 5.215-3.694 7.618-.775 1.22-1.356 2.432-1.995 3.695-.638 1.277-1.104 2.625-1.757 3.931-1.249 2.482-2.533 5.022-3.931 7.446-1.407 2.432-3.049 4.764-4.104 7.267-1.076 2.547-2.389 5.137-3.4 7.97-.99 2.77-2.009 5.61-2.992 8.387-.918 2.589-1.843 6.492-1.234 9.67.302 1.571.746 2.991 1.292 4.397.423 1.105.624 2.074.882 3.343.065.323.28.746.057 1.055-.315-1.32-1.327-2.475-1.936-3.573-1.349-2.453-2.124-5.437-1.995-9.261.079-2.26.653-4.369 1.112-6.392.459-2.016 1.349-3.766 2.052-5.509 1.492-3.702 2.417-7.576 3.988-11.084 1.593-3.558 3.652-6.485 5.632-9.44.689-.467 1.133-1.686 1.643-2.698.423-.839.839-1.707 1.169-2.46 2.209-4.986 5.997-9.097 7.74-14.247-1.377 1.951-2.905 4.024-4.397 5.861-.531.652-1.134 1.226-1.585 1.872-.517.739-1.041 1.872-1.815 2.166-.689 2.863-2.318 5.28-3.458 7.798-1.177 2.583-2.568 4.878-4.046 7.21-2.181 3.436-4.548 6.765-6.858 10.029-.782 1.097-1.457 2.238-2.289 3.285 3.953-7.259 9.369-13.063 12.719-20.925-1.614 2.79-2.991 5.609-4.863 8.092-1.88 2.482-3.724 4.928-5.861 7.152a553.896 553.896 0 0 1-12.956 13.013c-.151.265-.61.825-.761.703 6.263-7.217 13.43-13.508 19.111-21.22 1.923-2.604 3.293-5.567 4.986-8.501-.574.416-1.098 1.342-1.643 1.406-.129 1.464-1.126 2.195-1.643 3.221-.473.94-.746 1.858-1.233 2.698-2.411 4.175-5.919 7.267-9.204 10.552-1.313 1.313-2.49 2.762-3.81 4.103-5.308 5.417-10.473 10.847-15.595 16.063 4.505-5.524 9.62-10.424 14.419-15.654 1.198-1.305 2.353-2.64 3.58-3.931 3.673-3.874 7.898-7.267 10.495-12.138-.151-.861-.007-2.037-.409-2.812-.266 1.399-.438 2.64-1.169 3.573-.431.552-1.091.896-1.528 1.406-1.371 1.607-2.569 3.343-3.924 4.921-4.111 4.799-8.573 9.182-13.193 13.307 5.438-5.732 11.349-11.298 16.012-17.619a.281.281 0 0 0 .107-.143c-.035.05-.071.093-.107.143-.165.115-.366-.064-.474-.028-.057.021-.036.179-.114.236-.775.56-1.342 1.399-1.995 2.052-5.373 5.366-11.098 10.467-16.822 15.474-.976.854-2.131 1.564-2.934 2.461-.66.738-1.105 1.578-1.758 2.288-2.001 2.174-3.974 4.132-6.212 6.04-5.811 4.943-12.303 9.348-18.76 13.838-2.295 1.593-4.907 3.25-7.267 4.929-1.083.767-1.9 1.686-3.163 1.872 2.21-2.295 4.376-4.634 7.037-6.564 7.949-5.775 16.923-10.803 23.329-17.884-1.069.868-2.195 1.987-3.285 2.64 2.453-2.59 5.581-4.498 7.446-7.683-3.486 2.669-7.03 5.438-10.201 8.386-1.062.99-1.994 2.123-3.164 2.934a97.423 97.423 0 0 1 12.784-11.607c.66-.502 1.499-.897 1.7-1.815-5.89 5.072-12.339 9.9-18.817 14.19 5.732-4.391 11.88-8.968 17.411-13.717.746-.638 1.872-1.492 2.288-2.166.51-.839.646-1.844 1.112-2.64-2.331 1.033-4.282 2.69-6.334 3.989-.71.452-1.55.753-2.231 1.234-.215.15-.359.437-.588.588-.452.294-1.091.301-1.406.818-.173 1.685-.904 3.307-1.88 4.454-.359.424-.868.782-1.291 1.234-1.213 1.292-2.626 2.547-4.046 3.515-6.012 4.111-13.594 6.672-20.166 9.965 2.117-1.464 4.692-2.454 7.038-3.695-1.944.811-3.817 1.736-5.746 2.64-2.002.933-4.125 1.421-6.27 2.167-4.075 1.42-8.128 3.465-12.49 4.282 4.505-1.319 8.81-3.371 13.07-4.863 1.514-.531 3.043-.911 4.513-1.521 2.784-1.162 5.424-2.576 8.092-3.867 2.705-1.305 5.438-2.525 7.855-4.161-.358-.021-.645.259-.882.409-.581.381-1.284.768-1.994.94-.388.093-.99.079-1.292.237-.853.437-1.764.968-2.697 1.463-1.234.66-2.511 1.327-3.458 2.052-.035-.129.165-.187-.057-.179-.43.064-.717.523-.997.645-.179.079-.359-.021-.531.058-.237.107-.395.322-.588.531.064-.244.093-.216-.18-.18-.444.122-.509.624-.882.818-.158-.093.165-.33 0-.409-.48.108-.696.481-1.054.703.071-.402-.194-.143-.295-.115-.681.18-1.477.703-2.23 1.055-2.34 1.105-4.764 1.915-7.21 2.812-3.3 1.212-6.543 2.59-10.022 3.164 3.436-.998 6.786-2.339 10.144-3.58 2.525-.933 5.079-1.829 7.267-2.992.724-.387 1.664-.595 2.109-1.348-4.606 2.095-9.262 4.455-14.599 5.631a109.934 109.934 0 0 0 12.604-5.28c.538-.265 1.277-.473 1.406-1.169-2.826 1.485-5.344 3.07-8.5 4.103-2.404.782-4.965 1.428-7.447 1.995-.853.193-1.822.244-2.64.531-.71.243-1.463.875-2.166 1.348-2.13 1.428-4.505 2.941-6.45 4.283-2.489 1.707-5.007 3.364-7.037 5.395-.265.265-.567.681-.997.703 3.379-5.029 8.845-8.781 13.896-12.138-1.744.387-3.795 1.025-5.632 1.348-.23.043-.753.129-.588.058 2.92-1.127 6.098-1.406 8.795-2.64 2.697-1.227 5.395-2.296 7.97-3.515-7.805 2.826-17.856 3.716-26.73 5.272 2.253-.724 4.67-1.047 7.095-1.463 2.397-.416 4.828-.897 7.21-1.349 2.425-.459 4.871-.796 7.152-1.406 2.289-.617 4.405-1.485 6.564-2.052.359-.423 1.033-.839 1.17-1.291-.926 1.083-3.128 1.435-4.922 1.521-.409.022-.86-.143-1.29-.115-.403.022-1.027.388-1.586.588-3.795 1.342-8.214 2.145-12.368 2.935-5.007.946-9.907 1.879-14.598 2.754 7.898-2.303 17.001-3.4 24.914-5.689-1.212.273-2.51-.093-3.81-.057-1.32.036-2.582.474-3.866.703-3.788.682-7.46 1.42-11.083 2.109-4.95.947-9.642 2.217-13.839 3.637 7.26-3.113 16.206-4.734 24.858-6.392 2.266-.43 4.383-.946 6.449-1.348-.818-.065-1.42-.337-2.052-.588-4.498 1.52-9.44 2.51-14.362 3.515-4.935 1.011-9.663 2.46-14.247 3.515 8.874-3.085 19.003-4.914 28.372-7.504.66-.588 1.27-1.234 2.289-1.463.172-.495.904-.739 1.112-.998-5.194 1.378-10 3.487-15.474 4.749-5.474 1.263-11.083 2.31-16.12 3.989 5.187-2.238 11.213-3.214 17.002-4.692 5.74-1.463 11.12-3.572 15.768-5.982-.466-.517-1.105-.23-1.643-.058-.595.187-1.248.373-1.815.524-6.162 1.657-11.8 3.637-17.762 5.395-2.396.703-4.806 1.621-7.331 1.872 4.11-1.284 8.285-2.497 12.252-3.924-3.479.71-7.633 1.578-11.55 2.231 2.555-1.083 5.99-1.284 8.796-2.109.23-.474.645-1.076.76-1.464-9.82 1.729-19.305 3.788-29.075 5.567.351-.409.975-.416 1.463-.531 3.817-.896 8.142-1.528 11.787-2.518-4.147.251-8.279.294-11.787.94-3.83.71-7.611 1.055-11.313 1.585 3.989-.86 8.33-1.363 12.31-2.231-3.034-.208-6.363-.122-9.383-.351a110.15 110.15 0 0 1 9.383-.057c3.193.121 6.055-.46 8.501-1.112-4.225.193-8.379-.008-12.49-.352-4.131-.344-8.213-.337-12.367-.115 5.574-.911 11.823-.287 17.885-.057 6.155.229 12.03-.23 17.116-1.521-.093-.416.409-.459.466-.882-.796.617-2.116.911-3.4 1.112-.488.079-1.04.265-1.406-.115-.144-.38.66-.624.646-.883-.76.309-1.78.825-2.87.998-1.14.179-2.575.236-3.58-.115-.236-.244.531-.287.41-.409-2.296.588-4.499-.423-6.744-.237.2.194.689.093.94.237-2.203.072-4.577-.337-6.973-.237-2.346.101-4.728.345-6.8.294 3.256-.566 7.273-.638 10.96-.588-1.377-.38-2.811-.208-4.454-.115-.983.058-2.009.144-2.992.18-6.126.193-12.331.731-17.999 1.054 7.002-1.09 14.879-1.305 22.397-1.872-.237-.022-.467-.043-.589-.179.869.2 2.425.301 3.343.057-.825.064-1.506-.065-2.23-.179-.696-.108-1.35-.431-1.995-.467-.617-.036-1.334.194-2.052.294-4.985.711-10.158 1.019-15.538 1.055 5.495-.66 11.686-.624 16.765-1.7-.753-.287-1.556.057-2.346.179-5.753.875-12.912.761-19.053 1.055 6.406-.998 14.19-.624 20.345-1.88-.488-.014-.94-.495-1.464-.588-.825-.151-1.671-.022-2.46-.237-.732-.201-1.249-.567-1.815-.882-3.932.724-8.96.674-13.365.466-1.571-.072-3.092.208-4.512 0 5.624-.775 13.027.265 18.235-1.054-3.787.43-7.991-.036-12.073-.115l.014-.029Zm125.577-22.16c-.294.022-.875.022-.703-.236-1.65.746-3.228 1.578-4.749 2.64-1.815 1.262-3.15 3.063-4.513 4.806 2.224-1.141 4.577-2.145 6.622-3.458-.079-.115-.359-.029-.466-.115 1.083-1.398 2.46-2.503 3.809-3.637Zm12.367-14.189c1.105-.395 2.317-.66 3.343-1.112 2.203-.983 3.35-3.35 5.51-4.046-.194-.273-.868-.065-1.112-.294-3.365 1.893-6.959 3.364-10.438 4.985-1.686.782-3.343 1.779-4.928 2.755-1.658 1.026-3.35 1.937-4.986 2.934.825-.258 2.625-.459 3.637-.818.423-.15.947-.552 1.406-.818 2.296-1.341 4.842-2.611 7.561-3.572l.007-.014Zm-9.612 11.37c.157-.151-.137-.065-.058-.294 1.672-.868 2.884-2.195 4.692-2.934-.266-.144-.545-.079-.875-.237.538-.638 1.262-1.083 1.815-1.7-3.724 1.908-7.447 4.311-11.256 6.334.086.99-.294 1.507-.588 2.109 2.152-1.033 4.053-2.317 6.27-3.285v.007Zm-22.921 16.062a38.164 38.164 0 0 1-2.109 1.585c.467.094 1.019-.236 1.521-.294.122-.165-.237-.236-.115-.588 1.055-.108 2.346-.667 3.515-.997.366-.1.797.072 1.234 0 1.177-.194 2.031-1.865 2.87-2.461-2.253.739-4.441 2.045-6.916 2.755Zm7.619-2.109c-.911.703-1.887 1.212-2.697 1.994.408.022.746.115 1.054.237 2.253-1.636 4.29-3.486 6.392-5.28-1.923.531-3.228 1.865-4.749 3.049Zm-62.498 4.046c-1.119-.05-2.18.093-3.228.294.768.201 1.542.23 2.346.352.739.114 1.392.48 2.051.588 1.234.194 2.368-.065 3.573.294-.072-.265-.524-.136-.524-.466.861-.603 2.64-.172 3.695.057.272.05-.08-.151.115-.172 1.22.007 2.144.323 3.343.351-3.056-1.061-7.475-1.119-11.37-1.291v-.007Zm15.481-.646c3.616-.215 7.654-.114 11.076-.531-1.298-.423-3.708-.236-5.452-.114-4.713.315-10.043.021-14.892.179 4.031.954 8.601 1.363 11.019 3.931 0 .05.193.18.179.058 3.25-.266 6.671-.366 9.44-1.112-.007-.847.259-1.421.531-1.995-3.292.739-5.688 2.368-9.612 2.461.796-.445 1.736-.481 2.582-.703 2.468-.66 4.806-1.686 7.267-2.403-4.283.861-10.552.545-15.538.703 1.011-.352 2.23-.402 3.4-.466v-.008Zm101.186-58.035c-.818 1.793-1.578 3.866-2.583 5.624-1.234 2.174-2.41 4.448-3.931 6.392-.746.954-1.585 1.793-2.224 2.812.302-.029.438.115.703.115 3.723-4.269 7.052-9.204 9.262-14.951a219.476 219.476 0 0 0 3.221-8.91c1.011-3.005 2.331-5.975 2.812-9.26-.201-.108-.33.215-.474.35-.387.388-1.284 1.134-1.521 1.644-.301.66-.423 1.642-.645 2.46-1.299 4.77-2.69 9.455-4.627 13.716l.007.008Zm-1.7-16.414c-1.55 2.36-3.587 4.333-5.043 6.743-1.478 2.44-3.099 4.692-4.627 7.095-.015.051.021.058.057.058a120.792 120.792 0 0 0 8.443-7.683c2.705-2.698 4.957-5.754 7.267-8.853.61-4.318 1.191-8.659 1.758-13.013-2.575 5.466-4.728 10.897-7.855 15.653Zm11.786-24.505c-.143-.087-.301.287-.466.53-.373.546-1.22 1.543-1.406 2.231-.237.847-.093 2.045-.179 3.164-.223 2.877-.775 6.12-.998 8.967-.143 1.894-.236 3.738-.645 5.338.488-.388 1.061-.696 1.585-1.055 1.184-5.911 2.188-12.002 2.109-19.168v-.007Zm-54.585 91.687c.452-.322 1.105-.746 1.349-1.054.122-.158.179-.517.351-.818.237-.43.567-.567.467-1.291.258.265.2-.051.466.057.244-.258.344-.674.466-1.054-.767.272-1.327.846-1.994 1.291-.639.43-1.377.775-1.994 1.234-.833.617-1.586 1.399-2.404 2.051-2.417 1.93-4.655 4.168-7.267 5.983-.007.072.015.108.058.115.05.029.093.065.179.057 3.271-2.066 7.045-4.203 10.316-6.564l.007-.007Zm-48.717 27.849c-1.019.38-2.037.911-2.991 1.349-1.005.459-1.937.961-2.87 1.406 7.152-1.521 14.197-3.666 18.817-7.913-.803.595-1.872.832-2.812 1.349-.323.172-.567.466-.883.645-2.862 1.636-6.069 1.966-9.26 3.164Zm-18.056-6.27a98.778 98.778 0 0 1 15.244-4.57c.13-.222.366-.344.703-.351-.237-.323-.818-.316-1.055-.646.89-.337 2.39-.653 3.573-.645.337 0 .71.215.94-.058-2.425-.265-6.098.287-8.15.646l-.179.057c-.932.359-1.564 1.334-2.518 1.464.022.079.15.05.237.057-1.959.531-3.458 1.399-5.216 2.231-1.219.574-2.388 1.212-3.637 1.758-.208-.022-.078.107.058.057Zm-18.76.588c-2.023.345-4.612 1.076-6.8 1.464-.603.107.767.014 1.054 0 3.107-.144 5.976-.567 8.616-1.055 3.242-.595 6.47-.94 9.146-1.937-3.672.596-7.97.832-12.015 1.521v.007Z" fill="#FCCB6C"/><path d="M98.138 182.112c.315-.014.351-.315.523-.466-.215-.115-.487.208-.523.466ZM98.962 181.704c.308.072.696-.28.76-.646-.344.129-.624.309-.76.646ZM92.162 180.297c-.71.539-2.074.424-2.583 1.17.832-.416 2.009-.488 2.583-1.17ZM97.491 181.41c.66.05.983-.732 1.234-1.291-.631.208-.84.839-1.234 1.291ZM89.055 181.287c.351-.172.817-.244.997-.588 1.678-.258 2.977-1.399 3.752-2.755-1.148.524-2.167 1.378-3.286 2.052.165-.345.868-.66 1.234-.997-.237-.043-.86.036-1.176.114-.503.725-.94 1.521-1.521 2.167v.007ZM101.07 180.65c.273.15.531-.216.646-.409-.251-.129-.509.229-.646.409ZM88.99 180.233c.122.179.28-.101.294-.237-.136.043-.158.194-.294.237ZM102.011 180.297c.373-.237.925-.287.997-.818-.344.265-.897.316-.997.818ZM95.44 180.175c1.766-.452 4.04-2.324 4.57-3.809.165-.452 0-1.176-.294-1.643-.344.029-.129.258-.179.588-.438 1.715-1.614 2.683-2.755 3.695.71-1.191 1.959-1.837 2.346-3.343-.624.703-1.133 1.521-2.052 1.937.417-.818 1.35-1.614 1.815-2.583-.76.201-1.607.818-2.403 1.17-.875.803-.645 2.719-1.054 3.988h.007ZM100.777 179.939c.667-.093.696-.832 1.169-1.111.194.236-.201.387-.179.645.559-.129.681-.689 1.112-.94.129.022.057.323-.058.295.868-.13 1.471-1.033 1.643-2.052-.968.81-1.915 1.643-3.164 2.166-.165.345-.38.632-.53.997h.007ZM103.295 179.588c2.152-1.406 5.265-1.851 6.098-4.57-1.048 1.478-2.741 2.497-4.513 3.458-.631.344-1.32.588-1.585 1.112Z" fill="#F8EACA"/><path d="M90.576 178.949c.496-.15 1.199-.093 1.643-.294-.444-.165-.968.086-1.52 0-.03.115-.13.151-.123.294ZM63.61 178.655c.71.122.781-.897 1.226-1.234-.66-.072-.818.868-1.227 1.234ZM64.55 178.419c.789.086.91-1.005 1.463-1.349-.81-.108-1.076.839-1.463 1.349ZM90.756 178.418c.631-.179 1.743.115 1.88-.408-.531.114-1.292 0-1.816.114.05.165-.086.151-.057.294h-.007ZM65.661 178.066c.007.129.251.021.352.057.344-.438.63-.933 1.054-1.291-.753-.108-.896.904-1.406 1.234ZM93.036 178.067c.667-.387 1.291-.818 1.521-1.643-.596.459-1.14.969-1.52 1.643ZM66.716 177.772c1.678-.53 3.336-1.585 5.043-2.288-1.492.029-2.733.825-4.218 1.055-.08.602-.538.825-.825 1.233ZM91.042 177.715c.474-.021 1.657.129 1.937-.115-.538-.086-1.557-.15-1.937.115ZM101.424 177.364c.717-.258 2.173-.287 2.518-1.112-1.033.18-2.131.287-2.518 1.112ZM104.996 177.307c2.418-.81 3.752-2.697 4.455-5.215-.201-.1-.316.186-.409.294-.387.431-.782.933-1.169 1.464-.847 1.155-1.478 2.568-2.812 3.228-.043.05-.065.129-.058.236l-.007-.007ZM93.51 176.898a1.568 1.568 0 0 0-1.52.237c.537.057 1.398.251 1.52-.237ZM77.794 177.127c1.234-.129 2.69-.552 4.218-.588-.452-.251-.975-.431-1.463-.646-.954.38-1.83.825-2.755 1.234ZM51.651 174.199c-1.19 1.291-3.02 2.253-5.215 2.346.28-.344.782-.287 1.17-.409 1.6-.502 3.091-1.234 3.988-2.518.438-.624.983-1.657-.115-1.88-.473-.093-1.097.022-1.406.115-2.195.667-2.417 4.204-4.512 4.864-.014.05.021.057.057.057 2.87.23 4.843-.939 6.04-2.582l-.007.007Zm-3.343.531c.259-.215.603-.144.998-.115.057.416-.955.524-.998.115Zm.467-.466c.071-.352 1.248-.574 1.291-.058-.2.223-.997.122-1.291.058Zm.294-.703c.358-.201 1.7-.682 1.757.057-.394-.05-1.441.129-1.757-.057Zm2.346-.703a6.003 6.003 0 0 0-1.521.057c.18-.301 1.341-.495 1.52-.057Z" fill="#F8EACA"/><path d="M105.175 176.833c1.535-1.434 2.539-3.716 3.866-5.157-2.259.53-3.264 2.891-3.866 5.157ZM50.418 176.718c2.72-.036 4.606-1.413 5.804-3.164 0-.631.2-1.384-.18-1.757-2.632.889-3.414 3.615-5.63 4.921h.006Zm2.346-1.055c.552-.739 1.033-1.858 1.937-2.051-.581.71-1.069 1.822-1.937 2.051Zm2.289-2.051a.662.662 0 0 1 .523 0c.187.616-.86.473-.523 0Zm-.058-.761c.294-.251.725 0 .76.352-.164.43-.846.15-.76-.352ZM94.155 176.31c-.216-.136-.546.115-.818.115.33.222.617.158.818-.115ZM48.072 172.264c-1.686.344-2.92.724-3.989 1.643-.997.853-1.865 1.929-3.164 2.46 3.279.775 5.61-1.334 6.801-3.4.086-.158.136-.266.237-.409.043-.065.258-.165.115-.294Zm-3.343 2.991c-.474.28-1.062.632-1.586.531 1.435-.617 2.482-1.621 3.637-2.518-.423.883-1.24 1.514-2.051 1.994v-.007ZM54.758 176.423c0 .057.072.043.115.057 1.348-.451 2.015-1.7 2.812-2.697.825-1.033 1.85-1.8 3.049-2.46-1.034-.051-2.547-.173-3.107.53-.538.675-.674 1.65-1.112 2.461-.495.911-.947 1.55-1.757 2.109ZM55.697 176.367c1.844-.093 3.544-1.148 4.455-2.166-1.858 0-1.886 1.829-3.752 1.815.746-.388 1.679-.897 1.995-1.521-.252.064-.56.064-.883.057-.516.696-1.097 1.327-1.815 1.815ZM87.354 176.367c-1.686-.746-3.953-.99-6.212-.997 2.152-.775 4.828.122 6.628.645-.89-1.083-2.374-1.664-4.34-1.52-1.119.078-2.303.394-3.286.53 1.858.962 4.355 1.586 7.21 1.349v-.007ZM102.362 176.309c.703-.316 1.822-.215 2.289-.76-.739.279-1.952.079-2.289.76ZM110.275 176.251c2.977-.545 3.164-3.873 4.34-6.212-.222.172-.495.387-.473.646-1.664 1.42-2.425 3.752-3.989 5.272.022.115.165.108.115.294h.007ZM43.265 172.084c-2.848.452-3.68 2.927-6.334 3.58 1.578-.746 2.748-2.439 4.398-3.343-1.442-.029-2.074 1.262-2.992 1.994-.746.595-1.621.89-2.346 1.528 1.794.854 3.931.014 5.1-1.054.926-.84 1.45-1.837 2.167-2.698l.007-.007ZM92.161 176.014c-.681-.222-1.485-.732-2.052-.115.574.244 1.471.173 2.052.115ZM66.601 174.61c-1.105.222-2.955.208-3.457 1.234 1.6.272 2.417-.746 3.457-1.234ZM93.158 175.607c-.997.344-1.52-.804-1.994-.237.689.108 1.671.789 1.994.237ZM90.281 175.37c-1.52-.746-2.92-1.614-4.749-2.052 1.363.811 2.812 1.528 3.989 2.518.28-.129.48-.337.76-.466ZM62.67 175.664c.1-.015.136-.101.115-.237-.122-.029-.158.043-.237.057.021.079.1.093.115.18h.007ZM102.943 175.548c.617-.222 1.457-.229 1.995-.531-.452-.078-1.693.058-1.995.531ZM94.736 175.371c.933.244 1.679-.373 2.289-.467-.897-.588-1.657.022-2.289.467ZM95.44 174.43c-.53-.151-.94-.66-1.463-.646-.56.015-.947.639-1.52.703.322.474.96.847 1.584.761.567-.072.94-.732 1.407-.818h-.008Z" fill="#F8EACA"/><path d="M91.107 174.903c-1.277-1.585-3.845-2.138-6.506-1.994 2.496.236 4.046 1.42 5.975 2.231.251-.008.28-.23.531-.237ZM37.698 172.966c-1.105.911-2.253 1.772-4.16 1.879.846.438 1.656-.093 2.517-.466.818-.351 1.514-.545 1.643-1.406v-.007ZM114.027 174.961c.861-.589 2.368-.524 2.698-1.643-.366.086-.725.172-1.17.179-.308.452-.624.897-1.169 1.112 1.298-1.944 2.375-4.62 3.924-6.507-.911.739-2.087 1.206-2.64 2.346-.265.553-.466 1.521-.76 2.289-.302.775-.596 1.564-.883 2.231v-.007ZM103.59 174.782c.38-.065 1.291-.115 1.585-.467-.617.065-1.248.122-1.585.467ZM68.065 174.724c.474-.036.639-.373.998-.531-.374-.1-.969.079-.998.531ZM64.37 174.609c.933-.029 1.987-.438 3.049-.531.301-.38.53-.839.818-1.234-.718.194-1.916.079-2.698.409-.602.258-.624 1.112-1.169 1.349v.007ZM71.817 174.609c1.665.043 3.07-.682 4.046-1.521-1.083-.237-1.686.473-2.403.817-.61.295-1.24.237-1.643.704ZM57.692 174.43c.316-.094.624-.201.998-.237.789-.954 1.563-1.915 2.582-2.64-1.413.502-2.669 1.671-3.572 2.87l-.008.007ZM97.204 174.315c-.143-.1-.387-.316-.588-.172.115.136.352.158.588.172ZM93.39 173.555c-1.005-.388-2.031-.746-3.165-.997 1.823-.395 3.33 1.341 4.692.351-1.399-.789-4.082-.387-5.746-.76 1.04.638 1.908 1.456 2.934 2.109.452-.215.968-.359 1.291-.703h-.007ZM59.385 173.963c.337.136.76-.136 1.17-.115.394-.674.824-1.327 1.111-2.109-.846.653-1.542 1.471-2.288 2.231l.007-.007ZM96.322 173.848a19.72 19.72 0 0 0-.94-.703c-.315.043-.473.23-.76.295.438.229 1.184.81 1.7.408ZM68.596 173.847c.452-.115 1.025-.107 1.348-.351-.222-.165-.717-.065-.997-.18-.215.079-.28.309-.351.531ZM101.481 172.614c-.761.014-1.428-.344-2.052-.237-.696.122-1.133.832-1.643 1.112.739.043 1.299.266 2.11.237.509-.395 1.161-.638 1.585-1.112ZM73.108 173.611c.165.165.302-.208.524-.179-.194-.187-.395.107-.524.179ZM100.72 173.613c.76.129 1.521-.244 1.937-.645-.833-.46-1.277.416-1.937.645ZM61.559 173.612h.114c.574-.366.811-1.055 1.292-1.528.466-.459 1.018-.789 1.757-.997-1.793-.129-2.546 1.277-3.163 2.518v.007ZM64.485 173.554c-.667.215-.48-.158 0 0ZM35.058 173.554c1.047-.065 1.815-.409 2.403-.94a2.773 2.773 0 0 0-2.403.94ZM62.376 173.433c.122.122.409-.101.646-.058-.13-.129-.574-.071-.646.058ZM34.413 173.432a37.891 37.891 0 0 1 1.585-.94c-.739.029-1.556 0-1.757.703.079.057.114.158.18.237h-.008ZM43.732 173.434c.215-.043.287-.223.466-.295-.122-.193-.402-.222-.588-.351-.194.057-.344.165-.352.409.15.086.373.1.467.237h.007ZM70.763 173.375c1.069.072 1.98-.524 2.109-1.585-.904.33-1.313 1.147-2.11 1.585ZM76.33 173.433c.408-.179.774-.402 1.168-.588-.516-.165-1.104.107-1.169.588ZM98.668 172.321c-.99-.252-1.866-.022-2.461.408.689 1.062 1.794.036 2.46-.408ZM70.526 172.967c-.502 0-.883-.136-1.349-.179-.022.15-.172.179-.172.351.567-.129 1.327.287 1.52-.179v.007ZM110.863 173.203c.431-.036.782-.151.94-.467-.179-.079-.61.094-.882.115 0 .136-.101.172-.058.352ZM62.67 173.146c.595-.137 1.277-.13 1.937-.058-.402-.143-1.679-.409-1.937.058Z" fill="#F8EACA"/><path d="M115.784 173.146c.502-.18 1.241-.13 1.521-.531-.423.028-1.463-.058-1.521.531ZM44.377 172.966c.086-.072.265-.05.236-.237-.294-.036-.545-.373-.818-.237.122.23.495.208.589.467l-.008.007ZM30.367 172.615c-2.102-.036-4.462.064-6.213-.467 1.478.876 4.19.746 6.213.467ZM73.754 172.789c1.076.157 1.449-.89 2.052-1.406-1.09-.173-1.492.846-2.052 1.406ZM65.776 172.729c.955.05 1.88-.423 2.87-.524.28-.344.58-.667.882-.997-.423-.918-2.69-.925-3.22-.057-.338.552-.187 1.033-.532 1.585v-.007ZM63.022 172.615c-.007.05.021.057.057.057.567-.265 1.629.301 1.873-.237-.467-.265-1.7-.308-1.937.172l.007.008ZM46.666 172.027c-.302-.316-.998-.445-1.586-.294.23.1.273.387.524.466-.41.237-.818-.438-1.291-.115.552.897 1.42.086 2.345-.057h.008ZM38.81 172.556c.122-.036.194-.122.295-.172-.058-.122-.223-.129-.41-.115-.05.187.094.18.115.294v-.007ZM75.274 172.5c.287.129.74-.086 1.055-.115.15-.459.473-.739.588-1.234-.825.173-1.076.912-1.643 1.349ZM106.875 171.912c-1.198-.022-2.461.66-3.752.115.438.638 1.743.122 2.167.531.652-.094 1.176-.309 1.585-.646ZM111.035 172.557c.373-.215 1.055-.115 1.234-.531-.337.015-1.298-.086-1.234.531ZM96.437 172.207c-.201-.172-.639-.108-.825-.294.975.15 1.951-.194 2.582-.589-1.24-.129-2.546.194-3.752.295.639.337 1.241 1.183 1.995.588ZM116.193 172.378c.424.007 1.098-.229 1.586-.351-.402 0-1.392-.058-1.586.351ZM77.153 172.263c.517-.287.703-.904 1.17-1.234-.732-.165-.854.789-1.17 1.234ZM101.89 172.263c-.473-.459-1.334-.911-1.937-.294.588.151 1.342.144 1.937.294ZM32.304 171.911c-.94-.043-2.647.022-3.931-.057-.581-.036-1.12-.165-1.586-.294-.495-.137-.968-.481-1.348-.531-.725-.093-1.005.466-1.406.645.072.252.193-.057.409 0-.015.122-.158.115-.237.18 2.303.531 5.667.409 8.092.057h.007ZM33.71 172.026c-.215-.122-.767-.065-.997 0 .273.143.782.28.997 0ZM73.754 172.084c.158-.136.272-.308.351-.523-.236.057-.423.165-.351.523ZM77.972 172.026c.89.15 1.22-.775 1.872-1.055-1.054-.308-1.277.717-1.872 1.055ZM65.131 171.912c-.409-.015-.91-.137-1.291 0 .337.021 1.047.265 1.291 0ZM99.959 171.381c-.925-.273-1.363.215-2.052.466.861.151 1.736.151 2.052-.466ZM70.002 171.797c.115.129.409-.058.588-.058-.122-.136-.523-.057-.588.058ZM111.273 171.855c.186-.1.509-.079.645-.237-.15-.086-.703-.079-.645.237ZM79.852 171.733c1.441.072 2.582-.66 3.751-1.055-.796.144-1.843-.136-2.64.115-.516.165-.71.782-1.111.94ZM93.332 171.732c-.28-.344-1.033-.215-1.406-.466 1.8-.115 3.357-.474 5.043-.703-2.69-.624-4.806.229-6.743.94.96.121 2.216.236 3.106.236v-.007ZM52.355 171.733c.186.05.18-.094.294-.115-.043-.129-.337-.029-.294.115ZM116.609 171.676c.416-.029 1.385-.022 1.586-.467-.488.201-1.306.058-1.586.467ZM112.032 171.618c.086.057.61.064.588-.18-.193.058-.444.058-.588.18ZM65.368 171.56c.043-.157-.114-.114-.114-.236-.216.021-.323.143-.531.179.15.079.48.179.645.057ZM47.835 171.438c.13.179.33-.057.531 0-.143-.344-.294-.129-.53 0ZM71.817 171.503c-.294-.194-.975-.423-1.348-.179.423.086.818.193 1.348.179ZM105.877 171.439c.308.071.832-.144.997-.409-.373.1-.674.265-.997.409ZM30.898 171.38c-2.295-.222-3.967-1.076-6.097-1.463 1.262 1.255 3.615 1.428 6.098 1.463ZM82.72 171.323c1.17-.007 2.684-.187 4.219-.115.445.022.91.172 1.291.115.84-.115 1.356-.832 2.052-.882-.624-.086-1.241.028-1.873.057-.724.036-1.499.179-2.166.179-.244 0-.474-.122-.703-.114-1.047.028-1.915.595-2.812.76h-.007ZM33.006 171.323c-.136-.373-.359-.653-.818-.703.23.28.351.667.818.703ZM73.337 170.799c-.58-.186-1.693-.273-2.166.057.48.108 1.09.079 1.291.467.43-.036.538-.402.882-.531l-.007.007ZM32.189 171.266c-.029-.086-.086-.151-.115-.237-.165-.05-.15.086-.294.058.05.143.236.158.409.179ZM39.163 171.266c.064-.215-.251-.294-.41-.408-1.32-.969-2.524-2.475-4.045-3.286 2.453.71 3.357 2.977 5.803 3.694.072-.114-.509-.588-.76-.817a27.111 27.111 0 0 1-1.815-1.815c-.294-.323-.581-.789-.882-.94-.998-.502-2.217-.244-3.638-.466 2.325.975 2.884 3.457 5.632 4.046.036.007.079 0 .115 0v-.008ZM103.59 171.15c.459.094.803-.444 1.234-.588-.531-.158-.847.409-1.234.588ZM34.062 171.087c-.18-.23-.323-.502-.703-.531-.029.187.366.703.703.531ZM42.447 171.087c.193-.136-.244-.144-.41-.237-1.176-.638-2.022-1.98-2.869-2.991 1.7.839 2.195 2.884 4.692 2.934-.703-.56-.99-1.406-1.586-2.052-1.047-1.141-2.711-1.392-4.749-1.585.825.602 1.564 1.284 2.167 2.109 1.126.15 1.392 1.65 2.697 1.815h.058v.007Zm-.818-2.167c.445-.107.402.467.236.646-.459.093-.373-.445-.236-.646Zm-.466-.53c.107.122.2.437-.115.408-.122-.129-.043-.387.114-.408ZM52.82 170.915a5.678 5.678 0 0 1-2.517-.882c-.625-.402-1.478-.897-1.407-1.815.868 1.126 2.045 1.944 3.752 2.223.05-.243-.272-.33-.409-.466-1.212-1.198-2.101-2.977-4.749-2.812-.107.244.302.373.531.646 1.148 1.384 1.923 4.132 4.807 3.106h-.008ZM104.177 170.448c-.409-.244-.832.337-1.234.466.51.445.811-.301 1.234-.466ZM34.65 171.029c-.266-.222-.367-.609-.819-.645.201.287.338.638.818.645ZM74.04 170.971c1.033.172 1.55-.682 2.346-.94-.854 0-1.78.445-2.346.94ZM117.075 171.029c.466-.215 1.299-.071 1.406-.645-.43.251-1.255.114-1.406.645Z" fill="#F8EACA"/><path d="M31.83 170.856c-.121-.495-.645-.401-.997-.53-1.162-.416-2.21-1.177-2.697-2.289.79 1.198 2.446 2.303 4.16 2.109.252-.028.568.108.761.058.416-.101.89-.459.94-.998-1.973-.487-4.225-1.011-6.213-1.291-.043.172.302.495.531.761.79.911 1.973 2.145 3.515 2.166v.014ZM35.41 170.915c.273-.129-.042-.445-.114-.588-.194.201.057.452.115.588ZM34.65 170.8c.258-.251.122-1.083-.172-1.169 0 .258-.15.358-.237.53.065.287.337.366.41.646v-.007ZM103.475 170.326c-.488-.215-.961.086-1.234.294.431.416.84-.158 1.234-.294ZM55.575 170.62c-1.93-.223-2.805-1.493-4.046-2.404.883 1.256 1.794 2.698 4.046 2.404ZM61.73 170.384c-2.74-.502-3.264-3.221-6.392-3.343-.266-.043-.301-.322-.703-.236-.079.179.33.365.588.588.696.595 1.234 1.413 1.873 2.166.932 1.098 2.74 1.378 4.634.818v.007Zm-3.637-.817c.014-.23.315-.388.466-.295 0 .244-.265.445-.466.295Zm-.703-.531c-.115-.259.344-.237.179-.352-.15.079-.466.194-.646.058.087-.381.725-.582.997-.409.1.186-.215.236-.057.294.115-.108.15 0 .294 0 .05.416-.466.531-.76.409h-.007Zm-.94-.94c-.108-.309.739-.452.997-.237-.108.28-.66.373-.997.237ZM112.148 170.621c.438.043 1.263-.029 1.464-.409-.596-.093-1.177-.014-1.464.409ZM111.33 169.917c-.294-.251-.71-.409-1.169-.703-.531-.344-.975-1.055-1.585-.588.76.237 1.413.581 1.872 1.112-.825.036-1.557-.811-2.403-.703-.689.086-1.004.861-1.7.997 1.205.732 3.881.696 4.985-.115ZM29.427 170.505c.151 0 .072-.043.058-.114-.74-1.076-2.898-1.471-4.634-.998 1.614.28 3.02.775 4.57 1.112h.006ZM78.086 170.384c1.277.201 1.743-.911 2.755-1.169-1.127-.058-2.303.351-2.755 1.169ZM102.011 170.269c-.122-.136-.509-.043-.646 0 .208.237.416.122.646 0ZM119.308 170.449c.394-.66.595-1.514.817-2.346-.373.681-.717 1.392-.817 2.346ZM80.023 170.269c.675.187 1.09-.395 1.464-.703-.466.029-.983.502-1.464.703ZM117.541 170.269c.344-.179.861-.194 1.112-.466-.265.021-.99.1-1.112.466ZM87.117 169.214c-1.836.337-4.203.136-5.624.882.316.18 1.327-.021 2.167-.057 1.492-.065 2.761-.079 3.457-.818v-.007ZM56.106 170.096c-.854-1.679-2.633-2.704-4.986-2.697 1.715.846 2.41 2.711 4.986 2.697ZM104.823 170.097c-.05-.165-.237-.194-.409-.237-.043.258.194.237.409.237ZM104.35 169.916c-.172-.201-.674-.215-.882-.057.237.086.624.165.882.057ZM87.177 169.859c1.399.094 2.941-.186 4.455-.179.1-.316.365-.459.473-.76-.186-.029-.158.157-.294.179-.18-.036.057-.129 0-.237-1.837-.15-3.027.732-4.634.997ZM74.686 169.509c-2.467-.467-3.723-2.138-5.86-2.935.954-.165 1.771.445 2.517.883.76.445 1.536.889 2.346 1.234.108-.172-.193-.337-.351-.524-.18-.215-.323-.502-.474-.646-1.176-1.147-3.536-1.226-5.33-1.757 1.822 1.435 2.568 4.512 6.327 4.103.259-.028.646-.057.818-.351l.007-.007ZM101.596 169.158c-2.16-.323-4.197-.1-5.804.531 1.808.366 3.924-.273 5.804-.531ZM102.184 169.802c.215.158.652.029.76-.115-.251-.186-.538.087-.76.115ZM107.341 169.035c-.739-.151-2.159-.33-2.64.115.345.301.997.294 1.234.703.502-.237.897-.589 1.406-.818ZM68.768 169.681c-1.75-.753-2.647-2.36-4.455-3.049 2.245.158 2.992 2.324 5.158 2.755.165-.18-.473-.531-.409-.997-1.076-1.478-3.178-1.937-5.51-2.167 1.995.897 2.081 3.702 5.216 3.458ZM92.39 169.566c.596-.028 1.342-.416 2.052-.53-.86-.366-1.635.086-2.051.53ZM118.073 169.393c.144.108.481-.107.703-.115.007-.38.165-.616.237-.939-.38.28-.603.724-.94 1.054ZM82.9 169.1c.832-.165 1.909-.079 2.64-.352-.767.007-1.8-.1-2.64 0v.352ZM114.085 167.866c-.933-.115-2.109-.99-3.106-.818-.574.093-.797.703-1.349.882.66.689 1.722.976 3.049.997.459-.358.896-.746 1.406-1.054v-.007ZM115.964 168.218c-.517-.036-.976-.302-1.406-.237-.531.079-.876.696-1.349.818.882.229 2.016-.28 2.755-.588v.007ZM78.439 168.748c-.94-1.263-2.755-1.664-4.397-2.224-.05.151.265.653.408.818.818.925 2.203 1.657 3.989 1.406ZM85.828 168.806c.23.035.337-.051.473-.115-.072-.108-.545-.115-.473.115ZM86.587 168.749c.215-.058.517-.029.646-.18-.165-.122-.675-.086-.646.18ZM80.726 168.569c-.574-.388-1.277-.639-2.109-.761.567.352 1.162.99 2.11.761ZM87.47 168.569c.151.187.374-.05.467-.114-.079-.115-.38.043-.466.114ZM92.98 168.511c.121.194.243-.1.351-.114-.122-.194-.244.1-.352.114ZM93.682 168.512c2.812.229 5.165-.503 7.037-1.406-1.449.186-3.113.667-4.806.939-.818.129-1.743.051-2.231.467ZM108.338 168.397c-.502-.287-1.363-.022-1.937 0 .624.021 1.514.301 1.937 0ZM90.87 168.103c-.574.043-1.807.064-2.288.237-.036.014-.323.172-.057.172.695 0 1.678-.208 2.345-.409ZM85.884 168.102c.194-.237.581-.595.588-.818-2.13.194-4.412.244-6.628.352 1.456 1.018 3.895.602 6.04.466ZM86.415 168.045c.653-.071.854-.595 1.234-.939-.717.007-1.004.444-1.234.939ZM87.291 167.866c.854.172.983-.89 1.815-.94-.093.395-.438.538-.703.761.567.021 1.413-.194 2.109-.237-.043-.459.15-.667.237-.997-1.241.423-2.82.301-3.458 1.406v.007ZM110.275 167.048c-.452-.057-1.155.137-1.643.237.495.725 1.14.115 1.643-.237ZM90.577 167.399c.007.129.251.021.352.057.423-.674.875-1.313 1.463-1.815-.064.639-1.004 1.22-1.17 1.758.905-.459 1.3-1.435 2.11-1.995.194.373-.359.711-.646.998-.323.33-.653.652-.76.939.136-.021.222-.093.409-.057.545-.703 1.341-1.162 1.88-1.872-2.002-.553-2.92.76-3.638 1.994v-.007ZM114.845 167.278c-.409-.782-2.432-1.249-3.343-.589 1.184.036 2.317.969 3.343.589ZM46.02 167.335c-.186-.243-.53-.33-.997-.294.308.122.646.216.997.294ZM78.56 167.335c.158-.079-.25-.301-.409-.409-1.434-.968-3.242-1.578-5.337-2.052-1.097-.244-2.31-.452-3.515-.703-1.901-.394-3.766-.552-5.624-.179 4.383.158 8.15.603 11.492 1.758.545.186 1.047.373 1.521.703.617.423 1.04.803 1.872.882ZM117.134 167.105c.237.022.323-.1.588-.057.1-.265.265-.474.466-.646-.609-.251-.853.359-1.054.703ZM117.191 166.28c-.531.015-.775.323-.998.646.632.294.768-.23.998-.646ZM94.034 166.984c.682-.273.868-1.048 1.234-1.643-.251.1-.71 0-.818.236.208.173-.057.517.237.531-.115.388-.567.445-.646.883l-.007-.007ZM118.776 166.869c1.012.129 1.686-.581 2.461-.883-1.004-.122-1.858.409-2.461.883ZM116.257 166.166c-.072-.087-.201-.108-.351-.115-.036.258-.474.423-.409.588.323.129.502-.344.76-.466v-.007ZM95.504 166.517c.588-.194.76-.796.997-1.349-.588.187-.689.876-.997 1.349ZM115.024 166.403c.222-.108.359-.301.466-.531a1.126 1.126 0 0 1-.409-.179c-.093.2-.201.387-.294.588.108.007.194.036.237.115v.007ZM96.438 166.051c.33-.086.61-.718.817-1.112-.114.079-.28.115-.409.172.036.481-.236.66-.409.94ZM89.872 166.051c1.507-.545 2.719-1.385 3.924-2.231-.717.272-1.657.129-2.403.409-.796.301-1.112 1.19-1.52 1.815v.007Z" fill="#F8EACA"/><path d="M114.321 165.986c.258-.108.445-.302.646-.467.674.043 1.126.445 1.7.352.631-.108.997-.904 1.585-1.055-1.671-.308-3.558.144-4.921.531.251.258.581.409 1.055.294.064.23-.208.208-.058.352l-.007-.007ZM118.597 165.699c.43.366 1.305.036 1.7-.179-.466-.23-.904-.703-1.406-.646-.531.065-.796.761-1.291.883.129.301.947.358.997-.058ZM123.639 164.874c-.796-.021-1.88-.179-2.288.352.667.15 1.614-.079 2.288-.352ZM107.111 165.111c1.607-.193 3.315-.789 4.692-1.406-1.377.424-3.135.969-4.692 1.406ZM121.358 164.702c-.739.065-1.255-.624-1.757-.409.552.194 1.291 1.184 1.757.409ZM98.194 164.579c-.18-.057-.595.151-.703.352.302.057.545-.057.703-.352ZM93.977 164.76c2.266-.058 4.512-.962 5.394-2.403-2.21.394-3.53 1.664-5.394 2.403ZM122.821 164.293c.287.086.847-.05 1.17-.115-.309-.452-.825-.057-1.17.115ZM123.051 163.584c-.53.093-.803.445-1.348.531-.05-.474.394-.467.466-.825-.911-.388-1.506.043-1.994.53.803.567 2.381.639 2.869-.236h.007ZM110.334 159.953c-2.346.488-3.257 2.41-5.273 3.228.151-.43.646-.639.997-.94 1.234-1.069 2.281-2.554 4.512-2.697-.021-.208-.078-.395-.114-.588-1.378-.481-2.167.186-2.992.939-1.32 1.206-2.633 3.128-3.988 4.046.028.051.05.108.114.115 2.805-.81 5.209-2.023 6.744-4.103ZM94.794 162.708c-.954.072-1.843-.624-2.697-.76-1.177-.194-2.145.33-3.343.351 1.743.495 4.225 1.507 6.04.409Zm-2.518-.409c.13.201 0 .56-.236.589h-.115c-.029-.345.028-.596.351-.589Zm-.588-.179c.022.179-.086.681-.409.703-.294-.337.1-.624.409-.703ZM133.546 163.174c.437-.352 1.019-.545.882-1.464-.509.273-.602.962-.882 1.464ZM103.712 162.708c.624-.337.889-1.025 1.349-1.52-.194-.151-.431.15-.703.114-.087.596-.424.94-.646 1.406ZM96.674 161.302c-1.349-.933-3.623-.954-5.746-1.112.724.165 1.485.997 2.346 1.406.53.258 1.47.624 1.994.531.516-.094.782-.703 1.406-.818v-.007ZM101.947 160.125c-2.518-.394-4.276-1.8-7.332-1.463a58.224 58.224 0 0 1 2.812 1.88c.244.2.302.373.589.351.23-.014.28-.265.466-.409.416-.315.997-.48 1.234-.703.143.689-.796.761-1.234 1.055.868.409 1.327-.84 1.994-.818.093.588-.789.696-1.054 1.112 1.205.265 1.635-.746 2.518-.997l.007-.008Zm-4.104.352c.201-.43.725-.832 1.234-.76-.157.473-.775.782-1.234.76Zm.115-.94c-.014.438-.416.488-.76.588.036-.416.308-.588.76-.588Zm-1.463-.466c.208.222.308.38.645.351-.157.122-.179.366-.466.352-.072-.201-.323-.466-.18-.703ZM117.541 160.828c2.088-.509 3.738-1.965 5.395-3.106-1.758.839-3.917 1.786-5.395 3.106ZM135.19 160.125c.165-.093.301-.208.115-.351-.101.057-.129.186-.115.351ZM107.929 158.719c-1.664-.947-4.426-1.104-6.98-.817.553.15.818.846 1.406 1.112.467.208 2.109.695 2.812.76 1.342.129 2.224-.337 2.755-1.055h.007Zm-1.521.531c.065-.48.395-.696.998-.645-.165.344-.596.724-.998.645Zm-1.7-.179c-.043-.014-.071-.05-.057-.115.237-.265.574-.703 1.054-.531-.071.445-.652.66-.997.646Zm1.758-.352c-.258.173-.474.388-.883.409-.107-.523.632-.774.883-.409Zm-2.461.058c.237-.223.474-.725.94-.531-.014.416-.653.76-.94.531Zm.115-.761c-.129.402-.545.51-.94.646.122-.402.495-.56.94-.646ZM135.247 159.422c.172-.079.236-.272.409-.351-.087-.072-.072-.244-.237-.237-.029.223-.187.323-.18.588h.008ZM100.778 159.307c-1.02-.638-2.26-1.062-3.925-1.054 1.4.265 2.605.717 3.925 1.054ZM138.769 158.84c1.722-1.255 3.443-2.69 5.158-4.103 1.722-1.42 3.328-2.955 4.864-4.512-.187-.416-.266-.947-.352-1.464-.667 1.693-2.389 2.461-3.637 3.637-2.116 2.002-3.838 4.419-6.04 6.45l.007-.008ZM94.214 158.605c.287.05.301-.165.588-.115-.122-.115-.567-.065-.588.115ZM112.679 156.668c-1.069.272-2.762.437-3.988.172 1.312-.072 2.467-.302 3.637-.531-1.794-1.048-5.144-.56-7.561-.409 1.901.495 5.043 3.307 7.331 1.7.273-.194.474-.495.588-.94l-.007.008Z" fill="#F8EACA"/><path d="M106.875 157.844c.151 0 .072-.043.058-.115-1.894-1.047-4.713-.581-6.973-.179 2.188.057 5.086-.689 6.915.294ZM116.315 157.256c-.84-.517-2.324-.302-2.87.294.746-.022 1.865-.072 2.64.179a.99.99 0 0 1 .237-.466l-.007-.007ZM98.84 157.141c.158.172.43-.036.645 0-.021-.258.165-.301.173-.531-.495-.043-.56.338-.818.531ZM119.364 157.075c.553-.186.969-.516 1.521-.703.136-.703.438-1.248.588-1.937-1.226.359-1.693 1.471-2.109 2.64ZM100.54 156.847c.144.101.639.05.531-.294-.337-.064-.387.158-.531.294ZM101.243 156.724c.129.129.474-.036.524-.179-.194-.187-.395.108-.524.179ZM116.666 156.553c-.43-.094-1.176-.309-1.585-.058.552-.057 1.377.51 1.585.058ZM102.24 156.552c.093.086.56.051.588-.114-.186.05-.43.035-.588.114ZM104.823 156.495c-.115-.194-.366-.158-.589-.115.144.094.381.086.589.115ZM113.438 156.496c.23-.065.33-.251.589-.295.028-.186-.266-.043-.294-.179-.122.136-.287.223-.295.466v.008ZM100.54 156.021c.33.057.323-.222.531-.294-.222-.179-.495.086-.531.294ZM101.309 155.965c.308.057.33-.18.466-.294 0-.129-.251-.022-.352-.058.015.172-.129.18-.114.352ZM102.068 155.907c1.191.15 1.701-.373 2.64-.467-.739-.079-1.736.101-2.582.115.043.179-.058.215-.058.352ZM112.499 155.849c-.208-.244-.574-.323-.997-.352.33.122.653.244.997.352ZM121.94 155.85c.718-.381.718-1.471 1.112-2.167-.294.079-.502.244-.76.352-.108.617-.215 1.234-.352 1.815ZM117.959 154.5c-.338.029-.531-.1-.818-.114-.359.33-.596.774-.997 1.054.796.674 2.281.022 1.815-.94ZM115.905 155.44c.194-.481.89-.739.94-1.17-.767-.043-1.054.847-1.757 1.055.036-.452.947-.854 1.054-1.234-.394-.079-.66.373-.94.588-.315.237-.638.438-.939.646.387.308 1.061.093 1.642.115ZM109.22 155.204c-.315-.165-1.033-.007-1.406.057-.502.086.029.014.237 0 .33-.021.882 0 1.169-.057ZM115.434 153.855c-.223.043-.28-.072-.474-.057-.222.695-1.018.817-1.521 1.233.703.689 1.514-.918 1.995-1.169v-.007Z" fill="#F8EACA"/><path d="M114.787 153.798c-1.248.043-2.259.316-3.457.409.294-.394.954-.473 1.463-.588 1.614-.344 3.35-.244 4.807.351-.524-.208-1.026-.695-1.586-.882-1.937-.624-4.326.488-5.631 1.055 1.062.129 1.93.452 2.755.817.394-.545 1.104-.774 1.642-1.169l.007.007ZM122.994 154.795c.56-.122 1.499-.38 2.052-.703-.416-.323-1.306.466-1.758.115-.179.114-.115.473-.294.588ZM123.346 154.027c.552-.294 1.327-.351 1.879-.645.115-.273.137-.646.237-.94-.33-.057-.689.366-1.055.466.051.137.359-.115.474.058-.251.322-.882.602-1.291.409-.051.243-.18.401-.237.645l-.007.007ZM125.87 153.856c.632-.151 1.019-.545 1.227-1.112-.258-.122-.602.18-.94.18-.1.308-.229.595-.294.939l.007-.007ZM122.528 153.562c1.104-.23 1.018-1.636 2.166-1.815-.165-.087-.423-.087-.588-.18-.71.488-1.392.99-1.585 1.995h.007ZM122.119 152.213c-2.633.05-4.764-.395-7.267-.466.538.437 1.441.638 2.231.997.265.122.523.387.76.466 1.435.481 4.032.266 4.276-.997ZM127.335 153.153c.66-.316 1.255-.696 1.93-.997.143-.696.437-1.241.531-1.995-.194-.114-.417.302-.646.531-.667.66-1.456 1.449-1.815 2.461ZM137.535 152.972c.215-.194.309-.516.531-.703-.079-.151-.301.043-.409.058-.036.222-.143.365-.115.645h-.007ZM129.681 152.916c.172-.079.236-.273.409-.351-.187-.165-.388.157-.409.351ZM123.991 152.679c.402-.043.926-.48 1.349-.703.021-.136-.172-.064-.172-.179-.381.301-.933.437-1.17.882h-.007ZM126.451 152.448c.294-.172.782-.158.997-.409-.344-.107-.982 0-.997.409ZM135.37 151.918c1.822-.387 4.032-.896 5.158-2.166-2.31-.108-3.494 1.428-5.158 2.166ZM121.237 151.861c-.424-.165-1.069-.388-1.521-.18.416.158 1.026.101 1.521.18ZM119.773 151.567c-1.141-.193-2.604-.15-3.809-.114 1.083-.639 3.314-.23 4.569-.237-1.786-.911-4.161 0-6.097.294.286.265.631-.036.997-.057 1.348-.079 3.192.552 4.34.114ZM126.868 151.746c.431-.058.839-.144 1.055-.409-.373-.122-.983.028-1.055.409ZM130.563 151.331c1.414-.445 2.777-1.45 2.992-3.286-.502.237-.976.509-1.464.76-.48.868-.667 2.031-1.52 2.518l-.008.008ZM125.872 151.33c.028-.186-.051-.258-.237-.237 0 .151.086.23.237.237ZM121.71 150.807c.402.208.653-.252.997-.295-.373-.172-.653.244-.997.295ZM121.589 150.218c-.517-.208-1.134-.315-1.7-.466.516.258 1.147 1.112 1.7.466ZM130.793 150.513c.315-.287.373-.84.53-1.292-.157.079-.308.158-.466.237 0 .366-.1.646-.057 1.055h-.007ZM127.743 150.34c.337.064.918-.137 1.169-.352-.301-.028-1.126-.071-1.169.352ZM124.817 148.813c-.818-.431-1.822-.811-2.934-.704-.997.101-2.066.775-3.049.761 1.133.28 2.956 1.327 4.397.882.603-.186.998-.76 1.586-.939ZM123.992 149.637c.538.107 1.155-.216 1.815-.18-.072-.258-.359-.308-.531-.466-.474.172-.811.481-1.292.646h.008ZM128.274 149.637c.338.036.998-.057 1.349-.057-.222-.301-1.184-.237-1.349.057ZM149.38 149.105c.366-.495.201-1.52.351-2.231-.301.072-.459.287-.703.409.273.445.323 1.119.352 1.815v.007ZM141.467 149.049c.122-.603.531-.911.818-1.349-.84-.172-.854.983-1.586 1.112-.079-.473.553-.739.703-1.169-1.097.193-1.994.588-2.697 1.169.947.05 1.794.201 2.755.237h.007ZM141.639 149.049c.753-.043.868-1.047 1.169-1.348-.538.301-.832.853-1.169 1.348ZM142.399 148.991c.66-.158.653-.99 1.177-1.292-.474.115-.847.84-1.177 1.292ZM128.919 148.46c-.509-.272-1.119-.445-1.7-.645-.165.2-.531.208-.646.466.775.272 1.614.796 2.346.172v.007ZM131.029 148.754c.818-.043 1.184-1.047 1.815-1.464-.861 0-1.406.825-1.815 1.464ZM149.787 148.631c1.005-1.14 2.11-2.561 1.643-4.806-.581.531-.997 1.227-1.234 2.109-.05.187.094.179.173.237-.474.545-.409 1.621-.589 2.46h.007ZM119.594 148.165c-.201-.179-.481.065-.76 0-.058.129.602.043.76 0ZM129.681 148.167c.136-.488-1.177-1.148-1.823-.703.51.337 1.234.452 1.823.703ZM126.689 147.579c-.208-.022-.395-.079-.524-.173-.265.086-.43.273-.645.409.401.366.903.122 1.169-.236ZM125.748 147.292c-.473-.137-.911-.158-1.169.179.38.373.969.301 1.169-.179ZM124.228 147.349c.215.208.395-.108.531-.172-.287-.223-.854-.165-1.349-.18.309.13.775.323 1.169.18-.035.143-.222.129-.351.172ZM127.686 147.112c-.301-.144-.861-.366-1.112-.058.309.194.804.33 1.112.058ZM143.928 147.112c-.466-.021-1.291-.244-1.643 0 .093.309.466-.007.646 0 .1.345.688-.007.997 0ZM148.907 147.055c.401-.223.86-.395.939-.94a5.003 5.003 0 0 0-1.054.531c-.036.208.064.28.115.409ZM126.452 146.819c-.165-.13-.66-.173-.883-.058.223.101.675.301.883.058ZM148.619 144.006c-3.071-.559-5.036.818-6.916 1.815.273.172.61-.086.761-.237.179.216-.417.316-.237.531 1.671.144 2.963.854 4.161.294.982-.459 1.32-1.815 2.223-2.403h.008Zm-4.34 1.937c.674-.086 1.477-.043 2.051-.237-.222.524-1.678.754-2.051.237ZM129.859 146.408c.833.129 1.873-.043 2.64-.179-.301-.302-.832-.381-1.291-.531-.473.215-.882.488-1.349.703v.007ZM119.479 146.351c2.044-.165 4.34-.581 6.334-.997.265-.122.617-.474.646-.646-2.504.373-4.563 1.184-6.973 1.643h-.007ZM130.269 145.648c-.825-.315-1.894-.021-2.346.409.803.725 1.657-.043 2.346-.409ZM148.734 146.352c.452-.316 1.098-.43 1.292-.997-.359.014-.919.337-1.292.531v.466ZM141.467 141.84c-.674-.108-1.205.689-1.994.466-1.371.624-2.841.567-4.219 1.055-1.04.366-2.073 1.435-3.163 1.815.423.344 1.076.445 1.406.882 2.805-1.262 5.28-2.848 7.97-4.218ZM148.79 145.469c.495-.273 1.127-.402 1.521-.761-.401-.071-.904.273-1.406.294-.05.144-.136.252-.115.467ZM126.28 145.239c.832.223 1.342-.38 1.815-.703-.81-.208-1.334.388-1.815.703ZM128.095 144.945c.674.043 1.42-.337 1.879-.703-.775-.15-1.384.373-1.879.703ZM133.604 143.711c-1.155.115-2.891.165-3.58.94.416.165 1.033.136 1.464.294.667-.444 1.399-.832 2.109-1.234h.007ZM149.2 144.471c.789 0 1.736-.337 1.994-1.054-.817.193-1.484.552-1.994 1.054ZM156.057 144.529c.265-.143.43-.495.294-.882-.201.186-.158.624-.294.882ZM157.701 143.596c.538-.861.94-2.748 1.291-4.104.208-.825.467-1.348.237-2.231-.732 1.887-1.205 4.032-1.521 6.335h-.007ZM129.035 143.303c.395.1.961-.13 1.291-.295-.53-.165-.947.022-1.291.295ZM151.546 142.419c-.187-.186-.588 0-.882 0-1.385.022-3.2-.279-4.34.294.86-.717 2.654-.566 4.103-.588.574 0 1.334-.057 1.463-.645-2.087-1.88-5.502.157-6.858 1.348 1.413-.136 2.776.588 4.046.531.588-.029 1.37-.373 1.995-.588.157-.05.53-.036.466-.352h.007ZM131.438 142.773c.193.136.602-.022.817-.058-.215-.15-.581.043-.817.058ZM129.917 142.657c.323.107.811-.129 1.169-.18-.287-.071-.861.072-1.169.18ZM133.375 142.543c.201.101.56-.143.882-.114-.229-.129-.66.036-.882.114ZM161.101 141.896c.445-.76 1.327-1.528 1.463-2.583.072-.53.022-.889.467-1.111-.036-.632-.158-1.177-.115-1.88-.258-.057-.466.681-.882.466-.151-.509.609-.595.817-.939-.071-.553-.129-1.12-.294-1.586-.402.725-.825 1.413-.94 2.403-.107.976.252 2.009.237 2.992-.014.94-.437 1.578-.76 2.231l.007.007ZM131.56 141.488c1.305.093 1.951-.674 2.991-1.291 4.225-2.511 8.766-5.201 13.193-7.389a418.784 418.784 0 0 0 7.797-3.989c2.325-1.212 5.051-2.375 6.801-4.218.05-.05.266-.165.179-.294-10.531 5.516-21.628 10.459-30.954 17.174l-.007.007Z" fill="#F8EACA"/><path d="M161.159 141.194c.631-1.385-.187-2.906-.115-4.455-.258.093-.488.387-.646.409.201 1.377.904 2.518.761 4.046ZM155.591 139.314c.201-.165.251-.495.466-.645-2.475-.072-4.821.495-7.037.882 1.262.151 2.295.595 3.572.409.918-.129 1.887-.818 2.992-.646h.007ZM148.382 139.372c0 .058.072.043.115.058 2.417-.517 4.677-1.184 7.503-1.292-1.607-.932-3.96-.588-5.452.115-.796.38-1.399.832-2.166 1.112v.007ZM160.341 137.026c.186-.416.81-.401.818-.997l-.818.409v.588ZM156.237 135.21c-1.205.18-2.174 1.112-3.58 1.292.797.143 1.815.373 2.583.351.344-.538.617-1.141.997-1.643Z" fill="#F8EACA"/><path d="M152.249 136.208c2.453-.194 3.759-2.253 7.037-1.643-2.647-.61-5.466.416-7.037 1.643ZM160.283 136.035c.402-.28.975-.394 1.169-.882-.43.136-.839.294-1.234.466-.05.201.086.222.058.409l.007.007ZM166.201 135.268c.337-.516 1.076-.947.818-1.7-.603.237-.624 1.054-.818 1.7ZM161.396 133.805c.114.151.358-.071.523-.057-.086-.251-.351.043-.523.057ZM162.507 130.993c-.588-.524-1.922-.301-2.697-.646-2.037.402-3.365 1.521-4.218 3.107.265.043.574.05.818.114 1.284-1.607 4.899-.882 6.097-2.582v.007ZM166.439 132.628c.172 0 .215-.136.294-.236-.057-.273-.179-.488-.237-.761-.322.28-.172.596-.057.997ZM167.379 132.341c.072-.028.122-.071.115-.172-.459-1.614-.897-3.737-.409-5.631-1.836 1.391-.215 4.074.294 5.803ZM167.729 131.638c.546-1.392 1.299-4.003.295-5.394-.474.265-.574.968-.646 1.52-.158 1.249.179 2.762.351 3.867v.007ZM162.802 129.873c-.029-.265.057-.645-.058-.818-1.269.008-2.561-.387-3.515.115.466-.961 2.611-.237 3.931-.524 1.091-.243 1.65-.939 2.461-1.348-.882-1.478-3.666-.854-4.749-.058-.918.675-1.428 1.744-2.403 2.11 1.399.222 3.171.078 4.34.53l-.007-.007Z" fill="#F8EACA"/><path d="M163.211 129.875h.179c.122-.209.029-.632.058-.94-.409-.022-.172.61-.237.94ZM163.856 129.702c.215-.172.129-.653.172-.997-.33.057-.115.667-.172.997ZM164.388 129.407c.093-.107.215-.681.294-.997-.388.043-.23.631-.294.997ZM164.911 129.114c.33-.137.208-.725.409-.997-.323-.086-.28.695-.409.997ZM170.134 128.468h.115c.889-1.026 1.061-2.769.997-4.749-1.205.789-1.055 3.149-1.112 4.749ZM169.251 128.174c.143-.28.029-.811-.057-1.055-.086.23.064.718.057 1.055ZM178.162 127.471c.688-.775.602-2.016.294-3.164-.538.832-.61 2.037-.294 3.164Z" fill="#F8EACA"/><path d="M169.725 126.3c.1-.731.165-1.334.588-2.109.201-.366.854-.961.646-1.169-.323-.323-1.457 1.119-1.464 1.994 0 .481.187.825.237 1.292l-.007-.008ZM161.984 125.835c.653.186 1.069-.388 1.586-.588.803-.316 1.958-.259 2.869-.531.875-.259 1.7-.531 1.937-1.406-.746.021-1.449-.129-2.109-.058-1.937.215-3.034 1.679-4.283 2.583Z" fill="#F8EACA"/><path d="M165.557 125.303c-.803.058-1.636.079-2.288.294.667.18 1.592.087 2.223.295.273-.029.043-.431.058-.589h.007ZM166.087 125.892h.237v-.703c-.136 0-.172.1-.351.057.086.165.143.366.114.646ZM166.79 125.835c.258.021.301-.165.531-.18.086-.186.057-.495.057-.76-.222.029-.323.179-.588.172.028.352-.058.524 0 .761v.007ZM179.044 125.541c.71-.854.265-2.425.057-3.516-.653.969-.244 2.318-.057 3.516ZM167.844 125.01c.265-.187.459-.445.588-.761-.222.094-.308.316-.588.352v.409ZM172.243 124.07c.093.014.1-.058.179-.058.151-.222-.079-.53-.115-.882-.086-.753.086-1.657.18-2.288-.775.653-.187 1.994-.237 3.221l-.007.007ZM172.708 123.488c.388-.122.668-.853.818-1.406-.158-.043-.115.115-.237.115-.122-.187-.179-.445-.179-.76-.351.473-.179 1.463-.409 2.051h.007ZM179.747 123.546c.545-.99.086-2.432 0-3.637-.66 1.026-.173 2.36 0 3.637ZM165.262 122.721c.789-.287 1.822.05 2.697-.058.925-.114 1.672-.767 2.052-1.234-1.93.079-3.523.503-4.749 1.292ZM171.359 120.906c-.43.172-.524.689-.76 1.055.315-.022.53.057.645.236.266-.201.043-.889.115-1.291ZM180.333 121.495c.423-.99-.057-2.389 0-3.58-.588.918.007 2.36 0 3.58ZM189.538 77.404c-.674 3.1-.961 6.199-1.757 9.262-1.22 4.677-2.733 9.555-4.283 14.01a137.429 137.429 0 0 1-1.994 5.337c-.711 1.787-1.306 3.515-2.167 5.158a90.356 90.356 0 0 1-2.64 4.692c-.918 1.514-2.173 2.733-3.049 4.275.087.266.187.833.352.818 5.201-7.238 9.362-15.753 12.016-25.74.43-1.62.868-3.306 1.291-4.985.416-1.664 1.012-3.321 1.292-4.986.444-2.647.595-5.2.939-7.855v.014ZM180.799 119.737c.553-1.155.094-2.855.115-4.34-.602 1.162.029 2.762-.115 4.34ZM181.447 117.269c.387-.998-.008-2.31.057-3.516-.387.883-.014 2.404-.057 3.516ZM181.97 114.694c.502-.667.358-1.98.473-3.049-.617.668-.387 1.83-.473 3.049ZM166.03 105.367c4.269-3.12 8.279-6.5 11.787-10.373-1.019.753-1.908 1.693-2.87 2.583-.968.89-1.929 1.786-2.934 2.64-2.016 1.714-4.247 3.206-5.976 5.158l-.007-.008ZM176.518 86.437c.193-.158.301-.402.408-.646-.208.144-.33.373-.408.646ZM183.85 86.142c.581-.194.638-1.105.76-2.052.538-4.117 1.026-8.895 1.291-13.07-.746 4.978-1.255 10.194-2.051 15.122Z" fill="#F8EACA"/><path d="M187.715 83.388c.079-.022.093-.1.172-.115 1.478-6.822 1.995-14.046 2.052-22.396-.646 1.34-.38 3.665-.466 5.63-.072 1.507-.094 3.014-.18 4.456-.244 4.376-1.068 8.22-1.585 12.253v.172h.007ZM190.765 77.11c.064.008.1-.014.114-.057.359-6.356 1.457-13.472.589-19.936.172 6.73-.589 13.193-.703 19.994Z" fill="#F8EACA"/><path d="M190.184 71.487c.703-4.09.653-8.896.703-13.774.029-2.59-.05-5.194-.237-7.619-.143-1.807-.61-3.694-.882-5.566-1.069-7.483-2.705-14.248-4.692-20.754a129.263 129.263 0 0 0-4.218-11.787c-.28-.681-.588-1.628-1.643-1.52-.251.617.086 1.083.352 1.585 1.657 3.164 3.206 6.686 4.397 10.373.689 2.13 1.327 4.297 1.995 6.507.66 2.18 1.104 4.476 1.642 6.8 1.6 6.945 2.64 14.118 2.934 22.512.158 4.526.058 9.06-.351 13.25v-.007ZM191.705 54.133c.093.014.1-.058.179-.058 0-1.678 0-3.364-.466-4.576-.151 1.327.078 3.285.294 4.634h-.007ZM65.481 196.007c3.3-2.675 7.21-5.258 10.905-7.74-1.27.179-2.511 1.162-3.573 1.879-2.59 1.736-5.15 3.817-7.324 5.861h-.008ZM99.781 192.666c9.254-6.651 19.448-12.935 27.906-20.639.251-.646.61-1.191.997-1.701.065-.121.065-.121-.057-.057a79.378 79.378 0 0 1-13.896 11.722c-5.115 3.4-10.509 6.528-14.95 10.667v.008ZM76.034 188.031c1.062.029 1.98-.746 2.813-1.234.172-.1.466-.086.409-.294-1.17.416-2.145 1.026-3.229 1.521l.007.007ZM157.235 182.989c-.179-1.901-1.385-3.25-1.872-4.986-1.701-5.983 1.011-12.181 2.64-16.765.38-1.083.609-2.195.997-3.286.939-2.668 1.8-5.165 3.049-7.503.179-.338.401-.617.588-.998.014-.028.136-.136 0-.179-.617 1.256-1.808 2.468-2.346 3.867-.466 1.198-.768 2.525-1.112 3.752-.667 2.353-1.951 4.562-2.755 6.858-1.169 3.364-2.467 7.912-1.879 12.31.358 2.683 1.528 4.878 2.697 6.915l-.007.015ZM88.762 182.816c1.714-.302 3.5-1.033 5.043-1.701.38-.853 1.205-1.255 1.234-2.46-.187.258-.41.488-.466.882-.481.165-.718.847-1.234 1.112-.008 0-.295-.057-.295-.057-.294.093-.61.43-.94.588-.358.172-.738.208-1.111.351-.818.316-1.478 1.026-2.231 1.292v-.007ZM76.919 181.639c1.062 0 2.288-.33 3.228-.646-1.133-.072-2.238.38-3.228.646Z" fill="#F8EACA"/><path d="M94.68 177.478c-.632 1.033-1.284 2.045-2.346 2.64-.072.222-.222.359-.352.531.89-.595 2.461-1.521 2.698-3.164v-.007ZM83.54 181.411c2.754-.115 4.626-1.119 5.86-2.755-1.062.624-2.267 1.098-3.343 1.7.667-.531 1.98-1.313 2.992-1.937.638-.394 1.441-.696.997-1.757-2.511.767-3.458 3.106-5.69 4.16.898-.982 1.974-2.288 3.05-3.285-1.7.602-2.583 2.855-3.867 3.866v.008ZM83.775 180.355c-.402.129-.94.624-1.464.818.395.093 1.163-.438 1.464-.818ZM100.074 181.23c.366-.064.531-.33.703-.588-.272-.072-.645.258-.703.588ZM104.005 181.057c-.215.173.474-.215.646-.294.775-.344 1.951-.674 2.582-1.169.122-.093-.452.208-.645.294-.797.344-1.901.639-2.576 1.169h-.007ZM98.783 180.821c.438.05.61-.674.875-.997-.53-.143-.58.71-.875.997ZM76.917 180.298c3.63.71 6.37-.925 8.264-2.518-2.367.997-4.978 2.253-8.264 2.518ZM99.666 180.413c.517.05.789-.66 1.055-1.055-.553-.078-.775.675-1.055 1.055ZM76.1 180.061c2.82-.423 5.539-1.162 7.799-2.288.078-.036.337-.022.236-.18-2.202.524-4.95.474-6.686 1.406-.48.259-1.162.574-1.348 1.055v.007ZM61.207 179.301c.89.165.925-1.026 1.463-1.406-.61.115-.947 1.011-1.463 1.406ZM108.044 179.179a44.89 44.89 0 0 0 7.74-4.161c-1.434.344-2.561 1.377-3.866 2.052-1.306.674-2.525 1.492-3.867 2.109h-.007ZM62.376 179.007c.846.122 1.09-.868 1.52-1.348-.853-.13-1.01.939-1.52 1.348ZM100.017 178.77c.882-.287 1.908-.947 2.755-1.464-.546.065-1.442.28-1.995.531.983-1.6 2.031-3.637 3.867-4.57a1.336 1.336 0 0 1-.531-.057c-2.295.925-2.74 3.709-4.103 5.567l.007-.007ZM83.719 177.128c-1.765-.33-3.602.258-4.864.818-.172.107.681-.108.997-.18 1.162-.258 2.676-.423 3.867-.645v.007ZM61.852 177.364c-.172.1.725-.1.875-.237.43-.036.725-.215 1.112-.294.187-.158-.48.129-.76.058-.38.186-.84.294-1.234.466l.007.007ZM59.679 175.837c1.183-.302 2.661-.818 3.752-1.406-.273-.051-1.155.086-1.521-.058.38-.559 1.858.079 2.166-.409a8.42 8.42 0 0 0-1.994-.057c-.48.968-1.707 1.184-2.403 1.937v-.007ZM71.58 173.727c-1.636-.094-2.426 1.169-3.573 1.757h-.058c.911.258 3.013-1.248 3.637-1.757h-.007ZM41.68 175.427c.603-.38 1.17-1.292 1.88-1.758-.136-.1-.316-.15-.53-.179-.33.767-.919 1.27-1.35 1.937ZM111.33 173.375c-.144.072-.345.086-.531.115-.057.746-.359 1.241-.646 1.758.115.064.488-.488.646-.761.208-.358.344-.825.531-1.112Z" fill="#F8EACA"/><path d="M60.504 175.018c.366-.101.782-.668 1.112-.998-.596-.129-.696.754-1.112.998ZM31.953 174.371c.645-.308 1.485-.43 2.166-.703-.409-.803.359-1.521 1.291-1.521-2.102-.165-2.396 1.98-4.512 1.995.445.322 1.363.423 2.109.466 1.542.093 2.941-.624 3.867-1.169-.015-.072-.115-.058-.115 0-.631.487-1.385.265-2.231.409-.782.136-1.664.86-2.583.53l.008-.007ZM52.705 173.669c.732-.674 1.643-1.686 2.755-2.167-1.772-.129-2.16 1.127-2.755 2.167ZM29.018 173.26c1.62.718 2.998-.194 4.046-.882.093-.029 0-.065-.058-.058-1.485.158-2.303.983-3.988.94ZM118.482 172.909c.452-.409.89-.832 1.349-1.234-.452.172-1.248.509-1.349 1.234ZM115.907 169.394c-.954.473-1.399 1.958-1.758 3.221.115.1.295-.416.409-.703.359-.868.66-1.98 1.349-2.518ZM69.356 172.557c.46-.107 1.5.338 1.88-.057-.574-.251-1.334-.165-1.88.057ZM104.938 171.503c.474.1.696-.56 1.17-.646-.416-.043-.818.431-1.17.646ZM46.96 171.439c.164-.051.15.086.294.057.1-.251.416-.294.53-.531-.222.208-.66.201-.817.466l-.008.008ZM104.293 171.381c.323.187.466-.315.703-.409-.014-.093-.473.337-.703.409ZM111.501 171.323c.344-.144.875-.101 1.169-.294-.222.035-1.09-.079-1.169.294ZM44.377 170.031c.194-.531.86-.588 1.349-.818-.452-.588-1.356-.717-1.995-1.111 1.887-.051 2.813 1.37 4.046 2.166-1.033-1.98-2.998-3.02-5.983-3.049.797.631 1.277 1.578 2.052 2.231.438-.136.854-.581 1.349-.466-.194.43-.825.423-1.17.703.252.452.811.595 1.234.882.316-.244.84-.724 1.292-.466-.13.402-.675.387-.998.588-.021.215.28.108.295.294a1.072 1.072 0 0 1 1.233-.466c-.028.459-.624.352-.94.531.388.538.646-.287 1.235-.237-.294-.445-.732-.753-1.112-1.112-.467.094-.84.56-1.292.467.144-.46.754-.46 1.055-.761-.596.165-1.04.481-1.643.646l-.007-.022ZM119.537 170.915c1.686-.911 2.575-3.128 3.4-5.1-2.302.53-2.188 3.479-3.4 5.1ZM77.914 169.802c-.567.058-1.105.653-1.7.883.43.035 1.22-.574 1.7-.883ZM129.149 170.506c.094.05.366-.222.409-.409-.201.079-.244.302-.409.409ZM59.033 166.575c.603.581 1.514 1.327 2.231 2.224.603.76 1.026 1.391 2.052 1.463.789.057 1.22-.316 1.994-.409-1.556-.61-3.415-.925-4.282-2.224 1.226 1.062 3.063 1.507 4.863 1.995-.717-.474-1.09-1.471-1.937-1.995-1.298-.81-3.092-.71-4.92-1.054ZM113.56 169.624c.107.143.43 0 .53-.058.13-.1-.351.086-.53.058ZM91.868 169.566c.294.057.488-.488.818-.589-.273-.036-.545.431-.818.589ZM60.324 169.272c-.667-.387-1.17-1.958-2.583-1.994.997.524 1.593 1.456 2.583 1.994ZM99.78 168.454c4.326.732 6.629-1.528 9.204-2.934-3.443.366-6.09 2.037-9.204 2.934ZM119.243 168.331c.187-.065.122-.387.294-.466-.086-.065-.366.179-.294.466ZM131.903 167.457c.581-.316 1.069-1.242 1.464-1.937-.603.53-.947 1.32-1.464 1.937ZM92.98 167.105c.502.057.896-.509 1.054-.997-.387.301-.667.696-1.055.997ZM118.245 166.812c.244 0 .567-.417.882-.531-.408-.173-.667.308-.882.531ZM94.86 166.754c.358-.208.68-.961.94-1.464-.144-.021-.13.108-.295.058-.05.631-.466.897-.646 1.406ZM97.67 166.346c1.873-.172 3.279-1.593 4.987-2.109.373-.115.789-.739 1.169-.94-1.915.918-3.938 2.238-6.155 3.049ZM109.277 166.222c.861-.043 1.787-.516 2.812-.588-.15-.258-.817 0-1.054-.172.079-.215.438-.136.179-.409 1.521-.294 3.135-.502 3.924-1.521-2.188.431-4.218 1.521-5.861 2.697v-.007ZM103.009 165.986c.409.251 1.212-.107 1.757-.115.18-.014.23-.165.352-.236.272-.036.94-.251.76-.352-.882.309-2.087.294-2.869.703ZM89.342 165.872c.466-.646.84-1.385 1.52-1.815-.896-.022-1.377.889-1.52 1.815ZM100.369 165.814c3.285-.237 5.667-1.872 8.206-3.049.215-.531.84-.646 1.112-1.112-1.757 1.406-4.003 2.389-6.686 3.106-1.047.28-1.829.546-2.64 1.055h.008ZM98.84 165.284c1.894-.883 4.168-1.894 4.864-4.161-2.188.825-3.307 2.712-4.864 4.161ZM132.672 164.932s.394-.574.588-.76c-.229-.015-.502.43-.588.76ZM134.838 164.875c3.415-3.078 6.872-6.105 10.201-9.262.108-.014.359-.358.237-.237a1.181 1.181 0 0 0-.352.352c-2.647 2.217-5.595 4.828-8.386 7.152-.724.603-1.37 1.005-1.7 1.995ZM115.842 160.183c-2.791 1.879-6.708 2.633-9.735 4.275-.108-.014-.122.058-.058.058.065.007.108-.015.115-.058 1.887-.466 4.362-1.234 6.392-1.872 1.593-.509 2.913-.775 3.286-2.403Z" fill="#F8EACA"/><path d="M99.02 164.408c1.248-1.213 2.238-3.192 4.512-3.573-.474-.538-1.435-.057-1.815.18-1.162.724-1.822 2.489-2.698 3.4v-.007ZM119.306 163.999c-.136-.229-.531-.208-.76-.351.043.072.502.495.76.351ZM125.046 163.584c.036.143.229.121.179.351 1.062-.717 2.396-1.384 3.515-2.166.086-.065.309-.187.237-.295a46.93 46.93 0 0 1-2.697 1.521c-.18.036-.158.273-.294.352-.352.036-.574.208-.94.237ZM177.694 126.653c-1.155 3.357-2.432 6.528-4.046 9.555-.796 1.493-1.456 3.071-2.231 4.57-.775 1.499-1.643 2.949-2.346 4.455-1.42 3.042-2.84 6.134-4.455 9.147-1.463 2.726-2.747 5.695-3.637 9.089-.035.143-.193.595 0 .351 1.105-3.3 2.239-6.435 3.81-9.376 1.506-2.826 3.199-5.56 4.749-8.386 1.521-2.769 2.998-5.732 4.282-8.852a157.077 157.077 0 0 1 2.992-6.859c.559-1.198 1.349-2.109.882-3.694ZM94.973 163.705c.975-.488 2.166-1.277 3.457-1.643-1.449.022-2.54.897-3.457 1.643ZM119.537 163.469c-.029-.187.151-.165.237-.237-.28-.179-.617.086-.94.058.172.222.617.165.818.351.193-.021.258-.172.409-.237-.079-.122-.381.237-.531.058l.007.007ZM90.756 163.526c-.495-.193-1.414-.574-1.758-.53.61.157 1.033.494 1.758.53ZM135.95 162.471c1.456-1.033 2.791-2.282 4.218-3.515 2.777-2.404 5.517-4.807 8.329-7.389.603-.56 1.263-1.256 1.937-1.995.782-.861 1.836-1.592 1.7-2.869-.818 1.607-2.188 2.711-3.285 4.046-.187.229-.28.531-.467.76-.911 1.119-2.367 2.188-3.515 3.164-2.238 1.915-4.57 3.78-6.858 5.689-.746.617-1.722 1.133-2.052 2.109h-.007ZM118.074 161.302c-.775.165-1.751.631-2.518.997.574-.129 1.807-.609 2.518-.997ZM110.333 161.883c.438-.05 1.105-.38 1.521-.645.079.072.093.287-.058.294 1.399-.517 3.114-1.227 3.989-2.461-1.349.739-2.676 1.507-4.103 2.167.925-.911 2.927-1.564 3.637-2.698-1.012.087-2.203-.014-2.64.646-.266-.689.918-.875 1.757-.94.524-.036 1.091.194 1.349-.114-.61-.381-1.894-.216-2.755-.173-.968 1.241-1.406 3.013-2.697 3.932v-.008ZM116.137 160.829c1.528-1.012 3.429-2.16 4.455-3.867-.431.057-1.012.473-1.521.646-.847 1.205-1.729 2.374-2.934 3.221ZM125.168 158.195c-.229-.137-.459.143-.645.236-1.6.804-3.544 1.636-5.216 2.404h-.057c.194.035 1.012-.345 1.463-.531 1.084-.445 2.052-.89 3.107-1.349.509-.222 1.133-.337 1.348-.76ZM130.146 160.828c1.177-.581 2.483-1.543 3.81-2.167-1.256.502-2.647 1.378-3.81 2.167ZM110.921 160.361c.244-.265.373-.645.588-.939-.215.057-.43.624-.588.939ZM124.048 160.305c.488-.351.897-.782 1.406-1.112-.61 0-1.076.646-1.406 1.112ZM94.385 160.01c-.259-.129-1.033-.136-1.349-.115-.172.008-.567.022-.115.058.237.021.811-.029 1.464.057ZM117.019 159.602c.408-.302.825-1.091 1.291-1.521-.258-.144-.502.244-.825.237-.093.487-.215.954-.466 1.291v-.007ZM121.294 159.186c1.593-.538 3.235-1.536 4.928-2.167.581-.768 1.206-1.492 1.815-2.231-.868.552-1.8 1.126-2.697 1.758-.868.617-1.672 1.47-2.812 1.7-.38.344-.811.638-1.234.94ZM132.435 158.605c.746-.524 2.396-.66 2.64-1.88-.861.646-1.758 1.249-2.64 1.88ZM121 158.196c.782-.251 1.758-.818 2.288-1.521-.452.158-.939.273-1.406.409-.279.381-.48.847-.882 1.112ZM117.6 157.958a5 5 0 0 0 1.054-.53c.474-1.263.997-2.482 1.994-3.221-1.642.394-2.596 1.972-3.048 3.751ZM126.223 157.901c-.244-.057-.014.18 0 0 2.375-.904 4.319-2.245 6.507-3.343-.008-.229-.409.165-.646.294a278.909 278.909 0 0 1-5.861 3.049ZM196.509 125.19c-1.8-4.24-3.787-8.465-5.279-13.071-1.507-4.641-2.468-9.656-3.164-15.187-.352 6.88 1.585 12.576 3.58 17.648 2.023 5.15 4.333 9.835 5.746 15.71.911 3.788 2.166 7.69 2.166 12.074 0 2.726.122 5.258 0 7.798-.122 2.446-.602 4.856-.409 7.561 1.084-2.812.962-6.78.818-10.847-.079-2.253 0-4.512 0-6.621 0-1.198.036-2.698-.115-3.81-.193-1.377-.896-2.683-1.406-4.046-.53-1.406-.66-2.884-.939-4.512-.51-3.013-2.059-5.596-2.877-8.035.473 1.701 1.406 3.444 1.879 5.338ZM99.78 157.02c.208.151.388-.237.524-.352-.273-.215-.402.223-.524.352ZM122.119 156.667c.452-.172 1.449-.308 1.88-.703-.531.094-1.672.087-1.88.703ZM137.535 156.374c.796-.395 1.672-1.22 2.461-1.815-.746.444-1.636 1.255-2.461 1.815ZM124.816 156.258c1.399-.89 2.726-1.851 3.81-3.049-.531.057-1.141.538-1.701.76a7.053 7.053 0 0 1-.939 1.292c-.359.387-.832.574-1.17.997ZM125.046 155.728c.531-.129.861-.976 1.291-1.406-.724-.065-1.018.818-1.291 1.406ZM137.356 155.792c1.112-.61 2.181-1.492 3.229-2.288.079-.058.33-.173.236-.295-1.076.603-2.31 1.048-3.285 1.758-.007.323-.129.538-.18.818v.007ZM122.765 155.441c.201.057.538-.244.817-.294-.236-.101-.767.014-.817.294ZM137.829 153.855c.531.043.624-.86.818-1.348-.301.186-.488.997-.818 1.348ZM139.473 153.325c1.37-.524 3.393-1.22 3.285-3.221-.853.581-1.8 1.564-2.697 2.288-.144.366-.38.639-.588.94v-.007ZM73.574 151.33c.639.502 2.79.976 3.752 1.055.15.014.674.028.997 0 .424-.036.23.014-.294-.058-1.162-.157-2.963-.588-4.455-.997ZM143.045 152.041c.208-.087.273-.374.351-.589.632-1.714 1.557-3.285 3.049-4.218-.595-.222-1.047.33-1.406.646-.344.301-.818.653-1.054 1.054-.531.897-.316 2.224-.94 3.107ZM139.881 151.918c.818-.631 1.922-1.477 2.64-2.403-.215.079-.488.094-.761.115-.466.918-1.427 1.349-1.879 2.288ZM129.15 142.714c-5.244.983-9.821 2.805-15.302 3.515-3.544.459-7.812.653-11.607.94-4.87.358-8.874 1.499-12.719 2.991-1.09.423-2.26.969-3.515 1.291-.036.008-.445.094-.703.18-.1.028-.51.122-.058.057.897-.136 1.665-.351 2.755-.645 3.623-.969 6.808-2.382 10.962-2.583 4.311-.208 8.314-.531 12.31-1.234 1.987-.344 3.931-.588 5.746-.997 2.733-.617 5.395-1.442 8.149-1.994 1.607-.323 3.243-.531 3.989-1.528l-.007.007ZM121.826 151.682c-.086-.201-.739-.653-1.112-.409.287.215.825.194 1.112.409ZM147.557 146.588c-1.234 1.643-2.97 2.776-3.637 4.986.674-.538 1.37-1.055 2.052-1.586.244.079-.065.33-.115.467.868-.517 2.152-1.995 1.7-3.867ZM136.48 150.749c.589-.252 1.371-.818 2.11-1.112-.797.043-1.493.695-2.11 1.112ZM124.753 150.218c-.409 0-1.034.295-1.464.467.287.1 1.062-.302 1.464-.467ZM161.28 150.627c1.198-1.535 2.073-3.336 3.286-4.921.624-.825 1.27-1.528 1.757-2.403a198.733 198.733 0 0 0 6.916-13.717c-2.088 2.633-3.221 5.912-4.921 8.91-1.256 2.217-2.662 4.333-3.989 6.507-1.047 1.714-2.324 3.537-3.049 5.631v-.007ZM144.745 147.349c-.1-.151-.273.115-.466.057-.165.51-1.026 1.069-.94 1.406.366-.588.854-1.061 1.406-1.463ZM111.388 147.872c-.079.158.344-.043.53 0 .087-.151-.373.014-.53 0ZM133.081 147.701c.05.064.416-.051.352-.295-.151.058-.201.23-.352.295ZM140.698 147.292c.094.079.89-.122 1.234-.172-.366-.129-.854.122-1.234.172ZM153.655 146.41c1.657-1.012 2.374-3.917 2.288-6.507-1.463 1.6-1.98 4.154-2.812 6.392.394-.208.588-.617.94-.882.236.272-.316.674-.409.997h-.007ZM135.836 145.879c2.805-1.148 5.344-3.063 7.855-4.692-2.403 1.292-4.842 3.049-7.618 4.161-.086.165-.079.43-.237.531ZM153.131 144.946c-.051-.014-.058.022-.058.058.151.028.101-.18.115-.237.28-.839.667-2.052.997-2.812.043-.101.273-.689.058-.352-.617.962-.969 1.923-1.112 3.343ZM152.486 144.651c.108-1.349.782-2.439 1.406-3.4 0 0 .258-.323.057-.237-.724.918-1.908 2.109-1.463 3.637ZM156.94 144.415c.295-.079.409-.846.524-1.291-.301.071-.237 1.011-.524 1.291ZM159.638 138.61c-.574 1.378-.66 3.25-1.291 4.57.236.079.323-.495.466-.882.28-.732.416-1.586.646-2.518.1-.416.373-.825.179-1.17Z" fill="#F8EACA"/><path d="M152.135 143.246c.566-1.406 1.384-2.561 2.697-3.221-1.592.15-2.496 1.492-2.697 3.221ZM157.235 142.952c.445-.667.474-1.693.703-2.583.23-.882.423-1.765.646-2.575-.015-.065-.058-.036-.058 0-.366.825-1.219 1.549-1.348 2.64-.086.731.179 1.556.057 2.518ZM134.781 142.715c.029.122.89-.115.467-.057-.165.021-.223 0-.467.057ZM134.896 141.717c.753-.065 2.41-.244 3.163-.703-.954.1-2.109.509-3.163.703ZM134.192 141.014c1.678-.215 3.049-1.535 4.455-2.346 1.255-.724 2.439-1.37 3.572-2.109-2.697 1.234-5.351 3.013-8.034 4.455h.007ZM142.463 139.846c-.882.215-2.252.444-2.991.997.832-.036 2.209-.524 2.991-.997ZM146.625 140.491c.437-.093 1.155-.409 1.815-.466-.309-.223-1.005-.05-1.112-.466-.459.208-.789.538-1.234.76.186.165.301-.244.588-.172.122.036.072.38-.057.351v-.007ZM150.254 135.619c-2.216.595-4.454 1.679-6.391 2.755-.244-.058-.015.172 0 0 2.202-.847 4.297-1.794 6.391-2.755ZM150.197 137.614c.395-.115.962-.567 1.643-.588-.732-.445-1.234.315-1.643.588ZM164.386 136.797h-.114c.287-1.162-.223-2.274-.294-3.286-.086-1.234.394-2.123.645-3.106-.566-.395-1.097.509-1.234.882-.222.632-.344 2.066-.114 2.934.2.79.889 1.758.703 2.992 1.621-.933 2.044-4.512 1.054-6.507-.208.703-.509 1.327-.588 2.167-.122 1.399.588 2.912-.058 3.931v-.007ZM158.461 136.036c.38-.029.832-.495.825-1.112-.868.179-2.131-.208-2.869.172.014.71-.675 1.198-.883 1.879.258-.043.33.101.588.058.23-.61.718-1.421 1.17-1.994.1.014.136.1.115.236.193-.021.172-.258.408-.236.079.021.094.1.18.114-.337.567-.574 1.227-1.112 1.586-.23-.345.315-.718 0-.409-.115.115-.294.402-.531.588.531.079 1.098-.308 1.585-.466.115-.61.424-1.026.818-1.349.165.359-.122.732-.294.94v-.007ZM143.046 136.036c.201.064.509-.273.76-.352-.193-.057-.495.28-.76.352ZM151.783 135.447c.481-.05 1.012-.552 1.464-.818-.567-.035-.962.603-1.464.818ZM160.455 135.039c.352-.122 1.162-.287 1.406-.703-.502-.036-1.27.179-1.406.703ZM156.646 133.511c.179.222 1.112.007 1.406.294 1.126-.05 1.994-.351 2.575-.94.689-.035.926-.516 1.406-.76.051-.1.194-.222 0-.115-1.42.883-4.038.567-5.394 1.521h.007ZM160.634 126.825c-4.017 2.195-8.486 4.448-12.719 6.629-.143-.008-.1.071 0 .057 2.705-1.248 5.553-2.525 8.207-3.931.897-.474 1.729-1.105 2.576-1.464.279-.122.466-.158.703-.114.473-.323.724-.883 1.226-1.17l.007-.007ZM169.078 130.755c-.265.136-.617.732-.703 1.169-.057.294.215-.272.294-.409.136-.258.266-.588.409-.76ZM172.062 126.186c2.44-2.697 4.728-6.062 6.686-9.441-.423.201-.595.696-.825 1.055-1.477 2.382-2.998 4.591-4.863 6.801-.467.552-.84.896-.998 1.585ZM116.258 125.598c1.865-.825 3.881-1.98 5.803-3.049.617-.344 1.593-.961 1.88-1.112-2.683 1.27-5.251 2.64-7.683 4.161ZM174.115 122.254c.689-.889 1.27-1.893 1.88-2.869-.653.925-1.342 1.829-1.88 2.869ZM169.014 120.67c.581.035.861-.639 1.112-.998 1.972-2.805 4.168-5.602 5.688-8.967 1.708-3.78 3.688-7.64 4.929-11.844-1.349 3.975-3.415 8.229-5.273 12.016-.911 1.858-1.966 3.494-3.049 5.158-1.062 1.643-2.288 3.114-3.4 4.635h-.007ZM126.043 120.317a75.328 75.328 0 0 1 10.373-3.048c-3.701.538-7.518 1.47-10.373 3.048ZM173.297 119.442c.165.144.265-.272.409-.466a42.26 42.26 0 0 1 1.348-1.815c3.121-3.931 5.094-9.154 7.095-14.305.983-2.539 1.865-5.086 2.518-7.74.015-.108-.057-.122-.057-.057-.753 2.223-1.327 4.483-2.231 6.621-.897 2.116-1.643 4.283-2.518 6.334-1.284 2.992-3.128 5.732-4.749 8.501-.603 1.026-1.112 2.102-1.815 2.934v-.007ZM193.526 117.268c-.007-.23-.38-1.098-.53-1.586-.036.28.33 1.148.53 1.586ZM149.731 117.211c2.906-.652 5.18-2.446 7.21-4.16-2.425 1.133-4.735 2.891-7.21 4.16ZM177.285 117.212c1.256-1.621 2.489-3.759 3.343-5.983-1.184 1.923-2.188 4.032-3.343 5.983ZM160.928 108.36c-1.593.789-3.15 1.786-4.921 2.582-1.794.804-3.745 1.227-5.689 1.88-3.53 1.184-7.124 2.274-10.668 3.515-.172.065-.566.136-.466.237 1.758-.617 3.673-1.012 5.51-1.643 1.822-.624 3.68-1.033 5.509-1.585 3.063-.926 6.105-2.217 8.795-3.638.839-.444 1.478-.581 1.937-1.348h-.007ZM159.811 110.469c2.877-2.253 5.187-5.194 7.267-8.444 2.087-3.25 3.415-7.066 5.746-10.086-4.57 4.476-6.449 12.159-11.256 16.593-.157.165.087.057.115.172-.71.495-1.291 1.133-1.879 1.758l.007.007ZM186.309 96.638c.624-.373.646-1.349.997-2.346.179-.495.438-.918.409-1.406.115-.022.179.014.172.115.445-1.141.947-2.533.997-3.867-.861 2.496-1.578 5.144-2.582 7.504h.007ZM170.542 96.516c.725-.919 1.263-1.916 1.937-2.87.638-.91 1.535-1.714 2.288-2.582 1.693-1.944 3.336-3.932 4.455-6.45.072.015.058.115 0 .115.172.065.165-.222.237-.351.603-1.141 1.212-2.77 1.758-3.989-.876 1.349-1.543 2.805-2.518 4.103-2.856 3.795-5.696 7.755-8.15 12.016l-.007.008ZM182.385 93.351c.093.065.179-.28.237-.466.193-.645.329-1.592.588-2.166-.488.172-.495 1.88-.818 2.64l-.007-.008ZM187.307 86.38c-.445.143-.474.824-.589 1.29-.366 1.486-.81 3.229-1.234 4.692v.115c.725-1.908 1.277-4.003 1.815-6.098h.008ZM181.037 91.006c.646-.43 1.234-1.42 1.7-2.23-.71.595-1.083 1.535-1.7 2.23ZM177.05 85.554c.373 0 .538-.717.882-.94-.294.072-.574.682-.882.94ZM190.241 74.886c-.395 2.69-.631 5.538-1.112 8.15.674-2.41.947-5.23 1.112-8.15ZM186.367 65.331c.553-3.3.431-6.736.237-10.086-.194-3.329-.359-6.708-.818-9.85-.889-6.055-2.467-12.023-3.637-17.647-.179-.402-.445-.997-.645-1.464-.036-.086-.065-.502-.18-.294 1.514 6.019 2.712 12.196 3.809 18.645 1.091 6.42 1.823 13.242 1.234 20.696ZM189.889 60.345c-.007-5.201-.681-10.309-1.406-15.122-.731-4.835-1.356-9.613-2.582-14.01-1.184-4.248-2.418-8.846-4.104-12.548-.631-1.384-1.104-3.077-1.879-4.397-.266-.452 0 .222 0 .237.416 1.147.961 2.374 1.463 3.694.38.983.603 2.002.94 3.164.416 1.449 1.033 2.876 1.521 4.34 1.463 4.354 2.604 9.003 3.515 13.895.617 3.3.954 6.73 1.463 10.202.438 2.977.567 6.069.761 9.44.021.373-.093.818.294 1.112l.014-.007ZM175.054 5.588c-.115-.474-.674-1.004-.94-1.52.129.458.517 1.161.94 1.52Z" fill="#F8EACA"/></g><defs><clipPath id="a"><path fill="#fff" transform="matrix(1 0 0 -1 0 199.523)" d="M0 0h200.994v199.524H0z"/></clipPath></defs></svg>