<svg width="103" height="62" fill="none" xmlns="http://www.w3.org/2000/svg"><g clip-path="url(#a)" fill-rule="evenodd" clip-rule="evenodd"><path d="M79.625 9.896c-.131-.517-.372-1.079-.429-1.547-.05.455.228 1.088.429 1.547ZM85.315 5.916c.042-.009.049-.063.016-.082-.06 0-.044.064-.016.082ZM88.326 7.983c.052-.328.092-.663.102-1.013-.046.15-.076.307-.096.469-.02.16-.035.34-.014.52l.006.024h.002Z" fill="#E9EFE5"/><path d="M85.04 5.881c-.014.15-.001.489-.054.609-.03.07-.118.12-.181.184-.386.389-.6.82-.492 1.465-.097-.082-.153-.198-.236-.303-.079-.099-.195-.196-.228-.318-.024-.09.012-.232.009-.363-.012-.407-.016-.776.003-1.124.055-1.004.143-1.93.362-2.806.114-.452.28-.88.327-1.312-.519 1.68-.9 3.433-.79 5.44a.898.898 0 0 0-.163-.273c-.106.11-.063.384-.107.561-.002-.463.046-.93.048-1.408.004-.483-.02-.972-.034-1.46-.029-.969.054-1.93.05-2.842-.205 1.615-.046 3.42-.13 5.096-.115-1.213-.138-2.4-.154-3.552-.006-.39.015-.78-.036-1.164-.076 1.421-.012 2.937.087 4.464.034.514.136 1.035.091 1.521-.004.048-.032.09-.037.14-.011.12.006.29.014.435.014.263.025.491.105.742-.05.135-.014.28-.003.466.005.114-.01.247.008.333.043.21.155.39.227.576-.074 0-.094-.099-.172-.09.048.237-.03.494.055.745.074.22.22.42.296.632-.09-.055-.143-.178-.248-.21-.058-.334-.192-.615-.211-.915-.053-.835-.038-1.644-.163-2.492-.023.62.066 1.3.058 1.93-.25-2.38-.413-4.766-.635-7.098.031 1.42.182 2.9.308 4.37-.13-.87-.331-1.664-.294-2.451.018-.389-.015-.777-.036-1.163-.022-.39-.01-.786-.08-1.175.035 1.057-.015 2.19.095 3.313.116 1.174.407 2.336.455 3.5-.193-1.552-.632-3.239-.775-4.733-.037-.383.051-.76-.005-1.107-.198 1.267.012 2.795.366 4.34.17.74.28 1.524.385 2.27.055.392.157.775.215 1.148.027.175.015.35.014.524 0 .166.038.355-.06.497a3.493 3.493 0 0 0-.516-1.225c-.36-2.467-.614-4.867-.806-7.226-.03.259-.012.529.004.799.048.822.127 1.669.205 2.505-.04-.163-.04-.36-.098-.499.12 1.296.342 2.796.56 4.154.033.198.085.425.076.595-.008.147-.1.3-.139.456-.044.177-.03.33-.06.495-.073-.205-.354-.284-.386-.49-.084-.546-.2-1.085-.259-1.637-.057-.534-.13-1.066-.196-1.605-.135-1.094-.234-2.175-.405-3.207.05 1.049.175 2.098.286 3.166.112 1.068.225 2.147.431 3.25-.05.036-.04.078-.04.128-.003.133.031.298.044.451.013.157.032.313.06.459-.202-.204-.21-.529-.255-.8a38.9 38.9 0 0 1-.327-2.56c-.107-1.12-.16-2.236-.305-3.313.097 1.338.102 2.72.278 4.135.043.342.1.702.14 1.068.038.36.085.733.17 1.084.043.185.101.375.132.566.081.512.055 1.133.47 1.51-.097-.033-.194-.02-.242-.107-.06-.104-.075-.3-.124-.453-.235-.725-.485-1.522-.64-2.245-.067-.308-.08-.593-.136-.836a.222.222 0 0 1-.004.118c-.21-1.168-.35-2.351-.586-3.5.144 1.634.53 3.394.697 5.04a20.534 20.534 0 0 1-.431-1.856c-.114-.604-.167-1.2-.287-1.772.083 1.37.371 2.847.791 4.393-.216-.09-.247-.466-.324-.767-.165-.646-.326-1.329-.481-1.893.14.89.327 1.803.6 2.76.013.065-.05-.014-.058.03.044.062.102.096.117.21-.091-.072-.194-.124-.268-.229.018.167.228.22.31.37.105.191.138.49.194.729.06.256.136.5.166.723-.234 0-.266-.298-.351-.59a97.89 97.89 0 0 1-.93-3.46c.032.256.106.533.148.794-.32-.971-.354-1.843-.654-2.77.195.928.294 1.855.576 2.857.275.979.578 1.989.794 2.972a1.32 1.32 0 0 1-.325-.16c-.313-1.323-.6-2.656-.877-3.94-.094-.437-.132-.887-.326-1.295.2.827.311 1.636.466 2.453.156.815.34 1.637.528 2.486-.221-.66-.362-1.354-.519-1.971.04.768.34 1.72.548 2.543-.077-.01-.098-.09-.126-.156a5.406 5.406 0 0 1-.264-.694c-.01-.06-.088 0-.097-.06-.264-.654-.35-1.352-.5-2.043-.15-.689-.348-1.38-.53-2.096-.27-1.056-.58-2.178-.946-3.21-.122-.344-.205-.697-.372-1.01.612 2.146 1.338 4.401 1.74 6.479.073.378.238.925.081 1.137.059-.383-.234-.82-.324-1.244-.066-.307-.097-.62-.151-.934-.112-.641-.215-1.296-.45-1.916-.471-1.258-.859-2.596-1.216-3.928.246 1.946 1.39 4.19 1.52 6.057-.088-.22-.178-.493-.248-.686-.143.058-.083.275-.163.333-.03-.307-.206-.576-.31-.847-.151-.396-.206-.845-.307-1.275-.204-.865-.497-1.726-.756-2.584-.129-.425-.253-.852-.443-1.246.477 1.642 1.026 3.321 1.284 4.849-.038.13-.086.307-.161.384.012-.245-.155-.429-.245-.636-.083-.192-.148-.4-.234-.6a12.639 12.639 0 0 1-.665-1.888c-.113-.44-.3-.861-.433-1.3-.132-.434-.298-.857-.451-1.27.473 1.575.898 3.34 1.519 4.752-.085.24-.08.528-.162.771-.057-.035-.118-.068-.176-.101-.193-.368-.455-.698-.68-1.071-.453-.748-.8-1.62-1.192-2.452-.199-.421-.346-.866-.57-1.272.632 1.815 1.353 3.466 2.28 4.742-.103-.033-.231-.017-.358-.007-.5-1.023-.963-2.154-1.455-3.146-.168-.342-.314-.695-.523-.99.593 1.252 1.131 2.646 1.727 3.916.194.413.398.816.7 1.09-.038.21.01.464.042.71-1.057-1.705-1.884-3.83-2.874-5.659.446 1.077.964 2.146 1.465 3.183.509 1.052.932 2.129 1.584 2.964-.345-.058-.486-.472-.672-.868-.136-.29-.3-.558-.43-.81-.286-.559-.584-1.122-.855-1.651-.293-.57-.531-1.162-.793-1.747-.271-.607-.508-1.23-.755-1.835.35 1.298.91 2.44 1.434 3.552.26.553.54 1.09.821 1.623.283.536.534 1.088.841 1.603.05.03-.014.067.025.122.148.184.243.377.368.559.197.288.442.494.643.773-.19-.112-.34-.3-.524-.422-.009.169.08.332.159.48.249.473.513.896.832 1.18-.118-.102-.256-.156-.358-.265-.323-.349-.557-.864-.823-1.324-.27-.466-.515-.976-.768-1.445-.26-.483-.51-.974-.746-1.464-.249-.512-.459-1.034-.734-1.506a25.89 25.89 0 0 0 1.472 3.206c.41.763.764 1.523 1.208 2.201.143.22.323.42.46.649.292.484.444 1.04.815 1.429-.11-.062-.26-.048-.342-.129-.068-.068-.134-.203-.213-.31-.52-.71-.953-1.64-1.37-2.475-.501-1.001-1.074-1.932-1.566-2.816.446.979.98 1.882 1.461 2.86.358.732.714 1.495 1.107 2.13.134.215.29.41.401.626.223.216.433.521.63.777.066.085.157.172.163.274-.171-.124-.289-.305-.43-.463-1.01-1.129-1.787-2.63-2.555-4.168.308.79.7 1.525 1.036 2.202-.601-.99-1.195-1.993-1.79-2.993 1.085 2.138 2.3 4.048 3.552 5.852.261.378.656.65.846 1.138-.81-.793-1.513-1.75-2.2-2.74-.343-.492-.718-.973-1.033-1.494-.32-.53-.62-1.072-.99-1.57a36.22 36.22 0 0 0 2.329 3.681c.387.533.823 1.138 1.274 1.64.323.359.69.735 1.03 1.093.124.129.294.26.35.372.076.148.065.29.175.36-.724-.291-1.188-.965-1.736-1.552a9.268 9.268 0 0 1-.528-.613 16.666 16.666 0 0 1-.981-1.368c-.316-.504-.543-1.064-.913-1.491a17.722 17.722 0 0 0 2.367 3.592c.43.51.815 1.038 1.39 1.41.252.165.546.311.819.488.294.19.65.464 1.015.48.277.342.47.746.686 1.134.444.793.91 1.575 1.334 2.357.219.402.44.8.665 1.192.426.745.886 1.577 1.35 2.326.385.618.863 1.25 1.306 1.824.07.092.15.187.186.266.103.238.134.533.211.787.237.78.587 1.503.791 2.264-.574-.713-1.13-1.44-1.734-2.158-.147-.174-.26-.37-.395-.564-.136-.197-.267-.411-.397-.614-.26-.407-.541-.807-.812-1.199-.552-.8-1.07-1.593-1.645-2.34a37.8 37.8 0 0 0-1.764-2.124c-.593-.664-1.27-1.23-1.943-1.8-.667-.563-1.348-1.114-2.001-1.69a83.898 83.898 0 0 1-1.952-1.782c-.326-.305-.653-.646-.883-1.048-.119-.207-.263-.41-.397-.614-.125-.19-.237-.412-.44-.539.078.123.171.236.231.37.022.048.026.104.046.154.065.156.189.31.287.467.299.48.579.983.896 1.394.434.562.938 1.017 1.413 1.442.502.45.992.885 1.489 1.303 1.01.85 1.995 1.768 2.902 2.747.47.506.887 1.053 1.329 1.597.87 1.072 1.772 2.099 2.617 3.245a32.72 32.72 0 0 0-1.893-1.942c-.63-.604-1.28-1.193-2.013-1.725-.864-.626-1.756-1.317-2.716-1.784-.413-.2-.76-.371-1.184-.556-.221-.097-.529-.206-.637-.362-.15-.218-.182-.403-.348-.54-.058-.048-.129-.05-.203-.106-.17-.126-.325-.287-.484-.421-.167-.143-.312-.3-.474-.436a7.148 7.148 0 0 0-1.048-.715c-.735-.425-1.479-.764-2.23-1.183.972.71 2.145 1.152 3.057 1.912-.258-.182-.535-.31-.788-.47-.03-.02-.052-.058-.074-.069-.03-.016-.076-.014-.115-.03-.214-.088-.393-.236-.61-.317-.082-.014.051-.063-.018-.059-.032-.029-.102.012-.135-.01-1.536-.774-3.2-1.314-4.853-1.872.003.049.071.058.102.072.35.15.69.281 1.045.406 1.157.408 2.31.897 3.402 1.395.029.013.099.02.1.073-.138.006-.26-.078-.381-.13-.377-.162-.744-.325-1.12-.473-1.015-.401-2.072-.678-3.124-1.002-.53-.162-1.058-.335-1.625-.359.415.106.833.178 1.24.308.4.127.785.295 1.181.417.806.245 1.619.485 2.358.822-.087-.015-.215.079-.33.086-.065.005-.189-.055-.289-.08a31.701 31.701 0 0 0-4.238-.807c-.098-.012-.198-.06-.294-.014 1.516.339 3.17.536 4.594.982-.545-.116-1.097-.212-1.65-.314-.561-.1-1.125-.17-1.688-.263-1.117-.184-2.235-.428-3.368-.5 1.027.186 2.076.356 3.111.566 1.036.21 2.114.305 3.099.57-.632-.015-1.254-.128-1.882-.204a65.78 65.78 0 0 0-3.816-.327c-.323-.02-.648-.028-.967-.056-.315-.027-.627-.097-.945-.075 2.142.329 4.469.379 6.605.695.303.044.614.07.902.152a2.712 2.712 0 0 0-.642.014c-.222.026-.456.112-.701.122-.114.004-.264-.052-.404-.071-.977-.137-1.907-.328-2.92-.367a8.762 8.762 0 0 1-.84-.08c-.86-.114-1.711-.147-2.504-.299.96.236 2.034.362 3.052.456.354.032.71.047 1.055.093.681.09 1.371.208 2.033.313.522.083.986.206 1.378.5.125.094.257.173.385.27-.13.034-.289.12-.347.027-.007.041.065.06.01.074-.288.024-.565-.075-.841-.12-.28-.043-.552-.095-.824-.15-1.646-.332-3.268-.682-4.954-.86 2.056.355 4.046.833 6.088 1.213-.02.045.049.16.042.18-1.733-.255-3.415-.7-5.123-.938.859.228 1.735.399 2.614.576.66.134 1.318.297 1.98.406.222.037.451.055.662.136-.547-.057-1.09-.141-1.633-.214-.542-.073-1.073-.202-1.61-.222 1.535.33 3.145.528 4.72.79-1.147-.066-2.23-.253-3.327-.412-.023.05.05.038.066.045.109.045.227.07.343.089.804.131 1.635.28 2.453.352.344.032.696-.007 1.038.034.28.033.56.163.846.221.305.063.598.072.895.13a.94.94 0 0 1-.44.159c-1.24.034-2.382-.283-3.54-.502a31.107 31.107 0 0 1-1.704-.36c-.566-.141-1.122-.281-1.667-.41 1.378.49 2.867.798 4.316 1.104.297.064.595.112.894.168.478.089.906.117 1.41.127.167.002.327-.024.506-.025.301-.002.568.184.825.24-.804-.034-1.589-.123-2.372-.21-.782-.088-1.56-.207-2.341-.246 1.661.236 3.245.55 4.99.59.12.003.253-.021.367-.008.1.012.199.062.289.081.394.083.878-.002 1.413-.17.706.12 1.308.383 1.917.67.612.288 1.13.705 1.696 1.073.277.18.541.392.812.593.274.203.558.394.807.619.508.459 1 .945 1.521 1.41.507.452.954 1.027 1.442 1.538.486.51.967 1.025 1.425 1.568.45.534.906 1.108 1.373 1.661.343.405.716.808 1.046 1.232.188.24.39.43.496.765-.194-.052-.39-.063-.586-.106-.617-.135-1.145-.584-1.683-.896a10.32 10.32 0 0 0-.845-.44c-.22-.102-.445-.218-.655-.293-.08-.029-.162-.025-.253-.052-.204-.06-.422-.216-.63-.338a6.642 6.642 0 0 0-.638-.322c-.434-.2-.867-.447-1.267-.661-.87-.464-1.566-1.136-2.303-1.767a17.89 17.89 0 0 1-2.106-2.124 5.711 5.711 0 0 0-.51-.555c-.36-.33-.728-.668-1.099-.97-.19-.155-.367-.33-.582-.443.122.251.334.422.537.599.204.178.373.4.54.61.347.434.692.863 1.018 1.317.65.902 1.385 1.687 2.2 2.34.794.638 1.702 1.115 2.588 1.628.79.457 1.533.909 2.406 1.155.128.035.265.043.395.087.15.048.303.147.45.225.308.159.614.282.893.464.427.28.9.495 1.358.698.314.14.655.197.974.338.249.792.62 1.506.927 2.235.154.368.306.731.485 1.08.17.333.37.65.536.986.172.35.33.7.502 1.048.162.328.363.642.553.955.285.472.527 1.006.802 1.473.094.159.249.34.294.49.244.81.446 1.61.723 2.388.2.56.456 1.124.657 1.646.072.188.128.39.212.568.123.263.341.444.532.626.066-.049.072-.129.113-.19a65.706 65.706 0 0 1-1.232-3.369 16.876 16.876 0 0 0 2.295 3.355c.097-.028.208-.009.285-.06-.303-.755-.849-1.32-1.295-1.968a35.195 35.195 0 0 1-1.277-2.04c-.2-.338-.443-.688-.604-1.08-.166-.402-.343-.816-.512-1.252-.329-.854-.513-1.77-.706-2.676a109.8 109.8 0 0 0 6.617 9.13c.06.077.17.104.254.142.086.041.16.095.294.014-.105-.433-.322-.603-.551-.904-.16-.208-.313-.424-.462-.608a63.912 63.912 0 0 1-2.766-3.692c-.6-.856-1.15-1.743-1.781-2.57-.471-.62-.899-1.291-1.354-1.9-.154-.206-.333-.398-.474-.604-.004-.007-.003-.017-.008-.023-.122-.296-.098-.634-.168-.905 1.096 1.93 2.294 3.656 3.52 5.398.595.845 1.28 1.633 1.893 2.459.3.403.607.818.95 1.221.145.168.327.337.517.528.096.097.417.524.572.407.109-.082-.032-.305-.075-.377-.084-.14-.202-.26-.256-.323-.184-.213-.4-.47-.526-.602-.762-.805-1.355-1.661-2.028-2.56-.334-.446-.698-.871-1.003-1.309-1.123-1.608-2.185-3.297-3.26-5.01-.197-.316-.505-.703-.484-1.08a15.4 15.4 0 0 0 1.008 1.372c1.082 1.297 2.077 2.614 3.158 3.895.344.407.726.809 1.085 1.232.355.417.72.832 1.085 1.232.174.19.377.36.575.549.191.183.365.39.57.576.184.167.395.32.621.482.198.143.462.398.647.436a.41.41 0 0 0 .301-.053c-.014-.104-.123-.143-.192-.2-.539-.438-1.036-.949-1.52-1.449-.578-.598-1.247-1.235-1.732-1.887-.218-.292-.493-.551-.732-.85-.234-.293-.482-.583-.723-.865-.995-1.163-1.885-2.316-2.902-3.443-.348-.386-.704-.902-1.063-1.33-.126-.15-.317-.305-.368-.43-.048-.122-.048-.314-.08-.48-.09-.499-.225-1.041-.279-1.49-.038-.307-.057-.625-.103-.95-.046-.323-.163-.673-.165-.981-.002-.094.024-.166.028-.255.011-.245.026-.492.026-.744 0-.329.027-.655.045-.981a16.78 16.78 0 0 1 .2-1.906c.104-.599.28-1.192.436-1.783.155-.589.297-1.186.435-1.783.336-1.46.205-3.253.493-4.768.056-.297.175-.548.342-.827.163-.273.32-.512.405-.794.066-.216.094-.462.107-.69.006-.092-.027-.176-.03-.275-.007-.267.084-.49.2-.731-.399.318-.313.848-.332 1.34-.02.51-.34.812-.661 1.167.279-.948.45-1.944.67-2.926.218-.98.475-1.946.723-2.877-.554 1.403-.797 2.968-1.16 4.48-.088.37-.22.728-.312 1.101-.049.192-.084.374-.163.553a4.181 4.181 0 0 0-.194.535c-.18.641-.38 1.302-.639 1.896-.035.08-.07.19-.196.175.015-.14.074-.27.13-.4.057-.138.075-.275.125-.412.06-.162.2-.298.27-.457.086-.196.114-.43.17-.657.165-.663.365-1.337.533-1.982.233-.9.51-1.756.687-2.646.183-.92.315-1.844.454-2.769.139-.918.402-1.814.52-2.724-.348 1.334-.598 2.738-.83 4.134a20.071 20.071 0 0 1-.432 2.054c-.162.585-.32 1.186-.47 1.755-.02.075-.01.17-.076.23-.069-.08-.013-.162.043-.207-.045-.052-.044-.141.014-.172.122-.988.407-1.94.608-2.907.101-.488.165-.982.266-1.474.098-.487.197-.975.224-1.475-.282 1.28-.485 2.655-.817 3.873.196-1.458.32-2.93.505-4.385.184-1.45.468-2.879.651-4.287-.33 1.573-.582 3.187-.84 4.797.066-1.349.392-2.615.503-3.907-.136.676-.253 1.37-.362 2.07-.11.704-.183 1.413-.279 2.124-.095.71-.188 1.418-.266 2.12-.07.613-.232 1.22-.352 1.797-.016.077.003.175-.059.238-.041-.151.029-.308.06-.457.031-.152.047-.316.083-.465.222-.912.273-1.88.391-2.841.08-.648.085-1.307.147-1.955.06-.65.185-1.282.197-1.918-.339 2.084-.431 4.294-.771 6.377a.428.428 0 0 1-.221.054c.265-.372.287-.849.325-1.363.026-.356.054-.72.076-1.055.046-.708.163-1.405.198-2.085.039-.726.06-1.434.137-2.12.077-.697.219-1.36.311-2.015-.301 1.154-.462 2.42-.54 3.7-.068 1.1-.24 2.229-.296 3.328-.007.142.024.329-.14.403-.025-.234-.033-.493-.069-.7-.016-.094-.043-.19-.046-.284-.004-.146.058-.301.083-.464.078-.483.135-.965.157-1.44.077-1.676.198-3.279.554-4.788.073-.306.19-.608.194-.923-.734 2.284-.925 4.938-1.26 7.452-.113.074-.153.186-.249.269.167-.407-.057-1.048-.25-1.563a27.86 27.86 0 0 0 .487-3.051c.1-1.05.242-2.08.446-3.051-.59 1.905-.557 4.134-1.055 6.086.29-1.551.363-3.211.611-4.765.085-.528.222-1.035.255-1.549-.222.98-.44 2.01-.577 3.052-.121.92-.19 1.863-.353 2.752-.022.12-.026.271-.128.36.012-1.983.469-3.788.71-5.62-.4 1.841-.783 3.692-.84 5.712-.644.347-.624 1.042-.578 1.75-.173-.25-.137-.436-.12-.7.024-.406.056-.85.093-1.215.107-1.075.427-2.03.699-2.998.139-.492.313-.97.404-1.452-.242.68-.457 1.427-.673 2.087.222-1.001.513-1.968.657-3.01-.115.274-.144.567-.205.848-.188.868-.43 1.695-.665 2.55-.158.58-.307 1.135-.373 1.726-.05.458-.081.93-.107 1.386-.009.157 0 .33-.027.474-.02.103-.088.208-.114.319-.07.29-.053.585-.047.891-.079-.326-.03-.662-.034-.983-.018-1.647.218-3.21.436-4.738.088-.618.234-1.226.271-1.85-.159.5-.189 1.03-.296 1.548-.319 1.551-.486 3.168-.625 4.808-.134-.034-.116-.139-.112-.238.018-.32.03-.645.056-.946.105-1.23.292-2.487.379-3.663-.285 1.553-.434 3.177-.622 4.782-.042.016-.04-.049-.085-.025a.292.292 0 0 1 .061.292c-.112-.05-.075-.187-.07-.275.04-.735.197-1.43.279-2.084-.09.325-.143.722-.234 1.013.033-.881.123-1.786.133-2.647-.145.908-.187 1.857-.247 2.797-.058.947-.183 1.876-.305 2.776.039-1.248.084-2.479.213-3.69.064-.605.097-1.21.176-1.808.08-.598.168-1.194.197-1.788a26.524 26.524 0 0 0-.43 2.84c-.013.135-.005.309-.061.367-.107 1.768-.206 3.505-.224 5.268-.004.428-.058.863-.095 1.293-.094 1.082-.196 2.16-.133 3.305.013.234.073.474.072.713 0 .114-.03.233-.04.347-.03.365-.058.723-.068 1.079-.015.494.055 1.008.11 1.54.056.526.132 1.061.22 1.599.178 1.063.26 2.118.364 3.154.054.552.168 1.078.298 1.64.134.571.322 1.135.471 1.728.213.845.593 1.691.746 2.547-.44-.62-.927-1.257-1.35-1.888-.144-.215-.325-.435-.436-.655a84.398 84.398 0 0 1-1.402-2.93c-.118-.258-.26-.503-.337-.763-.078-.265-.124-.548-.175-.837a88.035 88.035 0 0 0-.302-1.65c-.101-.52-.171-1.083-.286-1.642-.225-1.096-.468-2.245-.589-3.292-.027-.238-.017-.51-.018-.756 0-.256-.016-.523.014-.74.033-.242.136-.507.165-.759.011-.096-.012-.2.006-.286.018-.089.1-.184.14-.275.132-.288.201-.603.263-.918.08-.423.197-.839.29-1.261.184-.842.347-1.7.44-2.597.16-1.555.412-3.1.617-4.614.03-.213.109-.425.083-.644a50.172 50.172 0 0 0-.6 3.459c-.163 1.177-.229 2.393-.493 3.504-.011-.293.008-.59.021-.885.013-.292.04-.584.078-.874.22-1.728.268-3.522.347-5.293-.163 1.102-.16 2.226-.254 3.342-.092 1.109-.246 2.21-.315 3.308-.083-.114-.238-.186-.28-.315.1.035.189.182.286.159-.071-.127-.202-.146-.278-.264.213-1.413.296-2.863.49-4.304.194-1.439.216-2.919.414-4.331-.346 1.725-.424 3.566-.636 5.34-.13 1.086-.2 2.166-.353 3.23-.107-.061-.125-.175-.113-.288.014-.134.084-.29.1-.456.015-.166.01-.345.037-.49.008-.05.043-.103.045-.155.002-.076-.02-.16-.02-.238.004-.558.04-1.066.07-1.596.085-1.514.153-3.042.23-4.546.016-.3.087-.603.03-.9-.239 2.304-.302 4.7-.446 7.051-.04-.076-.148-.107-.117-.21.055-.011.078.105.123.054-.16-.177-.1-.362-.09-.605.014-.447.048-.887.086-1.278.172-1.701.162-3.467.282-5.118-.177 1.091-.182 2.231-.25 3.354-.069 1.124-.214 2.236-.25 3.353-.053-.062-.144-.149-.168-.207.362-1.974.381-4.18.367-6.316-.05 1-.081 2.033-.132 3.045-.045.88-.147 1.76-.26 2.582-.014.107.01.25-.097.327.039-.292-.047-.631-.024-.949.009-.127.053-.258.08-.385.086-.394.107-.81.114-1.234.019-1.13.042-2.29.056-3.423.007-.573.028-1.142.011-1.706-.125 1.07-.064 2.213-.12 3.34-.057 1.113-.006 2.274-.252 3.263-.05-.702.041-1.395.08-2.089.039-.695.05-1.39.064-2.096.011-.706.005-1.41.032-2.113.025-.697.084-1.393.068-2.084-.079.608-.088 1.237-.128 1.883-.04.628-.018 1.272-.05 1.924-.045.94-.072 1.916-.137 2.855-.026.39.01.88-.237 1.13.206-.407.097-.978.195-1.44-.073-.185-.039-.325-.03-.494.016-.344.024-.669.026-1.001.004-1.338-.109-2.77-.038-4.04-.2 1.737.06 3.714-.126 5.457-.068-.283-.099-.58-.175-.837-.105.134-.141.357-.258.452.083-.494-.176-1.1-.117-1.603.017-.157.103-.283.095-.43-.068-.143.001-.39.016-.598.08-1.14.24-2.29.197-3.44-.072.842-.096 1.708-.21 2.528.051-.979.125-1.999.159-2.952-.14 1.387-.236 2.833-.363 4.24l.005-.006Zm2.018 21.542c-.39-.83-.804-1.75-1.124-2.666-.138-.396-.383-.843-.368-1.217.005-.125.043-.275.043-.426-.001-.168-.032-.332-.021-.457.02-.208.126-.297.172-.479.051-.2.018-.366.012-.61-.003-.171.027-.394.024-.576-.003-.112-.016-.304-.016-.447 0-.089-.008-.076.008-.015.158.573.188 1.139.296 1.717.316 1.664.616 3.486.976 5.176h-.002Zm4.14 8.836c.091.063.215.13.27.189.334.364.255.996.437 1.531-.552-.712-1.014-1.508-1.572-2.182.204.064.628.293.866.46v.002Zm-.194-.56c-.055.025-.151-.05-.237-.083-.243-.096-.54-.178-.791-.263-.317-.331-.508-.988-.723-1.56-.255-.681-.545-1.282-.74-2.048.216.317.409.649.637.969.228.319.41.682.602 1.03.382.69.856 1.313 1.252 1.957v-.002Zm-8.48-15.197c.326.493.671.951 1.06 1.33.048.268.18.52.31.718.1.152.236.261.314.42-.183-.108-.318-.307-.478-.487-.147-.166-.316-.35-.443-.55-.063-.1-.103-.205-.173-.308-.057-.083-.128-.164-.195-.25-.146-.19-.256-.397-.358-.576-.041-.071-.007-.204-.038-.298v.001Zm-.019.419c.44.71.92 1.494 1.484 2.066.072.074.216.156.251.22.029.054.018.125.041.18.121.288.544.451.803.518.062.015.136.016.19.02.61 1.514 1.22 3.019 1.853 4.548.145.35.32.666.362 1.065-.705-.889-1.301-1.99-1.962-2.992-.09-.137-.202-.253-.301-.386-.135-.183-.224-.413-.345-.618-.121-.203-.221-.414-.334-.621-.32-.593-.715-1.23-1.055-1.873-.231-.437-.527-.932-.793-1.4-.146-.256-.375-.55-.195-.727h.001Zm9.62 18.038c.202.842.349 1.654.592 2.518-.99-1.407-1.631-3.448-2.45-5.167.002-.043.07.076.104.123.573.818 1.167 1.733 1.754 2.526Zm.092-17.098c.102-.236.154-.468.242-.68 0-.02.012-.004.015.008-.012.003-.01.008-.009.015-.077.516.008 1.03-.034 1.545-.014.18-.05.359-.062.535-.087 1.258-.364 2.413-.672 3.572-.178.67-.308 1.344-.352 2.055-.044.7-.197 1.415-.134 2.17-.208-.656-.23-1.34-.302-1.998-.18-1.628-.342-3.261-.15-4.716.037-.281-.003-.596.168-.84.484-.15.744-.45.892-.798.032-.074.03-.157.06-.237.082-.21.24-.413.336-.631h.002Zm-2.021 8.47c-.163-.536-.218-1.02-.279-1.529-.06-.498-.11-.988-.153-1.463-.087-.959-.27-1.983-.417-2.983-.145-1-.397-1.998-.26-2.902.12.753.49 1.554.817 2.088.008.014.063.072.095.138.03.063.052.13.085.194.058.11.15.234.184.344.035.115.016.31.023.47.02.442.051.946.077 1.384.038.647.124 1.28.162 1.886.08 1.294.237 2.543.42 3.822-.103.138-.09.477.078.608.018.363.091.756.148 1.142-.295-1.102-.667-2.157-.981-3.198v-.002Z" fill="#E9EFE5"/><path d="M81.808 21.712c-.201-.22-.414-.354-.664-.495-.487-.278-1.001-.56-1.498-.72.544.294 1.118.581 1.642.895.18.106.326.256.519.32h.001ZM84.727 6.673c.22-.482.234-1.05.29-1.61.055-.562.088-1.142.16-1.686-.039-.002-.018.042-.022.059-.23 1.04-.186 2.233-.428 3.239v-.002Z" fill="#E9EFE5"/><path d="M69.91 22.389c.133-.01.212.08.273.201-.066.01-.112-.016-.175-.01-.032-.066-.066-.124-.097-.191ZM70.123 22.736c.053-.017.193-.034.224.048-.08-.007-.164-.009-.224-.048ZM69.76 21.453c.396-.102 1.146-.153 1.47-.02.112.045.258.165.257.323-.499.051-.892-.09-1.283-.23.26.238.684.343 1.108.348-.09.075-.242.12-.338.192-.414-.187-.75-.517-1.214-.613ZM70.234 22.497c.046-.01.076.01.12.002.013.048.043.067.051.127-.08 0-.135-.047-.171-.129ZM70.448 22.806c-.003-.017-.01-.032-.014-.047.052-.002.101 0 .122.054-.043.01-.065-.017-.108-.006v-.001ZM70.646 22.81c.01-.036.152-.013.183.036-.064-.006-.133-.002-.183-.035ZM70.576 22.407c.372-.154.907-.424 1.292-.392.047-.005.039-.04.078-.05.106.112.28.202.373.275-.404-.101-.885-.062-1.45.13.102.04.27-.04.403-.058.019.053-.013.12.034.156.091-.018.061-.101.054-.171.315-.034.627-.066.876.019-.498.409-1.237.273-1.66.09Zm.998.033c-.013-.05-.043-.057-.075-.029l.018.06c.03-.007.045-.016.057-.03v-.001Zm.247-.1c-.064-.014-.127.05-.096.118.074-.018.07-.077.096-.119ZM70.783 22.653c-.01-.02.004-.028.008-.015.2.052.427.054.635.092-.224-.007-.456 0-.643-.076v-.001ZM71.567 22.843c-.005-.01.001-.014.008-.015.095-.074.194-.103.348-.158.372-.132.589-.415 1.027-.44.047.03.079.087.127.115-.38.053-.809.261-1.197.4.454-.016 1.077-.425 1.422-.224-.42.483-1.263.357-1.736.32v.002ZM71.446 21.317c0-.014.013-.036.02-.018.515.12.98.329 1.334.743a.712.712 0 0 0-.278.085 1.212 1.212 0 0 1-.569-.395c.073-.012.097-.049.119-.087-.028-.079-.16.004-.154.06-.166-.114-.294-.295-.472-.386v-.002Zm.617.472c.05.043.196-.008.155-.1-.058-.006-.163.04-.155.1Zm.162.054c.025.102.16.008.157-.047-.045-.06-.12.018-.157.047Zm.337.066c-.022-.038-.126.01-.15.03l.011.036c.04.02.145-.008.138-.068v.002ZM71.607 21.758c.002-.046.01-.088-.019-.15.058.047.113.1.157.173l-.14-.022h.002ZM71.52 21.035c.036-.045.102.01.148.008-.036.047-.1-.014-.148-.008ZM71.772 20.96c.07-.056.21-.078.291-.128.36.178.796.312 1.115.5l-.109.033c-.336-.144-.719-.206-1.064-.335.043-.05.19-.047.234-.097-.12-.054-.36.106-.467.026ZM72.118 21.32c.075-.06.209.082.282.146-.093.023-.178-.127-.282-.147ZM73.822 23.718c.264-.13.515-.268.79-.393.092.043.17.107.25.17-.242.036-.514.128-.755.163.248.068.648-.142.907-.094.342-.13.767-.105 1.053-.009-.44.247-1.036.418-1.457.326-.278-.06-.518-.167-.787-.161v-.002ZM73.355 21.396c-.011.03-.083.03-.1.057-.032-.01-.058-.029-.092-.037.025-.073.157-.043.192-.02ZM73.333 21.494c.09-.035.17-.051.21 0-.058.05-.188.074-.21 0ZM73.504 21.622l-.01-.036c.056.01.157-.066.183-.004-.06.017-.125.045-.173.04ZM73.596 21.672c.077-.019.164-.053.183.036-.06.01-.08.041-.12.036-.018-.027-.047-.036-.061-.07l-.002-.002ZM73.518 21.322c.028-.046.114-.039.14-.017-.03.045-.116.038-.14.017ZM73.694 21.423c-.001-.061.116-.05.136-.028-.02.035-.114.05-.136.028ZM73.836 21.51c.03-.039.129-.052.161-.037-.025.033-.132.06-.16.036ZM73.966 21.586c.076-.07.185-.044.235-.007-.057.036-.197.067-.235.007ZM74.118 21.694c.006-.05.126-.091.165-.063-.023.037-.115.04-.165.063ZM74.175 21.754c.032-.04.131-.045.19-.07.05.02.138.067.149.097-.088.037-.15.028-.233.058-.031-.033-.07-.056-.105-.084l-.001-.001Z" fill="#D09100"/><path d="M74.712 23.308c.008-.033.083-.03.117-.05.077.063.154.124.237.174-.146.085-.233-.101-.354-.124ZM75.014 23.307c.068-.083.18.06.244.106-.126.047-.156-.083-.244-.106ZM75.678 24.06c.362-.104.72-.441 1.071-.338-.215.298-.71.377-1.071.337ZM75.232 22.285a.92.92 0 0 1 .262.256c-.05-.013-.109-.01-.162-.015-.028-.09-.074-.147-.1-.241ZM75.38 22.64c.005-.04.167-.064.184-.003-.065.009-.138.03-.183.004ZM75.448 22.775c-.004-.017-.01-.032-.014-.047.06.01.159-.046.2.004-.033.035-.135.038-.186.044v-.001ZM75.916 23.846c.117-.105.276-.24.483-.237-.194.062-.312.164-.483.237ZM76.467 23.099c.198-.006.344.242.463.44-.226.058-.3-.322-.463-.44ZM79.41 18.452c-.439-.429-.762-1.07-1.152-1.586.314.375.635.738.954 1.104.056.18.125.334.198.481v.001ZM77.178 12.87c.163.075.348.113.491.225.032-.02.009-.022-.003-.05.256.026.417.1.62.263.13.103.296.167.322.406-.477.013-.738-.367-1.096-.57.211.228.526.575.826.678.07.025.17.043.259-.013.004.243-.324.132-.5.048-.36-.171-.677-.6-.918-.896-.015-.02.025-.068 0-.09Zm.904.372c-.055-.033-.14.039-.111.112.07.014.134-.047.111-.112Zm.102.201c.011-.043.05-.092.012-.133-.06.032-.115.066-.09.143.019.01.048 0 .076-.01h.002ZM77.635 13.984c.012-.027.12.085.171.128.42.353 1.052.493 1.397.996-.37-.325-.755-.616-1.23-.75.166.169.39.232.574.369-.065.04-.137.124-.071.201.08-.028.094-.09.097-.159.233.175.54.312.638.672-.036.038-.128.045-.19.071-.606-.247-1.04-.808-1.386-1.528Zm1.06 1.189c.063-.016.12-.035.133-.08-.017-.084-.115-.02-.153-.07-.009-.027.01-.041-.01-.074-.04-.016-.099.022-.117.05.034.086.093.123.146.174ZM76.797 10.83c.103-.048.445.114.491.226.038.093-.028.197.013.306-.148-.214-.35-.328-.504-.531ZM77.187 11.72c.223.324.745.428.975.737.014.019.01.065.028.095.025.041.05.032.062.072.018.066-.002.104-.002.168-.238-.394-.602-.553-.9-.837.193.414.658.488.83 1-.106.143-.228.024-.357-.047-.094-.054-.18-.08-.254-.142-.302-.251-.353-.684-.383-1.046h.001Zm.157.649c.068-.017.07-.069.068-.124-.08-.046-.124.074-.068.124Zm.259.115c.013.035-.026.065.013.086.079-.016.109-.056.096-.119-.079-.018-.119-.1-.229-.06 0 .01-.007.016-.021.02.009.027-.01.04.01.073.053.02.095-.053.13 0Zm.22.074c-.092-.001-.119.1-.102.187.081.003.169-.111.102-.187ZM78.281 15.466a.131.131 0 0 0-.006-.024c.573.25 1.33.266 1.573 1.059-.271-.302-.55-.59-.916-.716.13.126.325.252.495.418.175.168.43.435.391.681-.538-.107-.853-.623-1.206-1.067.21.402.475.86.825 1.067-.285 0-.528-.364-.704-.627-.179-.267-.323-.562-.45-.792h-.002ZM80.331 17.747c-.269-.318-.554-.606-1.025-.555.383.086.812.344.993.797-.08.086-.192-.014-.273-.033-.063-.015-.133-.005-.191-.02-.474-.122-.742-.663-1.097-1.01-.002-.011-.008-.023-.01-.036.162.07.336.121.53.137.17.04.314.123.535.07.198.205.516.224.54.65h-.002ZM79.294 17.892c.353.36.982.217 1.395.468.021.035-.024.035-.022.059.021.03.037-.02.06-.018.027.056.075.072.087.155-.279-.21-.567-.4-1.022-.283.152.049.317.037.463.092.217.08.422.217.561.46-.718.148-1.24-.22-1.52-.931l-.002-.002ZM79.746 18.904c-.011-.018.002-.026.017-.032.266.171.6.215.909.305.004.062-.053.093-.06.147-.232-.068-.436-.185-.643-.295.158.2.377.292.6.372.004.029.015.046.03.056.054.018.13-.005.145.085.24.033.405.205.573.368-.799.461-1.177-.504-1.572-1.008v.002ZM77.527 10.365c.1.104.181.208.239.353.055.138.041.293.078.428.009.035.046.08.048.115.014.181-.173.347-.106.522-.216-.373-.013-.783-.2-1.14.03.348-.048.64.029 1.011-.254-.471-.094-.889-.088-1.29ZM78.25 10.88c.24.625.364 1.235.04 1.614-.192-.272-.188-.651-.129-.903.039-.162.12-.34.042-.516-.05.362-.252.645-.145 1.088-.07-.046-.133-.1-.202-.145-.002-.45.193-.795.393-1.139v.002Zm.137 1.366c-.008-.058-.043-.07-.051-.127.015-.026.053.004.038-.05-.019-.033-.046-.052-.091-.037-.064.08-.038.257.104.214Zm.01-.274c.025-.081-.09-.132-.142-.073.027.063.089.06.141.073Zm-.015-.177c.04-.021-.007-.096-.025-.12-.05-.005-.141.016-.106.083.046.008.09.018.13.037ZM78.368 12.575c.045-.01.064-.034.09-.054.123-.284.305-.537.375-.85.22.548.29 1.118.08 1.524-.065.126-.178.22-.224.352-.161-.41-.066-.763.05-1.098.054-.16.115-.284.064-.484-.118.43-.378.785-.315 1.307-.257-.162-.042-.449-.12-.699v.002Zm.55.466c.03-.088-.047-.175-.146-.137-.048.099.088.115.147.136Zm.006-.247c.049-.066-.018-.184-.12-.132-.033.074.062.116.12.132Zm.032-.282c.05-.054-.004-.166-.1-.112-.032.063.03.128.1.112ZM79.227 15.63c-.007-.04.05-.047.086-.065.01.057.044.067.05.127-.057.002-.08-.06-.136-.062ZM79.28 13.02c.383.617.44 1.405-.004 1.769-.282-.622.013-1.03-.007-1.546a4.16 4.16 0 0 0-.206.63c-.056.262-.092.569.046.89-.27-.165-.24-.538-.188-.795.07-.352.237-.622.358-.946l.001-.002ZM78.723 13.615l-.018-.06c.014.005.02.024.044.014.009.024 0 .04-.026.046ZM80.743 20.24c.334.053.848-.064 1 .382-.213-.157-.432-.3-.727-.31.25.173.614.226.738.564-.462.161-.658-.16-.9-.398.01-.108-.043-.181-.111-.238ZM79.867 14.082c.14.444.267.803.235 1.166-.023.254.001.47-.152.627a1.94 1.94 0 0 1-.15-.407c-.098-.427.122-.762.004-1.162-.073.49-.328.977.018 1.621-.202.023-.342-.176-.39-.411-.047-.246.061-.524.15-.768.096-.26.217-.499.286-.667h-.001Z" fill="#D09100"/><path d="M80.754 19.233c.119-.01.037.102.022.16-.11.008-.03-.11-.022-.16ZM79.905 16.082c.039.048.029.127-.017.16-.011-.084-.126-.143.017-.16ZM80.846 19.448c.029-.05.012-.126.085-.155-.01.06-.013.19-.085.155ZM80.129 16.996c-.26-.7.216-1.102.24-1.686.204.398.354.983.223 1.3-.08-.148-.195-.23-.291-.35.016-.164.086-.3.064-.484-.127.34-.279.758-.236 1.22Zm.413-.551c-.002-.08-.144-.247-.19-.188.074.045.111.154.19.188ZM81.021 19.33c.034.045-.022.12-.01.184-.108.006-.034-.147.01-.183ZM80.826 19.08c.04-.006.04-.04.074-.023-.003.046-.047.086-.074.023Z" fill="#D09100"/><path d="M80.23 16.848c.06.05.21.165.156.249-.068-.058-.153-.125-.155-.25ZM81.113 19.408c.08.031 0 .127.016.188-.098-.018-.011-.126-.016-.188ZM80.962 19.182c-.018-.036.002-.052.003-.078.017-.004.031.075-.003.078ZM80.88 16.29a3.1 3.1 0 0 1 .156.34c.007.063-.054-.026-.075-.029-.007.075.072.15.12.183.062.255.038.465.022.677-.094-.091-.128-.292-.223-.384-.03.194.226.403.175.58-.098-.107-.152-.298-.236-.431.023-.2.134-.355.084-.594-.129.448-.29.877-.243 1.416-.06-.036-.073-.102-.094-.178-.152-.593.232-1.079.313-1.58ZM80.25 16.481c.097.103.19.215.284.326-.027.012-.01.048-.05.055-.065-.084-.12-.185-.211-.22.006.124.178.199.188.317-.136-.112-.277-.286-.21-.478ZM81.957 20.983c.047.111.11.19.149.316-.2.023-.327-.093-.465-.183.076-.072.265-.092.315-.133h.001ZM81.229 19.54c.06.017.042.105.03.145-.076-.002-.035-.098-.03-.146ZM80.28 16.317c.111.109.206.249.31.37a.11.11 0 0 0-.034.062c-.07-.173-.282-.242-.276-.433v.001Z" fill="#D09100"/><path d="M80.755 17.8c.022.002.05.091.032.105-.005-.05-.045-.081-.032-.106ZM80.807 17.926c.008-.006.079.105.067.134a.353.353 0 0 1-.067-.134ZM80.762 17.603c.069.094.116.226.17.348-.07-.09-.177-.23-.17-.348ZM81.503 17.224c.019.274.216.659.183.95a1.938 1.938 0 0 1-.12.476c-.03.075-.163.396-.245.41-.105.017-.202-.232-.235-.38-.136-.632.2-1.01.416-1.455l.001-.001Zm-.333.862c-.085.281-.063.595.156.818-.233-.498-.032-.843.041-1.212-.083.074-.148.238-.197.396v-.002ZM81.59 20.244c.05-.056.041-.145.129-.182a4.93 4.93 0 0 0 .002.31c-.053-.026-.077-.104-.132-.128ZM80.819 17.315c.04.195.233.38.164.543-.092-.156-.275-.382-.164-.543ZM81.668 19.896c.02-.504.234-.906.26-1.407.106.142.11.355.106.522-.007.347-.157.65-.366.886ZM82.09 20.813c.12.132.123.287.207.467-.04-.102-.211-.268-.234-.38-.01-.043-.009-.062.026-.086h.001ZM80.772 16.245c0-.054-.008-.11-.01-.164.029 0 .047.024.066.044-.004.048-.01.095-.056.12ZM80.684 15.783c.04.025.088.036.11.096-.045-.017-.094-.026-.11-.096ZM82.462 21.604a.118.118 0 0 0-.008-.023c-.01-.029.008-.025.013-.003.018.04.047.06.06.11.346.501.683 1.073 1.006 1.67.153.28.312.544.341.864-.451-.909-.968-1.696-1.413-2.616v-.002ZM81.282 17.278c.01-.113-.02-.248-.066-.393.086.044.181.074.254.143-.076.075-.094.183-.188.25ZM82.221 20.285c.012-.3.07-.66-.012-1.041.137.376.136.767.012 1.041ZM81.148 16.66c.117.117.3.116.388.284-.151-.055-.322-.075-.388-.283ZM81.065 16.299c.076.018.145.075.22.114.063.034.185.05.177.152-.159-.043-.302-.11-.397-.266ZM81.03 16.013c.117.082.274.088.36.227-.127-.064-.26-.116-.36-.227ZM80.99 15.793c.115.05.225.113.34.166.01.041.003.073.026.121-.127-.08-.334-.094-.365-.289l-.001.002ZM80.94 15.537c.112.051.217.117.329.17.013.052.005.088.03.146-.124-.088-.35-.081-.36-.316ZM82.458 20.11c.184.153.388.27.525.511-.177-.092-.312-.261-.48-.37-.015-.047-.03-.095-.043-.142h-.002ZM81.849 18.061c-.044-.01-.004-.06-.029-.095.057.006.053.06.029.095ZM82.58 20.433c-.008-.03.006-.017.022-.019.23.25.541.345.73.67a4.146 4.146 0 0 1-.751-.65ZM81.757 17.716c.066.1.147.173.224.255-.085-.066-.187-.1-.224-.255ZM82.321 19.182c.141.11.285.213.427.321.062.03.142.034.134.14-.188-.079-.319-.264-.51-.336.04.115.162.184.261.257.097.07.229.12.268.228-.196-.087-.355-.243-.533-.367a.947.947 0 0 1-.047-.243ZM81.716 17.184c.116.009.146.175.197.302-.083-.076-.22-.14-.197-.302ZM82.086 18.364c.127.105.279.163.358.356-.13-.087-.29-.215-.358-.356ZM81.693 17.024c.05 0 .074.048.088.115-.063-.012-.08-.036-.088-.115ZM83.918 24.144c.088.052.087.204.09.296-.095-.058-.14-.204-.09-.296ZM82.296 18.971c.17.186.398.265.553.477-.188-.062-.399-.282-.553-.477ZM81.662 16.79c.037.022.04.112.062.16-.06-.008-.045-.115-.062-.16ZM82.584 19.787c.022-.02.134.07.192.11.07.05.152.1.194.16-.154-.044-.264-.168-.385-.27h-.001ZM84.103 24.45c.04.068.063.156.009.204-.043-.079-.056-.15-.008-.204ZM82.711 19.993c.05-.028.175.12.267.138.005.038.035.035.037.079-.109-.058-.194-.16-.304-.219v.002ZM84.226 24.683c.059.053.112.174.059.239a.219.219 0 0 1-.06-.24ZM81.483 15.81c.067.006.119.044.177.064.053.293.117.591.13.864-.07-.22-.148-.426-.212-.659-.022-.035.007-.042.021-.058-.057-.037-.095-.108-.116-.21ZM84.326 25.014c.03-.011.035-.035.049-.054.092.042.04.135.037.207a.429.429 0 0 1-.086-.155v.002ZM82.045 17.357c.07-.006.115.035.181.036.02.196.12.404.206.544a.743.743 0 0 1-.387-.58ZM84.453 25.259c-.009-.041.032-.055.039-.089.783 1.28 1.567 2.538 2.372 3.784.266.412.548.823.766 1.264-1.167-1.458-2.147-3.254-3.177-4.96ZM82.019 17.184c.062.046.165.016.194.122-.05.01-.208-.012-.194-.122ZM81.963 16.916c.077.033.149.07.22.114.03.063.003.095.018.149-.13-.004-.233-.084-.238-.263ZM82.495 18.407c.087-.033.143.06.211.09.235.106.478.25.72.376.007.044.009.124.047.153-.054.029-.116-.046-.18-.074-.061-.026-.134-.031-.19-.06-.174-.085-.298-.268-.454-.365.112.278.403.401.65.54.194.106.313.18.533.276.143.063.35.194.136.32-.675.182-1.144-.544-1.419-1.067-.022-.047.047-.001.053-.042-.03-.049-.13-.066-.11-.147h.002ZM81.627 14.761c.134.33.176.733.335 1.06.03.063.082.115.106.174.04.099.042.204.065.303.098.397.297.75.534.934-.124-.011-.203-.13-.307-.23-.031-.03-.083-.045-.102-.072-.1-.144-.207-.463-.283-.676-.178-.503-.33-1.083-.348-1.494v.001ZM81.46 14.463c.055 0 .023.063.044.104-.013.036-.031-.076-.044-.104ZM81.394 14.25c.043.03.091.052.088.115-.051 0-.074-.047-.088-.115ZM81.275 13.86c.1.073.197.154.192.33-.113-.02-.15-.179-.192-.33ZM84.127 22.314c.225.183.623.21.755.622-.59.085-.864-.409-1.116-.939.188.086.367.19.591.208.024.065.01.112.042.18-.098-.012-.181-.05-.272-.072ZM82.341 17.163c.307.298.707.427 1.028.696-.03.022-.026.059-.039.088-.234-.215-.531-.315-.758-.545.299.41.855.52 1.097 1.1.023.055.02.118.067.173-.044.031-.155-.04-.233-.072-.088-.035-.175-.081-.272-.073-.323-.395-.782-.642-.89-1.368v.001ZM83.225 19.812c.322.261.694.434.93.853-.541.059-.83-.344-1.01-.944.028-.027.085.01.126.026.135.05.298.132.453.147.153.097.328.272.434.475.044.085.094.187.107.265-.108-.064-.148-.185-.226-.267-.216-.227-.516-.39-.785-.549-.01.002-.015-.009-.028-.005h-.001ZM81.63 14.166c-.003-.04.09.04.122.055.178.64.337 1.397.692 1.802-.49-.137-.588-1.208-.813-1.857ZM83.836 21.484c-.014-.106.056-.169.05-.273.097.047-.025.194-.05.273ZM81.38 12.9c.145.382.25.827.34 1.213-.005.027-.108-.044-.128-.077-.046-.077-.069-.206-.09-.296-.066-.28-.074-.611-.123-.84ZM82.234 16.112c.022-.035.073.04.112.069.211.151.556.228.795.404.102.075.347.348.422.48a.403.403 0 0 1 .044.322c-.281-.11-.486-.36-.654-.679-.033.174.144.345.245.456.119.132.252.247.367.302-.042.044-.11-.021-.145-.046-.324-.223-.54-.764-.87-1.002.325.38.538.965.985 1.121-.008.056-.007.117-.046.156a.964.964 0 0 0-.347-.23c-.256-.336-.565-.444-.757-.932-.051-.127-.082-.276-.153-.418l.002-.003ZM83.959 21.28c.03.002.043.032.066.045-.002.096-.064.16-.068.253-.13-.059.035-.192.002-.298ZM84.436 23.07c.063-.03.085.039.14.074.126.08.34.1.455.198.113.097.129.251.226.395-.174-.09-.42-.04-.576-.16-.13-.103-.15-.3-.246-.508v.002ZM84.095 21.38c.007.069-.028.25-.07.292-.04-.092.03-.21.07-.292ZM83.757 20.787c.039.004.053.048.076.081-.043.008-.057-.044-.076-.08ZM84.184 21.456a.555.555 0 0 1-.074.28.484.484 0 0 1 .074-.28ZM82.189 15.261c.03-.037.11.014.17.038.054.023.113.06.18.074.095.019.204 0 .298.026.309.085.553.513.436.874-.326-.176-.59-.469-.859-.747.165.31.39.512.63.687-.406-.098-.625-.537-.855-.953v.001ZM84.205 21.786c-.025-.067.013-.186.057-.249.034.075-.068.153-.057.249ZM84.274 21.842c-.022-.09.04-.139.04-.219.086.055-.01.16-.04.219Z" fill="#D09100"/><path d="M84.416 22.225c.029.003.055.009.083.013.016.075.021.144.025.212-.078.005-.103-.156-.108-.225ZM84 20.855c-.002-.014.019-.017.032-.022.026.025.04.075.06.11-.044-.005-.055-.072-.093-.087H84ZM87.58 32.621c.006-.03.044.033.073.068.421.527.891 1.043 1.292 1.61-.489-.498-.967-1.014-1.365-1.676v-.002ZM84.377 21.876c.005-.043.024-.08.028-.124.048.025.067.099.099.15-.047 0-.077-.032-.127-.026ZM84.606 22.503c-.018-.083-.005-.148-.032-.235.084.018.056.18.032.235ZM84.81 23.086c.017-.046.062.009.1-.018.009.02-.007.03.002.05-.047.013-.063-.033-.102-.032ZM82.036 13.67c.14.066.277.211.442.33.158.112.315.246.391.422.036.08.107.22.113.328.007.126-.204.242-.043.425-.546-.082-.808-.796-.905-1.506h.002ZM84.682 22.312c.156.035.251.3.238.482-.07-.082-.124-.19-.216-.232-.015-.088.01-.154-.024-.251l.002.001ZM83.375 18.01a.182.182 0 0 1 .073-.11c.007.05.045.037.053.087-.05.01-.023.061-.07.072-.01-.03-.035-.033-.054-.047l-.002-.001ZM83.576 18.054c.038.07.063.166.09.257-.05-.079-.238-.187-.09-.257ZM85.398 20.766c.035.018.025.1.028.134-.106.424-.607.812-.517 1.383-.12-.125-.206-.419-.153-.548.029-.069.15-.193.22-.274.183-.202.37-.428.422-.695ZM84.61 20.991c-.006.079.089.257-.001.26-.067-.083-.058-.208 0-.26ZM84.518 20.955c-.061-.066.006-.149.016-.21.066.068 0 .151-.016.21ZM85.29 23.367c.243.664.485 1.33.725 2-.305-.61-.534-1.337-.725-2Z" fill="#D09100"/><path d="M85.426 20.99c.039.375.03.754-.16 1.041-.068.107-.15.245-.27.328-.007-.022-.043.004-.047-.026-.049-.555.35-.877.475-1.343h.002ZM83.92 18.841c-.192-.52.259-.793.426-1.16.114.15.216.326.279.572-.1.303-.294.556-.525.791-.169-.144-.012-.465.072-.63.09-.171.202-.321.196-.484-.077.037-.087.137-.123.205-.117.226-.299.418-.327.705l.001.001ZM84.317 20.113c-.014.003-.017-.018-.023-.032.099-.166.163-.352.218-.543.029-.006.027.048.053.047.044-.013.02-.064.008-.105.028.003.023.065.057.06.052-.077-.077-.185-.043-.233.045.022.046.124.094.14.079-.08-.093-.236-.044-.321.053.045.044.2.125.194-.097.291-.287.532-.445.793ZM85.19 22.907c-.146-.321.034-.55.18-.75.15-.206.202-.425.224-.7.054.104.032.252.023.38-.009.136-.023.316-.07.42-.104.23-.312.412-.357.65ZM83.741 17.953c-.112-.281.02-.44.087-.672.05-.174.043-.339.127-.451.128.167.074.337.045.54-.031.23-.122.417-.259.583ZM84.654 20.836c.053.038.021.117.054.178-.015.018-.064-.143-.054-.178ZM84.622 20.73c-.028-.03-.048-.138.006-.156.008.057.025.119-.006.156ZM85.425 23.338c-.04-.125-.116-.352.003-.426.004.144-.016.277-.003.426ZM82.254 12.869c.116.103.267.28.354.472.033.074.048.156.093.218.048.068.139.11.085.193-.165-.315-.397-.512-.53-.884h-.002ZM83.558 15.827c.018.122.09.249.143.383.047.116.131.267.135.358.005.11-.121.15-.093.26.03.034.023-.034.057-.029-.016.04-.04.12-.084.115a1.146 1.146 0 0 0-.35-.5c.035-.204.034-.479.19-.587h.002ZM86.43 26.39c.044.046.067.133.093.217.013-.057-.04-.147-.052-.216-.01-.029.008-.025.013-.003.218.644.62 1.176.73 1.844-.265-.605-.546-1.182-.782-1.84l-.002-.003ZM84.694 20.619c-.057-.046-.04-.14.001-.169.03.033.023.131-.001.169ZM84.902 21.174c.033-.091-.1-.271-.025-.341-.008.075.037.18.04.26.126-.167-.129-.531.014-.69-.01.218.212.642-.03.772h.001Z" fill="#D09100"/><path d="M84.821 20.553c.032.056.061.198.024.251-.037-.06-.069-.2-.024-.25ZM83.245 14.619c.095.16-.1.253-.012.443.064-.047.044-.137.071-.202.084.295.3.8.103.95.02-.3-.314-.543-.338-.814-.014-.145.089-.245.176-.376v-.001ZM83.024 13.627c.011.25.187.532.178.759-.005.125-.117.19-.15.29-.05-.121-.046-.244-.099-.37-.03-.072-.1-.135-.112-.198-.031-.152.124-.358.183-.48ZM86.895 25.796c.122.064.106.232.128.335.077.373.142.752.213 1.135.277 1.52.708 3.123 1.19 4.712.16.53.343 1.05.537 1.552.187.486.397.958.592 1.432.2.485.406.964.584 1.45.179.482.41.948.602 1.417.196.484.399.946.622 1.4.433.88.86 1.747 1.346 2.571.242.41.475.82.703 1.232.467.847.92 1.681 1.41 2.475.368.597.698 1.212 1.112 1.753l.198.262c.053.073.166.16.11.278a8.849 8.849 0 0 1-.637-.93c-.2-.321-.428-.639-.612-.975a17.918 17.918 0 0 0-.9-1.495c-.284-.414-.485-.95-.754-1.399-.37-.62-.78-1.26-1.146-1.91-.373-.666-.674-1.396-1.036-2.113-.824-1.634-1.52-3.407-2.211-5.253-.1-.263-.2-.532-.295-.8a28.995 28.995 0 0 1-.761-2.466c-.134-.533-.29-1.052-.397-1.571-.2-.974-.416-1.965-.59-2.944-.008-.048-.055-.106-.006-.152l-.002.004ZM82.756 12.264c.096.345.133.746.22 1.12-.03.021-.041.104-.078.088a2.13 2.13 0 0 1-.142-1.208Z" fill="#D09100"/><path d="M87.96 29.744c.219.458.441.908.655 1.376-.27-.373-.574-.764-.655-1.376ZM83.677 15.65c.054-.058.091-.124.156-.177.005.25.218.566.216.8 0 .065-.07.132-.109.162-.09-.258-.183-.51-.263-.785ZM83.622 15.433c-.122-.29-.213-.696-.282-.934.09-.098.175-.2.25-.307.1.421.29.974.033 1.242v-.001ZM83.297 14.267c-.09-.233-.123-.522-.197-.779.104-.125.156-.277.276-.393.109.462.092.857-.08 1.173l.001-.001ZM84.072 16.781l-.028-.095a.521.521 0 0 0 .087-.104c.051.15.141.36.185.525.018.064.038.154-.006.196-.073-.21-.225-.4-.168-.595-.051-.029-.02.069-.07.073ZM83.069 13.252c-.102-.388-.168-.844-.233-1.245.177.363.39.962.233 1.245ZM86.863 25.729l-.028-.096c.032-.005.047.024.083.014l.025.083c-.027 0-.043-.02-.079-.002h-.001ZM88.657 31.61c-.017-.042.017-.023.015.008.515.715 1.05 1.427 1.577 2.116.184.24.324.497.492.754.115.175.257.339.382.517.118.17.3.32.335.543-.4-.492-.788-.98-1.142-1.55-.11-.177-.263-.31-.407-.471-.24-.268-.433-.614-.637-.93-.207-.32-.44-.63-.612-.975l-.003-.012ZM86.308 22.554c.08.001.052.11.059.15.163.92.41 1.928.525 2.822a.3.3 0 0 0-.035.01c-.017.006-.034.013-.04 0-.183-.87-.324-1.764-.48-2.63-.01-.059-.035-.128-.046-.192-.005-.043-.034-.124.017-.16ZM85.573 19.643c.25.585.065 1.115.106 1.658-.247-.497-.063-1.132-.106-1.658ZM85.314 19.31c.074.048.13.129.2.183-.016.316-.01.699-.065.961-.013.007-.022.005-.027-.005-.052-.388-.108-.779-.109-1.141v.001ZM84.534 17.351c.179.177.386.303.591.427a.114.114 0 0 0-.034.063c-.199-.066-.329-.257-.505-.363.112.218.346.31.458.467.285.122.496.381.665.715-.442-.319-1.15-.442-1.175-1.309ZM84.087 16.003c-.032-.176-.19-.458-.112-.546-.042-.095-.039-.166.031-.202.017.201.193.518.166.723-.053-.005-.043-.008-.085.027v-.002ZM84.84 18.405c.067.032.124.082.192.11.275.44.742.534.91 1.17-.34-.244-.618-.6-.897-.953-.089-.07-.15-.19-.204-.325v-.002ZM86.257 22.466c-.024-.062-.008-.104-.037-.169.031-.01.068-.026.088-.014.006.053.016.108.022.16-.023.009-.048.015-.073.023ZM86.205 22.212c-.153-.734-.177-1.446-.257-2.153-.002-.028-.05-.103.017-.12.091-.003.082.16.088.243.03.6.112 1.349.225 2.01l-.072.022v-.002ZM83.655 13.797c-.09-.435-.179-.869-.168-1.252.1.384.108.806.197 1.217-.01.012-.004.03-.03.034Z" fill="#D09100"/><path d="M85.125 18.603c-.01-.03.004-.017.021-.019.085.044.154.096.254.143.088.041.208.043.28.096.162.117.184.345.243.584-.193-.399-.522-.55-.797-.804h-.001ZM84.19 15.3c.188.116.306.358.524.422.196.254.699.17.807.53.037.123-.011.247.026.392-.37-.394-.87-.553-1.196-1.03.22.473.67.686 1.022.98-.227 0-.45-.111-.648-.27-.083-.065-.197-.143-.247-.209-.16-.204-.217-.533-.286-.815h-.002Zm1.024.94c.03-.057-.027-.215-.093-.217-.024.047.016.235.093.218Zm.142.036c.02-.044.038-.194-.054-.178-.038.043-.02.115.006.192.016-.003.031-.01.048-.014ZM84.195 15.104c.064.002.034.062.072.107-.048.007-.055-.06-.072-.107ZM85.133 17.892c0-.053.033-.088.068-.123.042-.01.059.027.098.022a.222.222 0 0 0-.076.14c-.047.018-.05-.045-.091-.037l.001-.002ZM84.133 14.505c.216.161.459.331.718.453.086.041.196.067.259.115.182.141.276.447.306.707-.378.011-.636-.243-.882-.52-.177-.2-.38-.429-.401-.757v.002Zm1.238 1.212c-.089-.359-.458-.606-.742-.665.3.126.524.39.742.665ZM83.484 11.836c.253.42.158.953.452 1.36-.046-.003-.077-.13-.126-.065-.123-.4-.224-.874-.326-1.295ZM85.357 17.798c.002.01.008.01.015.009 0 .01.008.01.016.008-.03.056-.078.105-.077.178-.07-.036.028-.14.046-.195ZM83.95 13.334c.155.144.297.286.525.384.212.091.463.105.627.197.02.012.084.066.093.088.07.173-.188.248-.162.424.117.006.09-.146.167-.193.028.132-.094.184-.08.308.08.037.063-.112.104-.096.01.165.006.322-.032.461-.508-.153-1.005-.529-1.18-1.19a2.902 2.902 0 0 1-.061-.381v-.002Zm.475.567c.135.102.273.235.385.399.113.167.184.373.333.493-.175-.433-.403-.768-.728-.928.002.012.007.023.01.036Zm.432-.054c-.066.022-.113.054-.112.11.06.01.132-.047.112-.11Zm.097.1c-.047 0-.103.07-.108.123.061.002.12-.055.108-.123Zm.092.088c-.087-.004-.116.104-.133.17.093-.032.102-.107.133-.17Zm-.05.273a.306.306 0 0 0 .12-.216c-.075.048-.145.148-.12.216ZM85.058 13.683c-.04.105-.263.01-.353-.034-.395-.2-.768-.598-.894-1.253.154.058.268.18.437.267.347.18.847.173.865.81-.24-.45-.62-.645-1.037-.77.378.222.825.415.982.98ZM86.082 19.412c-.078-.217.122-.375.205-.54-.042.193-.11.374-.205.54ZM86.007 19.034c-.087-.376-.04-.792.24-.989-.098.26-.162.538-.147.858-.042.038-.037.1-.093.132v-.001ZM83.693 11.181c.165.145.332.29.541.39.158.077.363.077.496.199.123.113.189.357.215.58-.263-.493-.68-.706-1.078-.95.15.226.422.302.613.499.183.189.386.409.428.76-.016.022-.078.019-.062.056-.115-.065-.242-.071-.365-.12-.452-.184-.71-.808-.785-1.414h-.003ZM85.82 18.16c-.206-.622-.215-1.2.353-1.448-.26.277-.36.649-.344 1.084.005.116.052.273-.008.365ZM92.983 41.538c-.161-.523-.373-1.156-.452-1.67.103-.032.09.077.107.136.15.509.27 1.07.346 1.535v-.002ZM93.95 44.457c.284.48.472 1.267.695 1.906.187.53.407 1.025.598 1.496-.14.023-.168-.138-.2-.224-.202-.57-.428-1.12-.63-1.692-.175-.495-.35-.965-.464-1.486ZM92.445 39.495c.032.005.066.001.095.01.03.091.034.17.053.255-.146.05-.105-.167-.147-.265h-.001ZM92.35 39.137c.047-.007.073.026.123.014.032.081.019.137.051.216-.152.055-.128-.106-.174-.231ZM93.484 42.792c.056.098.131.321.194.47a1.102 1.102 0 0 1-.194-.47ZM92.325 39.014l-.032-.106c.045-.009.074.013.128-.013a.33.33 0 0 1 .025.122c-.044.006-.075-.012-.12-.003ZM92.266 38.774l-.028-.095c.034-.013.105.004.12-.037.037.013.006.075.037.118a.443.443 0 0 0-.127.013h-.002ZM83.617 10.016c.303.255.68.378.991.615 0 .043-.088.04-.078.09.023.049.102-.002.146.006.065.06.114.145.147.265-.027.028-.113.02-.122.077.017.053.066.05.127.026-.023.174-.126.305-.067.523-.11-.062-.048-.235-.087-.373-.124-.463-.436-.82-.802-.906.19.143.448.302.593.608.086.18.135.401.151.586-.546-.105-.957-.778-1-1.517h.001Zm1.06.97c.05-.024.101-.046.086-.104-.046-.032-.138.024-.134.079l.047.023v.002ZM91.851 36.837c.06.039.112.09.171.129.115.494.15.947.297 1.458-.174.021-.184-.22-.233-.42a21.764 21.764 0 0 1-.235-1.167ZM86.225 18.67c-.028-.378.155-.734.377-1.017-.053.336-.238.691-.377 1.018ZM95.177 48.033c.051-.018.075 0 .11-.033a.994.994 0 0 1 .072.197c-.05.003-.078-.029-.127-.026-.012-.058-.033-.097-.055-.138ZM95.359 48.585c.05-.013.068-.043.13-.053.035.119.078.223.124.324a1.825 1.825 0 0 1-.253-.27h-.001ZM95.307 48.42c-.003-.015-.009-.03-.014-.046.025-.008.025.027.056.009.005.021-.012.033-.042.038ZM91.81 36.616c.06.06.197.08.185.215-.07-.056-.142-.107-.185-.215ZM91.699 36.08c.05-.034.106.06.174.051.018.139.038.28.078.428-.179.028-.195-.28-.251-.48l-.001.002ZM86.141 17.78c.214-.475.303-1.015.54-1.48-.146.472-.054 1.154-.54 1.48ZM91.338 34.798a.06.06 0 0 1-.022-.032 7.319 7.319 0 0 0-.12-.48c-.01-.034-.046-.114-.015-.098.06.203.135.416.17.608.003.014-.01.009-.013.002ZM91.419 34.064c-.001-.056.075.038.123.014.1.629.211 1.265.31 1.893-.075.027-.273-.117-.16-.223-.226-.593-.166-1.121-.273-1.684ZM90.183 30.813c-.036-.019-.036-.105-.058-.15.036.02.036.105.058.15ZM85.626 15.601c-.22-.702.604-.946.796-1.466-.016.386-.002.874-.126 1.238-.202.157-.46.286-.563.493a1.342 1.342 0 0 1 .104-.703c.115-.252.396-.418.434-.7-.256.318-.645.653-.643 1.138h-.002ZM92.314 37.457c.44.763.85 1.526 1.323 2.231.156.233.34.455.429.722-.6-.829-1.11-1.818-1.693-2.673-.039-.103-.02-.177-.058-.28h-.001ZM92.082 36.25c.696.932 1.472 1.799 2.19 2.742.033.046.137.121.041.182-.073-.019-.112-.094-.15-.148-.64-.895-1.346-1.769-2.03-2.61-.026-.03-.031-.104-.05-.165l-.001-.001ZM91.367 33.718a.17.17 0 0 1 .118.041c.006.062.016.127.033.197-.12.002-.142-.116-.151-.238ZM83.633 8.153c.135.464.364.754.628.984-.287-.035-.613-.619-.628-.984ZM91.235 32.286c.141.436.13.877.215 1.316-.032.001-.103-.018-.09-.037-.047-.315-.078-.646-.127-.981-.014-.1-.049-.211.002-.298ZM86.037 12.123c.063.406-.04.754-.095 1.125-.127.19-.441.28-.554.478-.411-.783.267-1.167.647-1.603h.002Zm-.648 1.126c.023-.302.263-.514.372-.732-.28.289-.578.568-.376 1.108.05-.13-.004-.252.004-.375v-.001ZM91.274 31.888c-.037.09-.056.19-.18.236-.094-.12.058-.345.18-.236ZM85.245 12.774c.025-.304.046-.612.266-.816.035-.028.021-.082.06-.109.016-.033.035-.004.073-.022-.005-.109.124-.147.15-.239a.286.286 0 0 0-.133.079c-.094-.108.042-.15.119-.216.102-.087.168-.23.225-.3-.004.232-.002.469.02.716-.225.306-.573.55-.747.884a.059.059 0 0 1-.032.023h-.001ZM85.454 10.595c-.339.251-.445.624-.492 1.027-.13-.29.028-.493.136-.725.03-.065.04-.153.07-.202.13-.202.38-.334.543-.512.008.087-.078.15-.015.21-.233.49-.602.908-.641 1.498-.012-.002-.024-.004-.032-.017 0-.501.161-.918.43-1.279ZM84.014 8.502c.146.118.307.326.32.573-.133-.133-.282-.325-.32-.573ZM91.099 31.709c-.136-.617-.213-1.292-.273-1.904.1.58.224 1.259.3 1.857a.063.063 0 0 0-.026.047H91.1ZM84.026 8.318c.193-.063.233.244.268.408-.065-.16-.258-.267-.268-.408ZM85.476 8.02c.105.254.07.61.066.87-.14.165-.302.317-.446.484-.142.162-.25.348-.38.489-.127-.258.09-.639.233-.845.159-.228.403-.432.472-.658.038-.125.001-.217.055-.34Z" fill="#D09100"/><path d="M84.612 9.43c.009-.164.01-.344.077-.488.13-.279.494-.413.683-.659-.168.427-.662.684-.76 1.147ZM85.383 11.931c-.024-.07-.024-.125-.029-.184.019-.017.06-.022.065-.045.04.02.01.09.044.141-.02.032-.034.069-.078.088h-.002ZM86.702 16.1c-.01-.125.051-.297.03-.46.037-.015.067.01.086-.027-.02-.078-.102-.06-.087-.154.089.027.136.13.22.165a.698.698 0 0 1-.25.475v.002ZM96.388 47.898c.072.13.24.258.205.416-.096-.112-.228-.238-.205-.416ZM94.163 40.6c-.026-.047.006-.063-.005-.102.031.01.041.094.005.101ZM86.535 15.338c.031-.006.032-.03.038-.05.04.01.016.073.017.099-.027-.002-.042-.022-.055-.049ZM86.518 15.15c-.008-.078.016-.138.015-.211.093.043.045.162-.015.21ZM85.514 11.79c-.024-.053 0-.081-.028-.134.054-.015.062-.054.111-.072-.004.08.01.17-.082.205h-.001ZM94.458 40.962c-.01-.06.011.01.028.005 1.212 1.824 2.505 3.495 3.823 5.138.437.544.908 1.058 1.312 1.629-.496-.457-.926-.998-1.353-1.552-.42-.545-.867-1.087-1.29-1.647-.426-.564-.872-1.117-1.27-1.706-.4-.596-.802-1.196-1.221-1.772-.017-.023-.044-.043-.029-.095ZM86.552 14.701c.07.035.151.16.053.216-.087-.04-.045-.136-.053-.216ZM84.515 8.155c.032-.047.075-.086.105-.134.028-.003.023.057.036.08-.05.029-.064.078-.095.118-.025-.005-.029-.047-.046-.064ZM84.46 7.967c-.007-.023-.013-.047-.021-.07.044-.05.07-.11.141-.146.018.103-.064.152-.12.216ZM84.654 8.566c.009-.056.079-.085.147-.083-.02.047-.068.078-.112.11-.013-.005-.018-.03-.035-.027ZM84.59 8.354l-.018-.059c.038-.05.084-.096.112-.15.092.063-.06.147-.094.21ZM84.436 7.755c-.036-.422.243-.769.522-1.062.012.096-.13.178-.196.266-.134.178-.186.405-.185.649-.047.05-.109.09-.141.146v.001ZM86.735 15.174c.093.061.165.164.255.233.004.054.01.112-.036.14-.094-.12-.275-.177-.219-.372ZM84.637 8.378c.037-.047.086-.089.131-.13.067-.005.097.057.162.054-.048.095-.205.071-.293.076ZM86.368 13.957c.008-.108.021-.215.019-.329.054.017.083.08.136.101-.065.07-.086.161-.155.228ZM86.567 14.49c.063.033.126.089.106.173-.081-.005-.117-.094-.106-.174ZM86.18 13.252c.003-.042.05-.06.063-.096.075.034.029.137.034.196-.05-.001-.06-.075-.097-.1ZM86.734 14.903c.101.123.337.238.284.417-.11-.116-.311-.214-.284-.417ZM86.577 14.345c.04.03.112.082.107.135a.261.261 0 0 1-.107-.135ZM86.745 14.68c.124.057.21.18.317.265a.322.322 0 0 0-.008.144c-.105-.12-.299-.23-.308-.41l-.001.001ZM86.18 12.827c.028.025.08.074.064.123-.058.006-.088-.079-.063-.123ZM86.395 13.354c.084.008.085.164.186.138-.007.052-.007.11-.017.16-.101-.054-.195-.153-.169-.298Z" fill="#D09100"/><path d="M84.977 6.804c-.033.438.157.991.02 1.375a1.956 1.956 0 0 1-.155-.688c-.003-.128.023-.242.025-.356-.18.126-.13.481-.062.754.02.082.045.17.087.244-.375-.292-.31-1.064.085-1.33ZM86.212 12.571c.045.038.075.108.114.16.015.04-.029.051-.026.085-.092-.048-.104-.145-.087-.245h-.001ZM94.344 39.28c.008-.033.083-.03.118-.05.063.087.131.165.194.252l-.136.028a1.843 1.843 0 0 0-.176-.232v.002ZM87.125 15.328c.067.008.01.08.025.122-.062-.016-.014-.075-.025-.122ZM86.206 12.38c.054.06.21.18.149.278-.04-.105-.15-.156-.15-.278ZM86.439 12.89c.098.05.234.236.147.356-.031-.154-.233-.209-.147-.355ZM86.224 12.18c.058.098.17.167.181.293-.072-.068-.198-.175-.181-.293ZM86.477 12.71c.083.052.188.144.147.265-.056-.082-.197-.152-.147-.265ZM94.646 39.667c.118-.002.142-.09 0 0ZM89.198 20.557c.064.311.204.7.375.932-.03-.006-.06-.016-.105.005.016.142.086.351.007.41.054.155.027.308.06.46.028.137.097.24.079.35-.193-.353-.3-.872-.39-1.288-.08-.364-.102-.615-.027-.87h.001ZM94.74 39.766l.097-.029c.03.015.047.05.074.068-.01.033-.083.03-.117.05-.006-.05-.046-.038-.053-.088v-.001ZM89.676 22.747c.106.152.21.268.23.498a3.289 3.289 0 0 1-.23-.498ZM89.13 20.72c-.011.005-.014 0-.017-.008-.103-1.257-.015-2.417.109-3.555.047.24.039.473.056.706.019.24.082.479.087.722.002.139-.045.303-.06.457-.056.554-.037 1.186-.177 1.68l.001-.002ZM90.126 23.23c.043.015.086.027.131.04.05.215.02.387.032.584-.127-.145-.1-.417-.161-.622l-.002-.001ZM89.412 20.221c.061.08.017.197.041.31.1.486.428.764.595 1.136-.377-.239-.77-.91-.636-1.446Z" fill="#D09100"/><path d="M89.489 20.3c.2.164.427.394.64.594.07.064.165.123.213.182.271.32.227.782.189 1.142-.215-.232-.285-.524-.451-.792-.218-.35-.555-.58-.591-1.124V20.3ZM89.562 19.105c.21.2.403.426.662.535.061.025.14.014.172.09-.02.09-.114.14-.127.233.08-.005.097-.181.181-.184.035.092-.102.23-.137.287-.149-.249-.314-.465-.551-.556.225.208.47.476.581.83.115.13.191.353.235.56-.179-.274-.553-.467-.779-.744-.138-.17-.29-.366-.304-.656-.005-.126.043-.26.066-.393v-.002ZM90.743 22.745c-.01.006-.013 0-.017-.009.025-.355.155-.776.434-1.008.127-.107.278-.19.408-.305.122-.108.238-.229.404-.277-.134.24-.157.527-.297.761-.09.147-.23.252-.282.42-.201.149-.438.276-.652.417h.002Zm.38-.708c-.088.094-.07.242-.07.381.124-.031.098-.272.07-.381Zm.108.187c.012-.003.025-.009.036-.01.013-.113.023-.228.012-.353-.097.073-.107.241-.048.363Zm.178-.544c-.1.09-.056.255-.066.393.136-.067.081-.283.066-.393Zm.103.214c.085-.067.09-.278.024-.356-.025.104-.074.246-.023.356ZM90.271 20.748c.085.066.156.158.222.256-.088-.06-.154-.159-.222-.256ZM89.42 17.767c-.042-.075-.012-.198-.039-.3.093.074.021.201.038.3ZM89.216 16.925c.043.032.003.107.023.16-.063-.022-.005-.102-.023-.16ZM89.364 17.152c.09.02.091.157.085.232-.077-.04-.072-.149-.085-.232ZM89.362 16.882c.053.06.127.131.107.226-.066-.037-.126-.136-.107-.226Z" fill="#D09100"/><path d="M90.393 20.194c-.028.006-.02-.048-.034-.067.079-.07.101-.219.188-.251-.027.118-.114.206-.154.318ZM89.856 18.073c.087.053.08.2.117.3.149.397.472.675.603 1.12-.39-.29-.763-.841-.72-1.419v-.001ZM90.608 19.988c.008.137-.129.198-.138.325-.08-.09.094-.268.138-.325ZM89.341 16.333c.048.076.13.152.13.257-.037-.012-.056-.059-.097-.06.025.12.137.224.11.366-.179-.12-.124-.364-.144-.563h.001ZM90.843 21.504c-.034-.028-.002-.106.008-.145.029.026.001.107-.008.145ZM90.662 20.126c.023.096-.102.25-.142.314-.03-.106.082-.221.142-.314ZM90.591 20.586c-.05-.113.092-.211.115-.319.028.101-.11.203-.115.32ZM89.667 17.537c.073.033.1.147.156.21.102-.114-.126-.262-.167-.375-.012-.032-.002-.062-.017-.097.212.084.237.511.379.723-.146-.097-.308-.236-.351-.461ZM90.66 20.772c-.09-.152.063-.266.093-.389.025.017.04.049.053.087-.058.097-.12.189-.146.302ZM89.345 15.429c.097.113.116.24.103.382-.024.002-.023-.043-.06-.021.032.086.086.218.073.326-.032-.008-.046-.05-.081-.052.005.097.124.188.078.3-.04-.026-.06-.088-.108-.097a3.957 3.957 0 0 1-.004-.837l-.001-.001Z" fill="#D09100"/><path d="M89.952 18.174c.228.128.428.306.606.526.014.054-.08.05-.06.108.033.063.099-.008.137-.028.01.054.053.05.07.096-.06-.025-.174.032-.152.11.062.041.123-.07.166-.102.104.271.22.632.12.828-.206-.137-.301-.529-.467-.8-.155-.252-.329-.428-.421-.737v-.002ZM89.63 16.98c.089.053.156.184.148.316-.072-.073-.167-.183-.148-.316ZM89.619 16.726c.071.063.127.116.122.234-.07-.025-.12-.14-.122-.234ZM89.602 16.448c.094.04.164.165.138.28-.087-.05-.141-.158-.138-.28ZM91.122 21.252c-.013-.1-.087-.287 0-.35a2.06 2.06 0 0 0 0 .35ZM89.602 16.112c.064.042.114.11.177.152.006.082-.023.147-.023.227a.379.379 0 0 1-.154-.38ZM89.368 15.202c.055.073.102.163.074.248a.264.264 0 0 1-.074-.248ZM91.194 21.32c.035-.179-.093-.433.019-.549-.007.142.015.386-.02.548ZM89.594 15.818c.093.095.19.181.273.291-.05-.023-.045.043-.057.07-.086-.093-.23-.2-.215-.362h-.001ZM89.414 15.008c.022.045.08.14.027.173-.02-.076-.093-.117-.027-.173ZM89.587 15.575c.11.08.237.187.25.39-.098-.108-.253-.212-.25-.39ZM91.018 20.303c.04-.244.04-.452.162-.643.216-.342.69-.512 1.023-.801-.07.302-.138.604-.23.895-.259.214-.639.364-.955.547v.002ZM89.417 14.8c.061.028.04.107.05.165-.066-.028-.064-.106-.05-.165ZM89.598 15.262c.116.074.168.22.186.394-.11-.085-.226-.231-.186-.394ZM89.6 15.055c.09.015.135.145.126.246-.067-.06-.143-.133-.126-.246ZM89.661 13.474c.127.07.063.243.056.357-.023.38-.043.793-.005 1.202-.157-.072-.096-.292-.091-.476.01-.348.02-.763.04-1.083ZM90.009 15.705c.123.116.271.211.427.321.15.107.322.171.45.265.06.043.17.163.19.238.035.128-.07.347.033.545-.207-.177-.357-.462-.53-.704-.045.125.063.254.124.363.067.12.138.234.204.325-.294-.19-.462-.611-.689-.925.128.393.356.713.614.937.088.075.179.124.269.19-.042.052-.14.021-.196.008-.465-.112-.877-.914-.896-1.56v-.003ZM91.08 18.98c-.038-.059.012-.158-.008-.242.01-.02.049-.027.082-.037.027-.209.187-.347.418-.448-.27.187-.42.438-.49.73l-.002-.002ZM90.024 15.365a.218.218 0 0 1-.073-.197c.032.01.043.057.081.052.019-.066-.055-.1-.082-.142a22.88 22.88 0 0 1-.02-1.413c.142.012.166.18.167.375 0 .152-.057.35-.071.55-.024.32.05.718.17 1.084-.072-.062-.25-.21-.174-.31l.002.001Z" fill="#D09100"/><path d="M92.124 18.031c-.024-.014-.061-.009-.104.006.029-.068.13-.099.192-.148.085.079.03.21.013.306-.044.253-.1.512-.313.662-.206.148-.526.243-.703.42-.1-.183.022-.41.06-.586.011-.027.051.003.069-.033.148-.268.537-.41.785-.625l.001-.002Zm-.778.868c-.066-.038-.069.077-.024.097-.005-.038.04-.052.024-.097Zm.067.045c.03-.05.062-.172-.013-.216-.069.026-.032.196.013.216Zm.138-.108c.04-.052.05-.193-.02-.238-.073.035-.062.214.02.238Zm.102-.056c.037 0 .025-.025.056-.03.01-.058-.014-.249-.09-.256-.071.048-.003.216.034.286Zm.104-.393c-.031.054-.011.187.035.248.037-.05.038-.238-.035-.248ZM89.674 13.122c.051.002.103.045.097.1-.02.038-.029-.01-.065.008.027.078.067.088.05.165-.136-.017-.063-.173-.082-.271v-.002ZM90.925 17.428c.041.003.076.021.114.03-.02.03.017.088-.035.1-.014-.067-.063-.067-.08-.13ZM92.422 16.535c-.037.529-.152 1.014-.536 1.362-.205.063-.354.154-.538.228.076-.642.755-.967 1.02-1.51-.396.438-1.042.83-1.126 1.464.003.014-.01.01-.012.003-.074-.128-.017-.446.034-.579.168-.428.66-.742 1.157-.97l.001.002ZM92.084 20.817c.093-.917.589-1.71.794-2.6.077.05.012.202-.014.3-.196.707-.421 1.483-.628 2.191-.054.035-.122.063-.151.11v-.001ZM89.941 13.48c.053.031.136.044.132.128-.06-.006-.145-.05-.132-.128ZM89.942 13.313c.048.009.084.04.124.065.012.035.002.06.001.09-.058-.02-.14-.062-.125-.155ZM89.956 13.05c.05.017.086.064.132.088 0 .053-.02.096-.006.156-.121-.014-.147-.126-.128-.246l.002.002ZM89.965 12.867c.051.01.083.056.128.077.012.049-.016.076 0 .129-.086-.037-.16-.096-.128-.206ZM90.229 13.561c-.044-.017-.007-.076-.02-.11.043.018-.003.071.02.11ZM90.97 15.052c-.002-.012-.007-.023-.01-.035.164.157.333.466.24.7-.038-.18-.099-.51-.229-.666v.001ZM90.609 13.162c.054.481.107 1.16.419 1.64-.039-.009-.062-.046-.097-.06-.206-.554-.336-1.112-.32-1.58h-.002Z" fill="#D09100"/><path d="M90.73 13.473c.258.397.455.906.627 1.462.03-.289-.155-.715-.285-.984.085-.042.215.144.273.292.106.27.152.789-.088.71-.28-.368-.481-.962-.527-1.477v-.003ZM91.396 15.761c.02-.053-.006-.082-.03-.145.049-.249.11-.447.213-.645.165-.313.826-.364 1.07-.647.032-.037.033-.105.098-.108.038.163-.073.327-.116.488a1.754 1.754 0 0 1-.394.7c-.167.134-.421.078-.61.209.166-.385.617-.621.838-.976-.452.324-.852.676-1.07 1.125h.001ZM92.435 18.015c-.042-.069 0-.178.032-.242.041.074-.027.162-.032.242ZM92.555 17.888c.043.026.074.074.113.109-.001.086-.036.153-.048.233-.151-.073-.104-.218-.065-.342ZM92.482 17.472c.096.068.051.16.036.247-.092-.04-.11-.189-.036-.247ZM91.39 11.957c.199.68.183 1.421.027 2.005-.094-.49.041-1-.073-1.501-.022.456-.078.894-.012 1.397-.359-.723-.158-1.382.057-1.901ZM91.6 14.603c-.01-.043-.01-.084-.012-.125.445-.438.574-1.094.897-1.562.107.533.13 1.024-.094 1.384-.095.02-.137.068-.222.094.11-.144.29-.254.267-.467-.05.016-.058.085-.08.128a.907.907 0 0 1-.375.372c.29-.33.514-.694.499-1.183-.102.497-.33 1.012-.847 1.34.003.014-.018.017-.031.023l-.003-.004ZM92.642 17.655c.023.038.046.076.08.092-.004.05-.025.093-.02.148-.105-.03-.143-.166-.06-.241v.001ZM92.332 12.936c-.26.458-.468.997-.776 1.397-.078-.18.037-.327.116-.488.156-.311.433-.627.66-.909ZM92.552 17.268c.06.07.05.13.021.201-.1-.023-.077-.15-.02-.2ZM91.082 12.503c-.012-.273.14-.545.297-.761.01.27-.272.475-.297.76ZM92.678 17.464c.055.043.105.114.07.186a.126.126 0 0 1-.07-.186ZM92.616 17.043c.055.07.03.143.01.205-.082-.044-.055-.149-.01-.205ZM92.725 17.23c.083.048.082.13.064.212-.091-.03-.08-.137-.064-.212ZM92.621 16.758c.091.05.09.157.06.24-.096-.044-.043-.151-.06-.24ZM91.64 13.52c-.032-.309.05-.644-.046-1.02.205.36.13.745.045 1.02ZM92.781 16.98c.089.041.05.14.052.217-.094-.036-.074-.14-.052-.216ZM92.64 16.559a.172.172 0 0 1 .09.205c-.074-.023-.123-.13-.09-.205ZM92.824 16.775c.059.029.056.124.038.169-.07-.037-.055-.106-.038-.17ZM92.705 16.385c.072.03.07.126.057.188-.08-.02-.09-.129-.057-.188ZM92.855 16.572c.077.019.05.114.037.169-.078-.034-.036-.1-.037-.17ZM70.518 22.644c-.019-.04-.048-.06-.06-.11.093.014.178.043.235.122-.035.025-.115-.023-.175-.012ZM70.871 22.859c.06-.081.178.006.272-.018-.015.023.016.05.04.052-.08.016-.207-.038-.313-.034h.001ZM71.943 23c-.21.007-.467-.054-.687-.09-.03.011-.025-.007-.002-.01.23.033.46.068.69.1h-.001ZM72.275 23.052c-.023-.018.09 0 .119.004.023.02-.09 0-.12-.004ZM74.204 22.766c.106.032.24.173.345.27-.423-.11-.948-.032-1.5.093.416.037.95-.14 1.298.02-.578.338-1.257.157-1.75.052.17-.03.39-.207.546-.153.059-.028-.048-.052-.021-.07.11-.083.26-.087.4-.16.024.013.072.162.192.11-.034-.068-.09-.095-.151-.11.174-.135.417-.091.58-.085-.023.066.034.206.121.183.017-.045-.03-.13-.058-.15h-.002Zm-.893.231c-.004-.057-.043-.054-.09-.037.01.048.042.057.09.037Zm.213-.038c-.036-.043-.08-.072-.149-.058.02.064.1.105.15.058Zm.4-.03c-.05-.06-.09-.131-.163-.144 0 .079.062.19.162.144Zm.174.01c-.007-.07-.081-.167-.174-.14.039.08.078.163.174.14ZM74.008 22.502c-.257-.098-.457-.294-.673-.479-.214-.184-.354-.46-.618-.56.203.177.4.473.614.678.17.164.328.294.495.417-.583-.057-.836-.713-1.224-1.126.022-.048.082.058.117-.01-.012-.014-.028-.024-.04-.04.144.006.29.14.446.213.057.025.122.023.174.05.32.168.523.52.709.857ZM73.725 21.787l.084-.026c.083.086.164.26.21.349a1.74 1.74 0 0 1-.296-.324l.002.001ZM74.005 21.844c.21.08.48.211.688.359-.056.027-.2.003-.255.026-.085-.127-.174-.247-.31-.28.286.392.574.935 1.002 1.13-.043.034-.13-.008-.205.022-.39-.265-.618-.83-.922-1.257h.002Z" fill="#D09100"/><path d="M74.481 22.28c.084.012.291-.04.36.06-.042.042-.157-.027-.212.039.06.078.171.065.289.041.026.021.042.057.074.068-.036.01-.203-.049-.244.023.034.066.239.073.25 0 .197.149.32.43.51.595-.1-.001-.21-.063-.299-.115-.27-.161-.516-.42-.729-.709l.001-.002Zm.635.402c-.032-.049-.205-.073-.192.02.044.028.157.049.192-.02ZM74.758 21.938c.072.162.213.2.292.351-.187-.175-.456-.292-.64-.413.25-.124.343.037.492.097-.033.033-.091-.043-.144-.035ZM75.247 23.287c.21.01.509.015.696.124-.187-.05-.546.054-.696-.124ZM75.493 22.838c.059-.01.116-.016.184-.042.114.198.227.394.373.532a1.38 1.38 0 0 1-.557-.49ZM75.391 22.289c.332.104.598.368.8.725.078.136.1.32.232.42-.425-.163-.658-.829-1.032-1.145ZM77.308 27.347c.774.637 1.427 1.539 2.145 2.292.718.753 1.564 1.357 2.326 1.979-.873-.444-1.61-1.144-2.382-1.858-.385-.357-.705-.8-1.042-1.22a18.784 18.784 0 0 0-1.047-1.192v-.001ZM77.593 21.066c.914.901 1.958 1.63 2.903 2.489.948.86 1.88 1.753 2.716 2.828-.241-.27-.536-.46-.768-.709-.283-.303-.515-.634-.781-.925-1.846-2.014-4.207-3.278-5.955-5.511.924.915 1.88 1.77 2.846 2.608.022.02.02.021-.008.015-.321-.26-.63-.539-.954-.795ZM77.21 23.892c.062-.04.133.024.184.047.408.182.843.387 1.26.586.473.226.934.491 1.372.785.439.293.849.644 1.282.966.428.319.859.635 1.27.97.42.344.81.721 1.205 1.105.386.377.769.768 1.143 1.164.375.395.784.768 1.15 1.186.38.43.648.946 1.031 1.404-.67-.77-1.368-1.516-2.004-2.308-.304-.38-.682-.726-1.039-1.08-.54-.536-1.045-1.058-1.63-1.506-.565-.433-1.133-.906-1.71-1.34-.575-.43-1.164-.849-1.814-1.154-.235-.11-.438-.252-.673-.35-.264-.111-.531-.222-.801-.339-.077-.032-.184-.061-.226-.137v.001Z" fill="#D09100"/><path d="M79.717 30.166c.416.365.823.808 1.3 1.115.481.31.984.594 1.458.9.478.306 1.005.543 1.511.806.51.266 1.01.55 1.535.76-.912-.224-1.723-.722-2.524-1.196-.804-.475-1.641-.915-2.376-1.486-.282-.334-.619-.572-.905-.899ZM77.233 11.486a1.534 1.534 0 0 1-.454-.494c.01-.036.073.05.105.083.112.12.269.24.35.411ZM78.043 14.028c.116.008.266.113.435.087-.006.044-.025.08-.028.125-.146-.054-.292-.107-.408-.212h.001ZM78.56 14.297c-.082-.033.015-.126.01-.184.022.035-.012.127-.01.184ZM84.865 28.797c-.832-1.025-1.676-2.032-2.508-3.058.016-.036.11.085.158.132a13.72 13.72 0 0 1 2.35 2.926ZM78.922 13.581c-.005-.088.09-.211.115-.319.026.1-.08.217-.115.32ZM85.625 33.691c.299.018.587.216.865.332-.263-.084-.577-.233-.865-.332ZM81.946 18.38c-.04.025-.03-.041-.045-.063-.055.566-.312 1.025-.346 1.6-.113-.424.025-.77.145-1.088.08-.21.081-.447.212-.606-.045.044.028.095.034.156v.002ZM81.97 20.502a1.49 1.49 0 0 1 .174-1.033c.002-.02.013-.004.017.008.02.348-.084.633-.09.969-.048.01-.051.046-.1.056h-.002ZM86.271 34.087c.191.025.395.185.593.259-.175-.055-.397-.18-.593-.259ZM82.366 20.848c-.012-.166-.043-.427.005-.595.043.181.049.43-.005.595ZM81.065 16.169c.054.002.12.051.184.086.058.032.152.054.171.129-.122-.064-.235-.148-.355-.215ZM82.465 19.913c.042.113.199.177.265.307-.11-.11-.34-.168-.302-.385.057.026.097.08.144.123-.014.018-.068-.047-.106-.045h-.001ZM81.762 17.598c-.033-.06-.064-.09-.047-.154.047.043.081.11.136.14-.009.008-.066.006-.088.014h-.001ZM82.832 20.782c-.025-.019.063.039.073.069.07.035-.066-.02-.073-.069ZM82.17 18.597c.052.055.238.177.326.288a1.933 1.933 0 0 1-.325-.288ZM82.102 18.243c.074.042.21.13.274.252-.098-.072-.181-.17-.274-.252ZM82.103 18.075c.07.032.126.09.17.167a.305.305 0 0 1-.17-.167ZM82.648 19.741c.073.028.213.09.28.187-.104-.042-.18-.137-.28-.187ZM82.43 18.97a.3.3 0 0 1 .197.173c-.076-.04-.128-.123-.198-.173ZM83.695 20.843c-.16-.039-.328-.218-.47-.335-.131-.107-.267-.197-.372-.312-.002 0-.002-.012-.002-.012.245.064.465.517.785.55.019.04.047.06.06.11l-.001-.001ZM83.922 21.807c-.018.026-.067-.047-.131.002a.317.317 0 0 0-.16-.093c-.104-.15-.316-.292-.419-.466-.049-.082.056.035.085.064.18.172.401.317.625.495v-.002ZM82.223 17.858c.171.129.352.24.504.403-.152-.09-.369-.221-.504-.403ZM83.22 21.103c.058-.002.153.088.222.127-.062.008-.147-.097-.222-.127ZM83.408 20.724c-.135-.004-.279-.153-.385-.27.033-.027.123.078.183.125.067.052.147.105.202.145ZM83.272 21.23c.094.049.26.127.34.258-.126-.062-.225-.176-.34-.257ZM81.866 16.379c.084.165.138.385.237.521-.186.02-.207-.323-.237-.521ZM82.457 18.239c-.014-.037-.043-.044-.053-.087.05.019.086.064.132.088-.007.037-.04-.035-.08-.001ZM83.374 20.915a.362.362 0 0 1 .225.087c.114-.018.24.035.392.074.253.065.455.12.47.464.02-.004.028-.018.03-.034.048.038.139.202.063.252-.173-.348-.427-.544-.753-.61-.03.025.045.012.043.05a.336.336 0 0 0-.067.175c-.052-.068.031-.19-.026-.262-.065.038-.024.134-.077.178-.043-.055-.023-.11-.042-.181-.038-.035-.029.066-.07.033-.06-.081-.118-.164-.186-.226h-.002ZM83.222 18.676c.089-.008.215.073.31.112-.087.006-.211-.078-.31-.112ZM83.81 19.221c.01-.052.01-.135-.03-.184-.078.016-.036.095-.05.145-.082-.013-.145-.064-.215-.102a.413.413 0 0 0-.028-.184c.034.01.065.026.101.033-.024.057-.004.164.058.188.058-.022-.001-.106-.01-.164.195.03.308.21.429.373-.064 0-.167-.085-.255-.104ZM88.606 35.264c.147.026.36.09.504.184-.18-.038-.36-.078-.504-.184ZM82.735 13.973c-.358-.149-.663-.583-.624-1.102.022-.027.057-.05.035-.1.096.499.479.724.587 1.202h.002ZM85.064 21.01c.006-.22-.114-.591-.017-.795-.038-.013-.045.023-.088.013-.035.13-.117.178-.193.278-.015-.022-.008-.082-.037-.079.127-.18.31-.33.409-.524-.299.233-.575.478-.708.795-.038-.127.067-.264.123-.373.295-.211.419-.512.64-.762-.02.494.18 1.102-.13 1.445l.001.002ZM83.196 16.505c.087.001.196.119.256.232-.09-.07-.152-.188-.256-.232ZM84.416 20.135c.159-.296.424-.622.457-1.015-.068.034-.063.106-.082.166a.506.506 0 0 1-.077-.17c.03.018.04.073.077.08.064-.048-.028-.112-.042-.18.032-.008.028.048.071.018-.001-.092-.127-.178-.055-.267-.03-.03-.046.057-.083.027-.127.388-.26.774-.417 1.145-.054-.157-.008-.329.012-.48a1.63 1.63 0 0 1 .13-.44c.088-.189.258-.305.34-.49.1.11.292.495.28.704-.02.329-.398.68-.608.907l-.003-.005ZM83.192 16.313c.007-.024.069.007.07.055-.02 0-.036-.008-.056-.009-.019-.018.025-.05-.014-.047ZM84.828 21.235c.002-.022-.035-.15-.036-.207.04.035.043.141.08.182-.018.006-.047.008-.043.026v-.001Z" fill="#D09100"/><path d="M84.769 20.905c-.043-.045-.07-.168-.037-.209.018.035.04.154.037.21ZM83.995 17.786c.052-.155.123-.387.12-.604.04.095.127.176.13.257.006.135-.218.228-.25.347ZM90.007 35.717c.178.094.275.296.403.458a22.7 22.7 0 0 1 1.084 1.53c-.508-.642-1.018-1.279-1.485-1.988h-.002ZM84.485 16.578c.326.348.923.458 1.06 1.149-.103-.037-.179-.111-.285-.16-.156-.07-.355-.12-.502-.22-.264-.184-.484-.72-.534-1.155.148.18.28.27.44.409.158.138.35.131.51.246.12.085.174.248.273.38a4.232 4.232 0 0 0-.96-.65h-.002ZM83.795 13.692c-.073-.043-.074-.262-.063-.292.004.089.051.199.063.292ZM89.976 33.83c.442.553.9 1.245 1.308 1.925.056.094.181.23.174.27-.152-.137-.303-.411-.44-.627-.334-.531-.734-1.01-1.042-1.569ZM82.211 7.81c-.045-.013-.008-.069-.032-.105.028-.026.012.072.032.106ZM85.317 18.017c-.002-.014.012-.01.013-.002.057-.037.053-.106.085-.155.146.084.24.356.279.573-.113-.16-.231-.312-.377-.416ZM85.352 16.921c.047-.017.115.087.134.18-.05-.05-.08-.138-.134-.18ZM82.81 8.183c-.23-.811-.374-1.715-.387-2.413.1.79.245 1.601.387 2.413ZM85.946 17.917c.029-.443.231-.795.445-1.142-.09.364-.227.843-.445 1.142ZM86.428 16.557c-.166.308-.437.647-.517 1.034-.032-.37.216-.77.517-1.034ZM85.72 16.862c.055-.203.14-.409.25-.604.152-.268.452-.451.525-.753-.108.047-.135.168-.212.259-.076.087-.178.155-.255.245-.15.176-.23.394-.322.588.012-.246.092-.511.275-.702.167-.175.409-.296.52-.506.125.08.08.258.065.393-.02.191-.065.475-.203.59-.108.09-.28.135-.397.21a.543.543 0 0 0-.244.28h-.003ZM92.647 39.29c.544.781 1.132 1.544 1.706 2.322.577.784 1.086 1.621 1.654 2.415 1.122 1.57 2.27 3.152 3.367 4.631-1.352-1.607-2.632-3.333-3.888-5.13-.106-.151-.22-.289-.32-.445-.195-.31-.4-.62-.61-.925-.51-.749-1.022-1.486-1.545-2.228-.138-.197-.326-.384-.365-.637l.001-.002ZM84.665 10.472c-.097-.06-.189-.132-.284-.197.042-.015.02-.063.039-.089-.136-.547-.423-.82-.746-1.025.205.29.606.567.647 1.094-.49-.226-.88-.845-.813-1.509.21.32.497.502.777.694.023.059-.035.075-.028.125.05.048.082-.048.109-.033.105.062.171.586.27.59.017.08-.035.214.028.352l.001-.002Zm-.34-.645c.079.004.13-.092.106-.174-.084.028-.14.118-.106.174ZM85.469 14.474c.117-.208.09-.435.216-.633.118-.187.33-.293.475-.48.025.045.094.08.107.135.013.057-.037.094-.046.155-.012.085.003.187-.018.29-.02.104-.04.193-.064.264-.248.17-.469.352-.618.574-.258-.539-.107-.95.272-1.192.057-.035-.04.042-.07.073a.97.97 0 0 0-.254.813v.001ZM83.653 7.438c.133.55.629.62.715 1.138-.079-.196-.204-.45-.417-.287a4.955 4.955 0 0 1-.253-.53c-.037.2.113.458.23.627-.025.207.158.49.216.58-.354-.317-.554-1.049-.49-1.529h-.001ZM85.16 12.632c-.069-.21-.087-.477.022-.626.011.067.041.099.067.134.053-.043-.013-.146-.028-.224.032-.037.036-.086.083-.115a.306.306 0 0 0 .042.182c-.11.19-.17.409-.186.65ZM89.423 25.74c-.077-.256-.11-.66-.161-.97.07.253.101.656.161.97ZM87.115 15.51c-.062.512-.197.986-.337 1.458.017-.45.182-1.013.337-1.457ZM85.17 11.662c.043-.53.546-.904.647-1.435.024.184.023.392.057.577.018.103-.102.443-.17.529-.105.134-.31.169-.445.315.13-.317.319-.604.476-.905-.26.268-.414.594-.566.919h.002ZM85.665 9.034c.12.443-.044.825-.156 1.183-.238.153-.404.34-.564.533a.724.724 0 0 1-.048-.682c.08-.188.324-.292.331-.475-.178.12-.388.31-.433.531.089-.428.55-.749.87-1.09Zm-.072.242c-.222.35-.542.706-.568 1.127-.002-.007-.003-.014.008-.015.117-.407.442-.706.56-1.112ZM89.252 24.565c-.072-.17-.07-.474-.12-.699.075.211.067.467.12.7ZM86.39 13.124c.1.01.178.25.186.306-.056-.105-.185-.154-.185-.306ZM94.915 39.946c.107-.057.168.078.211.13.813.98 1.634 2.005 2.505 2.917.939.984 1.814 2.016 2.784 2.924-.778-.548-1.486-1.303-2.169-2.065-.454-.508-.881-1.037-1.354-1.551a50.523 50.523 0 0 1-1.854-2.161c-.045-.055-.116-.117-.124-.195l.001.001ZM90.518 23.743c.013.005.06.046.014.047.02.015.082-.03.09-.053-.027.366-.083.806-.094 1.215-.036.044-.015-.074-.016-.098-.01-.357 0-.766.006-1.11ZM91.713 27.64c.269-1.289.726-2.666.81-4.156.041-.725.099-1.484.143-2.225.05-.835.18-1.7.695-2.274-.375.587-.478 1.332-.557 2.078-.08.753-.1 1.547-.162 2.294-.126 1.515-.604 2.902-.93 4.281v.001ZM90.579 23.506c-.066-.535.629-.761 1.076-1.062.027.047-.02.105-.049.143-.25.338-.833.556-1.026.917l-.001.002ZM90.883 23.337a3.33 3.33 0 0 1 .529-.432c-.12.133-.26.255-.384.388l-.145.044ZM89.559 18.576c-.024-.027 0 .053-.053.042-.09-.375.001-.655-.01-.99.094.217.072.518.14.808a2.8 2.8 0 0 0 .326.818.894.894 0 0 1-.402-.678h-.001ZM90.668 21.75c-.067-.038.057-.062.032-.113.048.029-.036.075-.032.114ZM90.866 21.884c.014-.192.26-.35.51-.451-.186.142-.416.26-.51.45ZM90.857 21.163c.031-.223.127-.513.284-.718.16-.21.615-.23.902-.414-.005.147-.058.269-.09.4.009.053.032.076.05.115-.049.257-.133.495-.448.614.007-.201.018-.403-.003-.62-.075.184-.05.42-.041.646-.047.005-.054.03-.093.04.001-.172-.012-.351-.014-.525-.117.11.026.438-.088.581-.05-.168-.017-.38-.041-.567.159-.197.524-.285.592-.528-.372.268-.88.55-1.009.976h-.001Zm.845-.605c-.046.149-.048.32-.017.508.078-.131.015-.338.017-.508ZM90.795 20.873c-.005-.111.106-.25.184-.352-.02.099-.162.22-.184.352ZM90.028 16.898c.056.474.466.627.64 1.07.058.147.093.322.107.485-.15.047-.291-.075-.387-.193-.283-.342-.496-1.115-.442-1.542.16.33.37.574.646.695.255.206.499.697.305 1.005-.028-.37-.218-.777-.445-.988-.164-.152-.287-.259-.398-.486-.008-.017-.012-.02-.022-.032l-.003-.012-.001-.002ZM89.45 14.726c-.029-.237.01-.44.041-.645-.012.216.003.446-.041.645ZM90.251 14.508c.085-.026.045-.116.05-.183.087.104.156.211.257.322.087.098.222.17.29.26.1.135.184.383.224.564.02.093.015.187.03.275-.247-.442-.583-.724-.761-1.293.029.361.191.604.354.86.134.214.308.369.296.634-.074-.049-.172-.043-.255-.104-.337-.244-.486-.997-.524-1.428.009-.004.013.002.015.009a.1.1 0 0 0 .024.083v.001ZM90.493 13.39c.01-.005.012.002.015.009 0 .175.044.427.057.576-.094-.232-.078-.405-.072-.585ZM91.461 16.89c.024-.203.252-.405.348-.505-.134.159-.205.35-.348.506ZM92.46 15.53c-.44.329-1.023.581-1.059 1.12.027.047-.035.014 0 0-.028-.463.146-.855.657-1.011.129-.04.264-.03.401-.11ZM92.266 19.2c.01-.164.064-.39.12-.565-.002-.046-.053-.002-.08-.001.047-.155.124-.293.166-.45.21.092.036.417-.023.576-.067.175-.136.327-.183.442v-.001Z" fill="#D09100"/><path d="M91.514 16.59c.002-.466.57-.66.93-.978.056-.051.085-.132.164-.152.056 0-.053.075-.043.116-.04.002-.04.025-.07.033-.248.368-.735.612-.98.98ZM91.702 16.727c.176-.316.427-.594.719-.85-.053.185-.207.404-.277.612-.14.083-.305.154-.442.238ZM92.37 18.28c-.024-.033.025-.114.013-.173.047.045-.018.115-.012.173ZM90.995 12.219c.016-.197.142-.423.313-.574-.098.154-.27.357-.313.574ZM92.508 16.303c-.012-.145.073-.265.122-.385.047-.12.079-.247.14-.365-.061.224-.086.553-.26.75h-.002ZM92.92 16.526c-.097-.195.06-.424.058-.636.016.191-.035.433-.058.636ZM91.885 13.11c0-.172-.02-.393-.103-.6-.018-.044-.055-.09-.067-.133-.058-.224.014-.438.055-.598.207.493.28 1.002.115 1.333v-.001ZM91.523 11.788c-.023-.007-.026-.172-.001-.22.03.05-.014.145.001.22ZM93.142 15.697c-.02.023 0-.09.004-.118.02-.023 0 .089-.004.118ZM93.406 13.436c-.054.678-.171 1.41-.243 2.112.042-.684.157-1.417.243-2.112ZM92.513 12.662c-.024-.036-.006-.087 0-.129.095-.702.154-1.453.264-2.17.004-.03.004-.124.035-.101a22.189 22.189 0 0 1-.212 2.129c-.012.087 0 .21-.088.272v-.001ZM89.63 21.677c.133 0 .2.146.306.23.045.036.106.042.157.082.197.154.31.402.422.568.05.073.148.13.144.215-.003.069-.071.089-.113.15-.053.077-.08.208-.133.3-.343-.248-.419-.909-.61-1.404-.032.098.002.215.021.33.035.196.08.415.157.649-.277-.255-.29-.735-.353-1.12h.002Z" fill="#D09100"/></g><path d="M1.945 34V21.627h4.33c1.508 0 2.693.319 3.553.955.872.624 1.308 1.485 1.308 2.58 0 1.096-.413 1.962-1.237 2.599-.814.624-1.933.937-3.359.937H4.066V34H1.945Zm4.1-5.656c.92 0 1.644-.218 2.174-.654.53-.436.796-1.025.796-1.768 0-.754-.265-1.349-.796-1.785-.53-.436-1.255-.654-2.174-.654h-1.98v4.861h1.98ZM13.26 34v-8.837h1.856v2.88c.188-.871.553-1.596 1.095-2.174a2.702 2.702 0 0 1 2.05-.883c.602 0 1.102.13 1.503.389.412.259.719.636.92 1.13.2.484.3 1.079.3 1.786v.707h-1.856v-.354c0-.612-.154-1.084-.46-1.414-.306-.33-.736-.495-1.29-.495-.424 0-.807.118-1.149.354-.342.236-.613.56-.813.972-.2.413-.3.866-.3 1.361V34H13.26Zm13.383.177c-.896 0-1.709-.2-2.44-.601a4.427 4.427 0 0 1-1.714-1.644 4.58 4.58 0 0 1-.619-2.35c0-.873.207-1.656.62-2.352a4.426 4.426 0 0 1 1.714-1.643c.73-.401 1.543-.601 2.439-.601.895 0 1.703.2 2.421.6.73.401 1.302.955 1.715 1.662a4.39 4.39 0 0 1 .636 2.333c0 .86-.212 1.644-.636 2.351a4.427 4.427 0 0 1-1.715 1.644c-.718.4-1.526.6-2.421.6Zm0-1.732c.53 0 1.013-.124 1.45-.372.435-.259.777-.606 1.024-1.042.26-.436.39-.92.39-1.45 0-.53-.13-1.013-.39-1.45a2.645 2.645 0 0 0-1.025-1.042 2.783 2.783 0 0 0-1.45-.389c-.53 0-1.018.13-1.466.389a2.77 2.77 0 0 0-1.043 1.043c-.247.436-.371.919-.371 1.45 0 .53.123 1.013.37 1.449.26.436.608.783 1.044 1.042.448.248.937.372 1.467.372Zm10.324 1.732c-.707 0-1.325-.165-1.856-.495-.518-.342-.919-.825-1.202-1.45-.282-.624-.424-1.355-.424-2.191v-4.878h1.874l.017 4.595c0 .825.218 1.479.654 1.962.448.483 1.043.725 1.785.725.46 0 .878-.118 1.256-.354.377-.236.671-.554.883-.954.224-.413.336-.872.336-1.379v-4.595h1.856V34H40.29v-2.899c-.2.931-.6 1.68-1.202 2.245-.589.554-1.296.83-2.12.83Zm11.421 0c-.73 0-1.39-.2-1.98-.601-.589-.4-1.054-.949-1.396-1.644-.342-.707-.513-1.49-.513-2.35 0-.861.171-1.639.513-2.334.342-.707.807-1.26 1.396-1.661a3.44 3.44 0 0 1 1.98-.601c.86 0 1.602.288 2.227.866.625.565 1.06 1.32 1.308 2.262v-6.663h1.856V34h-1.856v-2.97c-.248.955-.683 1.721-1.308 2.298-.625.566-1.367.849-2.227.849Zm.795-1.732c.519 0 .99-.124 1.414-.372.425-.259.755-.606.99-1.042.248-.436.371-.92.371-1.45 0-.53-.123-1.013-.37-1.45a2.56 2.56 0 0 0-.99-1.042 2.659 2.659 0 0 0-1.415-.389c-.518 0-.99.13-1.414.389-.424.248-.76.595-1.007 1.043-.248.436-.371.919-.371 1.45a2.884 2.884 0 0 0 1.378 2.491c.425.248.896.372 1.414.372ZM56.964 34V21.45h1.856V34h-1.856Zm6.95 3.712a3.439 3.439 0 0 1-1.592-.371 2.802 2.802 0 0 1-1.149-1.079c-.282-.483-.424-1.078-.424-1.785v-.46h1.75v.602c0 .306.059.571.177.795.13.236.3.412.512.53.212.13.454.195.725.195.413 0 .742-.13.99-.39.247-.247.371-.577.371-.989v-.177c0-.2-.023-.383-.07-.548a2.25 2.25 0 0 0-.195-.53l-4.419-8.343h2.068l3.217 6.257c.024.048.041.1.053.16a.624.624 0 0 1 .053.176c.012-.07.024-.13.035-.177l.071-.176 2.51-6.24h1.944l-3.27 7.778a3.2 3.2 0 0 0-.194.6 3.133 3.133 0 0 0-.053.637v.53c0 .613-.136 1.143-.407 1.59a2.64 2.64 0 0 1-1.113 1.044 3.37 3.37 0 0 1-1.59.37ZM7.23 55.265c-1.108 0-2.08-.23-2.917-.69a4.913 4.913 0 0 1-1.944-1.979c-.46-.848-.69-1.838-.69-2.97v-6.999h2.122v6.894c0 .766.135 1.425.406 1.98a3.02 3.02 0 0 0 1.184 1.272c.519.294 1.132.442 1.839.442.718 0 1.331-.148 1.838-.442a2.881 2.881 0 0 0 1.184-1.273c.271-.553.407-1.213.407-1.98v-6.893h2.12v7c0 1.131-.23 2.12-.689 2.97a4.798 4.798 0 0 1-1.926 1.979c-.837.46-1.815.69-2.934.69ZM16.056 55V42.45h1.856v7.954h1.078l3.217-4.242h1.997l-3.323 4.278L24.345 55h-2.191l-3.2-4.242h-1.042V55h-1.856Zm10.201 0v-8.837h1.856v2.88c.188-.871.554-1.596 1.096-2.173a2.702 2.702 0 0 1 2.05-.884c.601 0 1.102.13 1.502.389.413.259.72.636.92 1.13.2.484.3 1.079.3 1.786v.707h-1.856v-.354c0-.612-.153-1.084-.46-1.414-.306-.33-.736-.494-1.29-.494-.424 0-.807.117-1.149.353-.341.236-.612.56-.813.972-.2.413-.3.866-.3 1.361V55h-1.856Zm11.176.212c-.825 0-1.479-.194-1.962-.583-.483-.4-.725-.949-.725-1.644 0-.683.224-1.214.672-1.59a3.868 3.868 0 0 1 1.626-.778c.625-.154 1.332-.26 2.121-.319.672-.047 1.184-.13 1.538-.247.365-.118.548-.336.548-.654 0-.59-.2-1.055-.601-1.396-.4-.342-.902-.513-1.503-.513-.648 0-1.184.183-1.608.548-.413.353-.66.848-.742 1.485h-1.733c.06-.743.271-1.379.637-1.91.377-.53.866-.93 1.467-1.201a4.75 4.75 0 0 1 2.015-.424c.742 0 1.396.141 1.962.424a3.104 3.104 0 0 1 1.343 1.237c.318.542.477 1.178.477 1.91v3.8h1.131V55h-2.828v-3.005c-.235.943-.689 1.715-1.36 2.316-.672.6-1.497.901-2.475.901Zm.866-1.467c.542 0 1.037-.135 1.485-.406.46-.283.819-.648 1.078-1.096.26-.46.389-.955.389-1.485l.017-.636c-.153.141-.359.247-.618.318-.248.059-.59.112-1.025.159a.29.29 0 0 0-.089.018h-.07c-.955.082-1.668.259-2.14.53-.459.27-.688.672-.688 1.202 0 .46.147.807.441 1.043.307.235.713.353 1.22.353ZM46.314 55v-8.837h1.856V55h-1.856Zm.849-9.986-1.096-3.182h2.386l-1.114 3.182h-.176ZM51.354 55v-8.837h1.856v2.898c.2-.93.595-1.673 1.184-2.227a3.015 3.015 0 0 1 2.139-.848c.707 0 1.32.17 1.838.512.53.33.937.807 1.22 1.432.283.613.424 1.337.424 2.174V55h-1.873v-4.613c0-.813-.224-1.461-.672-1.944-.436-.484-1.031-.725-1.785-.725-.46 0-.878.118-1.255.353-.377.236-.678.56-.902.973-.212.4-.318.848-.318 1.343V55h-1.856Zm11.669 0v-8.837h1.855V55h-1.855Zm.848-9.986-1.096-3.182h2.386l-1.113 3.182h-.177Zm6.012 10.198c-.825 0-1.479-.194-1.962-.583-.483-.4-.724-.949-.724-1.644 0-.683.224-1.214.671-1.59a3.868 3.868 0 0 1 1.626-.778 13.01 13.01 0 0 1 2.121-.319c.672-.047 1.185-.13 1.538-.247.365-.118.548-.336.548-.654 0-.59-.2-1.055-.6-1.396-.401-.342-.902-.513-1.503-.513-.648 0-1.184.183-1.609.548-.412.353-.66.848-.742 1.485h-1.732c.059-.743.27-1.379.636-1.91.377-.53.866-.93 1.467-1.201a4.75 4.75 0 0 1 2.015-.424c.742 0 1.396.141 1.962.424a3.103 3.103 0 0 1 1.343 1.237c.319.542.477 1.178.477 1.91v3.8h1.132V55h-2.828v-3.005c-.236.943-.69 1.715-1.361 2.316-.672.6-1.497.901-2.475.901Zm.866-1.467c.542 0 1.037-.135 1.485-.406.46-.283.819-.648 1.078-1.096.26-.46.39-.955.39-1.485l.017-.636c-.153.141-.36.247-.619.318-.247.059-.59.112-1.025.159a.29.29 0 0 0-.088.018h-.071c-.955.082-1.667.259-2.139.53-.46.27-.69.672-.69 1.202 0 .46.148.807.443 1.043.306.235.713.353 1.22.353ZM78.764 55v-8.837h1.856v2.898c.2-.93.595-1.673 1.184-2.227a3.015 3.015 0 0 1 2.14-.848c.706 0 1.319.17 1.837.512.53.33.937.807 1.22 1.432.283.613.424 1.337.424 2.174V55h-1.873v-4.613c0-.813-.224-1.461-.672-1.944-.436-.484-1.031-.725-1.785-.725-.46 0-.878.118-1.255.353-.377.236-.678.56-.901.973-.213.4-.319.848-.319 1.343V55h-1.856Z" fill="#F8EACA"/><defs><clipPath id="a"><path fill="#fff" transform="rotate(-101.61 57.579 -.84)" d="M0 0h49.635v33.647H0z"/></clipPath></defs></svg>