<?xml version="1.0" standalone="no"?>
<!DOCTYPE svg PUBLIC "-//W3C//DTD SVG 20010904//EN"
 "http://www.w3.org/TR/2001/REC-SVG-20010904/DTD/svg10.dtd">
<svg version="1.0" xmlns="http://www.w3.org/2000/svg"
 width="804.000000pt" height="804.000000pt" viewBox="0 0 804.000000 804.000000"
 preserveAspectRatio="xMidYMid meet">
<metadata>
Created by potrace 1.14, written by Peter Selinger 2001-2017
</metadata>
<g transform="translate(0.000000,804.000000) scale(0.100000,-0.100000)"
fill="#000000" stroke="none">
<path d="M6869 8013 c-6 -37 13 -87 63 -170 21 -35 38 -67 38 -72 0 -5 3 -11
8 -13 25 -11 292 -578 292 -620 0 -8 4 -18 9 -23 7 -9 76 -209 87 -254 2 -9
17 -68 34 -131 17 -63 32 -126 35 -140 3 -14 7 -36 10 -50 5 -27 21 -114 30
-166 6 -36 11 -76 20 -159 4 -33 9 -62 10 -65 2 -3 6 -29 10 -59 4 -30 8 -62
10 -72 2 -10 7 -49 10 -86 4 -37 9 -72 12 -76 3 -4 6 -77 8 -161 l4 -154 -33
-65 -33 -66 -1 157 c-2 204 -10 437 -16 487 -13 102 -16 124 -21 185 -9 97
-15 141 -19 149 -2 3 -7 29 -10 56 -4 28 -14 82 -22 120 -9 39 -17 77 -18 85
-4 23 -16 69 -37 134 -11 33 -19 69 -19 80 -1 32 -125 364 -145 386 -19 21
-45 16 -45 -9 0 -9 12 -55 26 -102 35 -116 74 -251 78 -269 2 -8 9 -35 16 -60
7 -25 14 -52 15 -60 2 -8 11 -49 20 -90 19 -87 43 -217 51 -275 3 -22 12 -65
19 -95 8 -30 16 -81 19 -112 4 -32 8 -84 11 -115 6 -54 8 -73 21 -143 3 -14 6
-159 8 -323 3 -289 2 -300 -21 -375 -39 -126 -193 -424 -273 -527 -39 -49 -81
-112 -95 -140 -13 -27 -38 -66 -55 -85 -18 -19 -57 -64 -88 -99 -31 -35 -62
-69 -67 -75 -18 -19 -59 -89 -80 -136 -11 -25 -42 -83 -68 -130 -27 -47 -56
-98 -65 -115 -9 -16 -19 -32 -22 -35 -3 -3 -18 -25 -34 -50 -38 -58 -59 -77
-133 -121 -112 -68 -313 -156 -393 -174 -8 -2 -71 -22 -140 -45 -69 -22 -132
-43 -140 -45 -8 -2 -51 -15 -95 -30 -44 -15 -84 -28 -90 -29 -5 -2 -30 -8 -55
-15 -25 -7 -54 -15 -65 -17 -23 -4 -57 -12 -85 -19 -11 -3 -30 -7 -42 -10 -82
-17 -131 -32 -191 -56 -75 -31 -199 -90 -207 -99 -3 -3 -27 -16 -55 -30 -51
-26 -225 -131 -395 -239 -19 -12 -30 -21 -25 -19 40 13 325 154 545 270 47 25
119 57 160 71 81 28 292 85 337 92 15 2 53 11 83 20 30 9 66 17 80 19 14 3 74
20 134 40 60 20 118 38 130 40 94 19 299 91 391 137 l60 31 -40 -39 c-22 -22
-83 -63 -135 -93 -52 -29 -113 -65 -135 -80 -22 -15 -70 -43 -106 -63 -75 -42
-96 -59 -127 -104 -34 -48 -26 -48 21 0 37 38 59 49 155 81 62 20 129 47 150
58 34 20 110 75 122 88 3 3 19 16 35 29 59 45 120 97 184 159 36 34 120 99
186 144 66 45 122 85 123 90 2 4 10 8 18 8 8 0 14 4 14 8 0 4 13 15 29 25 35
20 164 147 311 305 58 62 106 108 108 102 6 -16 -44 -180 -99 -329 -89 -237
-210 -466 -364 -689 -70 -101 -81 -112 -122 -117 -36 -5 -66 -17 -103 -41 -19
-12 -120 -57 -225 -99 -358 -144 -382 -155 -540 -235 -160 -81 -422 -250 -387
-250 5 0 15 7 23 16 7 8 29 24 48 35 20 11 54 31 76 44 22 14 58 35 80 47 22
12 49 28 60 35 58 35 403 193 432 197 7 1 19 8 25 14 7 7 17 12 24 12 6 0 37
11 68 25 31 14 56 22 56 19 0 -4 6 -2 13 3 15 12 47 24 47 18 0 -3 -35 -22
-77 -42 -43 -20 -80 -39 -83 -42 -9 -10 -115 -61 -127 -61 -6 0 -13 -3 -15 -8
-1 -4 -46 -29 -98 -56 -156 -80 -263 -138 -292 -158 -14 -10 -29 -18 -32 -18
-3 0 -35 -18 -71 -40 -36 -22 -69 -40 -74 -40 -5 0 -11 -3 -13 -7 -1 -5 -41
-33 -88 -63 -47 -30 -88 -58 -91 -63 -3 -5 -17 -16 -31 -25 -14 -9 -37 -25
-51 -35 -14 -10 -50 -21 -79 -24 -29 -3 -98 -19 -153 -35 -55 -16 -108 -31
-117 -33 -10 -3 -26 -7 -35 -10 -32 -8 -98 -24 -123 -29 -204 -40 -235 -44
-354 -51 -48 -3 -107 -7 -130 -9 -22 -3 -72 -8 -111 -11 -150 -14 -217 -23
-294 -40 -61 -14 -144 -38 -181 -52 -8 -3 -19 -7 -25 -8 -5 -2 -47 -19 -91
-39 -72 -31 -165 -59 -244 -72 -14 -2 -36 -7 -50 -10 -38 -9 -139 -6 -200 7
-30 5 -66 12 -79 15 -13 3 -32 9 -43 15 -23 12 -24 -2 0 -29 50 -57 264 -72
457 -32 81 17 88 18 124 29 19 6 38 8 42 5 5 -3 9 0 9 7 0 7 3 10 6 7 3 -4 20
-2 37 4 188 58 279 77 402 84 50 2 99 7 111 9 11 3 28 -1 38 -8 17 -12 100
-11 92 2 -2 3 15 5 37 5 23 -1 55 2 70 7 16 4 56 11 89 14 32 4 69 8 81 11 12
2 38 7 57 10 52 8 82 13 110 19 14 3 39 7 55 9 17 2 48 7 70 11 29 4 36 3 24
-4 -9 -6 -36 -13 -60 -15 -24 -3 -53 -7 -65 -10 -12 -2 -45 -7 -75 -11 -30 -4
-56 -8 -59 -10 -3 -2 -30 -6 -60 -10 -30 -4 -93 -13 -140 -21 -82 -14 -106
-18 -170 -29 -16 -3 -45 -8 -62 -11 -18 -3 -46 -7 -63 -9 -16 -1 -39 -4 -50
-5 -11 -1 -15 -4 -7 -7 13 -5 17 -24 5 -21 -7 2 -90 -9 -133 -18 -8 -1 -35 -5
-60 -8 -108 -14 -169 -27 -176 -38 -3 -5 5 -6 18 -3 80 19 178 31 175 21 -3
-6 -10 -10 -16 -8 -17 3 -222 -37 -246 -48 l-20 -10 20 4 c11 3 54 10 96 15
41 6 83 13 92 17 9 3 17 2 17 -2 0 -5 -62 -22 -137 -37 -168 -34 -163 -33
-243 -53 -36 -9 -75 -18 -87 -20 -12 -2 -32 -9 -45 -14 -20 -9 -19 -10 7 -4
17 4 41 8 55 9 14 2 25 4 25 5 0 1 9 3 20 5 11 2 36 7 55 11 19 3 44 8 55 10
11 2 63 13 115 24 52 11 109 23 125 26 17 2 55 9 85 14 142 24 155 25 260 35
35 4 69 9 75 12 7 4 7 2 0 -5 -5 -6 -28 -13 -50 -16 -22 -2 -40 -5 -40 -6 0
-2 -22 -6 -70 -14 -22 -4 -87 -15 -145 -26 -158 -29 -162 -30 -200 -36 -19 -3
-48 -9 -65 -14 -16 -4 -48 -12 -70 -16 -22 -4 -44 -8 -50 -10 -5 -2 -20 -5
-32 -8 -13 -3 -32 -8 -43 -11 -11 -3 -30 -7 -41 -10 -12 -2 -24 -7 -27 -9 -6
-7 83 0 94 7 18 11 93 28 182 41 76 12 119 19 137 22 11 2 38 6 60 9 22 3 49
7 60 9 44 8 111 20 120 22 11 1 79 14 110 21 11 3 29 6 40 8 59 11 144 26 175
31 19 3 44 8 54 11 11 3 34 7 50 9 17 2 47 5 66 7 29 4 89 -8 68 -14 -71 -17
-149 -45 -193 -67 -63 -32 -39 -29 -305 -48 -41 -3 -91 -7 -110 -9 -19 -2 -57
-6 -85 -9 -44 -5 -71 -8 -175 -21 -14 -1 -52 -5 -85 -9 -33 -4 -69 -9 -80 -11
-11 -2 -32 -4 -47 -4 -16 -1 -28 -6 -28 -12 0 -5 3 -8 8 -6 4 3 45 8 92 12
126 10 210 18 310 29 112 13 121 13 113 6 -4 -5 -33 -11 -63 -14 -30 -3 -66
-8 -80 -11 -14 -3 -45 -7 -70 -10 -25 -2 -63 -7 -85 -10 -23 -3 -61 -7 -85
-10 -25 -2 -56 -6 -70 -9 -14 -2 -47 -7 -75 -11 -27 -3 -63 -8 -80 -11 -38 -5
-105 -13 -175 -19 -30 -3 -58 -9 -62 -13 -7 -7 90 -1 207 13 28 3 73 8 100 10
28 3 64 6 80 9 82 13 104 16 150 21 28 3 61 7 75 9 14 1 54 6 90 10 36 4 79
10 95 12 27 5 29 4 14 -11 -16 -17 -25 -19 -114 -31 -33 -4 -62 -8 -65 -9 -3
-1 -34 -5 -70 -9 -36 -5 -72 -10 -80 -11 -17 -3 -92 -15 -130 -20 -14 -2 -53
-7 -88 -10 -35 -4 -72 -8 -84 -10 -17 -4 -79 -11 -263 -30 -22 -2 -76 -7 -120
-10 -44 -4 -82 -9 -85 -12 -5 -6 299 5 309 11 3 2 46 7 95 10 49 4 92 9 95 11
3 1 33 6 66 9 33 3 71 8 85 10 14 2 47 7 73 11 27 4 57 8 68 10 10 2 19 0 19
-5 0 -9 -31 -17 -94 -25 -22 -3 -51 -7 -65 -10 -14 -2 -46 -7 -71 -10 -25 -3
-55 -7 -67 -9 -57 -11 -200 -27 -293 -31 -58 -3 -123 -7 -320 -20 -30 -2 -77
-4 -104 -4 -27 -1 -47 -4 -43 -7 6 -7 193 -6 307 1 36 2 109 6 163 9 116 7
219 17 230 23 4 2 7 -1 7 -8 0 -8 4 -8 13 -1 6 5 37 13 68 16 31 4 67 9 80 12
58 11 122 12 147 2 l27 -11 -42 -8 c-23 -4 -56 -16 -75 -25 -23 -13 -59 -19
-118 -20 -47 -1 -150 -5 -230 -8 -390 -17 -464 -20 -580 -20 -112 0 -265 7
-390 18 -25 2 -81 7 -125 11 -44 3 -96 8 -115 11 -81 9 -175 15 -170 11 3 -3
30 -8 60 -11 30 -3 66 -8 80 -11 38 -7 140 -18 182 -19 21 -1 38 -3 38 -6 0
-3 15 -5 33 -6 129 -4 336 -20 343 -26 4 -4 -104 -12 -131 -9 -61 6 -103 6
-100 1 2 -3 21 -7 41 -8 21 -2 41 -6 44 -10 3 -4 57 -7 120 -8 178 -1 380 -20
397 -38 5 -4 -89 2 -156 10 -50 6 -95 -2 -86 -16 7 -11 -105 -4 -155 10 -49
13 -148 32 -190 36 -45 4 -77 9 -120 19 -19 4 -46 9 -60 11 -14 1 -25 3 -25 4
0 1 -9 3 -20 5 -11 1 -35 5 -52 9 -18 3 -48 8 -65 11 -18 3 -44 7 -58 10 -47
9 -95 16 -130 20 -19 2 -46 7 -60 9 -14 3 -56 8 -94 11 -38 4 -73 8 -77 11 -4
2 -61 7 -126 10 -65 3 -135 6 -156 7 -20 1 -37 -1 -37 -5 0 -5 21 -9 48 -10
26 0 58 -2 72 -4 14 -1 52 -5 85 -9 33 -3 71 -7 85 -10 14 -2 45 -6 70 -10 55
-8 89 -14 115 -19 11 -2 45 -7 75 -11 30 -4 64 -9 75 -11 53 -11 82 -16 105
-19 14 -2 59 -10 100 -18 41 -9 82 -15 90 -15 29 -1 85 -14 100 -23 12 -8 11
-9 -5 -5 -35 9 -68 14 -150 21 -44 4 -89 9 -100 11 -11 3 -38 7 -60 9 -22 3
-51 7 -65 10 -45 9 -65 13 -110 19 -25 3 -56 8 -70 11 -14 3 -50 8 -80 11 -30
3 -68 7 -85 9 -175 24 -517 27 -538 5 -7 -7 -7 -10 -1 -7 15 9 307 12 364 4
25 -3 72 -9 105 -12 33 -3 67 -7 75 -9 15 -3 105 -18 125 -21 6 -1 12 -3 15
-4 6 -3 26 -6 100 -15 30 -3 69 -11 85 -16 24 -8 19 -8 -25 -4 -75 8 -165 20
-215 30 -11 3 -47 7 -80 9 -33 3 -71 8 -85 11 -35 7 -336 18 -330 11 3 -3 55
-8 115 -12 143 -7 201 -13 263 -25 28 -5 77 -12 109 -15 32 -4 60 -8 64 -10 6
-4 84 -16 139 -20 19 -2 35 -4 35 -5 0 -3 28 -7 85 -14 67 -8 213 -36 220 -43
4 -4 -61 3 -115 13 -11 2 -49 6 -85 9 -36 3 -76 7 -90 10 -34 7 -99 17 -130
20 -14 1 -38 4 -55 8 -16 3 -63 9 -104 12 -41 3 -78 8 -82 11 -4 2 -75 6 -159
9 -83 3 -154 6 -158 6 -32 5 -212 -3 -212 -8 0 -5 53 -8 118 -9 132 0 385 -12
422 -19 14 -3 57 -7 95 -10 39 -3 81 -7 95 -10 14 -2 41 -7 60 -10 59 -10 48
-18 -14 -10 -32 3 -68 8 -80 10 -137 21 -262 28 -543 29 -145 0 -263 4 -263 7
0 3 17 7 38 8 20 1 43 3 50 3 6 1 12 5 12 9 0 4 -53 5 -117 3 -271 -8 -407
-15 -411 -19 -3 -3 91 -6 209 -6 118 -1 204 -4 192 -6 -68 -13 7 -18 265 -17
299 0 382 -3 382 -15 0 -4 -14 -5 -31 -3 -22 3 -30 1 -25 -7 7 -11 -88 -18
-164 -11 -107 10 -696 -3 -709 -15 -2 -3 5 -5 17 -5 29 0 28 -16 0 -16 -51 -2
-227 -15 -254 -20 -50 -9 -38 -13 28 -9 165 10 433 23 618 30 114 4 204 -34
96 -41 -25 -1 -51 -6 -58 -11 -7 -4 -123 -8 -258 -9 -135 -1 -281 -5 -325 -8
-100 -9 -151 -13 -192 -15 -18 0 -33 -5 -33 -9 0 -5 15 -7 33 -5 115 9 273 15
480 17 220 3 239 1 269 -17 l32 -19 -23 -19 c-21 -17 -36 -18 -159 -13 -197 9
-377 10 -404 2 -25 -7 -30 -6 137 -13 50 -2 146 -5 213 -7 68 -1 116 -5 105
-9 -22 -8 -129 -12 -335 -12 -168 -1 -222 -16 -65 -18 215 -4 339 0 410 13 41
8 57 7 79 -6 15 -9 46 -19 70 -22 24 -3 55 -7 70 -8 14 -2 34 -9 44 -14 16 -9
14 -11 -16 -16 -50 -8 -97 -14 -160 -20 -54 -6 -86 -8 -315 -21 -144 -9 -175
-12 -182 -18 -3 -3 45 -4 106 -2 61 1 111 -1 111 -5 0 -5 -17 -11 -37 -13 -21
-3 25 -3 102 -1 77 3 154 6 170 9 17 2 59 7 95 10 36 3 83 8 105 12 78 12 205
6 222 -11 2 -2 -17 -4 -44 -4 -26 -1 -73 -3 -103 -6 -30 -3 -98 -8 -150 -11
-133 -8 -258 -16 -305 -20 -22 -2 -76 -6 -119 -10 -44 -4 -89 -11 -100 -15
-14 -6 -2 -7 34 -4 163 12 205 14 310 20 63 3 129 7 147 8 18 2 31 0 28 -4 -2
-4 23 -8 56 -9 44 -2 59 1 54 9 -5 9 -2 9 12 2 11 -7 25 -7 35 -1 10 6 19 6
23 0 3 -6 13 -7 21 -4 13 5 13 7 2 14 -9 6 -6 8 9 6 12 0 19 -5 17 -9 -3 -4
24 -8 60 -8 36 0 67 -1 69 -1 13 -8 107 -13 107 -6 0 5 29 6 73 2 39 -5 92 -9
117 -10 25 -1 54 -6 65 -11 11 -6 34 -10 52 -9 21 1 30 -2 26 -9 -4 -7 -1 -6
8 1 8 7 24 12 34 11 11 0 40 7 64 16 53 20 49 20 47 -1 -1 -14 6 -17 39 -14
22 1 58 9 80 17 48 16 58 17 50 4 -7 -12 -77 -31 -117 -32 -16 -1 -31 -5 -34
-10 -3 -4 -8 -6 -12 -4 -4 2 -32 0 -62 -5 -120 -19 -357 -29 -440 -18 -36 5
-28 6 40 8 47 1 105 4 130 5 25 2 71 4 103 5 31 0 57 5 57 9 0 5 -53 8 -117 6
-225 -5 -399 -5 -586 0 -130 4 -187 2 -187 -5 0 -7 12 -9 29 -7 17 2 28 1 25
-3 -2 -4 -29 -8 -60 -8 -31 0 -58 -2 -62 -5 -3 -3 60 -7 139 -7 79 -1 162 -3
184 -5 134 -10 295 -17 397 -18 107 -1 146 -11 72 -19 -16 -2 -34 -6 -39 -8
-18 -10 -90 -13 -258 -13 -92 0 -167 -4 -167 -9 0 -4 8 -7 18 -6 45 4 132 -2
132 -10 0 -5 -21 -12 -47 -16 -27 -5 -54 -9 -61 -11 -43 -8 -150 -25 -169 -27
-12 0 -20 -4 -18 -8 3 -3 15 -5 27 -3 13 2 43 6 68 9 25 3 70 10 100 15 173
29 270 40 383 45 61 3 125 7 144 10 18 2 33 2 33 0 0 -4 -57 -21 -95 -28 -11
-2 -31 -7 -45 -10 -14 -3 -88 -18 -165 -33 -77 -15 -144 -31 -150 -37 -7 -6
-3 -7 10 -4 17 5 185 37 275 53 14 3 32 7 40 9 8 2 29 7 45 10 17 2 41 7 55
10 14 4 39 9 55 11 17 3 75 14 130 25 55 11 111 22 125 24 14 2 36 7 50 10 14
3 39 8 55 11 17 3 63 12 104 20 40 8 76 13 79 10 3 -3 10 -2 16 3 16 14 69 17
73 6 5 -16 -19 -45 -42 -50 -33 -8 -260 -55 -266 -55 -3 0 -14 -7 -25 -15 -18
-15 -18 -15 6 -6 22 9 73 19 180 36 19 3 51 10 70 15 59 15 94 20 84 11 -8 -7
-68 -30 -99 -37 -5 -2 -68 -21 -139 -44 -125 -39 -174 -59 -111 -45 70 16 206
55 295 85 54 18 140 42 150 42 3 0 10 3 15 7 6 4 33 14 60 21 28 7 56 17 63
23 6 5 12 7 12 4 0 -4 19 1 43 9 23 9 49 17 57 19 8 2 15 4 15 5 0 1 7 3 15 5
35 8 166 46 180 52 8 3 25 8 37 10 12 2 41 10 64 18 96 34 93 7 -3 -38 -152
-72 -276 -119 -458 -173 -49 -14 -210 -55 -234 -60 -16 -2 -32 -7 -36 -9 -4
-2 -22 -7 -41 -10 -19 -3 -52 -11 -74 -17 -22 -5 -50 -12 -62 -14 -12 -2 -35
-9 -50 -15 -16 -6 -29 -10 -30 -10 -2 1 -4 1 -5 0 -4 -1 -28 -7 -69 -17 -20
-5 -44 -15 -55 -21 -18 -12 -18 -12 1 -6 11 4 29 9 40 11 11 2 74 17 140 34
66 17 134 33 150 35 17 3 59 12 94 21 36 9 73 18 84 20 10 2 27 6 37 9 10 3
27 8 38 10 40 7 371 111 525 164 39 14 25 -2 -46 -49 -54 -37 -85 -48 -242
-87 -99 -25 -184 -46 -190 -47 -5 -1 -37 -9 -70 -16 -74 -17 -74 -17 -77 -19
-2 -2 -12 -4 -23 -6 -52 -10 -396 -102 -460 -123 -48 -16 -11 -13 52 4 32 8
69 17 83 20 14 3 43 10 65 16 22 5 47 12 55 14 154 38 223 54 246 58 16 2 29
5 29 6 0 1 9 3 20 4 11 2 34 6 50 10 17 3 40 9 53 11 12 3 30 7 40 9 9 3 58
14 107 26 50 11 120 30 157 41 58 17 71 18 99 6 31 -12 27 -14 -132 -46 -200
-40 -187 -37 -229 -45 -19 -3 -46 -8 -60 -11 -14 -3 -38 -8 -55 -10 -16 -3
-37 -8 -45 -10 -8 -2 -26 -6 -40 -9 -150 -28 -497 -122 -487 -132 2 -3 39 5
80 16 42 12 85 23 97 25 11 3 29 7 41 10 11 2 29 7 40 10 10 4 31 8 47 10 15
2 27 4 27 5 0 2 22 7 65 14 19 4 58 11 85 16 28 6 61 12 75 15 14 3 48 9 75
15 28 6 64 12 80 15 17 2 41 7 55 10 14 3 41 8 60 11 19 3 43 7 52 10 45 13
69 16 141 18 77 2 102 -8 50 -20 -16 -3 -50 -12 -78 -19 -27 -7 -75 -18 -105
-24 -30 -6 -66 -14 -80 -17 -14 -3 -36 -7 -50 -10 -13 -3 -56 -12 -95 -20 -38
-9 -83 -17 -99 -19 -15 -3 -37 -7 -48 -11 -11 -3 -30 -7 -41 -9 -54 -7 -227
-50 -227 -57 0 -3 15 -3 33 2 17 5 46 11 62 13 25 4 143 26 230 43 11 2 36 7
55 10 19 4 44 9 55 11 11 2 34 6 50 9 17 3 39 7 50 9 70 15 124 26 150 31 61
10 123 27 235 62 73 23 139 37 180 38 83 3 116 9 146 29 24 16 34 5 12 -12
-13 -10 -237 -84 -272 -90 -11 -2 -45 -10 -75 -18 -31 -7 -74 -16 -96 -20 -23
-3 -52 -8 -65 -11 -14 -2 -37 -6 -52 -9 -14 -2 -61 -10 -105 -19 -43 -9 -89
-19 -103 -21 -14 -3 -41 -8 -60 -11 -19 -2 -57 -9 -85 -14 -27 -6 -68 -13 -90
-16 -22 -3 -44 -10 -50 -16 -7 -7 -7 -9 1 -5 5 3 30 8 55 11 45 6 53 7 169 26
36 5 84 12 106 15 23 3 53 8 65 11 13 2 40 7 59 9 19 3 44 8 56 10 12 3 39 7
60 11 47 7 236 50 283 64 49 14 52 3 5 -15 -21 -9 -64 -28 -94 -42 -30 -14
-61 -26 -68 -27 -7 -1 -18 -8 -24 -14 -7 -7 -19 -12 -28 -12 -20 -1 -119 -35
-128 -45 -4 -5 1 -5 11 -2 32 12 17 -8 -28 -36 -110 -70 -258 -188 -345 -277
-52 -54 -99 -103 -105 -111 -5 -8 -17 -23 -25 -33 -14 -18 -14 -19 5 -9 11 6
29 21 40 33 37 41 315 242 436 315 10 6 52 34 95 62 43 29 83 53 89 54 5 0 17
2 25 4 8 2 29 6 47 9 58 11 197 46 262 66 36 10 67 18 69 16 2 -2 -29 -16 -67
-31 -39 -15 -74 -32 -77 -37 -5 -7 -2 -8 5 -3 22 13 131 44 126 35 -3 -5 3
-11 12 -13 17 -4 17 -5 0 -6 -10 0 -16 -5 -13 -10 3 -5 38 4 78 20 40 15 111
40 158 54 75 23 136 47 164 63 5 3 6 0 2 -6 -4 -7 -2 -12 3 -12 6 0 11 8 11
18 0 14 2 15 10 2 9 -14 14 -7 11 13 -1 5 4 5 10 2 9 -6 104 30 119 45 3 3 12
6 20 8 56 12 402 183 500 246 39 25 70 41 70 36 0 -5 -13 -16 -30 -25 -16 -9
-30 -18 -30 -21 0 -9 43 18 103 62 31 24 62 44 67 44 6 0 10 4 10 8 0 4 12 15
28 24 15 9 38 26 52 37 41 34 44 36 79 61 19 14 44 32 55 41 120 95 196 158
221 181 16 15 32 25 34 22 6 -5 -16 -25 -149 -131 -144 -115 -292 -251 -375
-344 -29 -33 31 19 94 82 22 22 82 72 317 266 54 45 74 42 34 -5 -38 -44 -150
-151 -196 -189 -19 -15 -34 -31 -34 -37 0 -7 3 -8 8 -1 4 6 21 21 37 34 36 30
-86 -92 -135 -134 -64 -55 -233 -181 -345 -256 -60 -41 -111 -77 -113 -81 -2
-5 -8 -8 -13 -8 -6 0 -15 -5 -22 -10 -7 -6 -77 -56 -156 -111 -88 -62 -187
-143 -254 -208 -105 -103 -124 -140 -41 -80 22 15 113 78 204 140 91 62 175
119 186 128 12 9 30 22 40 28 81 54 348 245 427 305 118 90 169 130 184 143 6
5 37 33 69 60 95 82 217 206 272 276 29 37 76 84 104 107 29 22 62 48 74 58
122 110 162 145 180 161 137 119 382 351 487 461 34 34 64 62 69 62 9 0 -24
-49 -52 -80 -8 -9 -30 -35 -48 -57 -19 -23 -45 -55 -59 -70 -75 -84 -211 -229
-284 -303 -103 -105 -142 -152 -69 -85 139 130 332 329 415 429 22 27 45 54
50 60 6 6 29 37 53 69 24 31 59 72 78 90 50 44 71 88 73 151 2 35 12 9 18 -43
5 -47 2 -56 -32 -109 -58 -88 -109 -146 -245 -283 -69 -70 -154 -159 -190
-198 -102 -113 -301 -325 -460 -490 -64 -67 -153 -171 -146 -171 3 0 32 27 63
61 32 33 108 111 168 173 61 62 184 191 275 286 222 234 386 400 394 400 10 0
-121 -145 -259 -286 -121 -125 -271 -287 -274 -297 -5 -15 495 488 540 544 19
23 44 52 57 65 12 13 22 28 22 34 0 5 3 10 8 10 4 0 18 16 31 36 13 19 37 49
52 67 15 17 43 57 61 89 18 32 37 58 42 58 4 0 0 -12 -9 -27 -10 -14 -27 -42
-39 -62 -11 -20 -52 -81 -89 -136 -94 -137 -212 -317 -220 -335 -4 -8 -14 -25
-23 -38 -9 -12 -14 -22 -11 -22 3 0 30 37 61 83 31 45 72 105 91 132 85 119
195 285 195 295 0 5 4 10 9 10 5 0 16 15 25 32 10 18 31 58 48 88 63 114 196
387 208 428 7 23 17 42 21 42 4 0 23 21 41 48 28 41 53 72 93 116 6 6 41 53
79 104 38 51 71 91 73 88 9 -8 -103 -212 -185 -336 -20 -30 -75 -130 -122
-221 -47 -91 -124 -224 -171 -295 -110 -164 -171 -292 -249 -524 -34 -101 -73
-207 -86 -235 -104 -225 -134 -496 -75 -685 23 -71 136 -275 125 -225 -15 70
-27 114 -51 185 -14 41 -28 91 -32 110 -8 45 -8 193 0 245 7 42 44 171 62 215
6 14 11 27 12 30 1 3 4 12 8 20 3 8 15 44 27 80 12 36 25 74 30 85 5 11 21 54
36 95 26 71 91 220 147 340 15 30 56 102 91 160 36 58 95 164 132 235 36 72
69 135 73 140 4 6 23 46 42 90 18 44 51 112 73 150 48 86 131 245 138 265 3 8
9 12 13 8 5 -4 1 -25 -8 -45 -8 -21 -18 -51 -22 -68 -17 -78 -84 -240 -186
-451 -33 -67 -59 -126 -59 -132 0 -6 -3 -12 -7 -14 -5 -1 -30 -50 -56 -108
-27 -58 -88 -184 -135 -280 -47 -96 -84 -177 -83 -179 2 -2 -1 -7 -7 -10 -16
-10 -120 -296 -136 -371 -3 -14 -7 -34 -10 -45 -20 -86 -28 -122 -31 -138 -6
-28 12 -10 20 20 8 33 99 282 122 333 8 19 22 51 30 70 31 71 98 205 106 208
4 2 7 8 7 14 0 5 14 29 30 53 17 24 30 48 30 53 0 6 4 12 9 14 18 7 251 472
251 501 0 6 57 131 97 215 14 28 29 52 33 52 7 0 17 23 25 60 2 8 8 23 14 35
52 111 95 242 157 479 25 99 47 188 49 198 2 10 7 23 10 28 8 12 13 41 20 100
8 71 20 149 29 195 7 35 51 154 55 149 5 -5 8 -17 17 -79 32 -219 131 -527
264 -820 45 -99 66 -157 96 -260 14 -49 28 -97 31 -105 3 -8 7 -21 9 -29 1 -7
8 -34 14 -60 6 -25 12 -55 14 -66 2 -11 12 -56 21 -100 19 -89 24 -416 11
-730 -12 -268 -12 -287 0 -350 11 -63 17 -82 40 -130 8 -17 12 -20 9 -8 -38
148 -38 223 -1 368 40 152 41 159 39 325 -1 187 -11 579 -15 600 -4 17 -25 74
-39 105 -11 23 -14 37 -40 161 -22 110 -40 166 -86 264 -20 41 -39 86 -43 100
-5 14 -27 77 -50 140 -63 179 -164 519 -174 590 -3 19 -8 46 -11 60 -5 23 -18
182 -17 205 6 100 15 180 25 205 11 29 47 194 77 355 27 147 30 187 45 495 9
187 4 623 -9 721 -6 45 -32 108 -50 123 -8 6 -17 31 -20 56 -3 25 -8 63 -11
85 -3 22 -8 69 -10 105 -3 36 -8 76 -10 90 -6 46 -16 95 -21 112 -3 9 -6 25
-8 35 -2 11 -11 48 -20 84 -9 35 -18 73 -20 84 -3 11 -10 43 -16 70 -6 28 -14
59 -16 70 -33 163 -120 398 -225 611 -35 70 -105 162 -96 127 4 -18 1 -22 -17
-20 -16 1 -37 31 -86 117 -68 119 -137 226 -165 254 -17 17 -34 21 -36 9z
m681 -2710 c-1 -59 -3 -121 -5 -138 -2 -16 -6 -61 -10 -100 -4 -38 -9 -78 -11
-90 -2 -11 -6 -34 -9 -52 -5 -38 -33 -202 -40 -233 -2 -8 -4 -19 -4 -25 -1 -5
-15 -18 -32 -27 l-30 -18 5 33 c3 17 8 59 11 92 3 33 8 85 11 115 3 30 7 73 9
96 2 22 6 54 9 70 6 32 14 126 20 219 3 33 8 69 13 80 11 28 57 94 61 90 2 -2
3 -52 2 -112z m-154 -261 c-2 -4 -7 -28 -11 -52 -3 -25 -8 -56 -10 -70 -2 -14
-6 -45 -9 -70 -3 -25 -8 -56 -10 -70 -3 -14 -10 -67 -16 -119 -12 -108 -13
-109 -96 -220 -134 -177 -210 -256 -504 -518 -31 -28 -44 -30 -28 -3 7 11 16
20 20 20 5 0 8 4 8 9 0 9 189 297 217 332 10 11 28 33 41 47 85 98 207 320
355 645 20 42 39 77 42 77 3 0 4 -3 1 -8z m39 -559 c-4 -16 -9 -35 -11 -43
-12 -53 -38 -133 -84 -260 -28 -80 -57 -163 -64 -185 -47 -143 -167 -422 -188
-436 -5 -3 -8 -9 -6 -12 3 -5 -118 -195 -131 -207 -3 -3 -22 -25 -41 -50 -44
-58 -83 -100 -92 -100 -16 0 -7 26 20 55 39 44 102 122 102 129 0 3 16 30 35
60 19 30 35 57 35 60 0 3 13 27 29 54 16 27 50 98 76 158 26 60 57 129 68 154
11 25 21 50 23 55 1 6 16 52 34 104 17 52 33 101 36 110 2 9 15 57 30 106 14
50 28 97 29 105 2 8 4 17 5 20 1 3 2 8 1 12 -2 18 31 78 60 106 40 39 43 39
34 5z m-301 -1337 c-3 -14 -10 -26 -14 -26 -5 0 -3 13 3 30 13 35 21 33 11 -4z
m-816 -325 c11 -6 8 -10 -10 -14 -12 -4 -43 -26 -68 -49 -76 -73 -112 -95
-200 -124 -125 -41 -236 -90 -354 -158 -43 -24 -97 -47 -120 -51 -22 -4 -50
-9 -61 -11 -11 -3 0 7 25 22 187 112 278 164 288 164 7 0 12 3 12 8 0 4 15 13
33 21 17 7 64 28 102 46 39 17 104 47 145 66 41 19 97 46 125 61 56 30 64 31
83 19z m271 -313 c-7 -13 -31 -54 -54 -93 -23 -38 -45 -77 -48 -85 -4 -8 -16
-28 -27 -45 -11 -16 -25 -40 -31 -52 -7 -13 -15 -23 -19 -23 -8 0 65 148 103
207 15 24 27 48 27 55 0 10 47 56 58 58 1 0 -3 -10 -9 -22z m-34 -129 c-13
-24 -25 -38 -25 -31 0 13 43 83 48 78 1 -2 -9 -23 -23 -47z m-786 -59 c-17
-15 -20 -23 -11 -26 7 -3 -24 -30 -70 -60 -46 -30 -87 -60 -93 -67 -5 -7 -30
-22 -55 -34 -25 -12 -78 -41 -119 -64 -57 -32 -72 -37 -66 -23 4 11 10 30 12
44 4 21 41 46 211 142 114 64 209 115 211 112 2 -2 -7 -13 -20 -24z m601 -174
c0 -2 -7 -7 -16 -10 -8 -3 -12 -2 -9 4 6 10 25 14 25 6z m-1720 -74 c0 -10
-189 -56 -275 -67 -16 -2 -39 -6 -50 -8 -11 -2 -42 -8 -68 -11 -27 -4 -57 -9
-67 -11 -10 -2 -47 -6 -81 -10 -35 -4 -66 -8 -69 -10 -3 -1 -30 -6 -61 -9 -31
-4 -66 -9 -78 -11 -11 -2 -21 0 -21 4 0 8 30 13 135 26 22 3 56 7 75 10 19 4
53 8 74 10 22 3 46 7 55 10 9 2 34 7 56 10 22 4 47 8 55 10 8 3 32 7 54 11 21
3 48 8 60 10 11 2 48 9 81 15 33 6 71 13 85 16 13 2 27 6 29 9 7 6 11 5 11 -4z
m-440 -6 c0 -9 -30 -14 -35 -6 -4 6 3 10 14 10 12 0 21 -2 21 -4z m520 -26
c15 -13 18 -20 9 -21 -22 -1 -83 -13 -146 -29 -24 -5 -46 -9 -50 -8 -5 1 -33
-2 -63 -6 -30 -3 -77 -8 -103 -11 -26 -2 -51 -6 -55 -9 -5 -3 -14 -1 -20 3 -7
4 25 14 75 21 48 8 90 15 93 15 4 1 76 17 90 20 3 1 24 5 48 9 24 4 56 14 70
22 15 8 27 14 28 14 1 0 11 -9 24 -20z m740 2 c0 -4 -25 -29 -55 -56 -31 -26
-62 -61 -71 -77 -11 -22 -43 -43 -125 -85 -61 -30 -113 -54 -115 -51 -11 11
160 187 182 187 7 0 14 4 16 8 2 4 32 24 68 45 62 35 100 46 100 29z m-1237
-89 c-7 -2 -21 -2 -30 0 -10 3 -4 5 12 5 17 0 24 -2 18 -5z m-76 -9 c-3 -3
-12 -4 -19 -1 -8 3 -5 6 6 6 11 1 17 -2 13 -5z m-282 -34 c-3 -5 -18 -9 -33
-9 l-27 1 30 8 c17 4 31 8 33 9 2 0 0 -3 -3 -9z m1603 -24 c-8 -6 -26 -31 -39
-55 -17 -30 -48 -60 -102 -97 -42 -30 -82 -54 -87 -54 -6 0 -10 -4 -10 -8 0
-5 -10 -14 -22 -20 -24 -12 -48 -26 -174 -104 -91 -57 -116 -63 -48 -11 44 33
212 174 290 243 53 47 199 138 203 127 2 -6 -3 -15 -11 -21z m-1468 -100 c0
-3 -4 -8 -10 -11 -5 -3 -10 -1 -10 4 0 6 5 11 10 11 6 0 10 -2 10 -4z m1100
-117 c-106 -96 -200 -163 -212 -151 -7 7 -10 13 -7 15 176 134 251 186 269
186 3 0 -20 -22 -50 -50z m-1360 -9 c0 -6 -8 -10 -17 -11 -10 0 -30 -3 -45 -5
-16 -3 -28 0 -28 5 0 9 15 13 68 19 12 1 22 -3 22 -8z m1606 -65 c-21 -52 -58
-92 -186 -195 -51 -41 -97 -80 -104 -85 -6 -6 -31 -26 -56 -45 -25 -19 -51
-39 -57 -45 -7 -5 -34 -27 -60 -47 -27 -21 -77 -60 -112 -88 -35 -27 -67 -47
-70 -44 -3 3 2 10 12 15 9 6 53 45 97 87 80 79 124 147 134 212 3 19 10 36 15
38 6 2 27 15 48 29 21 14 72 46 113 71 41 25 77 48 80 51 14 18 153 100 159
95 2 -2 -4 -24 -13 -49z m-438 -5 c-29 -40 -61 -60 -96 -60 -16 0 -53 -8 -83
-19 -58 -19 -63 -21 -79 -21 -5 0 -10 -6 -10 -14 0 -7 -12 -16 -27 -19 -55
-10 37 50 135 88 51 21 110 46 130 56 51 25 56 24 30 -11z m-1404 -99 c11 0
17 -3 14 -6 -3 -3 -88 -8 -189 -11 -101 -3 -204 -7 -229 -9 -25 -2 -63 -4 -84
-4 -22 -1 -36 -4 -32 -8 12 -12 458 -2 525 12 54 11 0 -15 -105 -49 -98 -32
-130 -41 -181 -50 -7 -1 -16 -5 -20 -10 -10 -10 83 2 127 17 19 6 38 12 43 13
4 1 9 3 12 4 3 1 8 3 13 5 4 1 14 4 22 8 8 3 40 13 70 22 30 9 61 18 68 21 9
3 9 -3 -2 -24 -7 -15 -11 -32 -9 -39 4 -11 -23 -24 -57 -28 -8 -1 -42 -6 -75
-10 -33 -4 -85 -9 -115 -11 -30 -2 -73 -5 -95 -7 -29 -3 -44 1 -60 16 -18 18
-155 90 -155 82 0 -2 -15 1 -32 6 -45 14 -43 14 -125 29 -40 7 -73 16 -73 19
0 4 98 7 218 6 119 0 260 2 312 5 84 4 154 5 214 1z m-1541 -76 c32 -4 57 -11
57 -15 0 -4 -17 -4 -37 1 -21 5 -53 9 -70 9 -18 0 -33 5 -33 11 0 6 6 9 13 6
8 -3 39 -8 70 -12z m222 -29 c11 -2 38 -4 60 -5 31 -2 35 -4 20 -10 -11 -5
-24 -7 -30 -5 -5 1 -32 5 -60 8 -91 11 -118 15 -123 21 -5 5 77 -1 133 -9z
m248 -1 c26 -3 47 -10 47 -15 0 -5 -12 -6 -27 -4 -15 3 -42 6 -60 8 -19 1 -39
8 -45 14 -8 8 -5 10 13 8 13 -3 45 -7 72 -11z m-865 -16 c17 -2 32 -7 32 -11
0 -11 -113 1 -125 14 -3 3 9 4 27 2 18 -1 48 -4 66 -5z m-824 -40 c2 -2 -12
-5 -32 -6 -27 -1 -32 1 -17 7 20 7 41 7 49 -1z m380 2 c3 -4 -6 -6 -19 -3 -14
2 -25 6 -25 8 0 8 39 4 44 -5z m41 -9 c-3 -3 -11 0 -18 7 -9 10 -8 11 6 5 10
-3 15 -9 12 -12z m-500 3 c-23 -8 -85 -10 -85 -3 0 4 21 8 48 7 26 0 43 -2 37
-4z m638 -10 c15 -4 27 -11 27 -15 0 -5 -15 -5 -32 0 -18 5 -51 11 -72 15 -22
3 -42 8 -45 11 -7 7 82 -1 122 -11z m2081 -174 c-3 -3 -9 -6 -12 -6 -4 -1 -25
-4 -47 -9 -36 -7 -38 -9 -22 -21 18 -13 18 -14 0 -23 -15 -8 -98 -30 -178 -47
-34 -7 -216 -63 -294 -89 -41 -14 -76 -24 -78 -23 -4 4 152 78 242 114 33 14
74 36 91 49 36 27 87 40 194 50 41 3 76 7 78 9 6 5 31 1 26 -4z m-2214 -105
c0 -2 -13 -6 -29 -8 -17 -2 -28 -1 -25 4 5 8 54 12 54 4z m-90 -16 c-14 -4
-36 -8 -50 -8 -22 0 -22 1 5 8 17 4 39 8 50 8 16 0 15 -2 -5 -8z m-80 -10 c0
-5 -2 -10 -4 -10 -3 0 -8 5 -11 10 -3 6 -1 10 4 10 6 0 11 -4 11 -10z m-213
-14 c3 -3 -11 -6 -33 -7 -21 0 -47 -2 -56 -4 -10 -2 -18 1 -18 5 0 15 93 21
107 6z m38 4 c3 -5 -1 -10 -10 -10 -9 0 -13 5 -10 10 3 6 8 10 10 10 2 0 7 -4
10 -10z m59 1 c-8 -8 -43 -8 -38 0 2 4 13 7 24 6 10 -1 17 -3 14 -6z m79 2
c-7 -2 -19 -2 -25 0 -7 3 -2 5 12 5 14 0 19 -2 13 -5z m3447 -68 c0 -5 -438
-225 -447 -225 -3 0 -1 5 3 11 3 6 35 24 71 41 36 16 88 43 116 60 114 67 175
97 207 103 19 3 36 8 39 11 6 5 11 5 11 -1z m-2070 -26 c-59 -16 -74 -19 -109
-25 -18 -3 -43 -8 -55 -10 -11 -2 -61 -11 -111 -19 -49 -8 -99 -17 -110 -19
-20 -4 -94 -12 -200 -22 -58 -5 -73 2 -24 11 13 3 38 8 54 12 17 4 32 7 35 8
3 1 25 5 50 10 25 5 47 9 50 10 19 4 108 19 120 20 14 1 105 11 200 21 24 3
46 6 47 8 1 1 22 3 45 3 l43 2 -35 -10z m-1326 -17 c3 -5 -1 -9 -9 -9 -8 0
-12 4 -9 9 3 4 7 8 9 8 2 0 6 -4 9 -8z m343 -18 c-3 -3 -12 -4 -19 -1 -8 3 -5
6 6 6 11 1 17 -2 13 -5z m46 -1 c-7 -2 -19 -2 -25 0 -7 3 -2 5 12 5 14 0 19
-2 13 -5z m2477 -64 c-48 -41 -156 -104 -231 -135 -35 -14 -71 -29 -79 -33
-18 -9 -189 -63 -210 -67 -36 -6 -77 -15 -108 -25 -58 -19 -45 -3 25 31 38 18
82 39 98 47 17 8 37 16 45 18 94 25 269 79 291 91 16 8 29 12 29 9 0 -4 14 4
32 17 28 21 125 75 138 77 3 0 -11 -13 -30 -30z m-2520 -23 c0 -3 -4 -8 -10
-11 -5 -3 -10 -1 -10 4 0 6 5 11 10 11 6 0 10 -2 10 -4z m2510 -26 c0 -5 -37
-28 -82 -50 -46 -23 -78 -37 -73 -31 7 7 136 84 153 90 1 1 2 -3 2 -9z m10
-40 c-35 -24 -203 -102 -225 -105 -5 0 -9 -6 -8 -12 1 -6 -6 -9 -19 -5 -16 4
-19 2 -13 -9 6 -11 5 -12 -5 -2 -17 15 -20 13 60 48 36 15 97 43 135 61 68 33
106 44 75 24z m70 -8 c0 -10 -27 -24 -112 -58 -109 -43 -50 0 72 54 31 13 40
14 40 4z m-555 -22 c-3 -5 -12 -10 -18 -10 -7 0 -6 4 3 10 19 12 23 12 15 0z
m300 -20 c-3 -5 -12 -10 -18 -10 -7 0 -6 4 3 10 19 12 23 12 15 0z m70 -39
c-6 -4 -23 -11 -40 -14 l-30 -6 30 14 c35 16 54 19 40 6z m-175 -36 c0 -2 -9
-9 -20 -15 -16 -9 -18 -8 -14 5 5 13 34 22 34 10z"/>
<path d="M4005 2000 c-3 -5 -1 -10 4 -10 6 0 11 5 11 10 0 6 -2 10 -4 10 -3 0
-8 -4 -11 -10z"/>
<path d="M2796 1578 c3 -4 11 -5 19 -1 21 7 19 12 -4 10 -11 0 -18 -5 -15 -9z"/>
<path d="M5656 1523 c-6 -14 -5 -15 5 -6 7 7 10 15 7 18 -3 3 -9 -2 -12 -12z"/>
<path d="M1095 1480 c3 -5 8 -10 11 -10 2 0 4 5 4 10 0 6 -5 10 -11 10 -5 0
-7 -4 -4 -10z"/>
<path d="M680 1389 c-17 -4 -11 -6 23 -6 26 1 47 4 47 7 0 8 -39 8 -70 -1z"/>
<path d="M765 1390 c3 -5 10 -10 16 -10 5 0 9 5 9 10 0 6 -7 10 -16 10 -8 0
-12 -4 -9 -10z"/>
<path d="M628 1383 c7 -3 16 -2 19 1 4 3 -2 6 -13 5 -11 0 -14 -3 -6 -6z"/>
<path d="M515 1330 c3 -5 8 -10 11 -10 2 0 4 5 4 10 0 6 -5 10 -11 10 -5 0 -7
-4 -4 -10z"/>
<path d="M147 1219 c7 -7 15 -10 18 -7 3 3 -2 9 -12 12 -14 6 -15 5 -6 -5z"/>
<path d="M278 1165 c-3 -3 -23 -6 -46 -7 -23 -1 -42 -4 -42 -8 0 -6 101 -1
108 5 2 2 -1 6 -6 9 -5 3 -11 3 -14 1z"/>
<path d="M310 1160 c0 -5 5 -10 10 -10 6 0 10 5 10 10 0 6 -4 10 -10 10 -5 0
-10 -4 -10 -10z"/>
<path d="M340 1162 c0 -4 9 -8 20 -8 11 0 20 4 20 8 0 4 -9 8 -20 8 -11 0 -20
-4 -20 -8z"/>
<path d="M105 1140 c-27 -7 -27 -8 -5 -8 14 0 39 4 55 8 27 7 27 8 5 8 -14 0
-38 -4 -55 -8z"/>
<path d="M278 1113 c18 -2 45 -2 60 0 15 2 0 4 -33 4 -33 0 -45 -2 -27 -4z"/>
<path d="M435 1000 c-3 -5 -1 -10 4 -10 6 0 11 5 11 10 0 6 -2 10 -4 10 -3 0
-8 -4 -11 -10z"/>
<path d="M818 899 c-6 -4 15 -7 46 -8 31 0 56 3 56 7 0 9 -87 10 -102 1z"/>
<path d="M750 889 c0 -5 5 -7 10 -4 6 3 10 8 10 11 0 2 -4 4 -10 4 -5 0 -10
-5 -10 -11z"/>
<path d="M816 868 c3 -4 11 -5 19 -1 21 7 19 12 -4 10 -11 0 -18 -5 -15 -9z"/>
<path d="M1150 798 c0 -4 7 -8 15 -8 8 0 15 4 15 8 0 5 -7 9 -15 9 -8 0 -15
-4 -15 -9z"/>
<path d="M3910 650 c-9 -6 -10 -10 -3 -10 6 0 15 5 18 10 8 12 4 12 -15 0z"/>
<path d="M1946 544 c-11 -8 -16 -14 -10 -14 13 0 39 18 34 24 -3 2 -14 -2 -24
-10z"/>
<path d="M3482 545 c-18 -8 -35 -14 -37 -14 -3 0 -36 -11 -73 -24 -37 -14 -88
-33 -115 -43 -52 -19 -59 -29 -9 -14 18 6 46 14 62 19 18 6 30 6 30 0 0 -5 -7
-9 -15 -9 -8 0 -15 -4 -15 -10 0 -5 24 0 53 11 28 12 79 32 111 43 37 14 60
29 62 39 3 20 -10 21 -54 2z m24 -14 c-6 -9 -46 -22 -46 -15 0 3 10 9 23 14
29 11 29 11 23 1z m-61 -19 c-16 -14 -95 -43 -95 -34 0 4 21 14 48 23 58 21
58 21 47 11z"/>
<path d="M1954 504 c-19 -15 -19 -15 1 -6 11 5 27 12 35 15 13 5 13 6 -1 6 -8
1 -24 -6 -35 -15z"/>
<path d="M2892 501 c-34 -10 -66 -22 -70 -26 -4 -4 4 -5 18 -1 14 4 49 12 78
18 28 6 52 15 52 19 0 11 -3 11 -78 -10z"/>
<path d="M3275 440 c-3 -6 1 -7 9 -4 18 7 21 14 7 14 -6 0 -13 -4 -16 -10z"/>
<path d="M3215 420 c3 -5 8 -10 11 -10 2 0 4 5 4 10 0 6 -5 10 -11 10 -5 0 -7
-4 -4 -10z"/>
<path d="M3817 166 c-18 -14 -23 -36 -9 -36 14 0 44 38 35 43 -5 3 -16 0 -26
-7z"/>
</g>
</svg>
