<?xml version="1.0" standalone="no"?>
<!DOCTYPE svg PUBLIC "-//W3C//DTD SVG 20010904//EN"
 "http://www.w3.org/TR/2001/REC-SVG-20010904/DTD/svg10.dtd">
<svg version="1.0" xmlns="http://www.w3.org/2000/svg"
 width="803.000000pt" height="803.000000pt" viewBox="0 0 803.000000 803.000000"
 preserveAspectRatio="xMidYMid meet">
<metadata>
Created by potrace 1.14, written by Peter Selinger 2001-2017
</metadata>
<g transform="translate(0.000000,803.000000) scale(0.100000,-0.100000)"
fill="#000000" stroke="none">
<path d="M5441 8014 c0 -11 3 -14 6 -6 3 7 2 16 -1 19 -3 4 -6 -2 -5 -13z"/>
<path d="M5224 7994 c-3 -16 -17 -65 -29 -109 -12 -44 -25 -96 -29 -115 -5
-30 -5 -32 4 -11 16 37 71 254 66 259 -3 2 -8 -9 -12 -24z"/>
<path d="M4989 7943 c-1 -27 -3 -61 -5 -78 -2 -16 -5 -245 -7 -507 -2 -263 -6
-481 -10 -484 -4 -4 -7 13 -8 37 -1 24 -2 60 -4 79 -8 112 -17 366 -20 575 -3
132 -5 267 -6 300 l-2 60 -6 -55 c-17 -160 6 -887 36 -1130 6 -49 8 -152 4
-325 -1 -71 5 -153 14 -194 3 -17 7 -76 9 -133 2 -99 24 -200 47 -213 16 -11
10 -23 -9 -18 -18 4 -19 -2 -17 -80 2 -75 6 -92 39 -157 21 -40 35 -74 33 -76
-13 -13 -52 56 -73 127 -24 82 -30 134 -39 349 -10 223 -17 315 -24 323 -8 8
-6 -114 3 -215 2 -27 1 -48 -3 -48 -4 0 -8 6 -8 13 -2 33 -14 175 -17 197 -3
14 -7 65 -11 114 -4 50 -8 98 -10 107 -2 10 -6 62 -10 116 -3 54 -8 112 -10
128 -2 17 -7 66 -10 110 -3 44 -8 100 -10 125 -2 25 -7 74 -10 110 -7 92 -16
199 -20 240 -2 19 -6 73 -10 120 -4 47 -9 87 -12 90 -8 8 13 -333 32 -540 6
-64 13 -153 19 -240 l5 -75 -13 60 c-7 33 -17 87 -21 120 -4 32 -9 68 -11 80
-11 56 -27 473 -24 607 0 20 -3 39 -8 42 -15 9 -4 -578 13 -664 2 -10 9 -62
15 -116 7 -55 13 -101 15 -104 2 -3 6 -26 10 -50 3 -25 12 -85 20 -135 8 -49
17 -110 20 -135 3 -25 8 -53 11 -62 3 -10 2 -18 -3 -18 -8 0 -20 53 -39 165
-2 17 -18 100 -34 185 -34 178 -66 365 -75 436 -4 27 -10 76 -14 108 -5 33 -7
114 -6 180 2 96 1 112 -6 76 -17 -79 -13 -398 6 -498 1 -9 6 -42 10 -72 11
-87 32 -208 55 -316 41 -187 60 -286 76 -389 3 -16 9 -55 14 -85 5 -30 12 -75
15 -100 7 -61 37 -229 51 -290 16 -71 21 -163 15 -294 -1 -30 -16 -8 -36 54
-22 69 -62 157 -86 191 -10 14 -20 45 -23 70 -9 73 -16 121 -21 148 -11 66
-75 596 -90 746 -3 33 -8 71 -10 85 -2 14 -7 54 -10 90 -3 36 -8 81 -10 100
-2 19 -7 68 -10 109 -3 40 -8 92 -10 115 -3 22 -7 70 -10 106 -9 114 -17 185
-22 190 -4 5 2 -160 12 -295 3 -33 7 -91 10 -130 3 -38 8 -92 11 -120 3 -27 7
-102 9 -165 2 -63 8 -153 15 -200 6 -47 13 -101 16 -120 4 -32 10 -71 19 -140
2 -14 6 -47 10 -75 3 -27 8 -57 10 -65 2 -8 6 -37 10 -65 6 -53 23 -164 31
-205 2 -14 7 -43 9 -65 3 -22 8 -48 11 -57 15 -49 12 -126 -7 -183 -17 -52
-22 -77 -28 -142 -1 -15 -81 65 -91 92 -4 11 -11 42 -14 69 -4 27 -9 52 -11
55 -2 3 -6 30 -9 59 -3 30 -8 57 -10 60 -2 4 -7 34 -10 67 -4 33 -9 69 -11 80
-3 11 -7 47 -10 80 -3 33 -16 146 -30 250 -13 105 -27 215 -30 245 -7 65 -13
121 -19 170 -3 19 -8 64 -12 100 -3 36 -8 74 -10 85 -2 11 -6 44 -10 74 -12
111 -23 140 -18 46 3 -49 7 -106 9 -125 2 -19 7 -73 10 -120 4 -47 8 -87 10
-90 2 -3 6 -41 9 -85 4 -44 9 -91 11 -105 2 -14 6 -56 10 -95 7 -78 12 -125
25 -235 6 -41 13 -100 16 -130 13 -125 25 -213 29 -220 1 -3 6 -32 10 -65 3
-32 9 -63 11 -67 3 -5 7 -52 8 -106 2 -53 7 -126 10 -162 l7 -65 -20 35 c-11
20 -26 84 -36 148 -9 62 -18 121 -20 130 -3 18 -11 77 -21 160 -3 26 -7 58 -9
72 -2 14 -7 52 -10 85 -3 33 -8 76 -11 95 -5 44 -12 116 -19 200 -2 36 -7 90
-10 120 -2 30 -7 91 -11 135 -3 44 -8 98 -9 120 -2 22 -7 78 -11 125 -3 47 -9
87 -11 90 -5 4 0 -116 12 -340 3 -41 7 -122 10 -180 3 -58 7 -127 10 -155 3
-27 7 -77 10 -109 3 -33 8 -73 10 -90 2 -17 7 -51 10 -76 3 -25 7 -54 9 -65 3
-18 11 -82 22 -180 13 -118 20 -156 48 -275 14 -55 28 -130 31 -168 4 -37 8
-74 10 -82 3 -8 7 -30 10 -49 7 -43 29 -94 55 -132 12 -16 17 -29 13 -29 -25
0 -45 33 -67 110 -13 47 -34 115 -45 153 -38 122 -62 202 -66 217 -2 8 -11 43
-20 77 -9 35 -18 72 -21 83 -2 11 -6 30 -9 43 -3 12 -8 42 -11 67 -3 25 -11
70 -19 100 -7 30 -20 100 -29 155 -8 55 -25 157 -36 227 -11 70 -22 139 -24
155 -15 108 -41 243 -47 243 -3 0 -3 -19 1 -42 4 -24 11 -69 14 -101 3 -32 12
-102 21 -155 8 -54 17 -113 20 -132 2 -19 7 -48 10 -65 8 -50 14 -88 20 -130
3 -22 8 -51 10 -65 3 -14 7 -43 11 -65 3 -22 7 -51 9 -64 2 -13 7 -45 11 -70
3 -25 8 -57 10 -71 2 -14 7 -52 10 -85 4 -33 9 -64 12 -70 3 -7 1 -7 -5 0 -6
6 -15 30 -21 55 -74 333 -73 328 -92 450 -6 36 -13 79 -16 95 -3 17 -8 50 -11
75 -12 101 -22 126 -17 45 5 -95 30 -270 54 -395 6 -30 13 -66 16 -80 15 -83
49 -231 75 -333 17 -65 29 -120 26 -123 -15 -15 -46 78 -107 319 -78 304 -84
305 -21 2 17 -82 44 -198 60 -257 16 -59 27 -109 24 -112 -3 -3 0 -12 7 -21 7
-8 8 -15 2 -15 -5 0 -15 7 -22 15 -7 8 -19 15 -26 15 -8 0 -14 3 -15 8 -1 16
-8 42 -42 167 -20 72 -41 153 -48 182 -7 29 -16 50 -21 47 -5 -3 -6 6 -3 19 5
18 2 28 -11 35 -11 6 -15 17 -11 31 3 11 1 19 -4 15 -5 -3 -9 1 -10 8 0 7 -2
20 -4 28 -4 17 -12 59 -21 105 -30 162 -65 319 -74 333 -9 15 -10 14 -5 -5 9
-33 29 -141 41 -218 11 -74 44 -239 65 -320 11 -44 22 -87 24 -95 2 -8 26 -94
54 -190 64 -225 131 -485 131 -510 0 -19 -2 -20 -30 -5 -39 20 -47 39 -75 165
-47 212 -86 389 -89 405 -3 11 -22 101 -44 200 -23 99 -50 232 -62 295 -22
121 -39 184 -46 177 -3 -2 0 -24 5 -48 5 -24 13 -60 16 -79 3 -19 8 -42 10
-50 2 -8 7 -33 10 -55 3 -23 8 -52 11 -65 2 -14 14 -77 24 -140 26 -150 30
-172 36 -192 3 -10 8 -30 10 -45 3 -16 21 -102 40 -191 20 -90 34 -166 31
-168 -2 -2 -21 67 -42 153 -21 87 -41 162 -45 166 -16 19 16 -145 66 -342 47
-185 57 -239 40 -220 -2 2 -20 47 -41 99 -20 52 -43 102 -51 110 -29 34 -53
121 -113 415 -16 83 -46 213 -66 290 -33 124 -111 424 -119 450 -1 6 -6 26
-10 45 -27 125 -224 741 -252 790 -10 16 -13 18 -9 5 6 -17 137 -464 205 -695
75 -258 181 -687 205 -827 3 -18 12 -63 21 -100 15 -64 21 -159 11 -169 -2 -3
-8 16 -12 42 -3 25 -21 85 -39 133 -19 47 -41 133 -50 191 -24 147 -25 148
-36 215 -29 164 -56 272 -97 390 -107 310 -242 738 -257 815 -7 36 -28 102
-31 98 -2 -2 0 -21 5 -43 5 -22 11 -53 14 -70 6 -32 55 -216 79 -300 15 -50
27 -89 112 -355 58 -185 110 -382 129 -490 29 -169 26 -188 -14 -67 -18 56
-24 66 -36 56 -8 -6 -14 -22 -14 -35 0 -13 -5 -24 -10 -24 -6 0 -9 3 -8 8 3
11 -10 48 -47 132 -30 70 -66 196 -80 280 -8 48 -52 221 -77 305 -12 39 -23
75 -24 80 -3 15 -90 295 -135 435 -22 69 -44 132 -50 140 -13 19 -12 13 31
-130 129 -432 239 -854 253 -970 2 -20 -4 -52 -14 -75 l-18 -39 -7 29 c-3 17
-19 55 -34 85 -37 72 -168 399 -190 475 -91 303 -229 719 -237 711 -2 -2 12
-59 32 -127 20 -68 38 -131 40 -139 8 -33 105 -359 125 -420 12 -36 23 -69 24
-75 4 -12 6 -18 68 -181 l50 -131 -17 -91 c-9 -51 -21 -92 -26 -92 -16 0 -48
41 -128 165 -119 185 -177 292 -261 485 -18 41 -50 113 -72 159 -21 46 -57
127 -79 180 -58 136 -78 178 -79 163 0 -7 9 -37 21 -65 32 -80 37 -91 75 -195
20 -53 50 -125 65 -160 16 -34 29 -65 29 -67 0 -3 29 -65 65 -139 75 -156 156
-300 230 -408 l53 -76 -34 -4 c-19 -2 -39 -1 -44 2 -5 3 -34 57 -63 120 -61
128 -68 144 -160 350 -85 191 -228 483 -233 478 -2 -3 36 -94 84 -204 49 -109
110 -251 137 -314 26 -63 65 -153 87 -198 21 -46 38 -86 38 -88 0 -21 123
-249 160 -298 44 -58 48 -67 53 -133 3 -39 8 -77 12 -84 5 -7 4 -10 -3 -5 -10
6 -35 47 -105 171 -28 50 -298 594 -332 670 -41 92 -226 465 -230 465 -11 0
108 -264 279 -619 75 -155 136 -285 136 -288 0 -19 183 -366 230 -435 56 -84
61 -108 13 -70 -23 19 -67 91 -98 162 -11 25 -38 79 -61 120 -158 291 -326
627 -409 820 -125 290 -152 355 -181 427 -15 40 -29 71 -31 70 -11 -11 115
-346 197 -522 22 -49 55 -121 73 -160 62 -138 440 -880 458 -899 5 -6 9 -16 9
-22 0 -18 116 -190 164 -243 23 -25 50 -57 61 -71 20 -25 20 -25 0 -10 -11 8
-37 30 -58 48 -22 18 -41 31 -44 28 -7 -7 15 -69 44 -123 49 -91 40 -77 153
-237 13 -18 11 -18 -16 4 -59 48 -162 214 -314 505 -20 39 -74 142 -120 230
-46 88 -86 165 -90 170 -4 6 -51 105 -105 220 -84 180 -150 306 -132 255 51
-147 203 -475 356 -765 35 -66 91 -172 124 -235 68 -129 157 -280 193 -325 13
-16 28 -34 32 -40 24 -31 86 -142 122 -220 24 -49 58 -111 76 -137 19 -27 28
-48 21 -48 -42 1 -61 19 -130 124 -96 145 -106 163 -267 481 -116 228 -181
348 -310 570 -9 17 -32 56 -49 88 -18 31 -35 57 -38 57 -4 0 203 -407 217
-425 5 -5 47 -89 94 -185 215 -435 336 -648 421 -740 35 -38 111 -138 141
-185 76 -121 -200 209 -300 359 -88 130 -212 346 -311 539 -38 75 -71 135 -72
133 -5 -4 42 -107 119 -261 38 -77 65 -135 60 -130 -6 6 -75 120 -155 255 -80
135 -153 254 -162 265 -16 20 61 -131 97 -190 10 -16 21 -37 25 -45 45 -98
339 -575 518 -840 133 -197 176 -255 236 -320 45 -49 113 -149 106 -156 -2 -2
-37 33 -78 77 -41 45 -79 87 -85 93 -40 42 -217 278 -373 496 -179 252 -218
311 -326 492 -55 92 -103 168 -108 168 -6 0 11 -38 23 -50 3 -3 18 -30 34 -60
75 -139 273 -445 435 -673 229 -323 313 -424 574 -691 86 -88 107 -116 122
-164 l7 -23 -34 17 c-43 22 -83 51 -132 94 -53 48 -53 47 -126 130 -36 41 -88
99 -117 130 -43 46 -113 130 -176 210 -83 106 -201 282 -258 388 -69 126 -80
145 -111 189 -46 68 -43 50 8 -44 127 -237 312 -519 445 -678 10 -11 63 -75
119 -143 138 -166 222 -247 322 -308 46 -28 138 -85 206 -127 70 -43 143 -80
172 -87 59 -14 68 -26 220 -300 57 -102 111 -197 121 -212 11 -14 19 -28 19
-31 0 -2 23 -44 51 -93 55 -94 76 -132 129 -229 350 -640 522 -922 739 -1208
l111 -146 34 -128 c19 -70 68 -218 109 -328 41 -110 77 -212 81 -227 3 -14 9
-34 12 -45 4 -12 0 -9 -12 7 -10 14 -26 34 -36 45 -9 11 -81 101 -159 200 -79
99 -149 186 -156 193 -34 34 -112 146 -245 347 -399 604 -604 887 -862 1190
-215 253 -331 371 -546 550 -52 44 -108 92 -125 106 -16 15 -64 54 -105 88
-41 35 -84 70 -95 79 -11 9 -47 40 -80 67 -33 28 -62 52 -65 55 -3 3 -36 32
-75 65 -38 33 -76 67 -85 75 -9 8 -38 35 -65 59 -234 206 -461 427 -513 498
-24 32 -83 119 -131 193 -48 74 -98 144 -111 155 -22 19 -22 18 3 -20 15 -22
32 -56 38 -75 7 -19 24 -53 39 -75 15 -22 64 -100 109 -174 164 -268 253 -365
676 -737 39 -34 86 -74 105 -90 19 -16 37 -31 40 -34 3 -3 32 -28 65 -55 33
-28 62 -53 65 -56 3 -3 43 -39 90 -80 284 -248 530 -506 785 -824 52 -65 49
-61 222 -270 81 -99 177 -216 213 -260 35 -44 69 -85 75 -92 5 -7 15 -18 20
-25 6 -7 36 -45 68 -85 31 -40 57 -75 57 -78 0 -3 -26 22 -57 56 -129 139
-403 407 -568 556 -152 136 -511 404 -718 536 -92 58 -316 176 -437 230 -153
68 -209 98 -232 122 -16 15 -28 32 -28 37 0 23 -55 91 -94 116 -25 15 -84 63
-132 107 -48 44 -101 93 -118 108 -47 42 -240 169 -336 220 -47 24 -157 82
-245 127 -88 46 -166 87 -172 93 -7 5 -13 7 -13 4 0 -6 84 -63 140 -95 19 -11
67 -37 105 -59 39 -22 97 -55 130 -73 115 -63 126 -71 201 -121 103 -71 96
-78 -11 -11 -33 21 -105 60 -243 131 -205 106 -532 236 -984 391 -311 107
-303 93 12 -24 251 -93 388 -146 509 -198 261 -111 371 -162 371 -170 0 -4
-26 4 -57 18 -32 14 -119 50 -193 80 -74 31 -144 60 -155 65 -51 23 -587 191
-745 234 -8 3 -53 15 -100 29 -47 13 -98 27 -115 29 -107 18 -103 13 10 -16
72 -18 171 -48 220 -66 50 -19 191 -66 315 -105 238 -76 450 -154 450 -166 0
-14 -66 -27 -91 -17 -76 29 -573 137 -754 164 -16 2 -55 8 -85 13 -30 5 -77
12 -105 15 -27 4 -61 8 -75 10 -14 2 -47 6 -75 9 -42 5 -38 3 25 -13 69 -17
330 -68 390 -76 108 -15 566 -118 579 -131 7 -6 1 -5 -96 15 -49 11 -110 23
-134 26 -24 4 -66 11 -94 16 -27 5 -124 21 -215 35 -91 13 -176 27 -190 29
-14 3 -65 12 -115 20 -49 8 -102 17 -117 20 -16 3 -40 7 -55 10 -179 33 -473
74 -468 64 3 -3 39 -12 82 -18 43 -7 159 -28 258 -46 99 -19 191 -36 205 -39
14 -2 86 -15 160 -29 74 -14 167 -31 205 -37 107 -17 347 -58 370 -63 11 -3
39 -8 63 -12 51 -8 47 -24 -5 -19 -56 6 -215 26 -238 30 -20 4 -62 9 -153 19
-26 3 -63 7 -82 10 -19 2 -64 7 -100 10 -36 3 -78 7 -95 9 -16 2 -68 7 -115
10 -47 4 -105 9 -130 11 -85 8 -229 18 -455 31 -66 3 -130 7 -142 9 -13 1 -23
-1 -23 -5 0 -4 30 -11 67 -15 38 -3 79 -8 93 -10 14 -2 57 -6 95 -10 39 -3 88
-8 110 -10 22 -3 78 -7 125 -10 47 -4 101 -8 120 -10 19 -1 71 -6 115 -10 44
-4 94 -9 110 -10 17 -2 68 -6 115 -10 47 -3 92 -8 100 -10 8 -2 47 -6 85 -10
39 -3 81 -8 95 -10 26 -4 102 -14 155 -20 59 -7 186 -28 183 -30 -2 -1 -35 -5
-74 -8 -39 -4 -100 -13 -135 -21 -36 -9 -76 -14 -89 -11 -14 2 -54 9 -90 15
-82 15 -83 15 -327 50 -82 12 -159 23 -173 26 -14 2 -65 6 -115 9 -142 8 -243
16 -262 19 -10 2 -45 7 -78 10 -33 4 -71 9 -85 11 -23 4 -78 9 -210 21 -30 2
-78 8 -107 13 -29 4 -50 5 -48 1 3 -4 21 -10 42 -13 21 -3 65 -11 98 -16 53
-10 231 -33 340 -46 54 -6 145 -14 235 -20 123 -9 182 -16 365 -45 72 -12 141
-23 155 -25 24 -3 110 -18 120 -20 3 0 28 -4 55 -8 104 -16 218 -60 300 -115
98 -66 92 -61 76 -72 -41 -25 -106 -22 -287 14 -12 2 -39 7 -60 10 -22 4 -172
33 -334 66 -162 32 -311 62 -330 65 -19 3 -43 8 -52 11 -9 3 -32 7 -50 9 -18
2 -69 10 -113 18 -44 8 -105 18 -135 22 -30 3 -72 10 -92 15 -21 4 -38 4 -38
0 0 -7 20 -12 100 -26 61 -11 301 -60 610 -125 184 -39 391 -81 459 -94 111
-21 140 -33 141 -57 0 -5 -6 -8 -14 -8 -25 0 -399 69 -576 106 -205 42 -174
36 -325 63 -66 12 -142 26 -168 31 -27 6 -58 10 -70 9 -39 -1 9 -14 283 -71
126 -26 112 -23 305 -64 387 -81 389 -82 450 -90 57 -7 114 -22 90 -23 -11 0
-63 5 -115 13 -52 8 -120 17 -150 21 -30 3 -66 8 -80 10 -14 3 -41 7 -60 9
-19 3 -60 10 -90 16 -69 14 -177 24 -170 17 3 -3 32 -10 65 -16 33 -6 110 -20
170 -31 61 -11 128 -23 150 -26 22 -2 52 -7 68 -9 15 -3 39 -7 55 -9 15 -3 45
-7 67 -11 22 -3 54 -7 70 -10 17 -2 48 -6 70 -10 22 -3 54 -8 70 -11 17 -3 55
-9 85 -14 30 -6 67 -11 82 -12 16 -1 28 -6 28 -11 0 -5 -12 -6 -28 -3 -15 3
-52 8 -82 11 -80 9 -352 45 -381 50 -13 3 -59 9 -102 15 -43 5 -82 12 -88 15
-5 4 -9 2 -9 -4 0 -10 102 -33 200 -46 16 -2 91 -15 125 -21 11 -2 42 -6 70
-10 27 -3 52 -7 55 -9 3 -1 39 -6 80 -10 41 -4 78 -9 82 -11 4 -3 81 -7 170
-9 136 -3 177 -8 248 -29 87 -25 163 -40 260 -51 30 -4 57 -9 59 -11 2 -2 -13
-11 -35 -20 -42 -18 -163 -22 -292 -9 -77 7 -290 42 -342 55 -19 5 -51 12 -70
15 -86 15 -588 117 -615 126 -16 5 -102 27 -190 48 -88 22 -168 43 -177 46
-10 4 -18 5 -18 2 0 -21 413 -132 785 -212 94 -19 188 -40 210 -45 56 -14 251
-49 305 -55 25 -3 56 -7 70 -10 14 -3 99 -6 190 -6 156 0 197 -5 263 -32 35
-15 35 -24 0 -21 -121 9 -204 16 -238 20 -46 5 -93 10 -185 19 -36 4 -76 8
-90 10 -14 2 -50 6 -80 10 -30 3 -91 10 -135 16 -135 16 -148 18 -220 23 -38
3 -63 3 -55 1 13 -3 236 -39 310 -50 29 -4 108 -16 130 -20 8 -1 42 -6 75 -9
33 -4 74 -9 90 -12 54 -8 99 -13 170 -20 39 -3 81 -8 95 -10 14 -3 102 -7 195
-9 97 -2 193 -10 224 -18 78 -20 156 -15 294 20 68 17 70 17 160 -6 104 -27
263 -89 386 -150 99 -50 396 -250 606 -407 171 -128 170 -128 325 -273 63 -59
144 -134 179 -167 90 -83 149 -141 200 -199 56 -62 224 -246 271 -295 70 -73
187 -204 264 -294 22 -27 46 -54 51 -60 6 -6 30 -36 55 -66 25 -30 49 -60 55
-67 5 -7 15 -18 20 -25 19 -25 209 -253 220 -264 5 -6 33 -37 60 -69 28 -32
55 -63 60 -69 20 -21 131 -161 153 -194 22 -30 27 -32 84 -32 54 0 59 2 52 17
-4 10 -37 97 -74 193 -37 96 -90 233 -117 305 -28 72 -58 155 -68 185 -9 30
-19 62 -21 70 -3 8 -3 12 0 9 16 -16 209 -316 241 -374 69 -128 88 -159 168
-283 l79 -122 159 0 c88 0 159 3 159 8 0 4 -5 25 -10 47 -5 22 -11 60 -15 85
-3 25 -8 52 -10 60 -4 15 -9 58 -21 175 -7 77 -11 104 -30 193 -18 91 -19 112
-10 287 3 77 9 194 12 260 2 66 7 138 9 160 2 22 7 74 10 115 3 41 8 89 10
105 3 17 7 46 10 65 14 112 36 210 95 430 85 318 144 572 159 690 18 135 20
153 36 438 11 185 17 278 20 302 2 14 7 54 10 90 4 36 9 74 11 85 2 10 6 37
10 59 9 62 41 140 106 253 82 143 98 199 102 353 2 90 7 136 19 164 20 46 16
58 -8 22 -32 -48 -43 -99 -44 -210 -2 -79 -7 -125 -21 -164 -19 -53 -78 -140
-122 -178 -20 -18 -21 -18 -15 -1 18 48 116 475 134 582 4 23 63 283 88 385 2
8 24 91 49 185 24 93 43 171 41 173 -14 14 -127 -414 -210 -798 -47 -217 -141
-565 -176 -652 -12 -29 -36 -103 -54 -164 -79 -265 -145 -438 -171 -448 -8 -3
-14 0 -14 7 1 32 69 208 97 253 20 30 41 84 53 135 11 46 23 95 27 109 3 14 7
30 8 35 6 26 160 590 182 665 13 47 26 92 28 100 2 8 12 51 24 96 21 83 47
200 56 256 3 18 8 44 10 58 12 57 16 81 34 195 11 66 23 143 27 170 3 28 8 59
10 70 6 32 16 98 19 130 2 17 4 30 5 30 1 0 3 11 5 25 2 14 27 134 54 268 28
133 51 250 50 260 -2 43 -98 -403 -148 -688 -11 -63 -23 -131 -26 -150 -4 -19
-8 -48 -10 -65 -4 -25 -56 -303 -71 -371 -4 -24 -41 -164 -104 -399 -22 -82
-45 -172 -51 -198 -8 -34 -14 -46 -22 -38 -7 7 -7 14 1 24 6 7 11 22 11 32 0
20 42 245 62 335 6 25 12 52 14 60 2 8 17 71 33 140 30 124 46 204 76 375 20
111 20 111 50 270 26 140 41 243 33 235 -4 -4 -51 -228 -63 -300 -3 -14 -9
-48 -15 -76 -5 -28 -12 -64 -15 -80 -11 -64 -75 -351 -84 -379 -7 -24 -8 -20
-4 25 3 30 7 66 9 80 4 27 11 81 20 170 3 30 8 71 10 90 2 19 9 82 15 140 6
58 13 121 15 140 2 19 7 60 10 90 3 30 8 71 10 90 3 19 7 55 10 80 2 25 7 61
10 80 2 19 7 55 10 80 4 25 8 56 10 70 2 14 7 45 10 70 3 25 8 52 10 60 2 8 6
35 9 60 3 25 17 113 31 195 14 83 28 170 32 195 3 25 13 89 22 143 10 54 14
94 11 90 -6 -7 -23 -80 -36 -163 -3 -14 -7 -36 -9 -50 -11 -55 -16 -78 -30
-160 -22 -122 -23 -131 -30 -175 -3 -22 -7 -47 -10 -55 -2 -8 -6 -37 -10 -63
-3 -26 -10 -71 -16 -100 -6 -29 -13 -74 -16 -101 -9 -82 -22 -109 -18 -36 3
36 7 75 9 87 3 11 7 43 11 70 4 26 13 86 20 133 8 47 16 101 19 120 2 19 14
97 26 174 11 76 19 140 17 143 -4 4 -22 -77 -33 -152 -3 -22 -10 -59 -15 -83
-5 -23 -11 -57 -14 -75 -2 -17 -9 -65 -15 -105 -5 -39 -13 -91 -15 -115 -3
-23 -7 -49 -10 -57 -2 -8 -6 -40 -10 -70 -3 -30 -8 -71 -10 -90 -3 -19 -7 -53
-9 -75 -7 -54 -35 -259 -43 -315 -4 -25 -7 -56 -8 -70 -1 -14 -5 -45 -8 -70
-4 -25 -11 -84 -17 -132 -18 -153 -21 -172 -41 -268 -11 -52 -30 -142 -42
-200 -12 -58 -23 -98 -25 -89 -2 9 7 63 18 120 12 57 24 115 26 129 3 14 7 32
9 40 6 20 12 59 25 160 6 47 13 98 16 114 3 16 7 57 9 90 3 33 7 76 9 96 3 19
8 64 12 100 3 36 7 67 9 70 2 3 6 55 9 115 6 102 11 171 21 315 3 30 7 75 10
100 3 25 8 61 10 80 3 19 7 62 11 95 4 33 8 63 11 68 2 4 -1 7 -6 7 -6 0 -11
-8 -12 -17 0 -10 -2 -27 -4 -38 -1 -11 -6 -47 -10 -80 -4 -33 -9 -73 -11 -90
-4 -34 -12 -109 -18 -175 -3 -25 -7 -65 -10 -90 -3 -25 -8 -70 -11 -100 -13
-146 -23 -241 -30 -300 -3 -19 -7 -57 -10 -85 -10 -89 -16 -139 -25 -210 -6
-38 -12 -86 -15 -105 -14 -111 -22 -129 -53 -130 -10 0 -9 6 2 28 34 66 49
148 61 327 4 50 8 113 10 140 2 28 7 86 10 130 4 44 8 94 9 110 6 52 17 159
21 185 6 46 15 174 20 285 10 222 22 380 40 498 3 18 7 48 9 67 3 19 14 85 25
145 11 61 20 117 20 125 -1 14 -33 -115 -42 -170 -3 -14 -10 -52 -15 -85 -12
-66 -16 -90 -31 -210 -15 -118 -24 -213 -36 -400 -3 -49 -8 -106 -10 -125 -2
-19 -7 -66 -10 -105 -3 -38 -8 -83 -10 -100 -2 -16 -6 -64 -10 -105 -3 -41 -8
-86 -10 -100 -5 -34 -14 -148 -20 -244 -2 -54 -9 -84 -19 -95 -15 -14 -16 -13
-17 14 0 17 -2 37 -3 45 -7 34 -19 147 -18 175 0 17 7 73 16 125 9 52 18 120
21 150 3 30 8 71 10 90 3 19 7 94 10 165 3 72 8 153 10 180 2 28 7 93 10 145
3 52 8 106 10 120 2 14 7 54 10 90 7 72 44 336 50 360 3 8 7 33 10 55 4 22 9
49 12 60 4 11 7 27 8 35 1 8 12 53 25 100 23 89 38 179 21 130 -43 -124 -131
-513 -147 -650 -3 -30 -8 -58 -10 -61 -1 -3 -6 -28 -9 -55 -4 -27 -8 -56 -10
-64 -3 -8 -7 -40 -10 -70 -3 -30 -8 -62 -10 -70 -2 -8 -7 -44 -10 -80 -4 -36
-8 -72 -10 -80 -2 -8 -6 -44 -10 -80 -3 -36 -8 -76 -10 -90 -2 -14 -7 -50 -10
-80 -3 -30 -8 -66 -10 -80 -2 -14 -7 -54 -10 -90 -4 -36 -9 -72 -10 -80 -2 -8
-6 -42 -10 -75 -5 -43 -13 -67 -33 -90 l-27 -30 0 80 c0 63 -7 102 -34 188
-33 103 -34 110 -22 170 53 270 88 495 107 692 4 39 8 81 9 95 2 14 6 52 9 85
4 33 9 71 11 85 3 14 7 48 11 75 3 28 16 108 29 178 22 126 20 160 -3 62 -14
-55 -16 -65 -37 -180 -21 -114 -24 -133 -31 -195 -3 -30 -8 -64 -10 -75 -2
-11 -7 -44 -10 -74 -3 -30 -7 -62 -9 -70 -1 -9 -6 -45 -10 -81 -11 -102 -31
-249 -39 -296 -2 -10 -9 -56 -16 -101 -8 -46 -17 -83 -21 -83 -3 0 -3 19 1 43
5 23 11 69 15 102 3 33 8 74 10 90 6 46 24 203 30 270 3 33 8 71 10 85 2 14 6
52 10 85 3 33 8 77 11 98 2 20 6 56 9 80 3 23 7 53 10 67 3 14 7 42 9 62 2 20
7 45 10 55 2 10 7 34 10 53 3 19 8 46 11 60 14 63 25 124 25 138 0 25 -8 9
-15 -28 -9 -47 -13 -65 -15 -65 -2 0 -9 -32 -14 -65 -3 -14 -9 -45 -15 -70
-10 -45 -47 -254 -57 -320 -3 -19 -7 -46 -9 -60 -3 -14 -7 -45 -10 -70 -3 -25
-7 -61 -10 -80 -2 -19 -7 -60 -10 -90 -7 -63 -9 -79 -30 -255 -38 -314 -69
-412 -60 -190 3 77 7 149 9 160 3 17 15 132 21 200 2 21 14 105 20 133 1 10 8
52 15 95 14 91 14 94 35 212 9 50 18 103 20 118 11 74 16 105 19 124 3 12 7
43 10 70 5 41 -34 -120 -48 -197 -2 -14 -13 -68 -24 -120 -11 -52 -23 -111
-25 -130 -3 -19 -17 -109 -31 -200 -14 -91 -28 -196 -32 -235 -4 -38 -8 -83
-10 -100 -2 -16 -6 -88 -10 -160 -6 -117 -9 -131 -28 -144 -88 -61 -121 -141
-121 -293 0 -92 -2 -105 -14 -93 -9 9 -14 36 -14 77 -1 64 10 255 18 318 2 19
7 59 10 89 4 30 9 63 11 75 2 12 7 35 10 51 3 17 14 71 25 120 11 50 22 98 24
108 2 10 9 32 14 50 6 18 24 79 41 137 16 58 52 181 80 274 27 94 48 172 45
174 -3 4 -81 -235 -116 -356 -7 -23 -14 -41 -16 -39 -2 2 12 66 31 143 48 195
88 379 101 464 9 62 -12 10 -26 -65 -7 -38 -14 -72 -14 -75 -30 -139 -65 -276
-166 -635 -33 -119 -78 -327 -84 -390 -3 -33 -8 -76 -10 -95 -6 -44 -13 -146
-20 -277 -3 -58 -13 -119 -22 -140 -8 -21 -19 -78 -23 -128 -5 -58 -7 9 -4
185 2 151 6 289 8 305 2 17 7 68 11 115 4 47 9 99 11 115 2 17 6 53 9 80 3 28
8 61 10 75 2 14 7 50 10 80 4 30 13 96 20 145 8 50 17 110 20 135 4 25 20 126
36 224 30 183 37 262 18 201 -5 -16 -11 -43 -14 -60 -23 -153 -37 -231 -49
-290 -28 -133 -58 -321 -72 -445 -3 -30 -7 -57 -9 -60 -2 -3 -6 -39 -10 -80
-4 -41 -8 -82 -10 -90 -2 -8 -6 -49 -10 -90 -3 -41 -8 -82 -10 -90 -2 -8 -7
-55 -10 -105 -3 -49 -8 -99 -10 -110 -2 -11 -4 -33 -4 -49 -1 -24 -3 -27 -16
-16 -12 10 -15 28 -11 84 3 39 8 114 11 166 8 122 15 201 20 220 2 8 7 49 10
90 3 41 8 86 10 100 5 26 10 73 20 170 3 30 7 69 9 85 2 17 7 66 10 110 l5 80
-18 -105 c-17 -96 -22 -128 -36 -245 -13 -104 -26 -203 -30 -230 -2 -16 -7
-57 -10 -90 -4 -33 -8 -73 -10 -90 -2 -16 -6 -57 -10 -90 -3 -33 -8 -73 -10
-90 -2 -16 -7 -57 -10 -90 -4 -33 -10 -61 -14 -63 -4 -1 -5 -17 -3 -34 3 -22
1 -29 -7 -24 -15 10 -10 69 25 326 3 25 10 63 15 85 5 22 8 51 8 65 0 14 -7
-6 -16 -45 -8 -38 -19 -74 -24 -80 -7 -7 -8 -5 -5 5 3 8 7 62 11 120 3 58 7
148 10 200 13 223 13 245 5 217 -8 -26 -28 -217 -35 -337 -19 -311 -24 -380
-41 -540 -9 -86 -13 -123 -18 -150 -3 -14 -7 -52 -10 -85 -7 -76 -10 -93 -19
-101 -3 -4 -4 4 -2 17 2 13 6 103 10 199 3 96 8 200 10 230 2 30 7 96 10 145
4 50 8 104 10 120 2 17 7 64 10 105 3 41 8 93 10 115 2 22 7 67 10 100 10 116
16 171 26 250 6 44 13 98 15 120 3 22 7 51 9 64 2 12 7 60 11 105 7 83 1 103
-9 31 -4 -22 -13 -76 -21 -120 -15 -83 -25 -138 -31 -190 -2 -16 -7 -52 -11
-80 -3 -27 -8 -58 -10 -68 -2 -10 -6 -58 -9 -105 -4 -48 -8 -89 -10 -93 -7
-11 -21 -184 -30 -389 -2 -36 -6 -123 -9 -195 -4 -71 -9 -170 -11 -219 -3 -49
-7 -193 -10 -320 -5 -219 -11 -352 -20 -441 -9 -81 -14 -132 -20 -220 -4 -49
-9 -106 -11 -125 -10 -75 -12 -518 -3 -570 5 -30 9 -68 10 -85 2 -32 -11 -196
-17 -230 -5 -25 -5 -275 0 -335 8 -94 18 -186 21 -200 2 -8 7 -44 10 -80 3
-36 15 -119 25 -185 10 -66 22 -140 25 -165 3 -25 8 -58 11 -75 3 -16 7 -43 9
-60 2 -16 6 -51 9 -77 7 -57 13 -111 21 -193 3 -33 10 -100 15 -150 5 -49 12
-117 15 -150 9 -96 23 -183 44 -285 40 -187 130 -514 221 -800 67 -211 100
-325 100 -350 0 -13 -202 263 -344 469 -74 106 -221 393 -360 699 -26 57 -65
140 -87 185 -49 99 -73 175 -93 287 -8 47 -18 99 -21 115 -3 17 -12 68 -20
115 -8 47 -17 96 -20 110 -6 31 -25 128 -30 155 -3 18 -29 173 -41 250 -3 17
-21 108 -40 204 -41 201 -41 198 -54 271 -6 30 -12 66 -15 80 -7 32 -33 192
-40 245 -3 22 -8 58 -12 80 -3 22 -7 119 -8 215 -1 152 2 189 22 275 12 55 22
116 21 135 -1 22 10 55 29 90 17 30 38 91 48 135 10 44 33 145 52 225 34 144
77 346 88 406 39 235 49 302 60 409 7 75 45 381 50 415 7 38 27 181 30 217 2
17 8 57 14 90 5 32 13 81 16 108 3 28 10 77 15 110 5 33 12 80 15 105 3 25 11
72 16 105 19 105 20 113 9 90 -8 -17 -44 -196 -55 -275 -2 -14 -8 -50 -14 -80
-15 -77 -20 -106 -31 -180 -18 -108 -19 -113 -25 -160 -3 -25 -8 -57 -11 -71
-6 -37 -16 -126 -29 -244 -3 -27 -8 -61 -10 -75 -2 -14 -7 -54 -10 -90 -13
-132 -47 -358 -65 -429 -9 -35 -5 224 4 294 2 17 7 59 11 95 4 36 8 72 10 80
1 8 6 51 9 95 4 44 9 96 11 115 5 41 12 142 20 290 3 58 8 132 10 165 9 135
17 420 11 414 -3 -3 -8 -41 -11 -85 -3 -43 -7 -99 -10 -124 -2 -25 -7 -106
-10 -180 -4 -74 -8 -155 -10 -180 -2 -25 -6 -86 -10 -137 -3 -50 -7 -100 -9
-110 -2 -10 -7 -54 -11 -97 -4 -43 -8 -87 -10 -97 -2 -10 -7 -53 -10 -96 -4
-43 -8 -89 -10 -103 -2 -14 -7 -59 -10 -100 -10 -124 -12 -141 -17 -145 -2 -3
-19 9 -37 25 -21 19 -30 36 -27 48 3 9 8 37 11 62 3 25 8 56 10 70 2 14 7 52
10 85 3 33 8 71 10 85 2 14 7 59 10 100 4 41 8 89 10 105 2 17 7 64 10 105 3
41 8 86 10 100 2 14 7 57 10 95 4 39 8 81 10 95 12 78 35 264 40 320 3 36 8
85 11 110 2 25 6 81 9 125 4 76 11 165 20 265 2 25 7 78 10 119 3 41 8 78 11
83 3 4 1 8 -4 8 -5 0 -13 -26 -17 -57 -3 -32 -8 -69 -10 -83 -3 -23 -11 -82
-20 -150 -2 -14 -6 -54 -9 -90 -10 -100 -16 -162 -21 -200 -2 -19 -7 -69 -10
-110 -3 -41 -8 -91 -10 -110 -3 -19 -9 -84 -15 -145 -13 -135 -19 -188 -25
-240 -10 -87 -14 -123 -20 -185 -3 -36 -8 -83 -10 -105 -3 -22 -7 -67 -10
-100 -3 -33 -8 -80 -11 -105 -11 -92 -13 -106 -19 -165 -9 -76 -18 -96 -33
-68 -11 20 -9 53 8 108 12 41 22 157 25 290 2 102 8 231 21 430 6 94 11 201
19 380 3 72 7 162 10 200 2 39 7 133 11 210 9 188 11 223 19 345 4 58 5 103 2
100 -3 -3 -8 -35 -11 -70 -3 -36 -8 -78 -10 -95 -2 -16 -7 -77 -11 -135 -3
-58 -8 -121 -10 -140 -2 -19 -6 -91 -10 -160 -4 -69 -8 -147 -10 -175 -2 -27
-6 -108 -10 -180 -11 -218 -23 -441 -30 -570 -2 -27 -3 -76 -4 -109 -1 -51 -3
-57 -16 -46 -18 15 -20 34 -3 24 8 -5 9 -2 2 12 -12 27 -7 278 11 434 10 92
16 162 20 235 2 44 7 123 10 175 6 115 13 272 21 480 3 85 7 172 9 193 2 20 1
37 -4 37 -4 0 -8 -6 -8 -12 -1 -27 -14 -205 -18 -248 -2 -25 -7 -112 -10 -195
-3 -82 -8 -179 -10 -215 -12 -155 -15 -202 -26 -320 -5 -69 -12 -138 -14 -155
-5 -42 -18 -252 -19 -297 0 -41 -7 -46 -29 -24 -12 13 -13 26 -1 98 8 46 16
103 19 128 3 25 8 61 10 80 9 65 23 222 30 335 16 254 24 750 12 762 -4 3 -8
-43 -8 -103 -1 -60 -3 -125 -4 -144 -1 -19 -6 -111 -9 -205 -4 -93 -9 -186
-11 -205 -1 -19 -6 -75 -10 -125 -4 -49 -8 -103 -10 -120 -2 -16 -6 -55 -10
-85 -3 -30 -8 -66 -10 -80 -2 -14 -7 -50 -10 -80 -13 -111 -15 -124 -22 -131
-5 -5 -9 15 -9 44 -1 29 -3 84 -4 122 -1 39 5 99 13 135 29 121 31 167 42 930
4 234 8 458 8 498 1 41 -1 76 -4 78 -3 1 -6 -2 -6 -9 -6 -125 -14 -376 -19
-577 -15 -647 -24 -799 -53 -920 l-9 -35 -2 30 c-3 40 1 211 5 255 3 31 11
154 20 310 2 30 6 240 10 465 3 226 8 451 10 500 13 259 17 409 12 404 -4 -3
-9 -43 -12 -90 -3 -46 -7 -118 -10 -159 -4 -74 -10 -244 -20 -595 -3 -99 -7
-223 -10 -275 -2 -52 -7 -151 -10 -220 -5 -119 -9 -182 -20 -348 -4 -62 -25
-132 -39 -132 -2 0 2 20 10 45 18 62 31 697 19 995 -1 47 -4 165 -6 262 -6
344 -14 160 -16 -360 -1 -290 -3 -535 -4 -544 -5 -37 -16 -16 -27 55 -18 104
-25 109 -55 46 l-25 -54 -1 45 c-1 39 -7 83 -27 215 -7 50 -6 154 3 167 4 7 8
42 9 78 1 36 4 97 8 135 4 39 9 94 11 124 4 56 15 184 21 236 5 52 15 237 18
323 4 124 -11 75 -18 -58 -11 -219 -18 -285 -28 -295 -7 -7 -9 -7 -5 0 5 10
10 81 23 314 3 58 7 108 10 112 2 4 0 10 -6 14 -6 4 -10 -11 -11 -37 -1 -24
-3 -52 -4 -63 -1 -11 -5 -60 -9 -110 -4 -49 -9 -106 -11 -125 -2 -19 -7 -78
-10 -130 -4 -52 -8 -102 -10 -110 -2 -8 -6 -67 -10 -130 -4 -63 -9 -123 -11
-133 -1 -10 -4 -50 -5 -90 l-2 -72 -54 -55 c-79 -80 -114 -158 -120 -265 l-6
-85 -25 37 c-14 21 -38 52 -53 70 l-27 32 3 223 c2 123 6 246 9 273 2 28 7 84
11 126 3 42 8 87 10 100 3 13 7 40 9 59 14 106 19 136 23 143 2 4 0 7 -5 7 -6
0 -14 -24 -18 -52 -4 -29 -8 -55 -9 -58 -1 -3 -5 -30 -10 -60 -5 -30 -9 -57
-10 -60 -4 -19 -15 -103 -20 -145 -14 -147 -17 -193 -17 -334 0 -152 0 -154
-18 -130 -19 24 -20 24 -33 -21 -2 -8 -4 267 -3 613 1 345 0 627 -1 627 -2 0
-3 -21 -4 -47z m-97 -1658 c3 -14 2 -25 -2 -25 -4 0 -10 11 -12 25 -3 14 -2
25 2 25 4 0 10 -11 12 -25z m6 -66 c-3 -8 -7 -3 -11 10 -4 17 -3 21 5 13 5 -5
8 -16 6 -23z m49 -201 c-2 -13 -4 -5 -4 17 -1 22 1 32 4 23 2 -10 2 -28 0 -40z
m2070 -165 c-3 -10 -5 -4 -5 12 0 17 2 24 5 18 2 -7 2 -21 0 -30z m437 -148
c-4 -8 -8 -15 -10 -15 -2 0 -4 7 -4 15 0 8 4 15 10 15 5 0 7 -7 4 -15z m-2999
-692 c9 -18 23 -65 31 -103 8 -38 23 -106 34 -151 11 -46 18 -84 16 -86 -2 -2
-15 6 -29 19 -20 18 -36 61 -76 203 -28 99 -51 184 -51 188 0 17 61 -39 75
-70z m1395 -91 c0 -16 -42 13 -59 41 -9 14 -5 13 24 -5 19 -13 35 -29 35 -36z
m-1557 -12 c3 -11 1 -18 -4 -14 -5 3 -9 12 -9 20 0 20 7 17 13 -6z m660 -1646
c31 -32 59 -72 63 -89 10 -47 52 -125 102 -190 49 -63 32 -57 -28 9 -19 22
-52 58 -72 80 -20 23 -52 65 -70 94 -18 28 -59 89 -92 135 -62 87 -106 170
-106 201 0 11 30 -21 73 -80 41 -55 99 -127 130 -160z m616 149 c15 -86 19
-113 26 -168 3 -27 7 -57 10 -65 2 -8 6 -33 10 -55 3 -22 14 -87 25 -145 11
-58 22 -118 25 -135 10 -58 45 -250 50 -275 7 -37 46 -251 51 -280 8 -44 75
-384 81 -405 l5 -20 -14 20 c-39 54 -297 687 -332 815 -8 29 -12 95 -10 185 3
118 7 148 25 190 20 44 22 67 23 241 1 191 5 209 25 97z m-700 -178 c54 -82
109 -163 122 -179 62 -76 115 -133 141 -151 16 -11 33 -37 40 -58 6 -21 23
-49 37 -63 34 -34 113 -74 164 -82 50 -9 42 6 157 -282 50 -124 95 -234 100
-245 5 -11 19 -45 31 -75 11 -30 26 -66 32 -80 6 -14 11 -27 12 -30 1 -3 7
-16 12 -30 20 -45 133 -323 183 -445 26 -66 51 -135 54 -154 l6 -34 -33 44
c-64 84 -347 520 -347 534 0 8 -106 163 -153 225 -27 35 -52 71 -55 80 -3 8
-29 58 -57 110 -29 52 -69 127 -90 165 -21 39 -72 131 -115 205 -43 74 -104
182 -136 240 -32 58 -98 175 -146 260 -93 162 -105 189 -93 217 8 22 3 30 134
-172z m2295 -58 c0 -94 -4 -203 -8 -242 -16 -154 -16 -159 -31 -290 -7 -62
-45 -278 -51 -286 -2 -4 -6 -23 -9 -42 -4 -20 -33 -143 -66 -273 -32 -130 -61
-248 -64 -263 -20 -117 -33 -224 -40 -323 -3 -42 -8 -91 -10 -110 -4 -32 -13
-114 -20 -188 -2 -19 -4 -66 -4 -104 -1 -38 -3 -67 -5 -65 -7 7 -34 152 -41
219 -3 36 -8 81 -10 100 -2 19 -6 58 -9 85 -3 28 -10 93 -16 145 -5 53 -12
125 -15 160 -3 36 -8 83 -10 105 -19 180 -24 504 -11 660 25 312 25 312 99
346 70 31 149 112 165 170 7 24 35 87 61 139 27 52 58 125 71 163 12 37 22 67
23 67 1 0 2 -78 1 -173z m-798 38 c15 -90 117 -333 174 -415 9 -14 35 -61 58
-105 l40 -80 6 -150 c10 -233 28 -494 41 -575 2 -14 6 -65 10 -115 3 -49 8
-115 10 -145 3 -30 7 -86 10 -125 7 -93 22 -241 30 -295 2 -14 7 -50 10 -80 4
-30 9 -68 11 -85 2 -16 6 -50 9 -75 3 -25 9 -69 14 -98 8 -51 7 -82 -3 -144
-2 -15 4 -43 14 -63 10 -20 21 -61 25 -93 7 -67 14 -109 21 -137 4 -15 3 -17
-4 -5 -5 8 -33 92 -61 185 -29 94 -69 224 -90 290 -86 267 -111 362 -126 488
-3 20 -7 55 -10 77 -17 137 -24 202 -40 373 -4 49 -10 99 -21 192 -2 22 -7 51
-9 65 -3 14 -7 45 -10 70 -3 25 -7 56 -10 70 -8 41 -15 86 -20 131 -6 48 -27
181 -50 324 -8 50 -17 108 -21 130 -3 22 -10 60 -15 85 -14 69 -23 378 -10
360 5 -8 13 -33 17 -55z"/>
<path d="M5435 7981 c-3 -5 -2 -12 3 -15 5 -3 9 1 9 9 0 17 -3 19 -12 6z"/>
<path d="M5147 7701 c-3 -16 -9 -42 -13 -57 -4 -16 -3 -25 2 -21 4 4 9 13 10
20 1 7 5 29 9 50 4 20 5 37 2 37 -2 0 -7 -13 -10 -29z"/>
<path d="M4770 7689 c0 -16 4 -28 9 -25 8 5 3 56 -5 56 -2 0 -4 -14 -4 -31z"/>
<path d="M5541 7664 c0 -11 3 -14 6 -6 3 7 2 16 -1 19 -3 4 -6 -2 -5 -13z"/>
<path d="M5379 7638 c0 -13 -2 -32 -4 -43 -2 -11 -7 -42 -10 -70 -4 -27 -8
-61 -10 -75 -2 -14 -6 -63 -10 -110 -4 -47 -8 -96 -10 -110 -2 -14 -7 -59 -10
-100 -4 -41 -10 -94 -15 -117 -4 -24 -4 -43 0 -43 4 0 12 26 18 58 11 54 16
95 26 222 11 123 17 197 21 235 13 133 16 175 11 175 -3 0 -6 -10 -7 -22z"/>
<path d="M4770 7636 c0 -8 7 -17 16 -20 13 -5 14 -4 6 7 -7 8 -9 17 -5 20 3 4
1 7 -5 7 -7 0 -12 -6 -12 -14z"/>
<path d="M5538 7610 c-3 -16 -1 -30 4 -30 4 0 8 14 8 30 0 17 -2 30 -4 30 -2
0 -6 -13 -8 -30z"/>
<path d="M5802 7055 c0 -16 2 -22 5 -12 2 9 2 23 0 30 -3 6 -5 -1 -5 -18z"/>
<path d="M5735 7039 c-4 -6 -5 -12 -2 -15 2 -3 7 2 10 11 7 17 1 20 -8 4z"/>
<path d="M5296 6945 c-9 -26 -7 -32 5 -12 6 10 9 21 6 23 -2 3 -7 -2 -11 -11z"/>
<path d="M6175 6790 c-3 -5 -1 -10 4 -10 6 0 11 5 11 10 0 6 -2 10 -4 10 -3 0
-8 -4 -11 -10z"/>
<path d="M6170 6763 c-1 -5 -3 -44 -5 -88 -3 -63 -2 -71 5 -39 13 62 18 134 8
134 -4 0 -8 -3 -8 -7z"/>
<path d="M3941 6441 c-2 -35 26 -138 59 -223 40 -101 37 -77 -9 76 -22 72 -42
140 -44 151 -4 17 -5 16 -6 -4z"/>
<path d="M5975 6430 c-3 -5 -1 -10 4 -10 6 0 11 5 11 10 0 6 -2 10 -4 10 -3 0
-8 -4 -11 -10z"/>
<path d="M7438 6290 c-3 -16 -1 -30 4 -30 4 0 8 14 8 30 0 17 -2 30 -4 30 -2
0 -6 -13 -8 -30z"/>
<path d="M3060 5454 c0 -5 7 -18 15 -28 8 -11 15 -16 15 -10 0 5 -7 18 -15 28
-8 11 -15 16 -15 10z"/>
<path d="M3090 5191 c0 -6 4 -13 10 -16 6 -3 7 1 4 9 -7 18 -14 21 -14 7z"/>
<path d="M125 3550 c-2 -3 15 -7 38 -9 23 -1 60 -6 82 -11 36 -8 55 -6 44 4
-7 8 -160 22 -164 16z"/>
<path d="M4090 3513 c0 -5 64 -41 143 -82 78 -40 183 -100 233 -132 99 -65
127 -76 74 -29 -48 41 -195 127 -315 184 -55 26 -108 52 -117 57 -10 5 -18 6
-18 2z"/>
<path d="M38 3493 c7 -3 16 -2 19 1 4 3 -2 6 -13 5 -11 0 -14 -3 -6 -6z"/>
<path d="M313 3343 c9 -2 25 -2 35 0 9 3 1 5 -18 5 -19 0 -27 -2 -17 -5z"/>
<path d="M478 3243 c7 -3 16 -2 19 1 4 3 -2 6 -13 5 -11 0 -14 -3 -6 -6z"/>
<path d="M958 3083 c7 -3 16 -2 19 1 4 3 -2 6 -13 5 -11 0 -14 -3 -6 -6z"/>
<path d="M3210 2110 c7 -13 57 -67 110 -120 99 -98 188 -206 397 -485 142
-189 179 -232 336 -387 210 -208 334 -293 857 -590 19 -11 64 -37 100 -58 179
-104 403 -199 505 -216 44 -7 286 -126 414 -203 82 -50 86 -51 160 -51 l76 0
-60 33 c-33 18 -112 66 -175 107 -137 87 -391 213 -475 235 -33 8 -94 35 -135
59 -41 23 -176 95 -301 158 -124 63 -252 132 -285 153 -54 34 -192 132 -204
145 -3 3 -48 41 -100 85 -52 44 -100 84 -106 90 -6 5 -39 35 -74 65 -180 155
-353 329 -526 530 -77 88 -162 172 -268 263 -12 10 -34 30 -51 45 -37 34 -117
98 -169 138 -39 28 -39 28 -26 4z"/>
</g>
</svg>
