<svg width="24" height="18" viewBox="0 0 24 18" fill="none" xmlns="http://www.w3.org/2000/svg">
<path d="M15.1535 17.6951C14.907 17.6951 14.6604 17.6043 14.4658 17.4097C14.0895 17.0334 14.0895 16.4106 14.4658 16.0343L21.6542 8.84592L14.4658 1.6576C14.0895 1.28132 14.0895 0.658499 14.4658 0.282214C14.8421 -0.0940713 15.4649 -0.0940713 15.8412 0.282214L23.7172 8.15823C24.0935 8.53452 24.0935 9.15733 23.7172 9.53362L15.8412 17.4097C15.6466 17.6043 15.4 17.6951 15.1535 17.6951Z" fill="#FF4000"/>
<path d="M22.8107 9.81935H0.973152C0.441162 9.81935 0 9.37819 0 8.8462C0 8.31421 0.441162 7.87305 0.973152 7.87305H22.8107C23.3427 7.87305 23.7838 8.31421 23.7838 8.8462C23.7838 9.37819 23.3427 9.81935 22.8107 9.81935Z" fill="#FF4000"/>
</svg>
