<svg width="24" height="18" viewBox="0 0 24 18" fill="none" xmlns="http://www.w3.org/2000/svg">
<path d="M8.8465 0.00019455C9.09303 0.00019455 9.33956 0.0910244 9.53419 0.285654C9.91048 0.66194 9.91048 1.28476 9.53419 1.66104L2.34584 8.84939L9.53419 16.0377C9.91048 16.414 9.91048 17.0368 9.53419 17.4131C9.15791 17.7894 8.53509 17.7894 8.15881 17.4131L0.282762 9.53708C-0.093524 9.1608 -0.093524 8.53798 0.282762 8.16169L8.15881 0.285654C8.35344 0.0910244 8.59997 0.00019455 8.8465 0.00019455Z" fill="#FF4000"/>
<path d="M1.18932 7.87596L23.0268 7.87596C23.5588 7.87596 24 8.31712 24 8.84911C24 9.3811 23.5588 9.82227 23.0268 9.82227L1.18932 9.82227C0.657331 9.82227 0.216169 9.3811 0.216169 8.84911C0.216169 8.31712 0.657331 7.87596 1.18932 7.87596Z" fill="#FF4000"/>
</svg>
