<svg width="22" height="23" viewBox="0 0 22 23" fill="none" xmlns="http://www.w3.org/2000/svg">
<path fill-rule="evenodd" clip-rule="evenodd" d="M5.76153 2.02148C3.14476 2.02148 1.02344 4.1428 1.02344 6.75958V17.2358C1.02344 19.8525 3.14476 21.9739 5.76153 21.9739H16.2377C18.8545 21.9739 20.9758 19.8525 20.9758 17.2358V6.75958C20.9758 4.1428 18.8545 2.02148 16.2377 2.02148H5.76153ZM0.0234375 6.75958C0.0234375 3.59052 2.59247 1.02148 5.76153 1.02148H16.2377C19.4068 1.02148 21.9758 3.59052 21.9758 6.75958V17.2358C21.9758 20.4048 19.4068 22.9739 16.2377 22.9739H5.76153C2.59247 22.9739 0.0234375 20.4048 0.0234375 17.2358V6.75958ZM11.5863 8.3016C10.8184 8.18773 10.0342 8.31889 9.34523 8.6764C8.65622 9.03392 8.09748 9.59958 7.74849 10.293C7.3995 10.9863 7.27802 11.7721 7.40135 12.5385C7.52467 13.3048 7.8865 14.0128 8.43539 14.5617C8.98428 15.1106 9.69226 15.4724 10.4586 15.5958C11.225 15.7191 12.0108 15.5976 12.7042 15.2486C13.3975 14.8996 13.9632 14.3409 14.3207 13.6519C14.6782 12.9629 14.8094 12.1787 14.6955 11.4108C14.5794 10.6276 14.2144 9.90248 13.6545 9.34259C13.0946 8.78271 12.3695 8.41774 11.5863 8.3016ZM8.88466 7.78878C9.76037 7.33439 10.7571 7.1677 11.733 7.31241C12.7284 7.46003 13.65 7.92389 14.3616 8.63549C15.0732 9.34708 15.5371 10.2687 15.6847 11.2641C15.8294 12.24 15.6627 13.2367 15.2083 14.1124C14.7539 14.9882 14.035 15.6983 13.1537 16.1418C12.2725 16.5854 11.2738 16.7398 10.2998 16.5831C9.32573 16.4263 8.4259 15.9664 7.72828 15.2688C7.03067 14.5712 6.57078 13.6714 6.41405 12.6973C6.25731 11.7233 6.4117 10.7246 6.85525 9.84336C7.29881 8.96211 8.00895 8.24317 8.88466 7.78878ZM16.7615 5.73577C16.4854 5.73577 16.2615 5.95963 16.2615 6.23577C16.2615 6.51191 16.4854 6.73577 16.7615 6.73577H16.7715C17.0477 6.73577 17.2715 6.51191 17.2715 6.23577C17.2715 5.95963 17.0477 5.73577 16.7715 5.73577H16.7615Z" fill="#F8EACA"/>
</svg>
